<?xml version="1.0" encoding="UTF-8"?>
<svg width="19px" height="22px" viewBox="0 0 19 22" version="1.1" xmlns="http://www.w3.org/2000/svg" xmlns:xlink="http://www.w3.org/1999/xlink">
    <!-- Generator: Sketch 60.1 (88133) - https://sketch.com -->
    <title>🔹Icon Color</title>
    <desc>Created with Sketch.</desc>
    <g id="mobile-📱" stroke="none" stroke-width="1" fill="none" fill-rule="evenodd">
        <g id="ba---numero-de-cliente---casuistica-" transform="translate(-222.000000, -481.000000)" fill="#FFFFFF">
            <g id="Group-12" transform="translate(16.000000, 234.000000)">
                <g id="Group-11">
                    <g id="Group-10" transform="translate(206.000000, 242.000000)">
                        <path d="M13,5 L2,5 C0.9,5 0,5.9 0,7 L0,20 C0,20.55 0.45,21 1,21 C1.55,21 2,20.55 2,20 L2,8 C2,7.45 2.45,7 3,7 L13,7 C13.55,7 14,6.55 14,6 C14,5.45 13.55,5 13,5 Z M13.59,9.59 L18.42,14.42 C18.79,14.79 19,15.3 19,15.83 L19,25 C19,26.1 18.1,27 17,27 L5.99,27 C4.89,27 4,26.1 4,25 L4.01,11 C4.01,9.9 4.9,9 6,9 L12.17,9 C12.7,9 13.21,9.21 13.59,9.59 Z M13,16 L17.5,16 L12,10.5 L12,15 C12,15.55 12.45,16 13,16 Z" id="🔹Icon-Color"></path>
                    </g>
                </g>
            </g>
        </g>
    </g>
</svg>