<?xml version="1.0" encoding="UTF-8"?>
<svg width="21px" height="21px" viewBox="0 0 21 21" version="1.1" xmlns="http://www.w3.org/2000/svg" xmlns:xlink="http://www.w3.org/1999/xlink">
    <!-- Generator: Sketch 60.1 (88133) - https://sketch.com -->
    <title>🔹 Icon Color</title>
    <desc>Created with Sketch.</desc>
    <g id="mobile-📱" stroke="none" stroke-width="1" fill="none" fill-rule="evenodd">
        <g id="Group-15" transform="translate(-25.000000, -25.000000)" fill="#FFFFFF">
            <g id="Group-4" transform="translate(16.000000, 16.000000)">
                <path d="M21.3183333,22.9866667 L22.9866667,21.3183333 L29.6716667,28.0033333 C30.1266667,28.4583333 30.1266667,29.205 29.6716667,29.6716667 C29.2166667,30.1266667 28.47,30.1266667 28.0033333,29.6716667 L21.3183333,22.9866667 L21.3183333,22.9866667 Z M26.3233333,16.3016667 L27.805,14.82 C28.8433333,13.7816667 28.7033333,11.985 27.4433333,11.2266667 C22.905,8.45 16.9083333,9.02166667 12.9766667,12.9416667 C17.5616667,11.425 22.6716667,12.65 26.3233333,16.3016667 Z M12.9416667,12.9766667 C9.02166667,16.9083333 8.45,22.905 11.215,27.4433333 C11.985,28.7033333 13.77,28.855 14.8083333,27.805 L16.29,26.3233333 C12.65,22.6716667 11.425,17.5616667 12.9416667,12.9766667 Z M12.965,12.9533333 L12.9533333,12.965 C12.51,16.4766667 14.3183333,20.9916667 17.97,24.655 L24.655,17.97 C21.0033333,14.3183333 16.4766667,12.51 12.965,12.9533333 Z" id="🔹-Icon-Color"></path>
            </g>
        </g>
    </g>
</svg>