<?xml version="1.0" encoding="UTF-8"?>
<svg width="65px" height="21px" viewBox="0 0 65 21" version="1.1" xmlns="http://www.w3.org/2000/svg" xmlns:xlink="http://www.w3.org/1999/xlink">
    <!-- Generator: Sketch 58 (84663) - https://sketch.com -->
    <title>Group 21</title>
    <desc>Created with Sketch.</desc>
    <g id="Sitio-personas---mobile" stroke="none" stroke-width="1" fill="none" fill-rule="evenodd">
        <g id="medio-de-pago" transform="translate(-236.000000, -390.000000)">
            <g id="Group-21" transform="translate(236.000000, 390.000000)">
                <polygon id="Fill-1" fill="#D8232A" points="9.09494702e-13 21 64.9457256 21 64.9457256 0 9.09494702e-13 0"></polygon>
                <path d="M9.93931412,4.08430909 C9.93931412,5.33310909 12.0417992,6.71910909 12.0417992,8.15169091 L11.9859742,8.43907273 C13.9553579,8.84685455 15.3498211,9.8252 15.3498211,10.9640364 C15.3498211,12.5022545 12.8612127,13.7614909 9.78489066,13.7720545 L9.72053678,13.7720545 C6.67845924,13.7720545 4.20703777,12.5550727 4.20703777,11.0210545 C4.20703777,9.88641818 5.70875746,8.95885455 7.53444334,8.4644 C7.53444334,9.09618182 9.6110835,11.095 9.66044732,11.9021636 L9.66897614,12.0542545 L9.66044732,12.1684182 C10.10666,11.9318182 10.10666,11.1964364 10.10666,11.1964364 C10.10666,9.44490909 8.08998012,8.66090909 8.08998012,6.93674545 C8.08998012,6.27123636 8.39895626,5.77894545 8.68854871,5.63945455 L8.68854871,6.11914545 C8.68854871,7.36998182 10.8661133,8.77087273 10.8661133,9.91390909 L10.8661133,10.2858 C11.3724155,10.0914545 11.3724155,9.15536364 11.3724155,9.15536364 C11.3724155,7.57705455 9.34500994,6.70230909 9.34500994,4.9 C9.34500994,4.22596364 9.66044732,3.73787273 9.93931412,3.59621818" id="Fill-17" fill="#FFFFFE"></path>
                <path d="M19.7756362,13.2946545 C18.7180616,13.2946545 17.9499503,12.9839818 17.9499503,12.9839818 L17.9499503,11.1182909 L18.2095626,11.1182909 C18.348996,12.1050364 19.086998,12.8593818 19.9407853,12.8593818 C20.7839761,12.8593818 21.3782803,12.3838909 21.3782803,11.6338727 C21.3782803,10.8372727 20.5929821,10.4717455 20.0588966,10.2096909 L19.3015109,9.8252 C18.5806958,9.45750909 17.9971173,8.87014545 17.9971173,8.03765455 C17.9971173,7.00445455 18.754503,6.11914545 20.2025944,6.11914545 C21.1980119,6.11914545 22.0175547,6.45081818 22.0175547,6.45081818 L22.0175547,8.12 L21.7601392,8.12 C21.6013221,7.23469091 21.1122068,6.53329091 20.1167893,6.53329091 C19.3787873,6.53329091 18.9433002,7.04454545 18.9433002,7.56852727 C18.9433002,8.24892727 19.4109642,8.54890909 19.9537078,8.83209091 L20.7174254,9.21670909 C21.403996,9.56950909 22.2599801,10.1548364 22.2599801,11.1583818 C22.2599801,12.4452364 21.3868091,13.2946545 19.7756362,13.2946545" id="Fill-18" fill="#FFFFFE"></path>
                <path d="M24.6905666,11.2598182 C24.4889761,11.3464909 24.1243042,11.5133455 24.1243042,11.9930364 C24.1243042,12.2465636 24.2744632,12.6628727 24.7807654,12.6628727 C25.0167296,12.6628727 25.3621471,12.5212182 25.6045726,12.3247091 L25.6045726,10.8647636 L24.6905666,11.2598182 Z M24.2959145,13.2522727 C23.6307952,13.2522727 23.197505,12.8086 23.197505,12.1472909 C23.197505,11.6697636 23.5449901,11.3084364 24.2959145,11.0316182 L25.6045726,10.5540909 L25.6045726,10.1399455 C25.6045726,9.51885455 25.3213121,9.1406 24.9008151,9.1406 C24.600497,9.1406 24.3129722,9.28429091 24.1607455,9.51885455 L24.0941948,9.83996364 L24.2057157,10.2033273 L23.5621769,10.4992364 C23.4806362,10.3533818 23.3863022,10.1484727 23.3863022,9.94343636 L23.3905666,9.83996364 C23.4399304,9.48283636 23.7467097,9.24623636 24.1542843,8.99690909 C24.55333,8.75178182 24.9008151,8.6842 25.1367793,8.6842 C26.3704871,8.6842 26.5764712,9.67094545 26.5764712,9.99001818 L26.5764712,12.0289273 C26.5764712,12.3585636 26.6085189,12.5634727 26.8745924,12.5634727 L27.1042247,12.5212182 L27.3422565,12.4472727 L27.3422565,12.7388545 L25.9777734,13.2522727 C25.7675249,13.1065455 25.6689264,12.8382545 25.6368787,12.6100545 C25.3127833,12.8867455 24.7593141,13.2522727 24.2959145,13.2522727 L24.2959145,13.2522727 Z" id="Fill-19" fill="#FFFFFE"></path>
                <path d="M27.6425746,13.1488 L27.6425746,12.9142364 L27.9643439,12.8593818 C28.1531412,12.8191636 28.2927038,12.6712727 28.2927038,12.4705636 L28.2927038,9.84632727 C28.2927038,9.61812727 28.1875149,9.50192727 27.9901889,9.50192727 L27.7712823,9.53781818 L27.6425746,9.59063636 L27.6425746,9.29269091 L29.0478926,8.6842 L29.2472863,8.6842 L29.2472863,9.41309091 C29.6786382,8.92716364 30.1826143,8.6842 30.628827,8.6842 C31.6199801,8.6842 32.1005666,9.40469091 32.1005666,10.2393455 L32.1005666,12.4705636 C32.1005666,12.6712727 32.2443936,12.8255273 32.4395229,12.8593818 L32.7765408,12.9142364 L32.7765408,13.1488 L30.4529523,13.1488 L30.4529523,12.9142364 L30.7791153,12.8593818 C30.9764414,12.8191636 31.1266004,12.6712727 31.1266004,12.4705636 L31.1266004,10.2455818 C31.1266004,9.954 31.0516501,9.29269091 30.2728131,9.29269091 C29.8459841,9.29269091 29.4855765,9.56110909 29.2687376,9.75965455 L29.2687376,12.4705636 C29.2687376,12.6712727 29.423161,12.8191636 29.6206163,12.8593818 L29.9381213,12.9142364 L29.9381213,13.1488 L27.6425746,13.1488" id="Fill-20" fill="#FFFFFE"></path>
                <path d="M36.1380616,9.28429091 L34.7716402,9.28429091 L34.7716402,11.7289455 C34.7716402,12.2676909 35.050507,12.5614364 35.4558847,12.5614364 C35.6298211,12.5614364 35.8893042,12.5149818 36.1380616,12.3775273 L36.2391153,12.6100545 L35.3637475,13.1741273 L35.0997416,13.2016182 C34.2524155,13.2016182 33.7953479,12.6966 33.7953479,11.6359091 L33.7953479,9.28429091 L33.0831909,9.28429091 L33.0831909,9.03916364 C33.0831909,9.03916364 34.1538171,8.62081818 34.5762525,7.60658182 L34.7716402,7.60658182 L34.7716402,8.86161818 L36.309672,8.86161818 L36.1380616,9.28429091" id="Fill-21" fill="#FFFFFE"></path>
                <path d="M38.1761928,11.2598182 C37.9702087,11.3464909 37.6163917,11.5133455 37.6163917,11.9930364 C37.6163917,12.2465636 37.7599602,12.6628727 38.2662624,12.6628727 C38.5022266,12.6628727 38.849841,12.5212182 39.094334,12.3247091 L39.094334,10.8647636 L38.1761928,11.2598182 Z M37.7814115,13.2522727 C37.1164215,13.2522727 36.6872664,12.8086 36.6872664,12.1472909 C36.6872664,11.6697636 37.0262227,11.3084364 37.7814115,11.0316182 L39.094334,10.5540909 L39.094334,10.1399455 C39.094334,9.51885455 38.8091352,9.1406 38.3843738,9.1406 C38.0883201,9.1406 37.7965308,9.28429091 37.6506362,9.51885455 L37.5754274,9.83996364 L37.6913419,10.2033273 L37.0434095,10.4992364 C36.9684592,10.3533818 36.8717992,10.1484727 36.8717992,9.94343636 L36.8783897,9.83996364 C36.9318887,9.48283636 37.2322068,9.24623636 37.6421074,8.99690909 C38.038827,8.75178182 38.3843738,8.6842 38.620338,8.6842 C39.8580517,8.6842 40.0683002,9.67094545 40.0683002,9.99001818 L40.0683002,12.0289273 C40.0683002,12.3585636 40.0941451,12.5634727 40.3581511,12.5634727 L40.5917893,12.5212182 L40.8300795,12.4472727 L40.8300795,12.7388545 L39.4633996,13.2522727 C39.2574155,13.1065455 39.1544235,12.8382545 39.1244433,12.6100545 C38.8025447,12.8867455 38.2448111,13.2522727 37.7814115,13.2522727 L37.7814115,13.2522727 Z" id="Fill-22" fill="#FFFFFE"></path>
                <path d="M41.1282008,13.1488 L41.1282008,12.9142364 L41.4457058,12.8593818 C41.6430318,12.8191636 41.7802684,12.6712727 41.7802684,12.4705636 L41.7802684,9.84632727 C41.7802684,9.61812727 41.6730119,9.50192727 41.4780119,9.50192727 L41.2569085,9.53781818 L41.1282008,9.59063636 L41.1282008,9.29269091 L42.5311928,8.6842 L42.7327833,8.6842 L42.7327833,9.41309091 C43.1619384,8.92716364 43.672505,8.6842 44.1210437,8.6842 C45.1098708,8.6842 45.5883897,9.40469091 45.5883897,10.2393455 L45.5883897,12.4705636 C45.5883897,12.6712727 45.7319583,12.8255273 45.9294135,12.8593818 L46.2641054,12.9142364 L46.2641054,13.1488 L43.9428429,13.1488 L43.9428429,12.9142364 L44.2646123,12.8593818 C44.4619384,12.8191636 44.6207555,12.6712727 44.6207555,12.4705636 L44.6207555,10.2455818 C44.6207555,9.954 44.5392147,9.29269091 43.7583101,9.29269091 C43.3292843,9.29269091 42.9731412,9.56110909 42.7565606,9.75965455 L42.7565606,12.4705636 C42.7565606,12.6712727 42.9130517,12.8191636 43.1061133,12.8593818 L43.4236183,12.9142364 L43.4236183,13.1488 L41.1282008,13.1488" id="Fill-23" fill="#FFFFFE"></path>
                <path d="M49.1730815,9.09618182 C48.4694533,9.09618182 47.7486382,9.55054545 47.7486382,10.8647636 C47.7486382,11.9677091 48.2935785,12.6417455 49.1516302,12.6417455 C49.6708549,12.6417455 49.9926243,12.3352727 50.067833,12.1811455 L50.067833,9.61812727 C49.9454573,9.29485455 49.5850497,9.09618182 49.1730815,9.09618182 M48.7397913,13.2522727 C47.8259145,13.2522727 46.7231113,12.5592727 46.7231113,11.0633091 C46.7231113,9.75965455 47.7186581,8.6842 49.065825,8.6842 C49.5120378,8.6842 49.8382008,8.77087273 50.067833,8.87014545 L50.067833,6.61143636 C50.067833,6.38107273 49.9454573,6.30712727 49.7889662,6.30712727 L49.5120378,6.35574545 L49.3189761,6.42752727 L49.3189761,6.12970909 L50.8359443,5.47463636 L51.0438668,5.47463636 L51.0438668,11.9677091 C51.0438668,12.3458364 51.1018887,12.5592727 51.3656362,12.5592727 L51.597336,12.5191818 L51.8290358,12.4452364 L51.8290358,12.7368182 L50.4689463,13.2522727 C50.2544334,13.1043818 50.1427833,12.8233636 50.1022068,12.6015273 C49.8467296,12.8783455 49.3877237,13.2522727 48.7397913,13.2522727" id="Fill-24" fill="#FFFFFE"></path>
                <path d="M55.2445726,10.2118545 L55.2445726,10.1949273 C55.2445726,9.44910909 54.84333,9.09618182 54.3521471,9.09618182 C53.813668,9.09618182 53.4038966,9.46170909 53.2837177,10.2118545 L55.2445726,10.2118545 Z M53.258002,10.6132727 L53.258002,10.6640545 C53.2493439,11.9697455 53.9830815,12.6290182 54.9098807,12.6290182 C55.3818091,12.6290182 55.8109642,12.4536364 56.1499205,12.1895455 L56.1499205,12.5846 C55.7551392,12.9501273 55.1587674,13.2522727 54.4335586,13.2522727 C52.9103877,13.2522727 52.2453976,12.1028727 52.2453976,11.0062909 C52.2453976,9.72592727 53.2086382,8.6842 54.4529423,8.6842 C55.4740755,8.6842 56.2743638,9.41525455 56.2743638,10.4886727 L56.2743638,10.6132727 L53.258002,10.6132727 L53.258002,10.6132727 Z" id="Fill-25" fill="#FFFFFE"></path>
                <path d="M56.8513519,13.1488 L56.8513519,12.9142364 L57.1667893,12.8593818 C57.3513221,12.8191636 57.5035487,12.6712727 57.5035487,12.4705636 L57.5035487,9.84632727 C57.5035487,9.61812727 57.389831,9.50192727 57.1989662,9.50192727 L56.977992,9.53781818 L56.8513519,9.59063636 L56.8513519,9.29269091 L58.2372863,8.6842 L58.4410736,8.6842 L58.4410736,9.63505455 C58.7929523,8.94829091 59.2090557,8.66090909 59.6853777,8.66090909 C60.0736978,8.66090909 60.174493,8.75598182 60.174493,8.75598182 L60.174493,9.80407273 L59.9792346,9.80407273 C59.9256064,9.52941818 59.7368091,9.39196364 59.4494135,9.39196364 C59.1404374,9.39196364 58.7500497,9.48283636 58.4754473,10.0512364 L58.4754473,12.4705636 C58.4754473,12.6712727 58.6727734,12.8255273 58.8637674,12.8593818 L59.3227734,12.9142364 L59.3227734,13.1488 L56.8513519,13.1488" id="Fill-26" fill="#FFFFFE"></path>
            </g>
        </g>
    </g>
</svg>