<?xml version="1.0" encoding="UTF-8"?>
<svg width="114px" height="18px" viewBox="0 0 114 18" version="1.1" xmlns="http://www.w3.org/2000/svg" xmlns:xlink="http://www.w3.org/1999/xlink">
    <!-- Generator: Sketch 58 (84663) - https://sketch.com -->
    <title>Fill 1</title>
    <desc>Created with Sketch.</desc>
    <g id="Sitio-personas---mobile" stroke="none" stroke-width="1" fill="none" fill-rule="evenodd">
        <g id="medio-de-pago" transform="translate(-211.000000, -295.000000)" fill="#08305D">
            <path d="M295.19348,296.00949 L295.369887,296.00949 C295.229011,296.36198 292.851159,297.491838 291.932765,298.532291 C290.520266,300.130905 289.571952,301.023718 289.729658,303.517196 C289.821289,304.967146 290.980502,307.113464 292.329212,307.883038 C292.743321,308.117827 294.056707,308.831216 295.281579,308.883506 C297.066423,308.961632 296.355186,308.609756 296.614913,308.748784 L296.614913,298.223477 C296.614913,298.092856 296.29119,297.401203 295.986998,297.401203 C295.898483,297.401203 295.766541,297.561967 295.766541,297.662239 L295.766541,304.925724 C295.766541,305.196808 295.51097,305.586824 294.268021,306.404381 C292.994321,307.239573 292.602237,307.521935 292.461361,307.491587 C292.492113,307.413461 292.686181,307.126383 292.769917,307.056869 L292.769917,299.488876 C292.769917,298.740832 293.876145,298.301808 294.841083,297.575295 C296.432066,296.374899 297.291242,296.096433 297.308904,296.096433 L297.705766,296.096433 C298.763997,296.096433 299.424327,297.357731 299.556268,297.488147 C299.564995,297.496759 299.86046,297.597031 299.953339,297.705711 L300.570242,297.705711 C300.746856,297.705711 301.187145,297.44488 301.451651,297.488147 C300.737506,298.101468 298.463753,299.532553 298.410769,299.532553 L298.057956,299.532553 C297.894847,299.532553 297.643847,299.28464 297.352953,299.141101 L297.352953,308.622675 C297.476583,308.639899 297.45913,308.622675 297.529567,308.622675 C297.961337,308.622675 299.564995,307.478669 299.644575,307.361172 L299.776932,307.361172 L299.776932,307.665679 C299.767998,307.678803 299.120135,308.874893 299.115771,308.883506 C297.740673,310.436393 296.19748,311.203301 293.998529,311.219296 C290.150831,311.247183 287.421413,308.496155 287.128857,304.22956 C286.837547,299.983675 289.867417,296.495062 293.43087,296.27032 C293.950531,296.237717 294.585511,296.274627 294.664884,296.27032 C294.664884,296.27032 295.153794,296.039838 295.19348,296.00949 Z M319.893298,302.928481 L321.90026,304.966325 L319.905973,306.236236 L319.893298,302.928481 Z M310.330362,301.213395 L310.37462,301.213395 L311.740783,302.561636 L311.740783,308.737711 L312.577727,309.520819 L310.991731,311.042948 L309.493419,309.563881 L309.493419,303.388216 L308.787793,302.735729 L310.330362,301.213395 Z M321.12752,301.450029 C321.211049,301.450029 323.991788,304.455531 324.036046,304.581641 L319.849664,307.495688 L319.849664,308.669837 L322.221698,309.728745 C322.221698,309.728745 323.467763,309.565931 323.903897,309.191909 L324.538462,309.347752 C324.485477,309.426288 321.625365,311.148962 321.12752,311.148962 C321.017396,311.148962 318.884311,310.339812 317.998747,309.757248 L317.998747,303.102573 C317.998747,302.808113 321.118586,301.450029 321.12752,301.450029 Z M310.286313,297.124788 L310.330362,297.124788 L311.828675,298.603855 L311.828675,298.647327 L310.286313,300.169661 L308.743743,298.647327 L310.286313,297.124788 Z M303.719794,297.124788 L303.719794,303.431483 L306.011832,301.213395 L307.730393,302.909616 L307.730393,310.912532 L305.570919,313 L305.527077,313 L305.527077,303.997027 L304.68951,303.214124 L303.719794,304.040293 L303.719794,308.780978 L304.557361,309.563881 L304.557361,309.607557 L303.014791,311.129686 L301.516687,309.651029 L301.516687,299.299609 L303.719794,297.16867 L303.719794,297.124788 Z M315.927165,308.887607 L316.720475,309.626833 L315.134063,311.10549 L313.635543,309.626833 L313.635543,299.623187 L315.927165,297.405304 L315.927165,308.887607 Z M276.177109,302.832515 L278.278196,305.006516 L276.177109,306.530491 L276.177109,302.832515 Z M268.332942,302.701689 L270.448365,303.658685 L270.448365,309.617195 L270.404108,309.617195 L268.332942,308.703877 L268.332942,302.701689 Z M277.455381,301.353448 L280.319649,304.485059 L276.133267,307.529727 L276.133267,308.355692 C276.133267,308.53122 278.599842,309.641802 278.599842,309.641802 C278.599842,309.641802 279.822636,308.816247 280.363906,309.139005 C280.332947,309.177966 277.410916,311.052585 277.410916,311.052585 L274.28235,309.704344 L274.28235,302.832105 L277.455381,301.353448 Z M269.302243,297.35199 C269.434807,297.35199 270.01618,297.574065 270.977169,298.048154 C271.497039,298.304679 272.431432,298.498456 272.431432,298.961472 L272.431432,309.747816 L269.522699,311.096262 L266.305618,309.573928 L266.305618,302.745366 L269.39055,301.397125 C269.500882,301.410043 270.492415,301.788371 270.492415,301.788371 L270.492415,299.61396 L267.919665,298.529625 C267.501193,298.555462 267.006673,298.950604 266.504257,299.037548 L266.614173,298.613493 C266.614173,298.613493 268.932184,297.35199 269.302243,297.35199 Z M229.152415,305.760916 L232.060941,307.199588 L232.060941,309.892585 L229.152415,308.558697 L229.152415,305.760916 Z M254.470591,302.697998 L256.519317,303.654994 L256.519317,309.613504 L254.448359,308.700186 L254.470591,302.697998 Z M230.871184,301.280858 C233.012788,302.338126 233.956116,302.466901 233.956116,302.934018 L233.956116,308.500871 L235.321864,309.849523 L234.044007,311.066939 C233.109822,310.31459 232.765943,309.979939 232.765943,309.979939 L230.417389,311.14117 L227.213398,309.691425 L227.213398,306.021952 L230.342588,304.499413 L232.060941,305.195578 L232.060941,303.673244 L229.316355,302.731628 L227.938556,302.895672 L227.874559,302.672777 L230.871184,301.280858 Z M248.234445,301.4367 L251.671774,302.872091 C251.513029,303.067714 250.464564,303.82478 250.085155,303.915825 C250.085155,303.915825 247.278027,302.83272 247.220679,302.828414 L247.220679,308.482622 L249.583155,309.641802 C249.583155,309.641802 250.944539,309.178786 251.275327,309.178786 C251.310442,309.178786 251.372154,309.191704 251.451318,309.178786 L251.451318,309.308996 L248.763249,311.048894 L248.410644,311.048894 L245.017364,309.526765 L245.017364,302.959034 L248.234445,301.4367 Z M240.963131,301.194119 L242.857891,303.064433 L242.857891,308.805379 L243.7393,309.675431 L242.285245,311.066939 L240.742675,309.631754 L240.742675,304.282259 C240.716287,304.264624 239.777322,303.342489 239.597176,303.281587 L238.539152,304.238582 L238.539152,308.848851 L239.332462,309.631754 L237.83415,311.066939 L236.467986,309.762169 L236.467986,303.977751 C236.467986,303.977751 235.820332,303.442761 235.54232,303.1077 L237.393445,301.237591 L239.200105,302.934018 L240.963131,301.194119 Z M255.417659,301.393024 L258.546641,302.915768 L258.546641,309.613504 L255.593858,311.048894 L252.421035,309.700243 L252.421035,302.697998 L255.417659,301.393024 Z M221.7529,303.263747 C221.889413,303.298607 222.678359,303.764083 222.678359,304.090327 L222.678359,309.091842 C222.457903,309.191909 222.634102,309.091842 222.501953,309.091842 C222.224149,309.091842 221.7529,308.874893 221.7529,308.613447 L221.7529,303.263747 Z M221.7529,298.131612 C221.7529,298.131612 223.163114,299.649639 223.163114,300.567264 C223.163114,301.263018 222.621012,301.532872 221.7529,302.045921 L221.7529,298.131612 Z M222.766459,295.130415 C223.295055,295.130415 223.616908,295.691858 224.529069,296.870314 C224.753889,297.161698 225.807133,298.431813 225.807133,299.045135 L225.807133,299.52353 C225.807133,300.762272 222.501953,302.006961 222.501953,302.524316 C222.501953,302.876807 224.238383,302.711327 225.013823,303.22007 C225.754357,303.707488 226.071431,304.736048 226.071431,305.307948 L226.071431,306.786605 C226.071431,307.670806 224.84178,308.004431 223.33952,309.135519 C222.678359,309.631139 220.42206,311.136043 220.254588,311.136043 C220.254588,311.136043 217.666877,309.74433 216.420396,309.74433 L214.745677,309.74433 C214.043583,309.74433 212.321906,310.35314 212.189757,310.35314 C212.189757,310.35314 214.792428,307.830339 217.433954,307.830339 L219.19698,307.830339 C219.559351,307.830339 220.80978,308.335186 221.135789,308.439765 L221.135789,297.391975 C221.135789,297.283501 220.994914,297.087468 220.783184,297.087468 C220.294067,297.087468 219.946033,297.966337 219.946033,298.001196 L219.946033,304.568722 C219.946033,304.860517 218.800118,305.738565 218.183007,306.090851 C217.261911,306.617229 216.66724,307.121666 216.112048,307.395621 L216.112048,307.265205 C216.112048,307.265205 216.596803,306.743749 216.596803,306.438626 L216.596803,299.305966 C216.596803,299.218612 217.372243,298.262027 219.505328,297.044201 C220.743498,296.339629 222.004108,295.130415 222.766459,295.130415 Z M215.715393,295 L216.552545,295 C217.14867,295 219.19698,295.565339 219.19698,295.565339 L219.54917,295.565339 C219.686098,295.565339 219.906139,295.46117 219.99029,295.391246 C220.051586,295.408881 220.095843,295.422005 220.166281,295.4786 L216.684902,297.914047 C216.680331,297.914047 215.627086,298.430173 215.627086,298.914515 L215.627086,305.047117 L212.189757,307.395621 C212.23817,307.069377 212.674719,306.771636 212.674719,306.30821 L212.674719,300.262756 C212.674719,299.795024 215.979691,298.092446 215.979691,297.609745 C215.979691,297.131145 214.040674,296.739898 214.040674,296.739898 C213.423771,296.717752 213.1682,296.717752 212.542362,296.739898 C211.929822,296.761429 211.237702,297.144063 211,297.131145 C211.74926,296.639626 213.763494,295 215.715393,295 L215.715393,295 Z" id="Fill-1"></path>
        </g>
    </g>
</svg>