<?xml version="1.0" encoding="UTF-8"?>
<svg width="116px" height="17px" viewBox="0 0 116 17" version="1.1" xmlns="http://www.w3.org/2000/svg" xmlns:xlink="http://www.w3.org/1999/xlink">
    <!-- Generator: Sketch 58 (84663) - https://sketch.com -->
    <title>Group 23</title>
    <desc>Created with Sketch.</desc>
    <g id="Sitio-personas---mobile" stroke="none" stroke-width="1" fill="none" fill-rule="evenodd">
        <g id="medio-de-pago" transform="translate(-34.000000, -392.000000)">
            <g id="Group-23" transform="translate(34.000000, 392.000000)">
                <polygon id="Fill-1" fill="#25224D" points="59.0213454 16.8416875 115.972521 16.8416875 115.972521 5.68434189e-14 59.0213454 5.68434189e-14"></polygon>
                <polygon id="Fill-2" fill="#6E337F" points="3.12638804e-13 16.8416875 58.9745678 16.8416875 58.9745678 5.68434189e-14 3.12638804e-13 5.68434189e-14"></polygon>
                <polyline id="Fill-3" fill="#FFFFFE" points="39.3634358 10.7510125 38.4740325 10.7510125 37.1946763 7.1759125 35.9300036 10.7510125 35.0630452 10.7510125 36.8592622 6.03245 37.5053382 6.03245 39.3634358 10.7510125"></polyline>
                <path d="M31.5845136,10.7510125 L33.0694394,10.7510125 C33.428557,10.7476125 33.7285208,10.681525 33.9693309,10.553175 C34.2103508,10.423975 34.3915877,10.2546125 34.5122025,10.0453 C34.6336564,9.8355625 34.6942785,9.6073375 34.6942785,9.3612625 C34.6923906,9.0824625 34.6141483,8.8417 34.4620687,8.638975 C34.3085208,8.4371 34.0958192,8.30025 33.8227052,8.228425 L33.8227052,8.21355 C34.0052007,8.1177125 34.145953,7.984475 34.2416058,7.8125625 C34.3366293,7.6400125 34.3848752,7.4511 34.385085,7.24455 C34.3873924,6.92665 34.2703436,6.650825 34.0354069,6.4194125 C33.8008897,6.186725 33.4369476,6.0653875 32.9423219,6.0537 L31.5845136,6.0537 L31.5845136,10.7510125 Z M32.4277685,10.0463625 L32.4277685,8.7193 L33.0620976,8.7193 C33.3008101,8.721425 33.4877107,8.7788 33.6263653,8.89015 C33.7637613,9.0029875 33.8344521,9.1593875 33.8367595,9.3612625 C33.8365497,9.598625 33.7622929,9.772875 33.6156673,9.883375 C33.4686221,9.9936625 33.2525642,10.0476375 32.9706401,10.0463625 L32.4277685,10.0463625 Z M32.4277685,8.0148625 L32.4277685,6.7581375 L32.8229656,6.7581375 C33.0746835,6.7623875 33.2588571,6.8244375 33.3754864,6.9411 C33.4914864,7.05925 33.5495913,7.20715 33.5485425,7.3867125 C33.5472839,7.5720125 33.4870814,7.7216125 33.366047,7.837425 C33.2452224,7.9515375 33.0658734,8.01125 32.8307269,8.0148625 L32.4277685,8.0148625 L32.4277685,8.0148625 Z" id="Fill-4" fill="#FFFFFE"></path>
                <path d="M39.9839204,10.7510125 L40.8271754,10.7510125 L40.8271754,8.0858375 C40.8280145,7.9515375 40.8271754,7.821275 40.8259168,7.695475 C40.8233996,7.568825 40.8198336,7.4564125 40.8133309,7.3578125 L40.8271754,7.3578125 C40.9041591,7.468525 40.9849186,7.583275 41.0696637,7.702275 C41.1544087,7.821275 41.2471248,7.946225 41.348651,8.0784 L43.3967957,10.7510125 L44.1701989,10.7510125 L44.1701989,6.0537 L43.3193924,6.0537 L43.3193924,8.5558875 C43.3193924,8.6853 43.3193924,8.818325 43.3212803,8.9545375 C43.3225389,9.0896875 43.3267342,9.2208 43.3340759,9.347025 L43.3193924,9.347025 C43.2495407,9.2409875 43.1721374,9.1275125 43.0852948,9.007875 C42.9995009,8.8873875 42.9034286,8.7581875 42.7972875,8.620275 L40.8208825,6.0537 L39.9839204,6.0537 L39.9839204,10.7510125" id="Fill-5" fill="#FFFFFE"></path>
                <path d="M48.6671392,9.7760625 C48.5033128,9.8733875 48.3289982,9.952225 48.1437758,10.0113 C47.9593924,10.0714375 47.7540325,10.1014 47.5264376,10.10395 C47.0460759,10.0952375 46.6710163,9.940325 46.3997902,9.6375125 C46.1281447,9.334275 45.9892803,8.9311625 45.9859241,8.4271125 C45.9859241,8.114525 46.0446582,7.8308375 46.1627559,7.5752 C46.2793852,7.3202 46.4555877,7.1168375 46.6877975,6.96405 C46.9206365,6.81275 47.2103219,6.734125 47.5551754,6.7303 C47.7792043,6.7309375 47.9900181,6.757925 48.1869873,6.8108375 C48.3845859,6.8646 48.5721157,6.9396125 48.7510452,7.0365125 L48.7510452,6.2383625 C48.6060976,6.17355 48.4290561,6.11915 48.2234864,6.077075 C48.0181266,6.035 47.7875949,6.012475 47.5331501,6.0114125 C47.0336998,6.015875 46.6009548,6.1265875 46.2355443,6.3437625 C45.8713924,6.5605125 45.5882098,6.8520625 45.3883038,7.2196875 C45.1888174,7.5868875 45.0879204,7.99935 45.084774,8.4558 C45.0864521,8.9188375 45.1756022,9.3268375 45.3551609,9.6812875 C45.5332514,10.03595 45.7962966,10.3136875 46.1449259,10.514925 C46.4929259,10.7161625 46.9197975,10.8190125 47.4282676,10.8228375 C47.6600579,10.8253875 47.8989801,10.798825 48.1448246,10.7450625 C48.3908788,10.689175 48.6413382,10.5927 48.8985099,10.4526625 L48.6671392,9.7760625" id="Fill-6" fill="#FFFFFE"></path>
                <path d="M51.8339602,10.8228375 C52.2891501,10.820075 52.6908499,10.7187125 53.040528,10.5206625 C53.3899964,10.321125 53.6656275,10.0425375 53.8644846,9.6838375 C54.0639711,9.324925 54.1667559,8.9029 54.1701121,8.420525 C54.1583653,7.6993 53.9414684,7.120025 53.5166944,6.68355 C53.0929693,6.2468625 52.5322676,6.022675 51.8339602,6.0114125 C51.1367016,6.022675 50.5755805,6.2458 50.1514358,6.6807875 C49.7275009,7.1164125 49.5101844,7.6959 49.4984376,8.420525 C49.5009548,8.9029 49.602481,9.324925 49.8007089,9.6838375 C49.9989367,10.0425375 50.2726799,10.321125 50.6225678,10.5206625 C50.9711971,10.7187125 51.3756239,10.820075 51.8339602,10.8228375 Z M51.8339602,10.10395 C51.3976492,10.0997 51.0519566,9.952225 50.793736,9.6600375 C50.5365642,9.3687 50.4042025,8.9556 50.3981193,8.420525 C50.4042025,7.88205 50.5365642,7.46725 50.793736,7.174425 C51.0519566,6.882025 51.3976492,6.7334875 51.8339602,6.7303 C52.2786618,6.7356125 52.6281302,6.8873375 52.8819458,7.18505 C53.1353418,7.4823375 53.2647667,7.8941625 53.2700108,8.420525 C53.2639277,8.9556 53.1300976,9.3687 52.8722966,9.6600375 C52.6132369,9.952225 52.2667052,10.0997 51.8339602,10.10395 L51.8339602,10.10395 Z" id="Fill-7" fill="#FFFFFE"></path>
                <path d="M66.5579892,7.4411125 L66.5579892,6.035425 L66.3425606,6.035425 C66.3108861,6.11235 66.2722893,6.16845 66.2286582,6.2030875 C66.1835588,6.2373 66.1321664,6.2543 66.0751103,6.253875 C65.9326799,6.2458 65.8013671,6.2090375 65.6788644,6.14465 C65.5563617,6.081325 65.3843544,6.044775 65.1573888,6.035425 C64.7722604,6.0466875 64.4494322,6.17695 64.1878553,6.427275 C63.9279566,6.6776 63.7941266,6.9853 63.7842676,7.3510125 C63.7955949,7.728625 63.9206148,8.0155 64.1570199,8.211 C64.3944738,8.407775 64.6696854,8.567575 64.9803472,8.6910375 C65.2926872,8.8151375 65.5662206,8.9579375 65.803255,9.120075 C66.0402893,9.2830625 66.1642604,9.5183 66.1774756,9.8287625 C66.1730705,10.059325 66.0977649,10.247175 65.9498807,10.3918875 C65.8024159,10.5368125 65.6150958,10.6107625 65.3879204,10.61565 C65.092991,10.620325 64.8043544,10.5181125 64.5234792,10.30965 C64.239877,10.1007625 64.0443761,9.760125 63.9340398,9.2873125 L63.7202893,9.2873125 L63.7202893,10.8466375 L63.9340398,10.8466375 C63.9422206,10.761425 63.9726365,10.689175 64.0246582,10.63095 C64.0752116,10.571025 64.1440145,10.5406375 64.2277107,10.537875 C64.3399349,10.553175 64.4951609,10.6082125 64.6963255,10.7055375 C64.8976998,10.8028625 65.1236166,10.8593875 65.374915,10.872775 C65.7751465,10.861725 66.1097215,10.7225375 66.379689,10.455 C66.6483978,10.1891625 66.7893599,9.8589375 66.8006872,9.4679375 C66.7870524,9.0510125 66.6645497,8.732475 66.4300325,8.51275 C66.1953056,8.2928125 65.9240796,8.1177125 65.6159349,7.98575 C65.3082098,7.855275 65.0348861,7.7135375 64.8009982,7.5613875 C64.5681591,7.4100875 64.4435588,7.1929125 64.4311826,6.9124125 C64.4343291,6.722225 64.5050199,6.5728375 64.6398987,6.4619125 C64.7762459,6.3512 64.9570633,6.2948875 65.1836094,6.29255 C65.4598698,6.29255 65.7013092,6.3886 65.9110741,6.581125 C66.1210488,6.7734375 66.252991,7.0598875 66.305642,7.4411125 L66.5579892,7.4411125" id="Fill-8" fill="#FFFFFE"></path>
                <path d="M71.891472,7.943675 C71.9042676,7.4015875 71.7177866,6.951725 71.3341266,6.5936625 C70.9494177,6.2358125 70.4873056,6.049025 69.9454828,6.035425 C69.2922749,6.0526375 68.755906,6.290425 68.3336492,6.749425 C67.9116022,7.2099125 67.6923978,7.7928 67.6787631,8.4993625 C67.6911392,9.2021 67.9202025,9.770325 68.363226,10.2044625 C68.8072984,10.637325 69.3900253,10.8598125 70.109519,10.872775 C70.499472,10.8759625 70.8388716,10.801375 71.1310741,10.6490125 C71.4207595,10.4964375 71.7007957,10.2444125 71.9682459,9.89315 L71.9682459,9.55825 C71.6571646,9.9197125 71.3886655,10.1704625 71.1646365,10.310925 C70.9387197,10.4516 70.6765136,10.519175 70.3780181,10.5128 C70.1625895,10.519175 69.9144376,10.44905 69.6344014,10.3034875 C69.3541555,10.1572875 69.1089403,9.8963375 68.8995949,9.5231875 C68.6904593,9.1479125 68.5838987,8.6217625 68.5813816,7.943675 L71.891472,7.943675 Z M68.5813816,7.7267125 C68.608651,7.2944875 68.728217,6.9506625 68.943226,6.696725 C69.1561374,6.44215 69.4514864,6.3114625 69.8309512,6.305725 C70.134481,6.3016875 70.4111609,6.4124 70.6647667,6.638075 C70.9166944,6.8639625 71.0427631,7.226275 71.0406655,7.7267125 L68.5813816,7.7267125 L68.5813816,7.7267125 Z" id="Fill-9" fill="#FFFFFE"></path>
                <path d="M76.9719783,6.035425 L76.7573888,6.035425 C76.7181627,6.1202125 76.6711754,6.1835375 76.6191537,6.226675 C76.5654539,6.2702375 76.5100759,6.292125 76.4523906,6.29255 C76.3401664,6.281925 76.184311,6.239425 75.9810488,6.1644125 C75.7794647,6.0891875 75.512434,6.0466875 75.1766004,6.035425 C74.5177288,6.0537 73.9679349,6.2985 73.529736,6.7728 C73.0913273,7.246675 72.8639421,7.84295 72.8473707,8.5643875 C72.8580687,9.258625 73.0690922,9.8143125 73.4787631,10.2312375 C73.8894828,10.6485875 74.4348716,10.86215 75.1140904,10.872775 C75.5220832,10.872775 75.8954647,10.78905 76.2315081,10.6213875 C76.567132,10.45415 76.8570271,10.202975 77.0999349,9.8670125 L77.0999349,9.5325375 C76.8582857,9.85915 76.5891573,10.1014 76.2885642,10.2571625 C75.9904882,10.412075 75.6993345,10.4879375 75.4192984,10.4873 C74.9475371,10.4696625 74.5512911,10.24335 74.2295118,9.8079375 C73.9060542,9.372525 73.7388716,8.8332 73.7254467,8.1899625 C73.7334177,7.6194 73.87417,7.16295 74.1487523,6.8201875 C74.4224955,6.477425 74.7876962,6.3016875 75.241208,6.29255 C75.621302,6.2970125 75.94434,6.4198375 76.2101121,6.660175 C76.4748354,6.900725 76.6567016,7.2290375 76.7573888,7.6480875 L76.9719783,7.6480875 L76.9719783,6.035425" id="Fill-10" fill="#FFFFFE"></path>
                <path d="M82.2102278,6.035425 L81.9933309,6.035425 L80.4660325,6.178225 L80.4660325,6.395825 C80.8425606,6.3917875 81.0856781,6.434925 81.1966438,6.524175 C81.3076094,6.614275 81.3571139,6.81275 81.3457866,7.11875 L81.3457866,9.5839625 C81.160774,9.8347125 80.9686293,10.0225625 80.7701917,10.1466625 C80.5715443,10.270975 80.3640868,10.3323875 80.1471899,10.3323875 C79.8369476,10.33005 79.5911031,10.23825 79.4079783,10.057625 C79.2259024,9.8767875 79.1317179,9.6247625 79.1283617,9.2992125 L79.1283617,6.035425 L78.911255,6.035425 L77.4615696,6.178225 L77.4615696,6.395825 C77.7785244,6.3937 77.9935335,6.4396 78.1053382,6.534375 C78.2181917,6.62915 78.2704231,6.785125 78.2639204,7.002725 L78.2639204,9.3383125 C78.2702134,9.775425 78.4038336,10.1368875 78.6672984,10.4250375 C78.9320217,10.712125 79.2875732,10.86215 79.7398264,10.872775 C80.0450344,10.872775 80.3290561,10.798825 80.5916817,10.6502875 C80.8540976,10.5026 81.0967957,10.2796875 81.3206148,9.983675 L81.3457866,9.983675 L81.3457866,10.820925 L82.9865678,10.73125 L82.9865678,10.5128 C82.6863942,10.5172625 82.4799855,10.47285 82.3686004,10.3787125 C82.257425,10.285425 82.2045642,10.114575 82.2102278,9.8670125 L82.2102278,6.035425" id="Fill-11" fill="#FFFFFE"></path>
                <path d="M85.0349222,7.3637625 C85.2352477,7.1652875 85.408094,7.023125 85.555349,6.9353625 C85.7021844,6.8495125 85.8483906,6.806375 85.9901917,6.8085 C86.1454177,6.81275 86.3149078,6.8533375 86.5022278,6.9311125 C86.6855624,7.0093125 86.8730922,7.10175 87.0593635,7.208425 L87.4035877,6.395825 C87.2848608,6.2910625 87.1497722,6.2047875 86.9993707,6.1393375 C86.8487595,6.0717625 86.7077975,6.0377625 86.575226,6.035425 C86.4302785,6.0318125 86.2396022,6.1047 86.0067631,6.2570625 C85.7716166,6.407725 85.4483689,6.6654875 85.0349222,7.0284375 L85.0349222,6.035425 L84.8192839,6.035425 L83.2410127,6.178225 L83.2410127,6.395825 C83.6141844,6.3852 83.8646438,6.4257875 83.9919711,6.5184375 C84.1199277,6.610875 84.18034,6.8193375 84.170481,7.1444625 L84.170481,9.6349625 C84.1815986,9.9773 84.1400651,10.2099875 84.0465099,10.335575 C83.9537939,10.4601 83.7400434,10.519175 83.407566,10.5128 L83.407566,10.73125 L85.7865099,10.73125 L85.7865099,10.5128 C85.4934684,10.5172625 85.2935624,10.47285 85.1870018,10.3787125 C85.0791826,10.285425 85.0286293,10.114575 85.0349222,9.8670125 L85.0349222,7.3637625" id="Fill-12" fill="#FFFFFE"></path>
                <path d="M89.6591899,6.035425 L89.4429222,6.035425 L87.941425,6.178225 L87.941425,6.395825 C88.2665606,6.3852 88.4920579,6.4198375 88.6170778,6.5005875 C88.7410488,6.581125 88.8018807,6.7751375 88.7955877,7.0794375 L88.7955877,9.880825 C88.8035588,10.144325 88.7458734,10.3170875 88.6265172,10.399325 C88.5071609,10.482625 88.2780976,10.5206625 87.941425,10.5128 L87.941425,10.73125 L90.4109873,10.73125 L90.4109873,10.5128 C90.100745,10.514925 89.8962242,10.466475 89.7959566,10.3663875 C89.6967378,10.265875 89.6512188,10.1045875 89.6591899,9.880825 L89.6591899,6.035425 Z M89.2400796,3.6747625 C89.0835949,3.6788 88.9516528,3.73235 88.846141,3.8366875 C88.74,3.9395375 88.6839928,4.07065 88.6804268,4.229175 C88.6839928,4.3883375 88.74,4.5209375 88.846141,4.6280375 C88.9516528,4.7359875 89.0835949,4.7916625 89.2400796,4.7959125 C89.396774,4.7916625 89.5247306,4.7359875 89.6277251,4.6280375 C89.7305099,4.5209375 89.7837902,4.3883375 89.7863074,4.229175 C89.7837902,4.07065 89.7305099,3.9395375 89.6277251,3.8366875 C89.5247306,3.73235 89.396774,3.6788 89.2400796,3.6747625 L89.2400796,3.6747625 Z" id="Fill-13" fill="#FFFFFE"></path>
                <path d="M92.6057577,4.617625 L92.6057577,6.1516625 L96.7746257,6.1516625 L96.7746257,6.395825 C96.6001013,6.423025 96.4830524,6.4971875 96.423689,6.618525 C96.363906,6.73965 96.3737649,6.8969 96.4543146,7.0921875 L97.5394286,9.6732125 L98.3281447,7.2604875 C98.4225389,6.9889125 98.4472911,6.7802375 98.4040796,6.6344625 C98.3593996,6.4886875 98.2152911,6.4087875 97.9728029,6.395825 L97.9728029,6.178225 L99.5626112,6.178225 L99.5626112,6.395825 C99.3247378,6.3926375 99.123783,6.475725 98.9612152,6.6455125 C98.7990669,6.814875 98.656217,7.089 98.5322459,7.46725 L96.7353996,12.8479625 C96.5510163,13.3792125 96.3269873,13.7887 96.0628933,14.075575 C95.7971212,14.362025 95.5250561,14.5078 95.2471175,14.5110077 C95.1546112,14.511625 95.0648318,14.497175 94.9811356,14.467 C94.8966004,14.4366125 94.7982206,14.3871 94.6862061,14.3176125 L94.979038,13.53115 C95.0654611,13.57025 95.1407667,13.5963875 95.204745,13.6125375 C95.2695624,13.6289 95.3379458,13.635275 95.4115732,13.635275 C95.6825895,13.6384625 95.9057794,13.551125 96.0842893,13.374325 C96.2623797,13.1960375 96.4211718,12.90895 96.557519,12.51285 L97.1440217,10.8598125 L95.5269439,7.0794375 C95.4210127,6.8204 95.3287161,6.6667625 95.2024376,6.56795 C95.1168535,6.5025 94.9926727,6.488475 94.8435298,6.48635 L92.6057577,6.48635 L92.6057577,9.4284125 C92.6095335,9.745675 92.6835805,9.983675 92.8272694,10.1428375 C92.9724268,10.3047625 93.1706546,10.3836 93.4225823,10.38445 C93.5847306,10.3850875 93.7326148,10.35045 93.8656058,10.2801125 C93.9985967,10.2108375 94.1313779,10.0990625 94.2614322,9.9447875 L94.4011356,10.112875 C94.005519,10.6171375 93.5507486,10.8704375 93.0393418,10.872775 C92.6512767,10.866825 92.3397758,10.7437875 92.1054684,10.50345 C91.8690633,10.264175 91.7490778,9.94415 91.7419458,9.5444375 L91.7419458,6.48635 L90.8894611,6.48635 L90.8894611,6.2672625 C91.1946691,6.1132 91.4744955,5.8979375 91.7257939,5.6208375 C91.9779313,5.345225 92.1996528,5.01075 92.3909584,4.617625 L92.6057577,4.617625" id="Fill-14" fill="#FFFFFE"></path>
            </g>
        </g>
    </g>
</svg>