<?xml version="1.0" encoding="UTF-8"?>
<svg width="81px" height="40px" viewBox="0 0 81 40" version="1.1" xmlns="http://www.w3.org/2000/svg" xmlns:xlink="http://www.w3.org/1999/xlink">
    <!-- Generator: Sketch 58 (84663) - https://sketch.com -->
    <title>Group 22</title>
    <desc>Created with Sketch.</desc>
    <g id="Sitio-personas---mobile" stroke="none" stroke-width="1" fill="none" fill-rule="evenodd">
        <g id="medio-de-pago" transform="translate(-51.000000, -284.000000)">
            <g id="Group" transform="translate(16.000000, 264.000000)">
                <g id="Group-22" transform="translate(35.000000, 20.000000)">
                    <polygon id="Fill-1" fill="#C11E43" points="28.2165084 24.4732075 52.667648 24.4732075 52.667648 1.13686838e-13 28.2165084 1.13686838e-13"></polygon>
                    <path d="M44.0940168,5.75018868 L44.0940168,20.3977358 L52.667648,20.4 L52.6673464,12.8982642 L42.3013073,4.16709434 C42.3010056,4.16709434 42.3010056,4.16754717 42.3007039,4.16769811 L42.3013073,6.49977358 L44.0940168,5.75018868" id="Fill-2" fill="#EB8F2D"></path>
                    <path d="M44.0940168,5.75018868 L42.3013073,6.49977358 L42.3007039,4.16769811 L42.3007039,4.16528302 C41.5783408,4.97418868 39.7639106,6.35577358 37.5281899,6.67849057 L37.5281899,8.48437736 L35.7784693,9.24754717 L35.7784693,10.8030189 L28.2165084,13.7255849 L28.2165084,15.3960755 L35.4921788,12.5916981 C35.6703184,12.5382642 35.7849553,12.3841509 35.7982291,12.208 L35.7967207,11.0935849 C35.7967207,10.9298113 35.9296089,10.7453585 36.0931173,10.6822642 L37.5313575,10.1373585 L37.5313575,11.8135849 L36.0931173,12.3606038 C35.936095,12.4184151 35.8223631,12.5669434 35.8115028,12.741434 L35.8115028,13.8473962 C35.8115028,14.0111698 35.6786145,14.1951698 35.5160112,14.258717 L28.2165084,17.1027925 L28.2165084,18.7206038 L35.4921788,15.8676226 C35.6703184,15.8141887 35.7849553,15.6590189 35.7982291,15.4845283 L35.7967207,14.3699623 C35.7967207,14.205283 35.9296089,14.021283 36.0931173,13.9580377 L37.5313575,13.4131321 L37.5313575,15.0893585 L36.0931173,15.6360755 C35.936095,15.6943396 35.8223631,15.8424151 35.8115028,16.0182642 L35.8115028,17.122566 C35.8115028,17.2869434 35.6786145,17.4709434 35.5160112,17.5344906 L28.2165084,20.3962264 L28.2165084,20.3992453 L44.0940168,20.4 L44.0940168,5.75018868" id="Fill-3" fill="#FFFFFE"></path>
                    <polygon id="Fill-4" fill="#054279" points="28.2165084 24.4732075 52.667648 24.4732075 52.667648 20.3954717 28.2165084 20.3954717"></polygon>
                    <path d="M34.2740112,22.1193962 L34.240676,22.3076226 C34.2135251,22.4668679 34.0830503,22.6804528 33.9230112,22.8330566 C33.8240615,22.9270943 33.7189274,22.992 33.6641732,22.992 C33.6086648,22.992 33.577743,22.9335849 33.5798547,22.8363774 C33.5830223,22.677283 33.6605531,22.4309434 33.7448715,22.2881509 C33.8358268,22.1390189 33.9705251,22.0386415 34.0777709,22.0386415 C34.1489665,22.0386415 34.2135251,22.0644528 34.2740112,22.1193962 Z M34.8817374,20.9263396 L34.4880503,20.9683019 L34.3260503,21.8246038 C34.1937654,21.7693585 34.1328268,21.7532075 34.0388547,21.7532075 C33.5851341,21.7532075 33.1935587,22.2849811 33.1792291,22.9138113 C33.172743,23.1960755 33.2822514,23.3681509 33.4763799,23.3681509 C33.5904134,23.3681509 33.7572402,23.2969057 33.8923911,23.1900377 C33.9687151,23.1281509 34.0314637,23.0632453 34.0815419,22.992 C34.101905,22.9658868 34.1287542,22.9236226 34.1622402,22.8653585 L34.084257,23.3127547 L34.4506425,23.3127547 L34.8817374,20.9263396 L34.8817374,20.9263396 Z" id="Fill-5" fill="#FFFFFE"></path>
                    <path d="M35.9104525,22.1616604 C35.9098492,22.1909434 35.9060782,22.2104151 35.8890335,22.2526792 L35.3734693,22.5379623 C35.4434581,22.3237736 35.4841844,22.2363774 35.5639777,22.1458113 C35.6341173,22.0644528 35.7095363,22.0221887 35.7837486,22.0221887 C35.8686704,22.0221887 35.9122626,22.0709434 35.9104525,22.1616604 Z M36.2849832,22.0739623 C36.2899609,21.866717 36.1462123,21.7595472 35.8644469,21.7595472 C35.3621564,21.7595472 35.0054246,22.194566 34.9909441,22.8199245 C34.9824972,23.1766038 35.1209665,23.3553208 35.4102737,23.3553208 C35.5392402,23.3553208 35.6924916,23.3162264 35.8205531,23.2483019 C35.8665587,23.2253585 35.9222179,23.1900377 35.9920559,23.141434 C36.0772793,23.0793962 36.116648,23.0537358 36.2095642,22.9790189 L36.0653631,22.7485283 C35.8544916,22.9043019 35.802,22.9402264 35.7133073,22.9756981 C35.6476927,23.0016604 35.5695587,23.0178113 35.5277765,23.0178113 C35.4758883,23.0178113 35.411933,22.9856604 35.3837263,22.9402264 C35.3648715,22.9106415 35.3559721,22.8784906 35.3445084,22.8037736 L36.0071397,22.4570566 C36.197648,22.3562264 36.2813631,22.2430189 36.2849832,22.0739623 L36.2849832,22.0739623 Z" id="Fill-6" fill="#FFFFFE"></path>
                    <path d="M37.6036089,21.8472453 C37.459257,21.7888302 37.3236536,21.7595472 37.1649721,21.7595472 C36.8049218,21.7595472 36.5938994,21.9219623 36.5877151,22.2004528 C36.5857542,22.2917736 36.6130559,22.3692075 36.6664525,22.4407547 C36.7011453,22.4828679 36.7421732,22.5281509 36.789838,22.5735849 C36.8058268,22.586717 36.8658603,22.6384906 36.9681285,22.7326792 C37.0473184,22.8006038 37.075676,22.8492075 37.0738659,22.9077736 C37.0720559,22.9856604 36.999352,23.037434 36.8800391,23.037434 C36.785162,23.037434 36.6887765,23.0146415 36.5285866,22.9563774 L36.4142514,23.2707925 C36.5397486,23.306717 36.5883184,23.3162264 36.7109497,23.336 C36.794514,23.3486792 36.8918045,23.3553208 36.9533464,23.3553208 C37.2682961,23.3553208 37.4794693,23.1766038 37.4859553,22.9009811 C37.4892737,22.7423396 37.4238101,22.6416604 37.2043408,22.453434 C37.0320838,22.3110943 37.0132291,22.2917736 36.9857765,22.2430189 C36.9731061,22.2233962 36.9666201,22.2004528 36.9672235,22.1778113 C36.9693352,22.106717 37.0414358,22.0644528 37.1675363,22.0644528 C37.2713128,22.0644528 37.3390391,22.0839245 37.4865587,22.1616604 L37.6036089,21.8472453" id="Fill-7" fill="#FFFFFE"></path>
                    <path d="M38.8916145,22.1193962 L38.8573743,22.3076226 C38.8311285,22.4668679 38.6997486,22.6804528 38.5407654,22.8330566 C38.4416648,22.9270943 38.3365307,22.992 38.2814749,22.992 C38.226419,22.992 38.1957989,22.9335849 38.1974581,22.8363774 C38.2007765,22.677283 38.2781564,22.4309434 38.3621732,22.2881509 C38.4529777,22.1390189 38.5881285,22.0386415 38.6950726,22.0386415 C38.7667207,22.0386415 38.8311285,22.0644528 38.8916145,22.1193962 Z M39.4987374,20.9263396 L39.1055028,20.9683019 L38.9436536,21.8246038 C38.8119721,21.7693585 38.7504302,21.7532075 38.6564581,21.7532075 C38.2024358,21.7532075 37.8110112,22.2849811 37.7968324,22.9138113 C37.7900447,23.1960755 37.8997039,23.3681509 38.0941341,23.3681509 C38.2078659,23.3681509 38.3745419,23.2969057 38.5099944,23.1900377 C38.5860168,23.1281509 38.649067,23.0632453 38.6997486,22.992 C38.7192067,22.9658868 38.7463575,22.9236226 38.7799944,22.8653585 L38.7018603,23.3127547 L39.068095,23.3127547 L39.4987374,20.9263396 L39.4987374,20.9263396 Z" id="Fill-8" fill="#FFFFFE"></path>
                    <path d="M40.5277542,22.1616604 C40.5274525,22.1909434 40.5233799,22.2104151 40.5066369,22.2526792 L39.9907709,22.5379623 C40.0603073,22.3237736 40.101486,22.2363774 40.1814302,22.1458113 C40.2517207,22.0644528 40.3271397,22.0221887 40.4015028,22.0221887 C40.4859721,22.0221887 40.5298659,22.0709434 40.5277542,22.1616604 Z M40.9034916,22.0739623 C40.9078659,21.866717 40.764419,21.7595472 40.4818994,21.7595472 C39.9799106,21.7595472 39.6230279,22.194566 39.609,22.8199245 C39.6010056,23.1766038 39.7388715,23.3553208 40.0278771,23.3553208 C40.1568436,23.3553208 40.310095,23.3162264 40.4383073,23.2483019 C40.484162,23.2253585 40.5399721,23.1900377 40.6093575,23.141434 C40.6948827,23.0793962 40.7344022,23.0537358 40.8268659,22.9790189 L40.6831173,22.7485283 C40.472095,22.9043019 40.4197542,22.9402264 40.3310615,22.9756981 C40.2652961,23.0016604 40.1873128,23.0178113 40.1450782,23.0178113 C40.0936425,23.0178113 40.0296872,22.9856604 40.0013296,22.9402264 C39.9821732,22.9106415 39.9737263,22.8784906 39.9618101,22.8037736 L40.6253464,22.4570566 C40.8151006,22.3562264 40.8989665,22.2430189 40.9034916,22.0739623 L40.9034916,22.0739623 Z" id="Fill-9" fill="#FFFFFE"></path>
                    <polyline id="Fill-10" fill="#FFFFFE" points="43.0678659 21.7433962 42.8826369 21.7433962 42.0984302 22.0286792 42.1850112 22.3335849 42.6010223 22.1711698 42.396486 23.3127547 42.7821788 23.3127547 43.0678659 21.7433962"></polyline>
                    <path d="M44.4525587,22.7358491 C44.4490894,22.9138113 44.2670279,23.069434 44.0659609,23.069434 C43.8842011,23.069434 43.7632291,22.9658868 43.7673017,22.8137358 C43.7700168,22.690717 43.8645922,22.541283 43.9891844,22.4570566 L44.1735084,22.3335849 L44.3668827,22.5183396 C44.4240503,22.5735849 44.4546704,22.6481509 44.4525587,22.7358491 Z M44.5468324,21.6167547 C44.5447207,21.701434 44.5005251,21.7788679 44.4315922,21.8246038 L44.2442514,21.9476226 L44.127352,21.805283 C44.0928101,21.7595472 44.0713911,21.6982642 44.0727486,21.6396981 C44.0757654,21.5132075 44.1938715,21.4191698 44.3465196,21.4191698 C44.4664358,21.4191698 44.5495475,21.5002264 44.5468324,21.6167547 Z M44.9530391,21.5390189 C44.9592235,21.2895094 44.754838,21.1367547 44.4113799,21.1367547 C43.9805866,21.1367547 43.6745363,21.3381132 43.6677486,21.6262642 C43.6647318,21.7566792 43.7264246,21.9026415 43.8276369,22.0093585 L43.9638436,22.1521509 L43.686905,22.3335849 C43.5098212,22.450566 43.3678827,22.6839245 43.3639609,22.8718491 C43.3562682,23.1833962 43.5698547,23.3486792 43.9753073,23.3486792 C44.4940391,23.3486792 44.8558994,23.1150189 44.8632905,22.7714717 C44.8673631,22.6220377 44.7830447,22.453434 44.6435196,22.3335849 L44.4337039,22.1521509 L44.6411061,22.0093585 C44.7960168,21.9026415 44.8593687,21.8342642 44.910352,21.7207547 C44.9375028,21.6623396 44.9516816,21.597434 44.9530391,21.5390189 L44.9530391,21.5390189 Z" id="Fill-11" fill="#FFFFFE"></path>
                    <path d="M46.3724246,21.6209811 L45.3937877,21.6209811 L45.1967933,22.7236226 L45.4011788,22.7236226 C45.4951508,22.7236226 45.6271341,22.7592453 45.6939553,22.8015094 C45.7576089,22.8434717 45.7944134,22.9310189 45.7927542,23.0416604 C45.7859665,23.3168302 45.5829385,23.5441509 45.3431061,23.5441509 C45.2494358,23.5441509 45.1590838,23.5212075 45.0011564,23.4564528 L44.8841061,23.7612075 C45.0605866,23.829434 45.1705475,23.8522264 45.3103743,23.8522264 C45.7832514,23.8522264 46.1881006,23.4594717 46.1983575,22.9926038 C46.2036369,22.7657358 46.1138883,22.5873208 45.9503799,22.509434 C45.8607821,22.4674717 45.7989385,22.4544906 45.6342235,22.4381887 L45.7238212,21.9483774 L46.3132961,21.9483774 L46.3724246,21.6209811" id="Fill-12" fill="#FFFFFE"></path>
                    <path d="M47.7734078,21.6209811 L46.7946201,21.6209811 L46.5979274,22.7236226 L46.8011061,22.7236226 C46.8959832,22.7236226 47.0276648,22.7592453 47.0949385,22.8015094 C47.158743,22.8434717 47.1956983,22.9310189 47.1932849,23.0416604 C47.1867989,23.3168302 46.9837709,23.5441509 46.7439385,23.5441509 C46.6502682,23.5441509 46.5596145,23.5212075 46.4019888,23.4564528 L46.2849385,23.7612075 C46.4617207,23.829434 46.5713799,23.8522264 46.7116592,23.8522264 C47.1840838,23.8522264 47.588933,23.4594717 47.5991899,22.9926038 C47.6047709,22.7657358 47.514419,22.5873208 47.3509106,22.509434 C47.2610112,22.4674717 47.2000726,22.4544906 47.0350559,22.4381887 L47.1234469,21.9483774 L47.7144302,21.9483774 L47.7734078,21.6209811" id="Fill-13" fill="#FFFFFE"></path>
                    <path d="M44.3968994,31.2122264 C44.6163687,29.8929811 44.0219162,29.5693585 42.9716313,29.5693585 L41.7035363,29.5693585 C40.9001732,29.5693585 40.6995587,29.6285283 40.5681788,30.3850566 L40.009324,33.5794717 L41.9334134,33.5794717 C42.4857821,33.5794717 42.8156648,33.4039245 43.0316648,33.1666415 C43.1407207,33.0470943 43.221419,32.9107925 43.2870335,32.7698113 C43.3435978,32.6493585 43.388095,32.5263396 43.4294246,32.4104151 C43.4350056,32.3966792 43.4553687,32.3495849 43.4600447,32.3363019 L43.9833017,32.3275472 L43.3737654,35.8153962 L42.8452291,35.8153962 C42.9972737,34.898717 42.7355698,34.4164528 41.7996201,34.4164528 L39.8637654,34.4167547 L39.2350726,38.0143396 C39.0816704,38.8943396 39.258,38.9153208 40.0584972,38.9153208 L41.8626704,38.9153208 C42.7649832,38.9153208 43.2597318,38.5799245 43.5760391,37.3426415 L44.1008045,37.3394717 L43.6285307,39.7524528 L37.0694916,39.7524528 L38.603514,30.9743396 C38.7451508,30.1606038 38.7967374,29.7782642 38.649067,29.5613585 C38.5099944,29.3592453 38.190067,29.293434 37.5408603,29.1830943 C37.5078268,29.1778113 37.3987709,29.1551698 37.3637765,29.1491321 L37.4512626,28.7320755 L45.3099218,28.7320755 L44.9263408,31.2122264 L44.3968994,31.2122264" id="Fill-14" fill="#777776"></path>
                    <path d="M47.6384078,34.8623396 C47.8257486,34.9832453 48.0272682,35.1044528 48.227581,35.2326038 C49.0292849,35.7453585 49.8282737,36.3876226 49.6069944,37.6564528 C49.3238715,39.2763774 47.8693408,39.9314717 46.2529609,39.9314717 C45.754743,39.9314717 45.3343575,39.882566 44.993162,39.8211321 C44.6688603,39.762717 44.3450112,39.674717 44.1670223,39.6253585 L44.4201285,38.2676226 C44.9080894,38.6501132 45.5640838,39.1433962 46.4425642,39.1433962 C47.4522737,39.1433962 47.898905,38.6333585 47.9954413,38.0833208 C48.0624134,37.701283 47.9020726,37.4078491 47.6201564,37.1443019 C47.4789721,37.0120755 47.3082235,36.8883019 47.1219385,36.7657358 C46.9348994,36.6430189 46.7336816,36.5219623 46.5333687,36.3956226 C45.7325698,35.8928302 44.9221173,35.2949434 45.1233352,34.146717 C45.3307374,32.9554717 46.3212905,31.9366038 48.2547318,31.9366038 C48.671648,31.9366038 49.0507039,31.9897358 49.3594693,32.0511698 C49.6042793,32.0997736 49.8039888,32.1533585 49.9427598,32.1898868 C49.966743,32.1963774 50.041257,32.2176604 50.0616201,32.2224906 L49.8388324,33.5337358 C49.7229888,33.4449811 49.6456089,33.3811321 49.5477151,33.3077736 C49.4413743,33.2276226 49.3102961,33.136 49.1570447,33.0499623 C48.8518994,32.8766792 48.4624358,32.725283 48.0158045,32.725283 C47.5002402,32.725283 46.8748659,32.9183396 46.757514,33.5897358 C46.6928045,33.9587925 46.8545028,34.2387925 47.1385307,34.4937358 C47.2798659,34.621283 47.4522737,34.7420377 47.6384078,34.8623396" id="Fill-15" fill="#777776"></path>
                    <path d="M52.0451397,32.1156226 L52.2661173,30.8463396 L54.2310838,29.333283 L53.744933,32.1156226 L55.8738603,32.1156226 L55.7474581,32.8387925 L53.6183799,32.8387925 L52.7969162,37.5426415 C52.5978101,38.6793962 52.5944916,39.1433962 53.8066257,39.1433962 C53.9954749,39.1433962 54.2372682,39.1210566 54.4335084,39.0754717 L54.3147989,39.7977358 C53.9058771,39.8704906 53.5476369,39.9314717 53.1937709,39.9314717 C51.6279218,39.9314717 50.7241006,39.6803019 51.0544358,37.7901887 L51.9193408,32.8387925 L50.651095,32.8387925 L50.7771955,32.1156226 L52.0451397,32.1156226" id="Fill-16" fill="#777776"></path>
                    <path d="M59.4476648,35.4848302 L59.6102682,34.6831698 C59.7950447,33.6316981 59.9718268,32.5628679 59.0001285,32.5628679 C58.0035419,32.5628679 57.7545084,33.3977358 57.6246369,34.1020377 C57.6205642,34.1240755 57.6098547,34.1915472 57.6066872,34.2131321 L55.587419,34.2215849 C55.9860838,33.0706415 56.7396704,31.9366038 59.0800726,31.9366038 C61.4230391,31.9366038 61.576743,33.1575849 61.2936201,34.7766038 L60.4240391,39.7524528 L58.7253017,39.7524528 L58.8808156,38.8620377 C58.7735698,38.968 58.7052402,39.0350189 58.6292179,39.1053585 C58.4937654,39.2289811 58.3343296,39.3618113 58.1448771,39.4845283 C57.7670279,39.7293585 57.2743911,39.9314717 56.6401173,39.9314717 C55.3536201,39.9314717 54.5805754,39.0039245 54.7531341,38.0178113 C55.1528547,35.7284528 58.3574078,35.5218113 59.4476648,35.4848302 Z M56.660933,37.7544151 C56.5316648,38.4938868 56.8120726,38.9811321 57.3789218,38.9811321 C58.2969218,38.9811321 59.0066145,38.1399245 59.1987821,37.0424151 L59.3564078,36.1420377 C58.6525978,36.1667925 56.9143408,36.3044528 56.660933,37.7544151 L56.660933,37.7544151 Z" id="Fill-17" fill="#777776"></path>
                    <path d="M70.0408659,28.2866415 L68.0377374,39.7524528 L66.3385475,39.7524528 L66.4878771,38.8958491 C66.3521229,39.0076981 66.2542291,39.0875472 66.1460782,39.1692075 C65.9858883,39.290566 65.805486,39.4155472 65.6026089,39.5284528 C65.1954972,39.7541132 64.7001453,39.9314717 64.1068994,39.9314717 C61.9544413,39.9314717 61.4710056,38.1180377 61.8260782,36.0828679 C62.1880894,34.0129811 63.3815196,31.9366038 65.5556983,31.9366038 C66.8479274,31.9366038 67.2668045,32.5725283 67.4924581,33.1041509 C67.5196089,33.0327547 67.549324,32.8760755 67.5855251,32.6680755 L67.7351564,31.7793208 C67.8413464,31.1473208 67.9485922,30.5353962 67.9485922,30.5353962 C68.1387989,29.4431698 67.9600559,29.1678491 67.1345196,29.104 C67.1073687,29.1020377 66.998162,29.0919245 66.9688994,29.0904151 L67.0502011,28.7038491 L70.0408659,28.2866415 Z M67.090324,35.4476981 C67.251419,34.5221132 67.3533855,32.8876981 65.8579777,32.8876981 C64.3974134,32.8876981 63.9264972,34.7177358 63.7252793,35.8673208 C63.5026425,37.1423396 63.3202793,38.9811321 64.7965307,38.9811321 C66.3216536,38.9811321 66.8216816,36.9870189 66.9740279,36.1142642 L67.090324,35.4476981 L67.090324,35.4476981 Z" id="Fill-18" fill="#777776"></path>
                    <path d="M73.6449888,31.9366038 C76.0336592,31.9366038 76.910933,33.5929057 76.4991453,35.9480755 C76.0336592,38.613434 74.688486,39.9314717 72.2615028,39.9314717 C69.611581,39.9314717 69.0049106,38.2241509 69.4047821,35.9356981 C69.8811285,33.2055849 71.2504358,31.9366038 73.6449888,31.9366038 Z M74.6393128,35.9356981 C74.9053911,34.4161509 75.0732737,32.5628679 73.5486034,32.5628679 C71.975514,32.5628679 71.5171173,34.5041509 71.2643128,35.9480755 C71.0238771,37.3228679 70.8009385,39.3055094 72.3575866,39.3055094 C73.9145363,39.3055094 74.3534749,37.5740377 74.6393128,35.9356981 L74.6393128,35.9356981 Z" id="Fill-19" fill="#777776"></path>
                    <path d="M2.11716201,38.2913208 C2.00946369,38.9053585 2.60331285,38.9153208 3.52538547,38.9153208 C5.29607263,38.9153208 6.18390503,38.130717 6.47064804,36.4890566 C6.74592737,34.9133585 5.67708939,34.3515472 4.25378212,34.3515472 L2.80558659,34.3515472 L2.11716201,38.2913208 Z M8.66715084,31.4102642 C8.39594413,32.9646792 7.19919553,33.6055849 6.35525698,33.8846792 C7.42696089,34.1304151 8.63396648,34.7619623 8.27632961,36.810566 C8.01884916,38.2833208 7.0545419,39.0197736 5.9908324,39.386566 C5.45927933,39.5696604 4.90313966,39.661283 4.3966257,39.706717 C3.89041341,39.7524528 3.43277095,39.7527547 3.09911732,39.7527547 L-4.54747351e-13,39.7524528 L1.53341899,30.9743396 C1.67596089,30.1603019 1.73192179,29.7776604 1.5854581,29.5613585 C1.44155866,29.3483774 1.03550279,29.2591698 0.309972067,29.1381132 L0.381469274,28.7320755 L5.23950838,28.7320755 C7.10205587,28.7320755 9.05857542,29.1698113 8.66715084,31.4102642 Z M2.95129609,33.5141132 L3.99750838,33.5141132 C5.38717877,33.5141132 6.51680447,33.0649057 6.79313966,31.4786415 C7.04353073,30.0466415 6.33051955,29.5693585 4.86181006,29.5693585 C3.88905587,29.5693585 3.63248045,29.6166038 3.49838547,30.3850566 L2.95129609,33.5141132 L2.95129609,33.5141132 Z" id="Fill-20" fill="#777776"></path>
                    <path d="M13.1087263,35.4848302 L13.2725363,34.6831698 C13.4565587,33.6316981 13.6331899,32.5628679 12.662095,32.5628679 C11.6775754,32.5628679 11.421905,33.3766038 11.290676,34.0754717 C11.2852458,34.1070189 11.2742346,34.1847547 11.2691061,34.2152453 L9.24878212,34.2215849 C9.64805028,33.0706415 10.4016369,31.9366038 12.7421899,31.9366038 C15.0847039,31.9366038 15.238257,33.1575849 14.9552849,34.7766038 L14.0858547,39.7524528 L12.3869665,39.7524528 L12.5424804,38.8620377 C12.4352346,38.968 12.3672067,39.0350189 12.2908827,39.1053585 C12.1563352,39.2286792 11.9952402,39.3624151 11.8068436,39.4845283 C11.4285419,39.7293585 10.9351508,39.9314717 10.3017821,39.9314717 C9.0148324,39.9314717 8.24208939,39.0039245 8.41479888,38.0178113 C8.81482123,35.7284528 12.0190726,35.5218113 13.1087263,35.4848302 Z M10.3221453,37.7544151 C10.1931788,38.4938868 10.4735866,38.9811321 11.0402849,38.9811321 C11.9579832,38.9811321 12.667676,38.1399245 12.8602961,37.0424151 L13.0179218,36.1420377 C12.3133575,36.1667925 10.5763073,36.3044528 10.3221453,37.7544151 L10.3221453,37.7544151 Z" id="Fill-21" fill="#777776"></path>
                    <path d="M20.8628547,35.4963019 C21.0912235,34.1836981 21.2686089,33.1153208 20.232352,33.1153208 C19.185838,33.1153208 18.002514,34.6049811 17.8020503,35.7538113 L17.1035196,39.7524528 L15.4043296,39.7524528 L16.3641117,34.2600755 C16.5525084,33.1793208 16.3586816,32.9058113 15.4544078,32.8594717 C15.4302737,32.8578113 15.330419,32.8461887 15.3053799,32.8448302 L15.3783855,32.4621887 L18.4702626,31.9284528 L18.1201676,33.9369057 C18.644933,33.1634717 19.7128659,31.9366038 21.1731285,31.9366038 C22.6878436,31.9366038 22.9949497,33.0129811 22.7751788,34.2727547 L21.8176592,39.7524528 L20.1184693,39.7524528 L20.8628547,35.4963019" id="Fill-22" fill="#777776"></path>
                    <path d="M27.8819497,34.2378868 C28.0074469,33.4872453 27.9944749,32.5628679 27.047514,32.5628679 C25.9767151,32.5628679 25.5254078,33.7275472 25.2510335,35.2976604 C24.8321564,37.6984151 25.7056592,38.9811321 27.1497821,38.9811321 C27.6270335,38.9811321 28.2686983,38.8916226 28.6816927,38.7714717 C28.6964749,38.7675472 28.7462514,38.7498868 28.7598268,38.7456604 L28.6313128,39.5417358 C28.2949441,39.6564528 28.0597877,39.7446038 27.7163296,39.8147925 C27.3657821,39.8864906 26.9244302,39.9314717 26.2477709,39.9314717 C23.9435698,39.9314717 22.8656816,38.2940377 23.2981341,35.8218868 C23.6888045,33.584 24.8924916,31.9366038 27.2422458,31.9366038 C29.0049385,31.9366038 30.0549218,32.8060377 29.8960894,34.0947925 C29.8926201,34.1240755 29.8822123,34.2045283 29.8772346,34.2342642 L27.8819497,34.2378868" id="Fill-23" fill="#777776"></path>
                    <path d="M33.9015922,31.9366038 C36.2893575,31.9366038 37.166933,33.5929057 36.7551453,35.9480755 C36.2893575,38.613434 34.944486,39.9314717 32.5172011,39.9314717 C29.8672793,39.9314717 29.2618156,38.2241509 29.660933,35.9356981 C30.1380335,33.2055849 31.5070391,31.9366038 33.9015922,31.9366038 Z M34.8953128,35.9356981 C35.1603352,34.4161509 35.3300279,32.5628679 33.8043017,32.5628679 C32.2316648,32.5628679 31.772514,34.5041509 31.5212179,35.9480755 C31.2807821,37.3228679 31.0573911,39.3055094 32.6144916,39.3055094 C34.171743,39.3055094 34.6091732,37.5740377 34.8953128,35.9356981 L34.8953128,35.9356981 Z" id="Fill-24" fill="#777776"></path>
                    <path d="M79.1549497,29.6569057 L79.2667207,29.6569057 C79.5505978,29.6569057 79.6976648,29.7304151 79.6976648,29.9844528 C79.6976648,30.2818113 79.4578324,30.341434 79.2667207,30.341434 L79.1549497,30.341434 L79.1549497,29.6569057 Z M78.8556872,31.3593962 L79.1549497,31.3593962 L79.1549497,30.5218113 L79.2667207,30.5218113 C79.5579888,30.5218113 79.6133464,30.6966038 79.6540726,30.8575094 L79.7604134,31.3593962 L80.0623911,31.3593962 L79.9622346,30.8712453 C79.9156257,30.6499623 79.8773128,30.4620377 79.5937374,30.4152453 L79.5937374,30.4098113 C79.7548324,30.3797736 79.9978324,30.2735094 79.9978324,29.970566 C79.9978324,29.5204528 79.5833296,29.4768302 79.2667207,29.4768302 L78.8556872,29.4768302 L78.8556872,31.3593962 L78.8556872,31.3593962 Z" id="Fill-25" fill="#777776"></path>
                    <path d="M79.4587374,29.1580377 C78.7635251,29.1580377 78.2001453,29.7222642 78.2001453,30.4181132 C78.2001453,31.1139623 78.7635251,31.6778868 79.4587374,31.6778868 C80.1548547,31.6778868 80.7182346,31.1139623 80.7182346,30.4181132 C80.7182346,29.7222642 80.1548547,29.1580377 79.4587374,29.1580377 Z M79.4587374,28.9913962 C80.2465642,28.9913962 80.8849106,29.6300377 80.8849106,30.4181132 C80.8849106,31.2057358 80.2465642,31.8443774 79.4587374,31.8443774 C78.6718156,31.8443774 78.0334693,31.2057358 78.0334693,30.4181132 C78.0334693,29.6300377 78.6718156,28.9913962 79.4587374,28.9913962 L79.4587374,28.9913962 Z" id="Fill-26" fill="#777776"></path>
                </g>
            </g>
        </g>
    </g>
</svg>