<?xml version="1.0" encoding="UTF-8"?>
<svg width="50px" height="16px" viewBox="0 0 50 16" version="1.1" xmlns="http://www.w3.org/2000/svg" xmlns:xlink="http://www.w3.org/1999/xlink">
    <!-- Generator: Sketch 58 (84663) - https://sketch.com -->
    <title>Group 20 Copy</title>
    <desc>Created with Sketch.</desc>
    <g id="Sitio-personas---mobile" stroke="none" stroke-width="1" fill="none" fill-rule="evenodd">
        <g id="medio-de-pago" transform="translate(-243.000000, -488.000000)" fill="#292D78">
            <g id="Group-20-Copy" transform="translate(243.000000, 488.000000)">
                <path d="M44.0570111,10.1514793 L39.7930812,10.1514793 L41.9105166,2.89126627 L44.0570111,10.1514793 Z M43.3876384,0.00501775148 C44.6055351,0.00501775148 44.8378229,0.315550296 45.2651292,1.62613018 L49.9704797,15.916497 L45.777952,15.916497 L44.7559041,12.4819882 L39.1135609,12.4819882 L38.0964945,15.9180118 L35.6769373,15.9180118 L40.423893,0.00227218935 L43.3876384,0.00501775148 L43.3876384,0.00501775148 Z" id="Fill-1"></path>
                <path d="M35.0447417,1.70530257e-13 L37.4929889,1.70530257e-13 L32.7658672,15.916497 L29.0438192,15.9137515 L23.9730627,0.00227218935 L26.7129151,1.70530257e-13 C27.7712177,1.70530257e-13 28.0493542,0.280236686 28.6023063,2.08265089 L31.5381919,12.0888994 L35.0447417,1.70530257e-13" id="Fill-2"></path>
                <path d="M18.8603321,7.00572781 L20.15369,5.0236213 C20.4808118,4.52733728 20.5502768,4.21510059 20.5502768,3.86707692 C20.5502768,2.89457988 19.7165129,2.07753846 18.7569188,2.07753846 L16.7681734,2.07753846 L16.7681734,13.7839527 L17.8700185,13.7839527 C19.7137454,13.7839527 21.1132841,12.7620355 21.1132841,10.3693254 C21.1132841,8.3947929 20.2099631,7.34106509 18.8603321,7.00572781 Z M19.6345941,15.9217041 L13.1204797,15.9217041 L13.1204797,-1.42108547e-13 L19.872048,-1.42108547e-13 C23.0370849,-1.42108547e-13 24.1400369,2.64747929 22.5370849,5.09046154 L21.7797048,6.24340828 C27.0893911,9.07370414 25.3629151,15.9217041 19.6345941,15.9217041 L19.6345941,15.9217041 Z" id="Fill-3"></path>
                <path d="M5.73976015,7.00572781 L7.03357934,5.0236213 C7.36088561,4.52733728 7.42998155,4.21510059 7.42998155,3.86707692 C7.42998155,2.89457988 6.59714022,2.07753846 5.63763838,2.07753846 L3.64870849,2.07753846 L3.64870849,13.7839527 L4.75,13.7839527 C6.5945572,13.7839527 7.99345018,12.7620355 7.99345018,10.3693254 C7.99345018,8.3947929 7.09059041,7.34106509 5.73976015,7.00572781 Z M6.51448339,15.9217041 L-7.2475359e-13,15.9217041 L-7.2475359e-13,-1.42108547e-13 L6.75212177,-1.42108547e-13 C9.91651292,-1.42108547e-13 11.020203,2.64747929 9.41697417,5.09046154 L8.6595941,6.24340828 C13.9696494,9.07370414 12.2434502,15.9217041 6.51448339,15.9217041 L6.51448339,15.9217041 Z" id="Fill-4"></path>
            </g>
        </g>
    </g>
</svg>