<?xml version="1.0" encoding="UTF-8"?>
<svg width="50px" height="20px" viewBox="0 0 50 20" version="1.1" xmlns="http://www.w3.org/2000/svg" xmlns:xlink="http://www.w3.org/1999/xlink">
    <!-- Generator: Sketch 58 (84663) - https://sketch.com -->
    <title>Group 19 Copy</title>
    <desc>Created with Sketch.</desc>
    <defs>
        <polygon id="path-1" points="0.0115830116 0.176952381 49.7818533 0.176952381 49.7818533 19.5761581 0.0115830116 19.5761581"></polygon>
    </defs>
    <g id="Sitio-personas---mobile" stroke="none" stroke-width="1" fill="none" fill-rule="evenodd">
        <g id="medio-de-pago" transform="translate(-67.000000, -486.000000)">
            <g id="Group-19-Copy" transform="translate(67.000000, 486.000000)">
                <path d="M22.2563707,8.15104762 C22.2563707,8.57085714 22.3156371,8.8232381 22.4305019,8.91390476 C22.5474903,9.00361905 22.8725869,9.05009524 23.4073359,9.05009524 L23.9017375,9.05009524 C27.284556,9.05009524 28.9718147,7.89066667 28.9718147,5.57314286 C28.9718147,3.1072381 27.4542471,1.87161905 24.4123552,1.87161905 C23.5972973,1.87161905 23.0484556,1.9487619 22.7666023,2.10057143 C22.4291506,2.29085714 22.2563707,2.68647619 22.2563707,3.284 L22.2563707,8.15104762 Z M28.8945946,9.24685714 C32.1604247,9.78133333 33.7911197,11.448 33.7911197,14.2491429 C33.7911197,15.8577143 33.1415058,17.1453333 31.8494208,18.1182857 C30.5561776,19.0921905 28.8785714,19.5790476 26.8098456,19.5790476 C26.0563707,19.5790476 20.3451737,19.6068571 18.842278,19.6068571 L18.842278,0.830095238 C19.8465251,0.830095238 22.2608108,0.923428571 23.557722,0.908380952 C30.5339768,0.830095238 32.5586873,2.40571429 32.5586873,5.39980952 C32.5586873,7.2712381 31.3364865,8.55314286 28.8945946,9.24685714 L28.8945946,9.24685714 Z M22.7326255,9.9832381 C22.4167954,9.9832381 22.2563707,10.1051429 22.2563707,10.3510476 L22.2563707,16.3352381 C22.2563707,17.7973333 23.2666023,18.5304762 25.2816602,18.5304762 C26.8870656,18.5304762 28.107529,18.0891429 28.946332,17.2051429 C29.6870656,16.4249524 30.0569498,15.3878095 30.0569498,14.0832381 C30.0569498,12.8127619 29.6233591,11.811619 28.7623552,11.0782857 C27.8980695,10.3481905 26.6594595,9.9832381 25.046139,9.9832381 L22.7326255,9.9832381 L22.7326255,9.9832381 Z" id="Fill-1" fill="#141412"></path>
                <path d="M41.711583,7.53580952 C42.5859073,7.53580952 43.4212355,7.64761905 44.2138996,7.86742857 C45.2739382,8.16304762 45.8050193,8.58457143 45.8050193,9.12857143 C45.8050193,10.5342857 45.4857143,11.2371429 44.8540541,11.2371429 C44.542471,11.2371429 44.2254826,10.9819048 43.907529,10.4744762 L43.7320463,10.1672381 C42.9633205,8.86095238 42.1714286,8.2087619 41.3519305,8.2087619 C40.1092664,8.2087619 39.1409266,8.86685714 38.4393822,10.1828571 C37.9111969,11.1887619 37.6451737,12.2274286 37.6451737,13.299619 C37.6451737,14.6342857 37.996332,15.7693333 38.6951737,16.7074286 C39.5700772,17.8700952 40.846139,18.4548571 42.5281853,18.4548571 C43.0079151,18.4548571 43.6683398,18.2718095 44.5059846,17.9093333 C44.7760618,17.7940952 44.9928571,17.6990476 45.1635135,17.616381 C45.1635135,17.616381 45.2196911,17.5885714 45.3065637,17.5537143 C45.4907336,17.471619 45.8079151,17.3561905 45.9380309,17.4453333 C46.0202703,17.5030476 46.0584942,17.5906667 46.0584942,17.7055238 C46.0584942,18.2885714 45.4110039,18.8140952 44.1090734,19.2838095 C42.9942085,19.6973333 41.9949807,19.9026667 41.107529,19.9026667 C38.9704633,19.9026667 37.3028958,19.2588571 36.1083012,17.9657143 C35.0600386,16.8430476 34.5366795,15.4590476 34.5366795,13.8127619 C34.5366795,12.0761905 35.1279923,10.6278095 36.3129344,9.472 C37.6243243,8.18304762 39.4227799,7.53580952 41.711583,7.53580952" id="Fill-2" fill="#141412"></path>
                <path d="M47.0527027,19.5998095 L47.0550193,8.11657143 C47.0550193,8.11657143 47.8930502,8.15961905 48.5052124,8.20533333 C49.3397683,8.27161905 49.8469112,8.28285714 49.8469112,8.28285714 L49.8671815,19.5998095 L47.0527027,19.5998095" id="Fill-3" fill="#141412"></path>
                <g id="Group-9">
                    <mask id="mask-2" fill="white">
                        <use xlink:href="#path-1"></use>
                    </mask>
                    <g id="Clip-5"></g>
                    <path d="M47.0550193,5.31866667 C47.0550193,4.48019048 47.6662162,3.79866667 48.4175676,3.79866667 C49.1706564,3.79866667 49.7818533,4.48019048 49.7818533,5.31866667 C49.7818533,6.16342857 49.1706564,6.84285714 48.4175676,6.84285714 C47.6662162,6.84285714 47.0550193,6.16342857 47.0550193,5.31866667" id="Fill-4" fill="#141412" mask="url(#mask-2)"></path>
                    <path d="M0.134749035,17.0232381 C0.784362934,15.1146667 2.63841699,14.0453333 4.25328185,13.0087619 C5.43976834,12.2415238 6.65501931,11.516 7.85675676,10.7702857 L7.91158301,10.7339048 C8.46293436,11.0432381 9.03088803,11.3070476 9.59440154,11.528 C9.66100386,11.5481905 9.72953668,11.5624762 9.803861,11.5758095 L9.73667954,11.6137143 C8.61891892,12.259619 7.51351351,12.8735238 6.46795367,13.6245714 C5.41447876,14.3855238 4.45057915,15.2217143 3.5480695,16.1485714 C2.87760618,16.8337143 2.45714286,17.6514286 2.01351351,18.4868571 C1.8507722,18.7912381 1.69749035,19.2297143 1.40579151,19.4386667 C1.2027027,19.5870476 0.864478764,19.627619 0.647683398,19.4992381 C-0.12972973,19.0337143 -0.0747104247,17.7539048 0.134749035,17.0232381 M9.43764479,9.76438095 C10.3220077,9.14114286 11.0366795,8.2992381 11.5698842,7.37257143 C11.8696911,6.84647619 12.1160232,6.30457143 12.3573359,5.7527619 C12.6861004,4.98838095 12.9521236,3.99257143 13.7650579,3.59980952 C14.342278,3.31809524 15.1009653,3.47352381 15.5380309,3.93485714 C15.9687259,4.384 16.0677606,5.04209524 15.9552124,5.63238095 C15.7100386,6.87904762 14.9810811,8.00857143 14.0633205,8.87752381 C13.5235521,9.38704762 12.9117761,9.76514286 12.2750965,10.14 C11.8994208,10.3624762 11.5258687,10.5792381 11.1507722,10.7971429 C11.0467181,10.423619 10.465251,10.2182857 10.1413127,10.0725714 C9.91389961,9.96380952 9.67471042,9.86914286 9.43764479,9.76438095" id="Fill-6" fill="#DD414A" mask="url(#mask-2)"></path>
                    <path d="M14.0366795,17.56 C13.507722,17.1607619 13.6936293,16.4321905 13.6581081,15.8634286 C13.6131274,15.184 13.488417,14.4318095 13.1841699,13.8127619 C12.8517375,13.1472381 12.1065637,12.996 11.5164093,12.6379048 C10.9637066,12.3007619 11.0069498,11.6220952 11.5772201,11.3213333 C12.7490347,10.7055238 14.1088803,11.448 14.7361004,12.4634286 C15.1291506,13.0979048 15.3741313,13.8306667 15.6104247,14.536381 C15.8509653,15.252381 16.1675676,16.1819048 15.7874517,16.9041905 C15.4903475,17.471619 14.6320463,18.0093333 14.0366795,17.56" id="Fill-7" fill="#009D4D" mask="url(#mask-2)"></path>
                    <path d="M9.59517375,11.5287619 C6.90714286,10.4744762 4.10810811,8.44685714 3.81196911,5.36628571 C3.73610039,4.58209524 3.86660232,3.78933333 4.07702703,3.03161905 C4.25328185,2.39561905 4.45328185,1.71561905 4.77355212,1.1352381 C5.33281853,0.122857143 6.67972973,-0.105333333 7.62548263,0.536380952 C8.74111969,1.28914286 8.04169884,2.64590476 7.76988417,3.65390476 C7.59150579,4.32914286 7.43262548,5.01980952 7.31988417,5.70704762 C7.20714286,6.39009524 7.18976834,7.09161905 7.41891892,7.75238095 C7.60598456,8.2992381 7.94710425,8.79104762 8.39498069,9.1647619 C8.9007722,9.58380952 9.55173745,9.79638095 10.1413127,10.071619 C10.5509653,10.2605714 11.3799228,10.5342857 11.115251,11.1386667 C10.8675676,11.7127619 10.092278,11.66 9.59517375,11.5287619" id="Fill-8" fill="#1D67A3" mask="url(#mask-2)"></path>
                </g>
                <path d="M3.47586873,19.0028571 C3.54382239,19.2546667 3.78088803,19.5377143 4.49980695,19.5847619 C5.75772201,19.6567619 7.06409266,19.483619 8.34305019,19.2182857 C10.4774131,18.7819048 11.3683398,18.2131429 11.3683398,18.2131429 C11.3683398,18.2131429 12.673166,17.536381 12.6040541,15.684381 C12.530888,13.8266667 11.2671815,12.9752381 11.2671815,12.9752381 C11.2671815,12.9752381 10.7561776,12.6379048 9.91679537,12.9260952 C9.34362934,13.1241905 7.72664093,14.0211429 6.67972973,14.6514286 C6.11332046,14.9937143 5.553861,15.4525714 5.08648649,15.9154286 C4.61679537,16.3771429 4.06756757,16.9897143 3.6976834,17.8339048 C3.63996139,17.9657143 3.59517375,18.088381 3.56119691,18.1975238 C3.48822394,18.4299048 3.41081081,18.7565714 3.47586873,19.0028571" id="Fill-10" fill="#FBD41F"></path>
            </g>
        </g>
    </g>
</svg>