<?xml version="1.0" encoding="UTF-8"?>
<svg width="84px" height="85px" viewBox="0 0 84 85" version="1.1" xmlns="http://www.w3.org/2000/svg" xmlns:xlink="http://www.w3.org/1999/xlink">
    <!-- Generator: Sketch 58 (84663) - https://sketch.com -->
    <title>Group 39</title>
    <desc>Created with Sketch.</desc>
    <defs>
        <path d="M83.4547333,42.1242667 C83.4547333,19.2022667 64.8727333,0.620266667 41.9507333,0.620266667 C19.0287333,0.620266667 0.446733333,19.2022667 0.446733333,42.1242667 C0.446733333,65.0462667 19.0287333,83.6282667 41.9507333,83.6282667 C64.8727333,83.6282667 83.4547333,65.0462667 83.4547333,42.1242667" id="path-1"></path>
        <polygon id="path-3" points="0.457533333 0.1002 60.6968667 0.1002 60.6968667 32.6666667 0.457533333 32.6666667"></polygon>
        <polygon id="path-5" points="0.136666667 0.1282 58.3453333 0.1282 58.3453333 20.6666667 0.136666667 20.6666667"></polygon>
    </defs>
    <g id="Sitio-personas---mobile" stroke="none" stroke-width="1" fill="none" fill-rule="evenodd">
        <g id="modal---solicitar-correo" transform="translate(-139.000000, -208.000000)">
            <g id="Group-39" transform="translate(139.000000, 208.000000)">
                <g id="Group-3" transform="translate(0.000000, 0.319333)">
                    <mask id="mask-2" fill="white">
                        <use xlink:href="#path-1"></use>
                    </mask>
                    <use id="Fill-1" fill="#F2F2F2" xlink:href="#path-1"></use>
                </g>
                <path d="M54.0126667,31.9569333 L53.7053333,31.1489333 C54.2433333,30.9436 54.7813333,30.7356 55.3173333,30.5262667 L55.6313333,31.3316 C55.0933333,31.5416 54.554,31.7509333 54.0126667,31.9569333" id="Fill-17" fill="#00C8B7"></path>
                <path d="M70.6936667,52.4208667 L40.5736667,70.1828667 L10.4536667,52.4208667 C10.4536667,52.4062 10.4536667,52.3862 10.459,52.3715333 C10.4836667,52.2588667 12.1456667,50.8708667 14.681,48.8115333 C14.7056667,48.7922 14.725,48.7722 14.7496667,48.7528667 C23.067,42.0002 40.5736667,28.1708667 40.5736667,28.1708667 C40.5736667,28.1708667 58.0803333,42.0002 66.3976667,48.7528667 C68.9723333,50.8415333 70.6643333,52.2542 70.6883333,52.3715333 C70.6936667,52.3862 70.6936667,52.4062 70.6936667,52.4208667" id="Fill-19" fill="#274684"></path>
                <path d="M52.9606,13.4612 L20.4632667,13.4612 C17.6759333,13.4612 15.4166,15.7212 15.4166,18.5078667 L15.4166,67.6438667 C15.4166,70.4312 17.6759333,72.6905333 20.4632667,72.6905333 L61.1839333,72.6905333 C63.9712667,72.6905333 66.2306,70.4312 66.2306,67.6438667 L66.2306,26.7312 L52.9606,13.4612 Z" id="Fill-21" fill="#FFFFFF"></path>
                <path d="M52.9606,21.6842 C52.9606,24.4715333 55.2206,26.7308667 58.0072667,26.7308667 L66.2306,26.7308667 L52.9606,13.4615333 L52.9606,21.6842 Z" id="Fill-23" fill="#E6E8E8"></path>
                <path d="M36.1126,21.7668667 L24.9012667,21.7668667 C23.9079333,21.7668667 23.1032667,22.5715333 23.1032667,23.5648667 L23.1032667,34.7762 C23.1032667,35.7688667 23.9079333,36.5742 24.9012667,36.5742 L36.1126,36.5742 C37.1052667,36.5742 37.9106,35.7688667 37.9106,34.7762 L37.9106,23.5648667 C37.9106,22.5715333 37.1052667,21.7668667 36.1126,21.7668667" id="Fill-25" fill="#5B92FE"></path>
                <path d="M51.4716667,40.6890667 L24.569,40.6890667 C23.7696667,40.6890667 23.121,41.3377333 23.121,42.1377333 C23.121,42.9377333 23.7696667,43.5864 24.569,43.5864 L51.4716667,43.5864 C52.271,43.5864 52.9203333,42.9377333 52.9203333,42.1377333 C52.9203333,41.3377333 52.271,40.6890667 51.4716667,40.6890667" id="Fill-27" fill="#D9DBDB"></path>
                <path d="M51.4716667,47.9052 L24.569,47.9052 C23.7696667,47.9052 23.121,48.5538667 23.121,49.3538667 C23.121,50.1538667 23.7696667,50.8025333 24.569,50.8025333 L51.4716667,50.8025333 C52.271,50.8025333 52.9203333,50.1538667 52.9203333,49.3538667 C52.9203333,48.5538667 52.271,47.9052 51.4716667,47.9052" id="Fill-29" fill="#D9DBDB"></path>
                <path d="M39.2538667,54.9052 L24.5692,54.9052 C23.7692,54.9052 23.1205333,55.5538667 23.1205333,56.3538667 C23.1205333,57.1538667 23.7692,57.8025333 24.5692,57.8025333 L39.2538667,57.8025333 C40.0538667,57.8025333 40.7025333,57.1538667 40.7025333,56.3538667 C40.7025333,55.5538667 40.0538667,54.9052 39.2538667,54.9052" id="Fill-31" fill="#D9DBDB"></path>
                <g id="Group-35" transform="translate(10.000000, 52.319333)">
                    <mask id="mask-4" fill="white">
                        <use xlink:href="#path-3"></use>
                    </mask>
                    <g id="Clip-34"></g>
                    <path d="M60.6968667,0.1002 L60.6968667,28.9962 C60.6968667,31.0162 59.0455333,32.6668667 57.0262,32.6668667 L4.11753333,32.6668667 C2.0982,32.6668667 0.457533333,31.0162 0.457533333,28.9962 L0.457533333,0.1002 L30.5768667,17.8595333 L60.6968667,0.1002 Z" id="Fill-33" fill="#5B92FE" mask="url(#mask-4)"></path>
                </g>
                <g id="Group-38" transform="translate(11.333333, 64.319333)">
                    <mask id="mask-6" fill="white">
                        <use xlink:href="#path-5"></use>
                    </mask>
                    <g id="Clip-37"></g>
                    <path d="M58.3453333,19.5168667 L38.9593333,0.130866667 L29.2433333,5.85953333 L19.524,0.1282 L0.136666667,19.5155333 C0.803333333,20.2208667 1.74066667,20.6668667 2.78466667,20.6668667 L55.6926667,20.6668667 C56.7366667,20.6668667 57.6753333,20.2215333 58.3453333,19.5168667" id="Fill-36" fill="#1D62F8" mask="url(#mask-6)"></path>
                </g>
            </g>
        </g>
    </g>
</svg>