<?xml version="1.0" encoding="UTF-8"?>
<svg width="63px" height="64px" viewBox="0 0 63 64" version="1.1" xmlns="http://www.w3.org/2000/svg" xmlns:xlink="http://www.w3.org/1999/xlink">
    <!-- Generator: Sketch 58 (84663) - https://sketch.com -->
    <title>Group 49 Copy 2</title>
    <desc>Created with Sketch.</desc>
    <g id="desktop-🖥" stroke="none" stroke-width="1" fill="none" fill-rule="evenodd">
        <g id="Desktop-HD-Copy-36" transform="translate(-958.000000, -718.000000)" fill="#D6DAE1">
            <g id="Group-49-Copy-2" transform="translate(989.500000, 750.500000) rotate(-345.000000) translate(-989.500000, -750.500000) translate(958.000000, 719.000000)">
                <g id="Group-3" transform="translate(0.000200, 0.000000)">
                    <path d="M31.3332,2 C15.1588,2 2,15.1588 2,31.3336 C2,47.508 15.1588,60.6668 31.3332,60.6668 C47.5076,60.6668 60.6664,47.508 60.6664,31.3336 C60.6664,15.1588 47.5076,2 31.3332,2 M31.3332,62.6668 C14.056,62.6668 -2.48689958e-14,48.6108 -2.48689958e-14,31.3336 C-2.48689958e-14,14.0564 14.056,1.52766688e-13 31.3332,1.52766688e-13 C48.6104,1.52766688e-13 62.6664,14.0564 62.6664,31.3336 C62.6664,48.6108 48.6104,62.6668 31.3332,62.6668" id="Fill-1"></path>
                    <path d="M8.71328,24.65428 C8.46088,24.62948 7.99768,24.72348 7.83728,25.35708 C7.72728,25.79228 7.92888,26.14108 8.21608,26.21388 C8.46648,26.27748 8.68968,26.16948 8.84768,25.82508 L9.15768,25.15908 C9.59408,24.21108 10.36568,23.85788 11.10968,24.04628 C11.92768,24.25388 12.58648,25.14988 12.27088,26.39508 C11.90448,27.83908 10.81208,28.22028 10.05648,28.10748 L10.06968,26.97388 C10.55968,27.05068 11.06168,26.83348 11.24288,26.11868 C11.35888,25.66228 11.20888,25.32588 10.88448,25.24388 C10.61928,25.17668 10.37368,25.34188 10.21968,25.67108 L9.90568,26.35228 C9.51248,27.19308 8.78648,27.58148 8.01328,27.38548 C7.02568,27.13508 6.55368,26.09068 6.80768,25.08828 C7.13808,23.78428 8.04448,23.48908 8.68368,23.53348 L8.71328,24.65428 Z" id="Fill-3"></path>
                    <polygon id="Fill-5" points="13.16876 23.27304 8.44316 20.68504 10.08196 17.69304 11.07516 18.23664 10.01316 20.17624 10.91276 20.66864 11.87636 18.90944 12.80276 19.41624 11.83916 21.17624 12.74556 21.67264 13.81156 19.72664 14.81116 20.27384"></polygon>
                    <path d="M14.75312,15.62188 C15.09112,15.26188 15.07352,14.88028 14.79632,14.62028 C14.50272,14.34468 14.13792,14.36708 13.79992,14.72748 L13.31632,15.24268 L14.26952,16.13708 L14.75312,15.62188 Z M15.31432,16.53388 L15.02312,16.84468 L16.48632,18.21708 L15.66472,19.09308 L11.73552,15.40588 L13.19672,13.84828 C13.92472,13.07268 14.92472,13.07308 15.62312,13.72828 C16.15512,14.22748 16.28392,14.90068 16.00312,15.54468 L18.34272,16.23868 L17.43792,17.20308 L15.31432,16.53388 Z" id="Fill-7"></path>
                    <polygon id="Fill-9" points="19.44376 9.0836 20.53696 8.4232 21.63856 14.0544 20.57776 14.6948 16.09936 11.104 17.23176 10.42 20.30576 12.9944"></polygon>
                    <polygon id="Fill-11" points="24.46036 12.74804 22.74676 7.63764 23.89996 7.25084 25.61356 12.36124"></polygon>
                    <polygon id="Fill-13" points="27.2246 11.891 26.5538 6.5466 29.9382 6.1218 30.0794 7.245 27.8858 7.5202 28.0134 8.5378 30.0034 8.2882 30.135 9.3358 28.145 9.5858 28.2738 10.611 30.4746 10.3346 30.6166 11.4654"></polygon>
                    <path d="M35.1498,8.06016 C35.143,7.80656 34.9914,7.35896 34.3426,7.27856 C33.8978,7.22336 33.5762,7.46736 33.5402,7.76136 C33.5082,8.01776 33.6434,8.22616 34.0046,8.33976 L34.7046,8.56416 C35.6998,8.87896 36.1462,9.60056 36.0522,10.36256 C35.9486,11.19976 35.1414,11.96536 33.8666,11.80776 C32.3878,11.62456 31.8726,10.58816 31.8906,9.82456 L33.017,9.69576 C33.0018,10.19176 33.2806,10.66296 34.0122,10.75336 C34.4798,10.81136 34.7946,10.62056 34.8358,10.28856 C34.8694,10.01696 34.675,9.79376 34.3286,9.68176 L33.6138,9.45536 C32.7298,9.16976 32.2538,8.49816 32.3518,7.70616 C32.477,6.69536 33.455,6.09616 34.481,6.22336 C35.8162,6.38856 36.223,7.25096 36.2582,7.89096 L35.1498,8.06016 Z" id="Fill-15"></path>
                    <polygon id="Fill-17" points="40.90508 9.2664 39.31468 13.1968 38.20188 12.7464 39.79228 8.816 38.25668 8.1944 38.68708 7.1312 42.87788 8.8268 42.44748 9.8908"></polygon>
                    <path d="M43.99064,13.33752 L45.03624,14.12272 L45.63824,12.24512 L43.99064,13.33752 Z M44.68264,15.22632 L43.01704,13.97512 L42.04944,14.61792 L41.04064,13.86032 L45.90064,10.76872 L47.01304,11.60432 L45.38104,17.11952 L44.33544,16.33432 L44.68264,15.22632 Z" id="Fill-19"></path>
                    <path d="M48.10508,18.80272 C48.59268,19.47272 49.37828,19.73792 50.25108,19.10232 C51.12348,18.46712 51.11908,17.63392 50.63108,16.96392 L50.21948,16.39832 L47.69348,18.23752 L48.10508,18.80272 Z M46.07108,17.93272 L50.42868,14.76112 L51.57828,16.34072 C52.53108,17.64952 52.33508,19.13672 50.98908,20.11672 C49.64308,21.09632 48.17348,20.82152 47.21628,19.50632 L46.07108,17.93272 Z" id="Fill-21"></path>
                    <path d="M51.18008,24.85704 C51.41088,25.56504 52.13768,26.17584 53.20728,25.82704 C54.27688,25.47824 54.51128,24.55424 54.28008,23.84624 C54.04688,23.13064 53.31328,22.52264 52.24368,22.87104 C51.17408,23.21984 50.94688,24.14144 51.18008,24.85704 M55.39328,23.48344 C55.86208,24.92144 55.21248,26.48424 53.58648,27.01464 C51.96768,27.54224 50.52168,26.66264 50.05288,25.22424 C49.58168,23.77904 50.23128,22.21624 51.85008,21.68824 C53.47608,21.15864 54.92208,22.03824 55.39328,23.48344" id="Fill-23"></path>
                    <path d="M31.3332,57.9336 C16.7392,57.9336 4.8664,46.0604 4.8664,31.4668 C4.8664,31.0252 5.2244,30.6668 5.6664,30.6668 C6.108,30.6668 6.4664,31.0252 6.4664,31.4668 C6.4664,45.1784 17.6216,56.3336 31.3332,56.3336 C45.0448,56.3336 56.2,45.1784 56.2,31.4668 C56.2,31.0252 56.5584,30.6668 57,30.6668 C57.442,30.6668 57.8,31.0252 57.8,31.4668 C57.8,46.0604 45.9272,57.9336 31.3332,57.9336" id="Fill-25"></path>
                    <path d="M31.3332,53.241 C27.3264,53.241 23.32,51.9334 20.0512,49.3182 C19.7064,49.0426 19.6504,48.539 19.9264,48.1942 C20.2024,47.8494 20.706,47.793 21.0508,48.069 C27.0088,52.8354 35.6576,52.8354 41.6156,48.069 C41.9604,47.793 42.464,47.8494 42.74,48.1942 C43.016,48.539 42.96,49.0426 42.6152,49.3182 C39.3464,51.9334 35.34,53.241 31.3332,53.241" id="Fill-27"></path>
                    <path d="M12.6096556,39.3402201 L13.3978239,39.3402201 C14.2289831,39.3402201 14.9240043,38.8537336 14.9240043,37.813193 C14.9240043,36.7726525 14.2361483,36.2794093 13.404989,36.2794093 L12.6096556,36.2794093 L12.6096556,39.3402201 Z M13.4336497,40.2050849 L11.6208626,40.2050849 L11.6208626,35.4145444 L13.4408149,35.4145444 C14.8881784,35.4145444 15.948623,36.2996795 15.948623,37.813193 C15.948623,39.3267066 14.8810133,40.2050849 13.4336497,40.2050849 Z M17.4318125,38.1645444 L19.008149,38.1645444 C18.9938187,37.8334633 18.7645334,37.509139 18.2199808,37.509139 C17.7255843,37.509139 17.453308,37.8604903 17.4318125,38.1645444 Z M19.1012962,39.0294093 L19.8966297,39.2523822 C19.7175005,39.8267066 19.1586175,40.3064363 18.2916324,40.3064363 C17.324335,40.3064363 16.4716802,39.6510309 16.4716802,38.5294093 C16.4716802,37.4685985 17.3028395,36.7794093 18.2056504,36.7794093 C19.2947557,36.7794093 19.9467858,37.4348147 19.9467858,38.5023822 C19.9467858,38.6307606 19.9324555,38.7658958 19.9324555,38.7794093 L17.410317,38.7794093 C17.4318125,39.2185985 17.8258966,39.536166 18.2987976,39.536166 C18.7430379,39.536166 18.9866535,39.3267066 19.1012962,39.0294093 Z M20.3981913,39.2794093 L21.2150203,39.1104903 C21.2365158,39.3740039 21.4443056,39.6172471 21.8598852,39.6172471 C22.1751525,39.6172471 22.325621,39.4618417 22.325621,39.286166 C22.325621,39.1375174 22.2181435,39.0158958 21.9458672,38.9618417 L21.4801314,38.8604903 C20.7994406,38.7185985 20.4913385,38.3334633 20.4913385,37.8672471 C20.4913385,37.2726525 21.0502214,36.7794093 21.8097291,36.7794093 C22.8128523,36.7794093 23.1496151,37.3807606 23.1926061,37.7388687 L22.3972727,37.9077876 C22.368612,37.7118417 22.2181435,37.4618417 21.8168942,37.4618417 C21.5661134,37.4618417 21.3654887,37.6037336 21.3654887,37.7929228 C21.3654887,37.9550849 21.4944617,38.0564363 21.6879212,38.0902201 L22.1894829,38.1915714 C22.884504,38.3267066 23.2355971,38.7253552 23.2355971,39.2118417 C23.2355971,39.7523822 22.7913568,40.3064363 21.8670504,40.3064363 C20.8066058,40.3064363 20.4411823,39.6577876 20.3981913,39.2794093 Z M27.3627329,35.313193 L27.3627329,39.6037336 C27.3627329,39.8267066 27.3770632,40.0699498 27.3913936,40.2050849 L26.4814175,40.2050849 C26.4670871,40.1375174 26.4455916,39.9753552 26.4455916,39.8199498 C26.287958,40.0834633 25.9296997,40.286166 25.4567987,40.286166 C24.4536754,40.286166 23.7371588,39.5429228 23.7371588,38.536166 C23.7371588,37.563193 24.4321799,36.7996795 25.428138,36.7996795 C26.0371772,36.7996795 26.3237838,37.036166 26.4240961,37.2118417 L26.4240961,35.313193 L27.3627329,35.313193 Z M24.6972911,38.536166 C24.6972911,39.1307606 25.0698797,39.482112 25.5714413,39.482112 C26.0586726,39.482112 26.4384265,39.1307606 26.4384265,38.5294093 C26.4384265,37.9348147 26.0586726,37.6037336 25.5714413,37.6037336 C25.08421,37.6037336 24.6972911,37.9415714 24.6972911,38.536166 Z M29.089538,38.1645444 L30.6658746,38.1645444 C30.6515442,37.8334633 30.4222589,37.509139 29.8777063,37.509139 C29.3833098,37.509139 29.1110335,37.8604903 29.089538,38.1645444 Z M30.7590217,39.0294093 L31.5543552,39.2523822 C31.375226,39.8267066 30.8163431,40.3064363 29.9493579,40.3064363 C28.9820605,40.3064363 28.1294057,39.6510309 28.1294057,38.5294093 C28.1294057,37.4685985 28.960565,36.7794093 29.8633759,36.7794093 C30.9524812,36.7794093 31.6045113,37.4348147 31.6045113,38.5023822 C31.6045113,38.6307606 31.590181,38.7658958 31.590181,38.7794093 L29.0680425,38.7794093 C29.089538,39.2185985 29.4836221,39.536166 29.9565231,39.536166 C30.4007634,39.536166 30.6443791,39.3267066 30.7590217,39.0294093 Z M34.8574968,37.5158958 L33.91886,37.4888687 C33.9045297,37.4280579 33.8830342,37.2929228 33.8830342,37.1848147 C33.8830342,36.4145444 34.4992385,35.7185985 35.5811786,35.7185985 C36.6201277,35.7185985 37.2578275,36.3672471 37.2578275,37.1307606 C37.2578275,37.6983282 36.9282299,38.1577876 36.3550166,38.4888687 L35.4593708,39.0023822 C35.2802416,39.1104903 35.1297731,39.232112 35.0581215,39.4010309 L37.2864882,39.4010309 L37.2864882,40.2050849 L33.8472084,40.2050849 C33.8543735,39.4348147 34.1123195,38.8064363 34.9434788,38.3334633 L35.7101516,37.9010309 C36.1042358,37.6780579 36.2618694,37.4483282 36.2618694,37.1442741 C36.2618694,36.8267066 36.0254189,36.5429228 35.5596831,36.5429228 C35.0652866,36.5429228 34.821671,36.8604903 34.821671,37.2726525 C34.821671,37.3537336 34.8360013,37.4415714 34.8574968,37.5158958 Z M38.7911731,38.0158958 C38.7911731,38.4753552 38.8628248,38.8672471 39.0419539,39.1307606 C39.1852573,39.3469768 39.4073774,39.4888687 39.7441402,39.4888687 C40.0880682,39.4888687 40.295858,39.3469768 40.4391614,39.1307606 C40.6254557,38.8672471 40.6971073,38.4753552 40.6971073,38.0158958 C40.6971073,37.5564363 40.6254557,37.1645444 40.4391614,36.9010309 C40.295858,36.6848147 40.0880682,36.5429228 39.7441402,36.5429228 C39.4073774,36.5429228 39.1852573,36.6848147 39.0419539,36.9010309 C38.8628248,37.1645444 38.7911731,37.5564363 38.7911731,38.0158958 Z M37.8023802,38.0158958 C37.8023802,37.4550849 37.8955273,36.9077876 38.2107946,36.4550849 C38.5188968,36.0226525 39.0204584,35.7185985 39.7441402,35.7185985 C40.467822,35.7185985 40.9693837,36.0226525 41.2703206,36.4550849 C41.585588,36.9077876 41.6859003,37.4550849 41.6859003,38.0158958 C41.6859003,38.5767066 41.585588,39.1240039 41.2703206,39.5767066 C40.9693837,40.009139 40.467822,40.313193 39.7441402,40.313193 C39.0204584,40.313193 38.5188968,40.009139 38.2107946,39.5767066 C37.8955273,39.1240039 37.8023802,38.5767066 37.8023802,38.0158958 Z M43.2622369,38.0158958 C43.2622369,38.4753552 43.3338885,38.8672471 43.5130177,39.1307606 C43.656321,39.3469768 43.8784412,39.4888687 44.215204,39.4888687 C44.559132,39.4888687 44.7669218,39.3469768 44.9102251,39.1307606 C45.0965194,38.8672471 45.1681711,38.4753552 45.1681711,38.0158958 C45.1681711,37.5564363 45.0965194,37.1645444 44.9102251,36.9010309 C44.7669218,36.6848147 44.559132,36.5429228 44.215204,36.5429228 C43.8784412,36.5429228 43.656321,36.6848147 43.5130177,36.9010309 C43.3338885,37.1645444 43.2622369,37.5564363 43.2622369,38.0158958 Z M42.2734439,38.0158958 C42.2734439,37.4550849 42.3665911,36.9077876 42.6818584,36.4550849 C42.9899605,36.0226525 43.4915222,35.7185985 44.215204,35.7185985 C44.9388858,35.7185985 45.4404474,36.0226525 45.7413844,36.4550849 C46.0566517,36.9077876 46.156964,37.4550849 46.156964,38.0158958 C46.156964,38.5767066 46.0566517,39.1240039 45.7413844,39.5767066 C45.4404474,40.009139 44.9388858,40.313193 44.215204,40.313193 C43.4915222,40.313193 42.9899605,40.009139 42.6818584,39.5767066 C42.3665911,39.1240039 42.2734439,38.5767066 42.2734439,38.0158958 Z M46.6800212,39.2658958 L46.6800212,38.2929228 L48.6361116,35.8199498 L49.8541898,35.8199498 L49.8541898,38.4685985 L50.6208626,38.4685985 L50.6208626,39.2658958 L49.8541898,39.2658958 L49.8541898,40.2050849 L48.8797272,40.2050849 L48.8797272,39.2658958 L46.6800212,39.2658958 Z M48.8797272,38.4685985 L48.8797272,36.7929228 L47.5541715,38.4685985 L48.8797272,38.4685985 Z" id="Desde2004" fill-rule="nonzero"></path>
                    <path d="M33.5956,29.6576 L31.3332,28.4684 L29.0708,29.6576 C28.936,29.7284 28.7732,29.7168 28.6496,29.6268 C28.5264,29.5376 28.4648,29.386 28.4904,29.236 L28.9224,26.7168 L27.0924,24.9328 C26.9832,24.8264 26.944,24.6676 26.9912,24.5232 C27.0384,24.378 27.1636,24.2728 27.314,24.2508 L29.8432,23.8828 L30.9744,21.5912 C31.1096,21.3176 31.5568,21.3176 31.692,21.5912 L32.8232,23.8828 L35.3524,24.2508 C35.5028,24.2728 35.628,24.378 35.6752,24.5232 C35.7224,24.6676 35.6832,24.8264 35.574,24.9328 L33.744,26.7168 L34.176,29.236 C34.2016,29.386 34.14,29.5376 34.0168,29.6268 C33.9472,29.6776 33.8644,29.7036 33.7816,29.7036 C33.718,29.7036 33.654,29.6884 33.5956,29.6576 Z" id="Fill-47"></path>
                </g>
            </g>
        </g>
    </g>
</svg>