<?xml version="1.0" encoding="UTF-8"?>
<svg width="18px" height="17px" viewBox="0 0 18 17" version="1.1" xmlns="http://www.w3.org/2000/svg" xmlns:xlink="http://www.w3.org/1999/xlink">
    <!-- Generator: Sketch 58 (84663) - https://sketch.com -->
    <title>Group 45</title>
    <desc>Created with Sketch.</desc>
    <g id="desktop-🖥" stroke="none" stroke-width="1" fill="none" fill-rule="evenodd">
        <g id="Desktop-HD-Copy-58" transform="translate(-761.000000, -206.000000)" fill-rule="nonzero">
            <g id="Group-3-Copy" transform="translate(737.000000, 176.000000)">
                <g id="Group-45" transform="translate(24.000000, 30.000000)">
                    <path d="M13.9851756,10.970937 C13.9506939,11.1302097 13.9474099,11.2968714 13.9753237,11.4618911 L14.6198036,15.2171157 C14.8028852,16.2860493 13.680587,17.1021169 12.7200245,16.5972059 L9.34738295,14.8238598 C8.96726292,14.6243584 8.51243249,14.6235374 8.13149148,14.8230388 L4.74243004,16.6045948 C4.27035874,16.8459669 3.76134273,16.7704355 3.38779066,16.5044336 C3.00438667,16.2310428 2.76547754,15.7556875 2.85742882,15.2171157 L3.50190877,11.4618911 C3.5741562,11.0374375 3.4337663,10.6039529 3.12507272,10.3026482 L0.396911109,7.64345008 C0.0135071143,7.26989801 -0.0768021778,6.75924001 0.0603037475,6.31918746 C0.200693647,5.86682001 0.57917168,5.48916297 1.12266942,5.41034759 L4.89267187,4.86274488 C5.31876753,4.80034937 5.68739364,4.53270547 5.87868514,4.14683849 L7.56500592,0.729863279 C7.80473604,0.243014095 8.27106038,4.88498131e-13 8.73820572,4.88498131e-13 C9.20535106,4.88498131e-13 9.6716754,0.243014095 9.91222652,0.729863279 L11.5985473,4.14683849 C11.6978875,4.34798192 11.8456664,4.51710659 12.025464,4.64107662 C12.1896627,4.75601572 12.3801332,4.83318911 12.5845606,4.86274488 L16.354563,5.41034759 C16.8767149,5.485879 17.246162,5.83726424 17.3988668,6.26500189 C17.5606026,6.71736934 17.4793242,7.25429913 17.0803213,7.64345008 L14.3521597,10.3026482 C14.2175168,10.4340072 14.1148926,10.589996 14.0483921,10.7599417 C14.0212993,10.8280841 13.9999535,10.8986896 13.9851756,10.970937 Z" id="Path" fill="#FEB247"></path>
                    <path d="M8.73820572,3.90798505e-13 L8.73820572,9.24602952 L0.0603037475,6.31918746 C0.200693647,5.86682001 0.57917168,5.48916297 1.12266942,5.41034759 L4.89267187,4.86274488 C5.31876753,4.80034937 5.68739364,4.53270547 5.87868514,4.14683849 L7.56500592,0.729863279 C7.80473604,0.243014095 8.27106038,3.90798505e-13 8.73820572,3.90798505e-13 Z" id="Path" fill="#FFE26B"></path>
                    <path d="M8.73820572,9.24602952 L8.73820572,14.5036723 L8.13149148,14.8230388 L4.74243004,16.6045948 C4.27035874,16.8459669 3.76134273,16.7704355 3.38779066,16.5044336 L8.73820572,9.24602952 Z" id="Path" fill="#FFDD8D"></path>
                    <path d="M17.0803213,7.64345008 L14.3521597,10.3026482 C14.2175168,10.4340072 14.1148926,10.589996 14.0483921,10.7599417 L13.8595636,10.7837505 L8.73820572,9.24602952 L11.9031359,4.76340466 L12.025464,4.64107662 C12.1896627,4.75601572 12.3801332,4.83318911 12.5845606,4.86274488 L16.354563,5.41034759 C17.4284226,5.56633636 17.8578022,6.88649402 17.0803213,7.64345008 Z" id="Path" fill="#FFDD8D"></path>
                    <path d="M17.0803213,7.64345008 L14.3521597,10.3026482 C14.2175168,10.4340072 14.1148926,10.589996 14.0483921,10.7599417 C14.0212993,10.8280841 13.9999535,10.8986896 13.9851756,10.970937 L8.73820572,9.24602952 L17.3988668,6.26500189 C17.5606026,6.71736934 17.4793242,7.25429913 17.0803213,7.64345008 Z" id="Path" fill="#FFE26B"></path>
                </g>
            </g>
        </g>
    </g>
</svg>