<?xml version="1.0" encoding="UTF-8"?>
<svg width="296px" height="144px" viewBox="0 0 296 144" version="1.1" xmlns="http://www.w3.org/2000/svg" xmlns:xlink="http://www.w3.org/1999/xlink">
    <!-- Generator: Sketch 60 (88103) - https://sketch.com -->
    <title>card-serviestado</title>
    <desc>Created with Sketch.</desc>
    <defs>
        <rect id="path-1" x="0" y="0" width="296" height="144" rx="10"></rect>
        <radialGradient cx="50%" cy="0%" fx="50%" fy="0%" r="113.796765%" gradientTransform="translate(0.500000,0.000000),scale(0.991632,1.000000),rotate(120.747799),translate(-0.500000,-0.000000)" id="radialGradient-3">
            <stop stop-color="#4083E0" offset="0%"></stop>
            <stop stop-color="#000000" offset="100%"></stop>
        </radialGradient>
        <radialGradient cx="50%" cy="0%" fx="50%" fy="0%" r="113.796765%" gradientTransform="translate(0.500000,0.000000),scale(0.991632,1.000000),rotate(120.747799),translate(-0.500000,-0.000000)" id="radialGradient-4">
            <stop stop-color="#4083E0" offset="0%"></stop>
            <stop stop-color="#000000" offset="100%"></stop>
        </radialGradient>
    </defs>
    <g id="desktop-🖥" stroke="none" stroke-width="1" fill="none" fill-rule="evenodd">
        <g id="card-serviestado">
            <mask id="mask-2" fill="white">
                <use xlink:href="#path-1"></use>
            </mask>
            <use id="Mask" fill="#F7F9FC" xlink:href="#path-1"></use>
            <text id="At-vero-eos-et-accus" mask="url(#mask-2)" font-family="CircularStd-Bold, Circular Std" font-size="14" font-weight="bold" fill="#77869E">
                <tspan x="33.241" y="101">At vero eos et accusamus et iusto</tspan>
            </text>
            <ellipse id="Oval-2" fill="url(#radialGradient-3)" opacity="0.0473781604" mask="url(#mask-2)" cx="335.5" cy="104.5" rx="119.5" ry="118.5"></ellipse>
            <ellipse id="Oval-2-Copy-2" fill="url(#radialGradient-4)" opacity="0.0473781604" mask="url(#mask-2)" cx="-19" cy="142.322176" rx="81" ry="80.3221757"></ellipse>
            <g id="Group-2" mask="url(#mask-2)">
                <g transform="translate(67.000000, 41.000000)">
                    <rect id="Rectangle" fill="#B30941" fill-rule="nonzero" x="0.0769230769" y="0" width="24.0769231" height="24.453125"></rect>
                    <polyline id="Path" fill="#DB9022" fill-rule="nonzero" points="24.0769231 12.890625 13.9230769 4.140625 13.9230769 4.140625 13.9230769 20.390625 24.0769231 20.390625 24.0769231 12.890625"></polyline>
                    <path d="M13.9230769,6.484375 L13.9230769,4.140625 C13.2307692,4.921875 11.4615385,6.328125 9.23076923,6.640625 L9.23076923,8.4375 L7.53846154,9.21875 L7.53846154,10.78125 L0.0769230769,13.671875 L0.0769230769,20.3125 L15.6923077,20.3125 L15.6923077,5.703125 L13.9230769,6.484375 L13.9230769,6.484375 Z M9.23076923,13.359375 L7.84615385,13.90625 C7.69230769,13.984375 7.53846154,14.140625 7.53846154,14.296875 L7.53846154,15.390625 C7.53846154,15.546875 7.38461538,15.703125 7.23076923,15.78125 L0.0769230769,18.59375 L0.0769230769,20.234375 L7.23076923,17.34375 C7.38461538,17.265625 7.53846154,17.109375 7.53846154,16.953125 L7.53846154,15.859375 C7.53846154,15.703125 7.69230769,15.546875 7.84615385,15.46875 L9.23076923,14.921875 L9.23076923,13.359375 Z M9.23076923,10.15625 L7.76923077,10.625 C7.61538462,10.703125 7.46153846,10.859375 7.46153846,11.015625 L7.46153846,12.109375 C7.46153846,12.265625 7.30769231,12.421875 7.15384615,12.5 L1.77635684e-14,15.3125 L1.77635684e-14,17.03125 L7.15384615,14.21875 C7.30769231,14.140625 7.46153846,13.984375 7.46153846,13.828125 L7.46153846,12.734375 C7.46153846,12.578125 7.61538462,12.421875 7.76923077,12.34375 L9.15384615,11.796875 L9.15384615,10.15625 L9.23076923,10.15625 Z" id="Shape" fill="#FFFFFF" fill-rule="evenodd"></path>
                    <rect id="Rectangle" fill="#274684" fill-rule="nonzero" x="0.0769230769" y="20.3125" width="24.0769231" height="4.0625"></rect>
                    <path d="M6,22.109375 L6,22.265625 C6,22.421875 5.84615385,22.65625 5.69230769,22.8125 C5.61538462,22.890625 5.46153846,22.96875 5.46153846,22.96875 C5.38461538,22.96875 5.38461538,22.890625 5.38461538,22.8125 C5.38461538,22.65625 5.46153846,22.421875 5.53846154,22.265625 C5.61538462,22.109375 5.76923077,22.03125 5.84615385,22.03125 C5.84615385,22.03125 5.92307692,22.03125 6,22.109375 L6,22.109375 Z M6.61538462,20.859375 L6.23076923,20.9375 L6.07692308,21.796875 C5.92307692,21.71875 5.92307692,21.71875 5.76923077,21.71875 C5.30769231,21.71875 4.92307692,22.265625 4.92307692,22.890625 C4.92307692,23.203125 5,23.359375 5.23076923,23.359375 C5.30769231,23.359375 5.53846154,23.28125 5.61538462,23.203125 C5.69230769,23.125 5.76923077,23.046875 5.76923077,22.96875 C5.76923077,22.96875 5.84615385,22.890625 5.84615385,22.8125 L5.76923077,23.28125 L6.15384615,23.28125 L6.61538462,20.859375 Z" id="Shape" fill="#FFFFFF" fill-rule="evenodd"></path>
                    <path d="M7.61538462,22.109375 C7.61538462,22.109375 7.61538462,22.1875 7.61538462,22.1875 L7.07692308,22.5 C7.15384615,22.265625 7.15384615,22.1875 7.23076923,22.109375 C7.30769231,22.03125 7.38461538,21.953125 7.46153846,21.953125 C7.53846154,21.953125 7.61538462,22.03125 7.61538462,22.109375 M8,22.03125 C8,21.796875 7.84615385,21.71875 7.61538462,21.71875 C7.15384615,21.71875 6.76923077,22.1875 6.76923077,22.8125 C6.76923077,23.203125 6.92307692,23.359375 7.15384615,23.359375 C7.30769231,23.359375 7.46153846,23.359375 7.53846154,23.28125 C7.61538462,23.28125 7.61538462,23.203125 7.69230769,23.203125 C7.76923077,23.125 7.84615385,23.125 7.92307692,23.046875 L7.76923077,22.8125 C7.53846154,22.96875 7.53846154,22.96875 7.46153846,23.046875 C7.38461538,23.046875 7.30769231,23.125 7.30769231,23.125 C7.23076923,23.125 7.23076923,23.125 7.15384615,23.046875 C7.15384615,23.046875 7.15384615,22.96875 7.07692308,22.890625 L7.69230769,22.578125 C7.92307692,22.34375 8,22.1875 8,22.03125" id="Shape" fill="#FFFFFF" fill-rule="evenodd"></path>
                    <path d="M9.30769231,21.796875 C9.15384615,21.71875 9,21.71875 8.84615385,21.71875 C8.46153846,21.71875 8.30769231,21.875 8.30769231,22.1875 C8.30769231,22.265625 8.30769231,22.34375 8.38461538,22.421875 C8.38461538,22.5 8.46153846,22.5 8.53846154,22.578125 C8.53846154,22.578125 8.61538462,22.65625 8.69230769,22.734375 C8.76923077,22.8125 8.76923077,22.8125 8.76923077,22.890625 C8.76923077,22.96875 8.69230769,23.046875 8.61538462,23.046875 C8.53846154,23.046875 8.46153846,23.046875 8.30769231,22.96875 L8.23076923,23.28125 C8.38461538,23.28125 8.38461538,23.359375 8.53846154,23.359375 C8.61538462,23.359375 8.69230769,23.359375 8.76923077,23.359375 C9.07692308,23.359375 9.30769231,23.203125 9.30769231,22.890625 C9.30769231,22.734375 9.23076923,22.65625 9,22.421875 C8.69230769,22.265625 8.69230769,22.1875 8.69230769,22.1875 C8.69230769,22.1875 8.69230769,22.109375 8.69230769,22.109375 C8.69230769,22.03125 8.76923077,22.03125 8.92307692,22.03125 C9,22.03125 9.07692308,22.03125 9.23076923,22.109375 L9.30769231,21.796875" id="Path" fill="#FFFFFF" fill-rule="nonzero"></path>
                    <path d="M10.5384615,22.109375 L10.5384615,22.265625 C10.5384615,22.421875 10.3846154,22.65625 10.2307692,22.8125 C10.1538462,22.890625 10,22.96875 10,22.96875 C9.92307692,22.96875 9.92307692,22.890625 9.92307692,22.8125 C9.92307692,22.65625 10,22.421875 10.0769231,22.265625 C10.1538462,22.109375 10.3076923,22.03125 10.3846154,22.03125 C10.3846154,22.03125 10.4615385,22.03125 10.5384615,22.109375 L10.5384615,22.109375 Z M11.1538462,20.859375 L10.7692308,20.9375 L10.6153846,21.796875 C10.4615385,21.71875 10.4615385,21.71875 10.3076923,21.71875 C9.84615385,21.71875 9.46153846,22.265625 9.46153846,22.890625 C9.46153846,23.203125 9.53846154,23.359375 9.76923077,23.359375 C9.84615385,23.359375 10.0769231,23.28125 10.1538462,23.203125 C10.2307692,23.125 10.3076923,23.046875 10.3076923,22.96875 C10.3076923,22.96875 10.3846154,22.890625 10.3846154,22.8125 L10.3076923,23.28125 L10.6923077,23.28125 L11.1538462,20.859375 Z" id="Shape" fill="#FFFFFF" fill-rule="evenodd"></path>
                    <path d="M12.1538462,22.109375 C12.1538462,22.109375 12.1538462,22.1875 12.1538462,22.1875 L11.6153846,22.5 C11.6923077,22.265625 11.6923077,22.1875 11.7692308,22.109375 C11.8461538,22.03125 11.9230769,21.953125 12,21.953125 C12.0769231,21.953125 12.1538462,22.03125 12.1538462,22.109375 M12.5384615,22.03125 C12.5384615,21.796875 12.3846154,21.71875 12.1538462,21.71875 C11.6923077,21.71875 11.3076923,22.1875 11.3076923,22.8125 C11.3076923,23.203125 11.4615385,23.359375 11.6923077,23.359375 C11.8461538,23.359375 12,23.359375 12.0769231,23.28125 C12.1538462,23.28125 12.1538462,23.203125 12.2307692,23.203125 C12.3076923,23.125 12.3846154,23.125 12.4615385,23.046875 L12.3076923,22.8125 C12.0769231,22.96875 12.0769231,22.96875 11.9230769,23.046875 C11.8461538,23.046875 11.7692308,23.125 11.7692308,23.125 C11.6923077,23.125 11.6923077,23.125 11.6153846,23.046875 C11.6153846,23.046875 11.6153846,22.96875 11.5384615,22.890625 L12.1538462,22.578125 C12.4615385,22.34375 12.5384615,22.1875 12.5384615,22.03125" id="Shape" fill="#FFFFFF" fill-rule="evenodd"></path>
                    <polygon id="Path" fill="#FFFFFF" fill-rule="evenodd" points="14.6923077 21.640625 14.4615385 21.640625 13.6923077 21.953125 13.7692308 22.265625 14.2307692 22.109375 14 23.203125 14.3846154 23.203125"></polygon>
                    <path d="M16,22.65625 C16,22.8125 15.8461538,22.96875 15.6153846,22.96875 C15.4615385,22.96875 15.3076923,22.890625 15.3076923,22.734375 C15.3076923,22.578125 15.3846154,22.5 15.5384615,22.34375 L15.6923077,22.1875 L15.8461538,22.34375 C16,22.5 16,22.578125 16,22.65625 M16.0769231,21.5625 C16.0769231,21.640625 16,21.71875 16,21.796875 L15.8461538,21.953125 L15.6923077,21.796875 C15.6923077,21.71875 15.6153846,21.71875 15.6153846,21.640625 C15.6153846,21.484375 15.7692308,21.40625 15.9230769,21.40625 C16,21.40625 16.0769231,21.484375 16.0769231,21.5625 M16.5384615,21.484375 C16.5384615,21.25 16.3076923,21.09375 16,21.09375 C15.5384615,21.09375 15.3076923,21.328125 15.2307692,21.5625 C15.2307692,21.71875 15.3076923,21.875 15.3846154,21.953125 L15.5384615,22.109375 L15.2307692,22.265625 C15.0769231,22.34375 14.9230769,22.578125 14.9230769,22.8125 C14.9230769,23.125 15.1538462,23.28125 15.5384615,23.28125 C16.0769231,23.28125 16.3846154,23.046875 16.3846154,22.734375 C16.3846154,22.578125 16.3076923,22.421875 16.1538462,22.265625 L15.9230769,22.109375 L16.1538462,21.953125 C16.3076923,21.875 16.3846154,21.796875 16.3846154,21.640625 C16.4615385,21.640625 16.5384615,21.5625 16.5384615,21.484375" id="Shape" fill="#FFFFFF" fill-rule="evenodd"></path>
                    <path d="M17.9230769,21.5625 L16.9230769,21.5625 L16.6923077,22.65625 L16.9230769,22.65625 C17,22.65625 17.1538462,22.65625 17.2307692,22.734375 C17.3076923,22.8125 17.3076923,22.890625 17.3076923,22.96875 C17.3076923,23.28125 17.0769231,23.4375 16.8461538,23.4375 C16.7692308,23.4375 16.6923077,23.4375 16.5384615,23.359375 L16.4615385,23.671875 C16.6153846,23.75 16.7692308,23.75 16.8461538,23.75 C17.3076923,23.75 17.6923077,23.359375 17.6923077,22.890625 C17.6923077,22.65625 17.6153846,22.5 17.4615385,22.421875 C17.3846154,22.34375 17.3076923,22.34375 17.1538462,22.34375 L17.2307692,21.875 L17.8461538,21.875 L17.9230769,21.5625" id="Path" fill="#FFFFFF" fill-rule="nonzero"></path>
                    <path d="M19.3076923,21.5625 L18.3846154,21.5625 L18.1538462,22.65625 L18.3846154,22.65625 C18.4615385,22.65625 18.6153846,22.65625 18.6923077,22.734375 C18.7692308,22.8125 18.7692308,22.890625 18.7692308,22.96875 C18.7692308,23.28125 18.5384615,23.4375 18.3076923,23.4375 C18.2307692,23.4375 18.1538462,23.4375 18,23.359375 L17.9230769,23.671875 C18.0769231,23.75 18.2307692,23.75 18.3076923,23.75 C18.7692308,23.75 19.1538462,23.359375 19.1538462,22.890625 C19.1538462,22.65625 19.0769231,22.5 18.9230769,22.421875 C18.8461538,22.34375 18.7692308,22.34375 18.6153846,22.34375 L18.6923077,21.875 L19.3076923,21.875 L19.3076923,21.5625" id="Path" fill="#FFFFFF" fill-rule="nonzero"></path>
                    <path d="M41.0769231,2.65625 C40.3846154,2.5 38.7692308,2.1875 37,2.1875 C33.3076923,2.1875 30.8461538,3.828125 30.3076923,6.796875 C29.3076923,12.421875 37.9230769,11.953125 37.1538462,16.25 C36.7692308,18.671875 35,19.375 33.3846154,19.375 C31.3076923,19.375 29.3846154,18.28125 28.6923077,17.8125 L28.3076923,19.921875 C28.8461538,20.078125 30.7692308,20.625 32.7692308,20.625 C36.3846154,20.625 39.5384615,19.21875 40.2307692,15.390625 C41.2307692,9.6875 32.6923077,10.078125 33.3846154,6.015625 C33.6923077,4.296875 34.9230769,3.4375 36.3076923,3.4375 C38.3076923,3.4375 40.1538462,4.296875 40.7692308,4.609375 L41.0769231,2.65625" id="Path" fill="#274684" fill-rule="nonzero"></path>
                    <path d="M44.0769231,11.71875 C44.2307692,10.703125 45.1538462,8.59375 47.1538462,8.59375 C49.4615385,8.59375 49.0769231,11.09375 48.9230769,11.71875 L44.0769231,11.71875 L44.0769231,11.71875 Z M50.0769231,18.75 C49.6153846,18.90625 48.6153846,19.21875 47.5384615,19.21875 C43.8461538,19.21875 43.4615385,15.46875 43.9230769,12.8125 L51.3846154,12.8125 C51.6923077,11.015625 51.9230769,7.734375 47.4615385,7.734375 C44,7.734375 41.6923077,9.53125 40.9230769,13.75 C40.1538462,18.203125 42.1538462,20.625 46.1538462,20.625 C47.9230769,20.625 49.4615385,20.078125 49.9230769,19.921875 L50.0769231,18.75 Z" id="Shape" fill="#274684" fill-rule="evenodd"></path>
                    <path d="M52.1538462,20.3125 L54.7692308,20.3125 L55.8461538,13.984375 C56.1538462,12.109375 57.3076923,10 59.9230769,10 C60.3846154,10 60.7692308,10.15625 61.2307692,10.3125 L61.6923077,7.8125 C61.2307692,7.734375 60.7692308,7.65625 60.3076923,7.65625 C58.2307692,7.65625 57,9.921875 56.4615385,11.171875 L56.3846154,11.171875 L57,7.65625 L52.1538462,8.515625 L52,9.0625 C53.6153846,9.140625 54,9.53125 53.6153846,11.40625 L52.1538462,20.3125" id="Path" fill="#274684" fill-rule="nonzero"></path>
                    <path d="M66.0769231,20.3125 L68,20.3125 L74.8461538,7.96875 L73.3076923,7.96875 L68.1538462,17.265625 L66.1538462,7.96875 L61.7692308,7.96875 L61.6923077,8.515625 C63.4615385,8.671875 63.6153846,9.140625 64,10.9375 L66.0769231,20.3125" id="Path" fill="#274684" fill-rule="nonzero"></path>
                    <path d="M78.8461538,5.625 C79.7692308,5.625 80.6923077,4.84375 80.8461538,3.984375 C81,3.046875 80.3846154,2.34375 79.4615385,2.34375 C78.5384615,2.34375 77.6923077,3.125 77.5384615,3.984375 C77.3846154,4.921875 77.9230769,5.625 78.8461538,5.625 L78.8461538,5.625 Z M74.9230769,20.3125 L77.5384615,20.3125 L79.6923077,7.734375 L74.9230769,8.59375 L74.8461538,9.140625 C76.4615385,9.21875 76.7692308,9.609375 76.4615385,11.484375 L74.9230769,20.3125 Z" id="Shape" fill="#274684" fill-rule="evenodd"></path>
                    <path d="M81.4615385,20.3125 L91.8461538,20.3125 L92.6153846,16.484375 L91.8461538,16.484375 C91.3076923,18.515625 90.5384615,19.0625 89.0769231,19.0625 L86.1538462,19.0625 C84.8461538,19.0625 84.5384615,18.984375 84.7692308,17.5 L85.7692308,11.5625 L88.9230769,11.5625 C90.4615385,11.5625 90.9230769,12.421875 90.6923077,13.828125 L91.4615385,13.828125 L92.4615385,8.28125 L91.6923077,8.28125 C91.3846154,9.140625 91,10.3125 89.2307692,10.3125 L86.0769231,10.3125 L87,5 C87.2307692,3.75 87.6153846,3.59375 88.8461538,3.59375 L90.8461538,3.59375 C92.5384615,3.59375 93.5384615,4.140625 93.2307692,6.25 L94,6.25 L94.6153846,2.34375 L82.0769231,2.34375 L82,2.890625 C84.3076923,3.28125 84.3846154,3.28125 83.9230769,5.9375 L81.4615385,20.3125" id="Path" fill="#274684" fill-rule="nonzero"></path>
                    <path d="M102.846154,8.125 C102.384615,8.046875 101.307692,7.65625 100,7.65625 C96.9230769,7.65625 95.3846154,9.296875 95,11.171875 C94.3846154,14.84375 100.076923,15 99.6153846,17.578125 C99.4615385,18.515625 98.6923077,19.375 97.0769231,19.375 C95.6153846,19.375 94.5384615,18.515625 93.8461538,17.96875 L93.4615385,20 C94,20.15625 95.1538462,20.46875 96.6923077,20.46875 C99.3076923,20.46875 101.538462,19.375 102,16.796875 C102.692308,12.734375 97,12.65625 97.4615385,10.15625 C97.6923077,8.984375 98.6923077,8.671875 99.5384615,8.671875 C101,8.671875 102.076923,9.6875 102.461538,9.921875 L102.846154,8.125" id="Path" fill="#274684" fill-rule="nonzero"></path>
                    <path d="M109.615385,19.375 C109.307692,19.453125 108.923077,19.453125 108.615385,19.453125 C106.615385,19.453125 106.615385,18.59375 106.923077,16.796875 L108.230769,9.0625 L111.615385,9.0625 L111.769231,7.96875 L108.384615,7.96875 L109.153846,3.515625 L106.153846,5.859375 L105.769231,7.96875 L103.769231,7.96875 L103.615385,9.0625 L105.615385,9.0625 L104.230769,17.1875 C103.692308,20.234375 105.076923,20.625 107.615385,20.625 C108.153846,20.625 108.846154,20.546875 109.384615,20.390625 L109.615385,19.375" id="Path" fill="#274684" fill-rule="nonzero"></path>
                    <path d="M117.384615,16.015625 C117.076923,17.8125 115.923077,19.21875 114.384615,19.21875 C113.384615,19.21875 113,18.359375 113.153846,17.1875 C113.615385,14.6875 116.692308,14.53125 117.615385,14.53125 L117.384615,16.015625 L117.384615,16.015625 Z M116.615385,20.3125 L119.230769,20.3125 L120.615385,12.265625 C121.076923,9.609375 120.846154,7.734375 117.153846,7.734375 C113.384615,7.734375 112.230769,9.609375 111.615385,11.328125 L114.692308,11.328125 C114.923077,10.15625 115.230769,8.59375 117,8.59375 C118.615385,8.59375 118.307692,10.46875 118,12.109375 L117.769231,13.4375 C116.076923,13.515625 110.846154,13.75 110.230769,17.5 C109.923077,19.0625 111.153846,20.546875 113.230769,20.546875 C115.230769,20.546875 116.384615,19.21875 116.923077,18.671875 L116.615385,20.3125 Z" id="Shape" fill="#274684" fill-rule="evenodd"></path>
                    <path d="M129.692308,14.453125 C129.461538,15.859375 128.615385,19.140625 126.153846,19.140625 C123.692308,19.140625 124,16.015625 124.384615,13.984375 C124.692308,12.109375 125.461538,9.0625 127.846154,9.0625 C130.307692,9.0625 130.153846,11.796875 129.846154,13.28125 L129.692308,14.453125 L129.692308,14.453125 Z M128.692308,20.3125 L131.307692,20.3125 L134.538462,1.796875 L129.846154,2.421875 L129.769231,2.96875 C131.307692,3.046875 131.615385,3.515625 131.307692,5.390625 L130.538462,9.6875 L130.461538,9.6875 C130.153846,8.828125 129.538462,7.734375 127.384615,7.734375 C123.923077,7.734375 122,11.09375 121.461538,14.453125 C120.923077,17.734375 121.692308,20.625 125.076923,20.625 C126.923077,20.625 128.230769,19.453125 129,18.828125 L128.692308,20.3125 Z" id="Shape" fill="#274684" fill-rule="evenodd"></path>
                    <path d="M136.307692,14.21875 C136.692308,11.875 137.461538,8.671875 140.076923,8.671875 C142.615385,8.671875 142.307692,11.796875 141.846154,14.21875 C141.384615,16.875 140.692308,19.765625 138.153846,19.765625 C135.461538,19.765625 135.923077,16.40625 136.307692,14.21875 M137.923077,20.625 C141.769231,20.625 143.923077,18.515625 144.692308,14.21875 C145.384615,10.390625 144,7.734375 140.153846,7.734375 C136.307692,7.734375 134.153846,9.765625 133.384615,14.21875 C132.769231,17.890625 133.692308,20.625 137.923077,20.625" id="Shape" fill="#274684" fill-rule="evenodd"></path>
                    <path d="M147.461538,8.984375 L147.692308,8.984375 C147.846154,8.984375 147.923077,9.0625 147.923077,9.140625 C147.923077,9.21875 147.846154,9.296875 147.692308,9.296875 L147.384615,9.296875 L147.384615,8.984375 L147.461538,8.984375 Z M147.230769,10 L147.461538,10 L147.461538,9.453125 L147.769231,9.453125 L148,10 L148.230769,10 L148,9.453125 C148.076923,9.375 148.230769,9.375 148.230769,9.140625 C148.230769,8.75 147.923077,8.75 147.692308,8.75 L147.230769,8.75 L147.230769,10 L147.230769,10 Z M146.615385,9.375 C146.615385,8.828125 147.076923,8.359375 147.615385,8.359375 C148.153846,8.359375 148.615385,8.828125 148.615385,9.375 C148.615385,9.921875 148.153846,10.390625 147.615385,10.390625 C147.076923,10.46875 146.615385,10 146.615385,9.375 L146.615385,9.375 Z M147.692308,10.625 C148.384615,10.625 148.923077,10.078125 148.923077,9.375 C148.923077,8.671875 148.384615,8.125 147.692308,8.125 C147,8.125 146.461538,8.671875 146.461538,9.375 C146.461538,10.078125 147,10.625 147.692308,10.625 L147.692308,10.625 Z" id="Shape" fill="#274684" fill-rule="evenodd"></path>
                </g>
            </g>
        </g>
    </g>
</svg>