<?xml version="1.0" encoding="UTF-8"?>
<svg width="90px" height="54px" viewBox="0 0 90 54" version="1.1" xmlns="http://www.w3.org/2000/svg" xmlns:xlink="http://www.w3.org/1999/xlink">
    <!-- Generator: Sketch 60 (88103) - https://sketch.com -->
    <title>Group 66</title>
    <desc>Created with Sketch.</desc>
    <g id="desktop-🖥" stroke="none" stroke-width="1" fill="none" fill-rule="evenodd">
        <g id="Group-66" transform="translate(-6.000000, -2.000000)" fill-rule="nonzero">
            <g id="Group-55" transform="translate(22.250669, 32.371659) rotate(-17.000000) translate(-22.250669, -32.371659) translate(7.750669, 3.871659)">
                <path d="M11.5558576,13.4477778 C8.44193822,11.6613566 4.6269647,8.77689874 10.4662673,0.793609124 C17.5837973,7.66056147 14.3178421,11.1559782 11.5558576,13.4477778 Z" id="Path" fill="#FFE26B"></path>
                <path d="M13.3873264,46.2396572 C11.2869794,47.6839977 8.66999199,49.188871 5.73485553,48.2893256 C3.87241643,45.6385525 2.3745818,42.714678 1.31314637,39.588089 C10.4761215,37.1963399 12.385016,42.2290079 13.3873264,46.2396572 Z" id="Path" fill="#FEB247"></path>
                <path d="M0.11853879,24.2330317 C9.74761643,26.4917494 8.73010246,31.1651624 7.52986392,34.5479599 C3.94097333,34.6062403 -0.81296231,34.0796051 0.11853879,24.2330317 Z" id="Path" fill="#FEB247"></path>
                <path d="M8.07733374,22.5811904 C4.63259565,21.9040678 0.192585877,20.4301647 3.09393659,11.2024336 C11.8430364,15.3271097 9.91584127,19.5897444 8.07733374,22.5811904 Z" id="Path" fill="#FFE26B"></path>
                <path d="M11.5558576,13.4477778 C8.44193822,11.6613566 4.6269647,8.77689874 10.4662673,0.793609124 L11.5558576,13.4477778 Z" id="Path" fill="#FEB247"></path>
                <path d="M28.1066486,53.3163627 L27.5871928,55.5236979 L27.461904,56.0558234 C21.3551309,54.6185215 15.8184922,51.1160662 11.8725989,46.1946095 C7.8647651,41.197135 5.65742987,34.9087635 5.65742987,28.4894723 C5.65742987,22.070181 7.8647651,15.7832173 11.8725989,10.7857427 C15.8184922,5.86287837 21.3551309,2.36042297 27.461904,0.923121141 L27.5871928,1.4552466 L28.1066486,3.66258183 C22.6094266,4.957702 17.623214,8.11244578 14.0686722,12.5468246 C10.4071423,17.1121232 8.47290848,22.6248303 8.47290848,28.4894723 C8.47290848,34.3541142 10.4071423,39.8682291 14.0686722,44.4335277 C17.623214,48.8664987 22.6094266,52.0212425 28.1066486,53.3163627 Z" id="Path" fill="#FEB247"></path>
                <path d="M28.1066486,53.3163627 L27.5871928,55.5236979 C22.2532686,53.8527114 17.4599162,50.5895716 13.9363447,46.1946095 C9.92851093,41.197135 7.72117569,34.9087635 7.72117569,28.4894723 C7.72117569,22.070181 9.92851093,15.7832173 13.9363447,10.7857427 C17.4599162,6.38937287 22.2532686,3.12623316 27.5871928,1.4552466 L28.1066486,3.66258183 C22.6094266,4.957702 17.623214,8.11244578 14.0686722,12.5468246 C10.4071423,17.1121232 8.47290848,22.6248303 8.47290848,28.4894723 C8.47290848,34.3541142 10.4071423,39.8682291 14.0686722,44.4335277 C17.623214,48.8664987 22.6094266,52.0212425 28.1066486,53.3163627 Z" id="Path" fill="#FFE26B"></path>
                <path d="M18.7043578,51.30048 C15.1160303,48.5047097 10.8421337,44.2040662 19.5912335,35.2269126 C27.2986062,45.1134657 22.5784563,48.9157696 18.7043578,51.30048 Z" id="Path" fill="#FEB247"></path>
                <path d="M9.99889789,40.8930633 C7.15244901,37.7453582 3.92027956,33.1068572 13.4042193,26.2680596 C18.8929948,36.5938275 13.9433834,39.3276572 9.99889789,40.8930633 Z" id="Path" fill="#FEB247"></path>
                <path d="M16.5040612,16.1914617 C16.3548409,26.6326641 11.30528,26.6411105 7.54520828,26.1695179 C6.67240991,22.4812409 6.13887671,17.4598348 16.5040612,16.1914617 Z" id="Path" fill="#FEB247"></path>
                <path d="M22.6136498,9.9931855 C17.8287439,16.1281134 14.826036,13.8616531 12.8045223,11.8894103 C13.9447912,9.30761646 15.8874714,6.08530118 22.6136498,9.9931855 Z" id="Path" fill="#FEB247"></path>
                <path d="M18.7043578,51.30048 L19.5912335,35.2269126 C27.2986062,45.1134657 22.5784563,48.9157696 18.7043578,51.30048 Z" id="Path" fill="#FFE26B"></path>
                <path d="M9.99889789,40.8930633 L13.4042193,26.2680596 C18.8929948,36.5938275 13.9433834,39.3276572 9.99889789,40.8930633 Z" id="Path" fill="#FFE26B"></path>
                <path d="M16.5040612,16.1914617 C16.3548409,26.6326641 11.30528,26.6411105 7.54520828,26.1695179 L16.5040612,16.1914617 Z" id="Path" fill="#FFE26B"></path>
                <path d="M22.6136498,9.9931855 C17.8287439,16.1281134 14.826036,13.8616531 12.8045223,11.8894103 L22.6136498,9.9931855 Z" id="Path" fill="#FFE26B"></path>
                <path d="M8.07733374,22.5811904 C4.63259565,21.9040678 0.192585877,20.4301647 3.09393659,11.2024336 L8.07733374,22.5811904 Z" id="Path" fill="#FEB247"></path>
            </g>
            <g id="Group-64" transform="translate(81.125451, 32.748467) rotate(-345.000000) translate(-81.125451, -32.748467) translate(66.625451, 4.748467)">
                <path d="M26.7951915,38.7949022 C25.7337561,41.9200834 24.2359215,44.843958 22.3734824,47.4947311 C19.4383459,48.397092 16.8213585,46.8908109 14.7196037,45.4464704 C15.7219141,41.4344134 17.6308086,36.4031531 26.7951915,38.7949022 Z" id="Path" fill="#FEB247"></path>
                <path d="M27.9881098,23.4398449 C18.3590322,25.6985626 19.3765462,30.3719756 20.5767847,33.7547731 C24.1656753,33.8130535 28.9194701,33.2864182 27.9881098,23.4398449 Z" id="Path" fill="#FEB247"></path>
                <path d="M17.6406628,3.64153152e-14 C10.5232736,6.86765621 13.7889473,10.3622283 16.5509318,12.654591 C19.6642881,10.8681698 23.4792616,7.98328961 17.6406628,3.64153152e-14 Z" id="Path" fill="#FEB247"></path>
                <path d="M25.012712,10.4086837 C16.2631899,14.534486 18.190385,18.7971207 20.0287518,21.7880036 C23.4736306,21.1111625 27.9133589,19.6371187 25.012712,10.4086837 Z" id="Path" fill="#FEB247"></path>
                <path d="M0.645307699,55.2631997 L-3.78364007e-13,52.5226128 C5.49778509,51.2279149 10.4835754,48.0733119 14.0391026,43.6397778 C17.7002102,39.07462 19.6354294,33.5613497 19.6354294,27.6962855 C19.6354294,21.8317843 17.7002102,16.3186548 14.0391026,11.7532155 C10.4834346,7.31925898 5.49764432,4.16451519 -3.78364007e-13,2.86981735 L0.645307699,0.129230468 C6.75179927,1.56723617 12.2885787,5.06983234 16.2355982,9.99171128 C20.2437136,14.9897489 22.450908,21.2772758 22.450908,27.6961447 C22.450908,34.1155767 20.2435728,40.4032443 16.2355982,45.4011412 C12.2887195,50.3227386 6.75194004,53.825194 0.645307699,55.2631997 Z" id="Path" fill="#FFE26B"></path>
                <path d="M-3.73923115e-13,52.5231759 L0.519455804,54.7305111 C5.85338004,53.0595246 10.6467324,49.7963848 14.1703039,45.4014227 C18.1781377,40.4039482 20.3854729,34.1155767 20.3854729,27.6962855 C20.3854729,21.2769942 18.1781377,14.9900305 14.1703039,9.99255593 C10.6467324,5.59618607 5.85338004,2.33304635 0.519455804,0.662059796 L-3.73923115e-13,2.86939503 C5.497222,4.16451519 10.4834346,7.31925898 14.0379764,11.7536378 C17.6995063,16.3189364 19.6337401,21.8316435 19.6337401,27.6962855 C19.6337401,33.5609274 17.6995063,39.0750423 14.0379764,43.6403409 C10.4834346,48.0733119 5.497222,51.2280557 -3.73923115e-13,52.5231759 Z" id="Path" fill="#FEB247"></path>
                <path d="M9.40229084,50.5072932 C12.9906183,47.7115229 17.2645149,43.4108793 8.51541507,34.4337258 C0.808042363,44.3202789 5.52819226,48.1225828 9.40229084,50.5072932 Z" id="Path" fill="#FFE26B"></path>
                <path d="M18.1077507,40.0998765 C20.9541996,36.9521714 24.186369,32.3136704 14.7024293,25.4748728 C9.21365377,35.8006407 14.1632652,38.5344704 18.1077507,40.0998765 Z" id="Path" fill="#FFE26B"></path>
                <path d="M11.6025874,15.3982749 C11.7518077,25.8394773 16.8013686,25.8479237 20.5614403,25.3763311 C21.4342387,21.6880541 21.9677719,16.666648 11.6025874,15.3982749 Z" id="Path" fill="#FFE26B"></path>
                <path d="M5.49299878,9.1999987 C10.2779047,15.3349266 13.2806126,13.0684663 15.3021263,11.0962235 C14.1618574,8.51442965 12.2191772,5.29211438 5.49299878,9.1999987 Z" id="Path" fill="#FFE26B"></path>
                <path d="M9.40229084,50.5072932 L8.51541507,34.4337258 C0.808042363,44.3202789 5.52819226,48.1225828 9.40229084,50.5072932 Z" id="Path" fill="#FEB247"></path>
                <path d="M18.1077507,40.0998765 L14.7024293,25.4748728 C9.21365377,35.8006407 14.1632652,38.5344704 18.1077507,40.0998765 Z" id="Path" fill="#FEB247"></path>
                <path d="M11.6025874,15.3982749 C11.7518077,25.8394773 16.8013686,25.8479237 20.5614403,25.3763311 L11.6025874,15.3982749 Z" id="Path" fill="#FEB247"></path>
                <path d="M5.49299878,9.1999987 C10.2779047,15.3349266 13.2806126,13.0684663 15.3021263,11.0962235 L5.49299878,9.1999987 Z" id="Path" fill="#FEB247"></path>
                <path d="M16.5510726,12.654591 C19.6649919,10.8681698 23.4799655,7.98371193 17.6406628,0.000422321793 L16.5510726,12.654591 Z" id="Path" fill="#FFE26B"></path>
                <path d="M20.0295964,21.7880036 C23.4743345,21.110881 27.9143443,19.6369779 25.0129936,10.4092468 L20.0295964,21.7880036 Z" id="Path" fill="#FFE26B"></path>
            </g>
            <g id="Group-54" transform="translate(37.145269, 8.047520)">
                <path d="M23.9800679,18.8116204 C23.9209428,19.0847218 23.9153119,19.3704929 23.963175,19.6534485 L25.0682504,26.0924481 C25.3821762,27.9253246 23.4577966,29.3246175 21.8107416,28.4588578 L16.0277485,25.4181409 C15.3759652,25.0760603 14.5960777,25.0746525 13.9428866,25.4167332 L8.13173876,28.4715275 C7.32228866,28.8854029 6.44949029,28.7558908 5.8089689,28.2997833 C5.15155464,27.8310061 4.74190251,27.0159251 4.89956931,26.0924481 L6.00464466,19.6534485 C6.12852572,18.9256473 5.8878023,18.1823609 5.35849232,17.6657206 L0.680574603,13.106053 C0.0231603469,12.4655316 -0.131690977,11.5899177 0.103401487,10.8353695 C0.344124909,10.0597051 0.99309273,9.41214501 1.92501615,9.27700204 L8.38935505,8.33803992 C9.11997175,8.23105173 9.7520467,7.77212872 10.08005,7.11049124 L12.9715465,1.25148024 C13.3826064,0.416690835 14.1822023,3.37507799e-14 14.983206,3.37507799e-14 C15.7842096,3.37507799e-14 16.5838056,0.416690835 16.9962732,1.25148024 L19.8877697,7.11049124 C20.0581062,7.45538737 20.3114992,7.74538167 20.6197942,7.95795031 C20.901342,8.15503381 21.2279375,8.2873613 21.5784646,8.33803992 L28.0428035,9.27700204 C28.9381257,9.40651405 29.5716084,10.0090265 29.8334479,10.7424587 C30.1107726,11.518123 29.9714064,12.4387845 29.2872451,13.106053 L24.6093274,17.6657206 C24.3784581,17.8909589 24.2024907,18.1584293 24.0884638,18.4498314 C24.0420084,18.5666737 24.0054072,18.6877393 23.9800679,18.8116204 Z" id="Path" fill="#FEB247"></path>
                <path d="M14.983206,-6.39488462e-14 L14.983206,15.8539601 L0.103401487,10.8353695 C0.344124909,10.0597051 0.99309273,9.41214501 1.92501615,9.27700204 L8.38935505,8.33803992 C9.11997175,8.23105173 9.7520467,7.77212872 10.08005,7.11049124 L12.9715465,1.25148024 C13.3826064,0.416690835 14.1822023,-6.39488462e-14 14.983206,-6.39488462e-14 Z" id="Path" fill="#FFE26B"></path>
                <path d="M14.983206,15.8539601 L14.983206,24.8691226 L13.9428866,25.4167332 L8.13173876,28.4715275 C7.32228866,28.8854029 6.44949029,28.7558908 5.8089689,28.2997833 L14.983206,15.8539601 Z" id="Path" fill="#FFDD8D"></path>
                <path d="M29.2872451,13.106053 L24.6093274,17.6657206 C24.3784581,17.8909589 24.2024907,18.1584293 24.0884638,18.4498314 L23.7646838,18.4906558 L14.983206,15.8539601 L20.410041,8.16770346 L20.6197942,7.95795031 C20.901342,8.15503381 21.2279375,8.2873613 21.5784646,8.33803992 L28.0428035,9.27700204 C29.8841265,9.54447251 30.6203742,11.8081173 29.2872451,13.106053 Z" id="Path" fill="#FFDD8D"></path>
                <path d="M29.2872451,13.106053 L24.6093274,17.6657206 C24.3784581,17.8909589 24.2024907,18.1584293 24.0884638,18.4498314 C24.0420084,18.5666737 24.0054072,18.6877393 23.9800679,18.8116204 L14.983206,15.8539601 L29.8334479,10.7424587 C30.1107726,11.518123 29.9714064,12.4387845 29.2872451,13.106053 Z" id="Path" fill="#FFE26B"></path>
            </g>
        </g>
    </g>
</svg>