<?xml version="1.0" encoding="UTF-8"?>
<svg width="136px" height="44px" viewBox="0 0 136 44" version="1.1" xmlns="http://www.w3.org/2000/svg" xmlns:xlink="http://www.w3.org/1999/xlink">
    <!-- Generator: Sketch 60 (88103) - https://sketch.com -->
    <title>Group 21</title>
    <desc>Created with Sketch.</desc>
    <g id="desktop-🖥" stroke="none" stroke-width="1" fill="none" fill-rule="evenodd">
        <g id="Group-21">
            <polygon id="Fill-1" fill="#D8232A" points="9.09494702e-13 43.68 135.087109 43.68 135.087109 0 9.09494702e-13 0"></polygon>
            <path d="M20.6737734,8.49536291 C20.6737734,11.0928669 25.0469423,13.9757469 25.0469423,16.9555171 L24.9308262,17.5532713 C29.0271443,18.4014575 31.9276278,20.436416 31.9276278,22.8051956 C31.9276278,26.0046895 26.7513225,28.6239011 20.3525726,28.6458735 L20.2187165,28.6458735 C13.8911952,28.6458735 8.75063857,26.1145513 8.75063857,22.9237935 C8.75063857,20.5637498 11.8742155,18.6344175 15.6716421,17.605952 C15.6716421,18.9200582 19.9910537,23.0776 20.0937304,24.7565004 L20.1114704,25.0728495 L20.0937304,25.3103098 C21.0218529,24.8181818 21.0218529,23.2885876 21.0218529,23.2885876 C21.0218529,19.6454109 16.8271586,18.0146909 16.8271586,14.4284305 C16.8271586,13.0441716 17.469829,12.0202065 18.0721813,11.7300655 L18.0721813,12.7278225 C18.0721813,15.3295622 22.6015157,18.2434153 22.6015157,20.6209309 L22.6015157,21.394464 C23.6546243,20.9902255 23.6546243,19.0431564 23.6546243,19.0431564 C23.6546243,15.7602735 19.4376207,13.9408029 19.4376207,10.192 C19.4376207,8.79000436 20.0937304,7.77477527 20.6737734,7.48013382" id="Fill-17" fill="#FFFFFE"></path>
            <path d="M41.1333233,27.6528815 C38.9335682,27.6528815 37.3358966,27.0066822 37.3358966,27.0066822 L37.3358966,23.1260451 L37.8758903,23.1260451 C38.1659117,25.1784756 39.7009559,26.7475142 41.4768334,26.7475142 C43.2306704,26.7475142 44.4668231,25.7584931 44.4668231,24.1984553 C44.4668231,22.5415273 42.8334028,21.7812305 41.722505,21.2361571 L40.1471427,20.436416 C38.6478473,19.6716189 37.434004,18.4499025 37.434004,16.7183215 C37.434004,14.5692655 39.0093662,12.7278225 42.0213964,12.7278225 C44.0918648,12.7278225 45.7965137,13.4177018 45.7965137,13.4177018 L45.7965137,16.8896 L45.2610895,16.8896 C44.9307499,15.0481571 43.9133901,13.5892451 41.8429217,13.5892451 C40.3078775,13.5892451 39.4020644,14.6526545 39.4020644,15.7425367 C39.4020644,17.1577687 40.3748056,17.7817309 41.5037121,18.3707491 L43.0922449,19.1707549 C44.5203117,19.9045789 46.3007586,21.1220596 46.3007586,23.2094342 C46.3007586,25.8860916 44.484563,27.6528815 41.1333233,27.6528815" id="Fill-18" fill="#FFFFFE"></path>
            <path d="M51.3563785,23.4204218 C50.9370704,23.6007011 50.1785527,23.9477585 50.1785527,24.9455156 C50.1785527,25.4728524 50.4908835,26.3387753 51.543992,26.3387753 C52.0347976,26.3387753 52.753266,26.0441338 53.2575109,25.6353949 L53.2575109,22.5987084 L51.3563785,23.4204218 Z M50.5355022,27.5647273 C49.1520541,27.5647273 48.2508103,26.641888 48.2508103,25.2663651 C48.2508103,24.2731084 48.9735793,23.5215476 50.5355022,22.9457658 L53.2575109,21.9525091 L53.2575109,21.0910865 C53.2575109,19.7992175 52.6683292,19.012448 51.7936954,19.012448 C51.1690338,19.012448 50.5709821,19.3113251 50.2543507,19.7992175 L50.1159252,20.4671244 L50.3478887,21.2229207 L49.009328,21.8384116 C48.8397233,21.5350342 48.6435085,21.1088233 48.6435085,20.6823476 L48.6523785,20.4671244 C48.7550553,19.7242996 49.3931563,19.2321716 50.2409113,18.7135709 C51.0709264,18.2037062 51.7936954,18.063136 52.284501,18.063136 C54.8506131,18.063136 55.27906,20.1155665 55.27906,20.7792378 L55.27906,25.0201687 C55.27906,25.7058124 55.3457193,26.1320233 55.8991523,26.1320233 L56.3767873,26.0441338 L56.8718934,25.8903273 L56.8718934,26.4968175 L54.0337686,27.5647273 C53.5964517,27.2616145 53.391367,26.7035695 53.3247078,26.2289135 C52.6505893,26.8044305 51.4993734,27.5647273 50.5355022,27.5647273 L50.5355022,27.5647273 Z" id="Fill-19" fill="#FFFFFE"></path>
            <path d="M57.4965551,27.349504 L57.4965551,26.8616116 L58.1658354,26.7475142 C58.5585336,26.6638604 58.8488239,26.3562473 58.8488239,25.9387724 L58.8488239,20.4803607 C58.8488239,20.0057047 58.630031,19.7640087 58.2195928,19.7640087 L57.7642672,19.8386618 L57.4965551,19.9485236 L57.4965551,19.3287971 L60.4196167,18.063136 L60.8343555,18.063136 L60.8343555,19.5792291 C61.7315674,18.5685004 62.7798378,18.063136 63.7079602,18.063136 C65.7695586,18.063136 66.7691785,19.5617571 66.7691785,21.2978385 L66.7691785,25.9387724 C66.7691785,26.3562473 67.0683388,26.6770967 67.4742076,26.7475142 L68.1752048,26.8616116 L68.1752048,27.349504 L63.3421408,27.349504 L63.3421408,26.8616116 L64.0205598,26.7475142 C64.430998,26.6638604 64.7433288,26.3562473 64.7433288,25.9387724 L64.7433288,21.3108102 C64.7433288,20.70432 64.5874322,19.3287971 62.9674513,19.3287971 C62.0796469,19.3287971 61.3299992,19.8871069 60.8789742,20.3000815 L60.8789742,25.9387724 C60.8789742,26.3562473 61.200175,26.6638604 61.6108819,26.7475142 L62.2712922,26.8616116 L62.2712922,27.349504 L57.4965551,27.349504" id="Fill-20" fill="#FFFFFE"></path>
            <path d="M75.1671682,19.3113251 L72.3250115,19.3113251 L72.3250115,24.3962065 C72.3250115,25.5167971 72.9050545,26.1277876 73.7482402,26.1277876 C74.1100278,26.1277876 74.6497527,26.0311622 75.1671682,25.7452567 L75.3773598,26.2289135 L73.5565948,27.4021847 L73.0074624,27.4593658 C71.2450243,27.4593658 70.2943237,26.408928 70.2943237,24.2026909 L70.2943237,19.3113251 L68.813037,19.3113251 L68.813037,18.8014604 C68.813037,18.8014604 71.0399396,17.9313018 71.9186052,15.8216902 L72.3250115,15.8216902 L72.3250115,18.4321658 L75.5241177,18.4321658 L75.1671682,19.3113251" id="Fill-21" fill="#FFFFFE"></path>
            <path d="M79.4064811,23.4204218 C78.9780342,23.6007011 78.2420946,23.9477585 78.2420946,24.9455156 C78.2420946,25.4728524 78.5407173,26.3387753 79.5938258,26.3387753 C80.0846314,26.3387753 80.8076692,26.0441338 81.3162147,25.6353949 L81.3162147,22.5987084 L79.4064811,23.4204218 Z M78.585336,27.5647273 C77.2021567,27.5647273 76.3095141,26.641888 76.3095141,25.2663651 C76.3095141,24.2731084 77.0145431,23.5215476 78.585336,22.9457658 L81.3162147,21.9525091 L81.3162147,21.0910865 C81.3162147,19.7992175 80.7230012,19.012448 79.8394974,19.012448 C79.2237058,19.012448 78.6167841,19.3113251 78.3133233,19.7992175 L78.1568891,20.4671244 L78.3979913,21.2229207 L77.0502918,21.8384116 C76.8943952,21.5350342 76.6933423,21.1088233 76.6933423,20.6823476 L76.7070505,20.4671244 C76.8183284,19.7242996 77.4429901,19.2321716 78.2955833,18.7135709 C79.1207602,18.2037062 79.8394974,18.063136 80.330303,18.063136 C82.9047475,18.063136 83.3420644,20.1155665 83.3420644,20.7792378 L83.3420644,25.0201687 C83.3420644,25.7058124 83.3958219,26.1320233 83.9449543,26.1320233 L84.4309217,26.0441338 L84.9265654,25.8903273 L84.9265654,26.4968175 L82.0838712,27.5647273 C81.6554243,27.2616145 81.4412008,26.7035695 81.3788421,26.2289135 C80.709293,26.8044305 79.5492072,27.5647273 78.585336,27.5647273 L78.585336,27.5647273 Z" id="Fill-22" fill="#FFFFFE"></path>
            <path d="M85.5466577,27.349504 L85.5466577,26.8616116 L86.207068,26.7475142 C86.6175062,26.6638604 86.9029583,26.3562473 86.9029583,25.9387724 L86.9029583,20.4803607 C86.9029583,20.0057047 86.6798648,19.7640087 86.2742648,19.7640087 L85.8143698,19.8386618 L85.5466577,19.9485236 L85.5466577,19.3287971 L88.4648811,18.063136 L88.8841893,18.063136 L88.8841893,19.5792291 C89.7768318,18.5685004 90.8388103,18.063136 91.771771,18.063136 C93.8285312,18.063136 94.8238505,19.5617571 94.8238505,21.2978385 L94.8238505,25.9387724 C94.8238505,26.3562473 95.1224732,26.6770967 95.5331801,26.7475142 L96.2293392,26.8616116 L96.2293392,27.349504 L91.4011133,27.349504 L91.4011133,26.8616116 L92.0703936,26.7475142 C92.4808318,26.6638604 92.8111714,26.3562473 92.8111714,25.9387724 L92.8111714,21.3108102 C92.8111714,20.70432 92.6415666,19.3287971 91.0172851,19.3287971 C90.1249113,19.3287971 89.3841336,19.8871069 88.9336461,20.3000815 L88.9336461,25.9387724 C88.9336461,26.3562473 89.2591475,26.6638604 89.6607157,26.7475142 L90.321126,26.8616116 L90.321126,27.349504 L85.5466577,27.349504" id="Fill-23" fill="#FFFFFE"></path>
            <path d="M102.28001,18.9200582 C100.816463,18.9200582 99.3171674,19.8651345 99.3171674,22.5987084 C99.3171674,24.8928349 100.450643,26.2948305 102.235391,26.2948305 C103.315378,26.2948305 103.984658,25.6573673 104.141093,25.3367825 L104.141093,20.0057047 C103.886551,19.3332975 103.136903,18.9200582 102.28001,18.9200582 M101.378766,27.5647273 C99.4779022,27.5647273 97.1840716,26.1232873 97.1840716,23.0116829 C97.1840716,20.3000815 99.2548087,18.063136 102.056916,18.063136 C102.985039,18.063136 103.663458,18.2434153 104.141093,18.4499025 L104.141093,13.7517876 C104.141093,13.2726313 103.886551,13.1188247 103.56105,13.1188247 L102.985039,13.2199505 L102.58347,13.3692567 L102.58347,12.7497949 L105.738764,11.3872436 L106.171243,11.3872436 L106.171243,24.8928349 C106.171243,25.6793396 106.291928,26.1232873 106.840523,26.1232873 L107.322459,26.0398982 L107.804394,25.8860916 L107.804394,26.4925818 L104.975408,27.5647273 C104.529221,27.2571142 104.296989,26.6725964 104.21259,26.2111767 C103.681198,26.7869585 102.726465,27.5647273 101.378766,27.5647273" id="Fill-24" fill="#FFFFFE"></path>
            <path d="M114.908711,21.2406575 L114.908711,21.2054487 C114.908711,19.6541469 114.074126,18.9200582 113.052466,18.9200582 C111.932429,18.9200582 111.080105,19.6803549 110.830133,21.2406575 L114.908711,21.2406575 Z M110.776644,22.0756073 L110.776644,22.1812335 C110.758635,24.8970705 112.28481,26.2683578 114.212552,26.2683578 C115.194163,26.2683578 116.086806,25.9035636 116.791835,25.3542545 L116.791835,26.175968 C115.970689,26.9362647 114.730236,27.5647273 113.221802,27.5647273 C110.053606,27.5647273 108.670427,25.1739753 108.670427,22.8930851 C108.670427,20.2299287 110.673967,18.063136 113.26212,18.063136 C115.386077,18.063136 117.050677,19.5837295 117.050677,21.8164393 L117.050677,22.0756073 L110.776644,22.0756073 L110.776644,22.0756073 Z" id="Fill-25" fill="#FFFFFE"></path>
            <path d="M118.250812,27.349504 L118.250812,26.8616116 L118.906922,26.7475142 C119.29075,26.6638604 119.607381,26.3562473 119.607381,25.9387724 L119.607381,20.4803607 C119.607381,20.0057047 119.370849,19.7640087 118.97385,19.7640087 L118.514223,19.8386618 L118.250812,19.9485236 L118.250812,19.3287971 L121.133555,18.063136 L121.557433,18.063136 L121.557433,20.0409135 C122.289341,18.6124451 123.154836,18.0146909 124.145586,18.0146909 C124.953291,18.0146909 125.162946,18.2124422 125.162946,18.2124422 L125.162946,20.3924713 L124.756808,20.3924713 C124.645261,19.8211898 124.252563,19.5352844 123.65478,19.5352844 C123.01211,19.5352844 122.200103,19.7242996 121.62893,20.9065716 L121.62893,25.9387724 C121.62893,26.3562473 122.039369,26.6770967 122.436636,26.7475142 L123.391369,26.8616116 L123.391369,27.349504 L118.250812,27.349504" id="Fill-26" fill="#FFFFFE"></path>
        </g>
    </g>
</svg>