<?xml version="1.0" encoding="UTF-8"?>
<svg width="73px" height="43px" viewBox="0 0 73 43" version="1.1" xmlns="http://www.w3.org/2000/svg" xmlns:xlink="http://www.w3.org/1999/xlink">
    <!-- Generator: Sketch 61 (89581) - https://sketch.com -->
    <title>Group 10</title>
    <desc>Created with Sketch.</desc>
    <g id="mobile-📱" stroke="none" stroke-width="1" fill="none" fill-rule="evenodd">
        <g id="home-b02" transform="translate(-242.000000, -191.000000)" fill-rule="nonzero">
            <g id="Group-7-Copy" transform="translate(136.000000, 165.000000)">
                <g id="Group-66-Copy" transform="translate(101.000000, 25.000000)">
                    <g id="Group-10">
                        <g id="Group-55" transform="translate(18.566515, 25.297989) rotate(-17.000000) translate(-18.566515, -25.297989) translate(7.066515, 2.797989)">
                            <path d="M9.24468605,10.5582222 C6.75355058,9.12908526 3.70157176,6.82151899 8.37301388,0.434887299 C14.0670378,5.92844917 11.4542737,8.72478253 9.24468605,10.5582222 Z" id="Path" fill="#FFE26B"></path>
                            <path d="M10.7098611,36.7917258 C9.02958349,37.9471982 6.93599359,39.1510968 4.58788442,38.4314605 C3.09793314,36.310842 1.89966544,33.9717424 1.05051709,31.4704712 C8.38089722,29.5570719 9.90801282,33.5832063 10.7098611,36.7917258 Z" id="Path" fill="#FEB247"></path>
                            <path d="M0.0948310319,19.1864254 C7.79809314,20.9933995 6.98408196,24.7321299 6.02389114,27.4383679 C3.15277867,27.4849923 -0.650369848,27.063684 0.0948310319,19.1864254 Z" id="Path" fill="#FEB247"></path>
                            <path d="M6.46186699,17.8649523 C3.70607652,17.3232542 0.154068702,16.1441318 2.47514927,8.76194685 C9.47442911,12.0616878 7.93267302,15.4717955 6.46186699,17.8649523 Z" id="Path" fill="#FFE26B"></path>
                            <path d="M9.24468605,10.5582222 C6.75355058,9.12908526 3.70157176,6.82151899 8.37301388,0.434887299 L9.24468605,10.5582222 Z" id="Path" fill="#FEB247"></path>
                            <path d="M22.4853189,42.4530902 L22.0697542,44.2189583 L21.9695232,44.6446587 C17.0841047,43.4948172 12.6547938,40.6928529 9.49807913,36.7556876 C6.29181208,32.757708 4.5259439,27.7270108 4.5259439,22.5915778 C4.5259439,17.4561448 6.29181208,12.4265738 9.49807913,8.42859418 C12.6547938,4.4903027 17.0841047,1.68833838 21.9695232,0.538496912 L22.0697542,0.964197279 L22.4853189,2.73006547 C18.0875413,3.7661616 14.0985712,6.28995663 11.2549378,9.83745968 C8.32571383,13.4896985 6.77832679,17.8998642 6.77832679,22.5915778 C6.77832679,27.2832914 8.32571383,31.6945833 11.2549378,35.3468221 C14.0985712,38.893199 18.0875413,41.416994 22.4853189,42.4530902 Z" id="Path" fill="#FEB247"></path>
                            <path d="M22.4853189,42.4530902 L22.0697542,44.2189583 C17.8026149,42.8821691 13.967933,40.2716573 11.1490758,36.7556876 C7.94280874,32.757708 6.17694056,27.7270108 6.17694056,22.5915778 C6.17694056,17.4561448 7.94280874,12.4265738 11.1490758,8.42859418 C13.967933,4.9114983 17.8026149,2.30098653 22.0697542,0.964197279 L22.4853189,2.73006547 C18.0875413,3.7661616 14.0985712,6.28995663 11.2549378,9.83745968 C8.32571383,13.4896985 6.77832679,17.8998642 6.77832679,22.5915778 C6.77832679,27.2832914 8.32571383,31.6945833 11.2549378,35.3468221 C14.0985712,38.893199 18.0875413,41.416994 22.4853189,42.4530902 Z" id="Path" fill="#FFE26B"></path>
                            <path d="M14.9634862,40.840384 C12.0928242,38.6037678 8.67370699,35.1632529 15.6729868,27.9815301 C21.838885,35.8907726 18.0627651,38.9326157 14.9634862,40.840384 Z" id="Path" fill="#FEB247"></path>
                            <path d="M7.99911831,32.5144506 C5.72195921,29.9962866 3.13622365,26.2854858 10.7233754,20.8144477 C15.1143959,29.075062 11.1547067,31.2621258 7.99911831,32.5144506 Z" id="Path" fill="#FEB247"></path>
                            <path d="M13.203249,12.7531693 C13.0838727,21.1061313 9.04422398,21.1128884 6.03616662,20.7356143 C5.33792793,17.7849927 4.91110137,13.7678678 13.203249,12.7531693 Z" id="Path" fill="#FEB247"></path>
                            <path d="M18.0909199,7.7945484 C14.2629951,12.7024907 11.8608288,10.8893225 10.2436179,9.31152828 C11.1558329,7.24609316 12.7099771,4.66824095 18.0909199,7.7945484 Z" id="Path" fill="#FEB247"></path>
                            <path d="M14.9634862,40.840384 L15.6729868,27.9815301 C21.838885,35.8907726 18.0627651,38.9326157 14.9634862,40.840384 Z" id="Path" fill="#FFE26B"></path>
                            <path d="M7.99911831,32.5144506 L10.7233754,20.8144477 C15.1143959,29.075062 11.1547067,31.2621258 7.99911831,32.5144506 Z" id="Path" fill="#FFE26B"></path>
                            <path d="M13.203249,12.7531693 C13.0838727,21.1061313 9.04422398,21.1128884 6.03616662,20.7356143 L13.203249,12.7531693 Z" id="Path" fill="#FFE26B"></path>
                            <path d="M18.0909199,7.7945484 C14.2629951,12.7024907 11.8608288,10.8893225 10.2436179,9.31152828 L18.0909199,7.7945484 Z" id="Path" fill="#FFE26B"></path>
                            <path d="M6.46186699,17.8649523 C3.70607652,17.3232542 0.154068702,16.1441318 2.47514927,8.76194685 L6.46186699,17.8649523 Z" id="Path" fill="#FEB247"></path>
                        </g>
                        <g id="Group-64" transform="translate(65.668734, 25.736540) rotate(-345.000000) translate(-65.668734, -25.736540) translate(54.168734, 3.236540)">
                            <path d="M21.4361532,31.0359217 C20.5870049,33.5360667 19.3887372,35.8751664 17.8987859,37.9957849 C15.5506767,38.7176736 13.4570868,37.5126487 11.775683,36.3571763 C12.5775313,33.1475307 14.1046469,29.1225225 21.4361532,31.0359217 Z" id="Path" fill="#FEB247"></path>
                            <path d="M22.3904879,18.7518759 C14.6872257,20.5588501 15.5012369,24.2975804 16.4614277,27.0038185 C19.3325402,27.0504428 23.1355761,26.6291346 22.3904879,18.7518759 Z" id="Path" fill="#FEB247"></path>
                            <path d="M14.1125302,2.91322522e-14 C8.41861892,5.49412497 11.0311578,8.28978262 13.2407455,10.1236728 C15.7314305,8.69453582 18.7834093,6.38663169 14.1125302,2.91322522e-14 Z" id="Path" fill="#FEB247"></path>
                            <path d="M20.0101696,8.32694693 C13.0105519,11.6275888 14.552308,15.0376965 16.0230014,17.4304029 C18.7789045,16.88893 22.3306871,15.709695 20.0101696,8.32694693 Z" id="Path" fill="#FEB247"></path>
                            <path d="M0.516246159,44.2105597 L-3.02691205e-13,42.0180902 C4.39822807,40.982332 8.38686032,38.4586495 11.2312821,34.9118222 C14.1601681,31.259696 15.7083435,26.8490798 15.7083435,22.1570284 C15.7083435,17.4654274 14.1601681,13.0549239 11.2312821,9.40257238 C8.3867477,5.85540719 4.39811545,3.33161215 -3.02691205e-13,2.29585388 L0.516246159,0.103384375 C5.40143941,1.25378894 9.83086299,4.05586587 12.9884786,7.99336903 C16.1949709,11.9917991 17.9607264,17.0218206 17.9607264,22.1569157 C17.9607264,27.2924614 16.1948582,32.3225955 12.9884786,36.3209129 C9.83097561,40.2581909 5.40155203,43.0601552 0.516246159,44.2105597 Z" id="Path" fill="#FFE26B"></path>
                            <path d="M-2.99138492e-13,42.0185407 L0.415564644,43.7844089 C4.68270403,42.4476196 8.51738591,39.8371079 11.3362431,36.3211382 C14.5425101,32.3231585 16.3083783,27.2924614 16.3083783,22.1570284 C16.3083783,17.0215954 14.5425101,11.9920244 11.3362431,7.99404474 C8.51738591,4.47694886 4.68270403,1.86643708 0.415564644,0.529647837 L-2.99138492e-13,2.29551602 C4.3977776,3.33161215 8.3867477,5.85540719 11.2303811,9.40291024 C14.1596051,13.0551491 15.7069921,17.4653148 15.7069921,22.1570284 C15.7069921,26.8487419 14.1596051,31.2600338 11.2303811,34.9122727 C8.3867477,38.4586495 4.3977776,40.9824446 -2.99138492e-13,42.0185407 Z" id="Path" fill="#FEB247"></path>
                            <path d="M7.52183267,40.4058346 C10.3924947,38.1692183 13.8116119,34.7287035 6.81233206,27.5469806 C0.64643389,35.4562232 4.42255381,38.4980662 7.52183267,40.4058346 Z" id="Path" fill="#FFE26B"></path>
                            <path d="M14.4862006,32.0799012 C16.7633597,29.5617371 19.3490952,25.8509363 11.7619435,20.3798983 C7.37092301,28.6405125 11.3306121,30.8275763 14.4862006,32.0799012 Z" id="Path" fill="#FFE26B"></path>
                            <path d="M9.2820699,12.3186199 C9.40144619,20.6715818 13.4410949,20.678339 16.4491523,20.3010649 C17.147391,17.3504433 17.5742175,13.3333184 9.2820699,12.3186199 Z" id="Path" fill="#FFE26B"></path>
                            <path d="M4.39439902,7.35999896 C8.22232375,12.2679413 10.6244901,10.4547731 12.241701,8.87697884 C11.3294859,6.81154372 9.77534175,4.2336915 4.39439902,7.35999896 Z" id="Path" fill="#FFE26B"></path>
                            <path d="M7.52183267,40.4058346 L6.81233206,27.5469806 C0.64643389,35.4562232 4.42255381,38.4980662 7.52183267,40.4058346 Z" id="Path" fill="#FEB247"></path>
                            <path d="M14.4862006,32.0799012 L11.7619435,20.3798983 C7.37092301,28.6405125 11.3306121,30.8275763 14.4862006,32.0799012 Z" id="Path" fill="#FEB247"></path>
                            <path d="M9.2820699,12.3186199 C9.40144619,20.6715818 13.4410949,20.678339 16.4491523,20.3010649 L9.2820699,12.3186199 Z" id="Path" fill="#FEB247"></path>
                            <path d="M4.39439902,7.35999896 C8.22232375,12.2679413 10.6244901,10.4547731 12.241701,8.87697884 L4.39439902,7.35999896 Z" id="Path" fill="#FEB247"></path>
                            <path d="M13.2408581,10.1236728 C15.7319935,8.69453582 18.7839724,6.38696955 14.1125302,0.000337857434 L13.2408581,10.1236728 Z" id="Path" fill="#FFE26B"></path>
                            <path d="M16.0236771,17.4304029 C18.7794676,16.8887048 22.3314754,15.7095823 20.0103949,8.32739741 L16.0236771,17.4304029 Z" id="Path" fill="#FFE26B"></path>
                        </g>
                        <g id="Group-54" transform="translate(30.607063, 5.905072)">
                            <path d="M19.1840543,15.0492963 C19.1367543,15.2677774 19.1322495,15.4963943 19.17054,15.7227588 L20.0546003,20.8739585 C20.305741,22.3402597 18.7662373,23.459694 17.4485933,22.7670863 L12.8221988,20.3345127 C12.3007722,20.0608482 11.6768621,20.059722 11.1543093,20.3333866 L6.50539101,22.777222 C5.85783093,23.1083223 5.15959223,23.0047127 4.64717512,22.6398266 C4.12124372,22.2648049 3.793522,21.61274 3.91965545,20.8739585 L4.80371573,15.7227588 C4.90282058,15.1405178 4.71024184,14.5458887 4.28679386,14.1325765 L0.544459683,10.4848424 C0.0185282775,9.97242525 -0.105352782,9.27193418 0.0827211899,8.66829556 C0.275299927,8.04776407 0.794474184,7.52971601 1.54001292,7.42160163 L6.71148404,6.67043193 C7.2959774,6.58484138 7.80163736,6.21770297 8.06403997,5.68839299 L10.3772372,1.0011842 C10.7060851,0.333352668 11.3457618,2.7000624e-14 11.9865648,2.7000624e-14 C12.6273677,2.7000624e-14 13.2670444,0.333352668 13.5970185,1.0011842 L15.9102158,5.68839299 C16.0464849,5.9643099 16.2491994,6.19630534 16.4958353,6.36636024 C16.7210736,6.52402705 16.98235,6.62988904 17.2627717,6.67043193 L22.4342428,7.42160163 C23.1505006,7.52521124 23.6572867,8.00722118 23.8667583,8.59396692 C24.0886181,9.21449841 23.9771251,9.95102762 23.4297961,10.4848424 L19.6874619,14.1325765 C19.5027665,14.3127671 19.3619926,14.5267435 19.270771,14.7598651 C19.2336067,14.853339 19.2043258,14.9501914 19.1840543,15.0492963 Z" id="Path" fill="#FEB247"></path>
                            <path d="M11.9865648,-5.1159077e-14 L11.9865648,12.6831681 L0.0827211899,8.66829556 C0.275299927,8.04776407 0.794474184,7.52971601 1.54001292,7.42160163 L6.71148404,6.67043193 C7.2959774,6.58484138 7.80163736,6.21770297 8.06403997,5.68839299 L10.3772372,1.0011842 C10.7060851,0.333352668 11.3457618,-5.1159077e-14 11.9865648,-5.1159077e-14 Z" id="Path" fill="#FFE26B"></path>
                            <path d="M11.9865648,12.6831681 L11.9865648,19.8952981 L11.1543093,20.3333866 L6.50539101,22.777222 C5.85783093,23.1083223 5.15959223,23.0047127 4.64717512,22.6398266 L11.9865648,12.6831681 Z" id="Path" fill="#FFDD8D"></path>
                            <path d="M23.4297961,10.4848424 L19.6874619,14.1325765 C19.5027665,14.3127671 19.3619926,14.5267435 19.270771,14.7598651 L19.011747,14.7925246 L11.9865648,12.6831681 L16.3280328,6.53416277 L16.4958353,6.36636024 C16.7210736,6.52402705 16.98235,6.62988904 17.2627717,6.67043193 L22.4342428,7.42160163 C23.9073012,7.635578 24.4962994,9.44649385 23.4297961,10.4848424 Z" id="Path" fill="#FFDD8D"></path>
                            <path d="M23.4297961,10.4848424 L19.6874619,14.1325765 C19.5027665,14.3127671 19.3619926,14.5267435 19.270771,14.7598651 C19.2336067,14.853339 19.2043258,14.9501914 19.1840543,15.0492963 L11.9865648,12.6831681 L23.8667583,8.59396692 C24.0886181,9.21449841 23.9771251,9.95102762 23.4297961,10.4848424 Z" id="Path" fill="#FFE26B"></path>
                        </g>
                    </g>
                </g>
            </g>
        </g>
    </g>
</svg>