<?xml version="1.0" encoding="UTF-8"?>
<svg width="68px" height="52px" viewBox="0 0 68 52" version="1.1" xmlns="http://www.w3.org/2000/svg" xmlns:xlink="http://www.w3.org/1999/xlink">
    <!-- Generator: Sketch 61.2 (89653) - https://sketch.com -->
    <title>Artboard</title>
    <desc>Created with Sketch.</desc>
    <g id="Artboard" stroke="none" stroke-width="1" fill="none" fill-rule="evenodd">
        <path d="M34,30 C42.9720376,30 59,35.2261999 59,45.6381223 L59,45.6381223 L59,50.2652578 C59,51.223992 58.2310337,52 57.2809993,52 C56.3321109,52 55.5619986,51.223992 55.5619986,50.2652578 L55.5619986,50.2652578 L55.5619986,45.6381223 C55.5619986,38.0896809 41.602567,33.4694843 34,33.4694843 C26.397433,33.4694843 12.4380014,38.0896809 12.4380014,45.6381223 L12.4380014,45.6381223 L12.4380014,50.2652578 C12.4380014,51.223992 11.6678891,52 10.7190007,52 C9.76896631,52 9,51.223992 9,50.2652578 L9,50.2652578 L9,45.6381223 C9,35.2261999 25.0279624,30 34,30 Z M34.5005691,0 C42.4952314,0 49,6.50451334 49,14.5 C49,22.4954867 42.4952314,29 34.5005691,29 C26.5047686,29 20,22.4954867 20,14.5 C20,6.50451334 26.5047686,0 34.5005691,0 Z M34.5005904,3 C28.158735,3 23,8.15965092 23,14.5 C23,20.8415298 28.158735,26 34.5005904,26 C40.841265,26 46,20.8415298 46,14.5 C46,8.15965092 40.841265,3 34.5005904,3 Z" id="Combined-Shape" fill="#00D692"></path>
    </g>
</svg>