<?xml version="1.0" encoding="UTF-8"?>
<svg width="73px" height="46px" viewBox="0 0 73 46" version="1.1" xmlns="http://www.w3.org/2000/svg" xmlns:xlink="http://www.w3.org/1999/xlink">
    <!-- Generator: Sketch 60 (88103) - https://sketch.com -->
    <title>icon-llave</title>
    <desc>Created with Sketch.</desc>
    <defs>
        <path d="M13.1411458,1.5312196e-12 C13.9461808,1.5312196e-12 14.7494308,0.0751801097 15.5403958,0.22470011 C18.8021158,0.84136511 21.7009558,2.69062511 23.6348458,5.38860011 C25.5687358,8.08657511 26.3891008,11.4257851 25.9255258,14.7127051 C25.4619508,17.9996251 23.7500308,20.9817301 21.1454008,23.0395201 C18.8643467,24.8415961 16.0522269,25.8136153 13.1688952,25.8194763 L8.6644636,50.97 L12.3306371,51.659733 C13.8113082,51.9380919 14.8046612,53.3212657 14.6179965,54.7969266 L14.5911821,54.967548 L14.5714421,55.072548 C14.2822721,56.610798 12.8013521,57.621948 11.2637321,57.333198 L11.2637321,57.333198 L7.6464636,56.653 L7.0254636,60.119 L12.1453129,61.0820885 C13.625984,61.3605485 14.619337,62.7441155 14.4326723,64.2192428 L14.4058579,64.3897985 L14.3861179,64.4950085 C14.0969479,66.0326285 12.6160279,67.0447235 11.0784079,66.7555535 L11.0784079,66.7555535 L4.55885287,65.5295735 C4.2179505,65.4654622 3.90287996,65.3427764 3.62209407,65.1738835 C3.49102191,65.1684644 3.35890223,65.1531581 3.22636047,65.1281775 L3.22636047,65.1281775 L3.12104547,65.1092775 C1.58342547,64.8194775 0.571330468,63.3389775 0.860500468,61.8007275 L0.860500468,61.8007275 L7.53413704,24.5377175 C5.96894436,23.7828202 4.55798628,22.7129035 3.39746078,21.3773701 C1.22018078,18.8716501 0.0917457765,15.6235801 0.246515777,12.3077851 C0.401390777,8.99188511 1.82750078,5.86309511 4.22864078,3.57115511 C6.62988578,1.27921511 9.82167578,0.000315109682 13.1411458,1.5312196e-12 Z M13.1442958,6.61500011 L13.1411458,6.61500011 L12.8487093,6.62266865 C11.3906354,6.69488255 9.99957203,7.27306136 8.91794078,8.26255511 C7.76420078,9.31801511 7.04547578,10.7657551 6.90204578,12.3228001 C6.75861578,13.8799501 7.20087578,15.4345801 8.14230578,16.6830301 C9.08384078,17.9314801 10.4570308,18.7840801 11.9934958,19.0743001 C12.3812608,19.1476951 12.7749058,19.1849701 13.1694958,19.1856001 C14.7331558,19.1806651 16.2387508,18.5930851 17.3922808,17.5375201 C18.5458108,16.4819551 19.2643258,15.0343201 19.4076508,13.4772751 C19.5509758,11.9202301 19.1086108,10.3657051 18.1671808,9.11736011 C17.2256458,7.86901511 15.8525608,7.01652011 14.3160958,6.72630011 C13.9298008,6.65301011 13.5375208,6.61584011 13.1442958,6.61500011 L13.1442958,6.61500011 Z" id="path-1"></path>
        <filter x="-17.4%" y="-8.2%" width="158.1%" height="122.5%" filterUnits="objectBoundingBox" id="filter-2">
            <feOffset dx="3" dy="2" in="SourceAlpha" result="shadowOffsetOuter1"></feOffset>
            <feGaussianBlur stdDeviation="2" in="shadowOffsetOuter1" result="shadowBlurOuter1"></feGaussianBlur>
            <feColorMatrix values="0 0 0 0 0   0 0 0 0 0   0 0 0 0 0  0 0 0 0.0972738199 0" type="matrix" in="shadowBlurOuter1"></feColorMatrix>
        </filter>
    </defs>
    <g id="desktop-🖥" stroke="none" stroke-width="1" fill="none" fill-rule="evenodd">
        <g id="icon-llave" transform="translate(38.500000, 21.500000) rotate(-255.000000) translate(-38.500000, -21.500000) translate(25.000000, -12.000000)">
            <g id="Combined-Shape" fill-rule="nonzero">
                <use fill="black" fill-opacity="1" filter="url(#filter-2)" xlink:href="#path-1"></use>
                <use fill="#1E63F8" xlink:href="#path-1"></use>
            </g>
            <path d="M7.53729578,24.6939001 C7.53729578,24.6939001 9.21729578,25.4152501 10.2042958,25.6389001" id="Path" stroke="#FFFFFF" stroke-width="0.5" stroke-linecap="square"></path>
            <line x1="3.10959926" y1="62.3373044" x2="4.40214926" y2="55.5742544" id="Path" stroke="#FFFFFF" stroke-linecap="square"></line>
            <line x1="4.72554926" y1="54.1956044" x2="5.30724926" y2="51.1810544" id="Path" stroke="#FFFFFF" stroke-linecap="square"></line>
        </g>
    </g>
</svg>