<?xml version="1.0" encoding="UTF-8"?>
<svg width="88px" height="88px" viewBox="0 0 88 88" version="1.1" xmlns="http://www.w3.org/2000/svg" xmlns:xlink="http://www.w3.org/1999/xlink">
    <!-- Generator: Sketch 61 (89581) - https://sketch.com -->
    <title>Group 7 Copy</title>
    <desc>Created with Sketch.</desc>
    <defs>
        <rect id="path-1" x="0" y="0" width="88" height="88" rx="44"></rect>
    </defs>
    <g id="mobile-📱" stroke="none" stroke-width="1" fill="none" fill-rule="evenodd">
        <g id="Error-transversal" transform="translate(-136.000000, -282.000000)">
            <g id="Mask" transform="translate(16.000000, 232.000000)">
                <g id="Group-7-Copy" transform="translate(120.000000, 50.000000)">
                    <g id="Group-3">
                        <g id="-Round-/-Action-/-done" transform="translate(18.000000, 18.000000)">
                            <polygon id="Path" points="0 0 48 0 48 48 0 48"></polygon>
                        </g>
                        <g id="Group-63">
                            <mask id="mask-2" fill="white">
                                <use xlink:href="#path-1"></use>
                            </mask>
                            <use id="Mask" fill="#F7F9FC" xlink:href="#path-1"></use>
                            <g mask="url(#mask-2)">
                                <g transform="translate(43.816181, 62.931561) rotate(-30.000000) translate(-43.816181, -62.931561) translate(16.316181, 16.931561)">
                                    <rect id="Rectangle" fill="#FFCCC5" x="25.8082" y="42" width="18" height="10"></rect>
                                    <path d="M39.3560846,86.2565822 C38.185197,87.4279529 36.283825,87.4351695 35.1069527,86.2583424 C33.9397616,85.091196 33.9489147,83.1844404 35.1166339,82.01747 C36.2912178,80.8427551 38.1832608,80.8478595 39.3504519,82.0150059 C40.5304925,83.1955292 40.5304925,85.0815153 39.3560846,86.2565822 Z M45.8183577,28.7361262 C50.8351235,25.9185079 54.2297361,20.5527674 54.2361877,14.3997641 C54.2196227,8.29582328 50.8909216,2.97392598 45.9320462,0.140475411 L45.9357079,13.316038 L37.7320029,18.0378756 L29.5262054,13.3090787 L29.5270772,0.138039681 C24.5736073,2.97253413 21.2401982,8.29216968 21.2361877,14.4049835 C21.2361877,20.8142605 24.9160677,26.3652905 30.2779094,29.0893071 L30.2770376,29.1561157 L30.2770376,30.5545731 L30.3480057,68.3797289 C30.3480057,68.5392692 30.3234197,68.6928942 30.2784325,68.8378202 L30.2787813,83.367475 C30.2787813,85.5109179 31.1525435,87.461938 32.5558639,88.8623091 C33.9670309,90.2698134 35.9110691,91.1306702 38.0666167,91.1380397 C42.3520796,91.141631 45.835969,87.6654955 45.8506159,83.3711286 L45.8427693,69.4552779 C45.8009208,69.4566698 45.7599441,69.4587575 45.7180956,69.4587575 L45.8183577,28.7361262 Z" id="Fill-27" fill="#1E63F8"></path>
                                    <path d="M45.4071273,50.0675803 L36.712934,50.2356183 C34.429698,50.2356183 32.560382,51.8894183 32.560382,53.9174183 C32.560382,55.9376183 34.429698,57.5986183 36.712934,57.5986183 L46.7599559,57.8563361 C49.0436603,57.8563361 50.169382,55.9452183 50.169382,53.9174183 C50.169382,51.8968183 49.0436603,50.0675803 46.7599559,50.0675803 L45.4071273,50.0675803 Z" id="Fill-28" fill="#FFCCC5"></path>
                                    <g id="Group-47" stroke-width="1" fill="none" transform="translate(-0.000000, 26.407769)">
                                        <path d="M39.0978632,1.00978904 L7.16796562,17.6724819 C2.38932187,20.5894054 0,24.1985781 0,28.5 L0,28.5 L0,40.5648839 C-6.79578414e-06,47.2074044 5.38482006,52.5922313 12.0273406,52.5922313 C12.0273406,52.5922313 12.0273406,52.5922313 12.0273406,52.5922313 C19.2510911,52.5922313 26.3377411,52.5922313 30.8082,52.5922313 L30.8082,21.6097498 C30.7869038,21.5597403 27.5076058,18.8733346 27.5076058,18.5265604 C27.5076058,18.1797862 27.8963348,17.8566509 28.0772322,17.6724819 C28.9442908,17.0006442 33.8854464,13.4451186 34.7096954,13.0005169 C36.350153,12.1139456 37.4388633,11.3829333 38.4523875,10.462803 C39.3148827,9.67976005 40.7677794,7.55200401 41.1127,5.98506862 C41.4888719,4.27616237 40.0070796,0.500701455 39.0978632,1.00978904 Z" id="Fill-29" fill="#FFCCC5"></path>
                                        <path d="M29.6432,18.6130649 C29.6432,18.6130649 18.9102,17.4870649 17.8082,31.7910649" id="Stroke-101" stroke="#D4938A" stroke-width="2.532" opacity="0.359584263" stroke-linecap="round" stroke-linejoin="round" transform="translate(23.725700, 25.191648) scale(1, -1) rotate(103.000000) translate(-23.725700, -25.191648) "></path>
                                    </g>
                                    <path d="M37.9938994,42.6825488 C36.0444994,42.6825488 34.4484994,44.3361488 34.4484994,46.3641488 C34.4484994,48.3843488 36.0444994,50.0455488 37.9938994,50.0455488 L45.4168994,50.3456844 C47.3666994,50.3456844 48.9628994,48.3917488 48.9628994,46.3637488 C48.9628994,44.3435488 47.3666994,42.2084058 45.4168994,42.2084058 L37.9938994,42.6825488 Z" id="Fill-30" fill="#FFCCC5"></path>
                                    <path d="M39.8727387,65.7837591 C38.2610427,65.7837591 36.9415255,67.4375591 36.9415255,69.4655591 C36.9415255,71.4857591 38.2610427,73.1467591 39.8727387,73.1467591 L45.3269266,73.7902955 C46.9389532,73.7902955 48.9415255,71.4927591 48.9415255,69.4651591 C48.9415255,67.4447591 46.9389532,65.4539674 45.3269266,65.4539674 L39.8727387,65.7837591 Z" id="Fill-31" fill="#FFCCC5"></path>
                                    <path d="M37.1217329,58.1028474 C34.9728049,58.1028474 33.2134487,59.7566474 33.2134487,61.7842474 C33.2134487,63.8046474 34.9728049,65.4658474 37.1217329,65.4658474 L46.3202456,65.7132866 C48.4696145,65.7132866 49.8224487,63.8119474 49.8224487,61.7843474 C49.8224487,59.7639474 48.2730608,57.6803911 46.1236918,57.6803911 L37.1217329,58.1028474 Z" id="Fill-32" fill="#FFCCC5"></path>
                                </g>
                            </g>
                        </g>
                    </g>
                </g>
            </g>
        </g>
    </g>
</svg>