<?xml version="1.0" encoding="UTF-8"?>
<svg width="73px" height="72px" viewBox="0 0 73 72" version="1.1" xmlns="http://www.w3.org/2000/svg" xmlns:xlink="http://www.w3.org/1999/xlink">
    <!-- Generator: Sketch 60 (88103) - https://sketch.com -->
    <title>icon-card-mano</title>
    <desc>Created with Sketch.</desc>
    <g id="desktop-🖥" stroke="none" stroke-width="1" fill="none" fill-rule="evenodd">
        <g id="icon-card-mano" transform="translate(2.000000, 2.000000)">
            <g id="noun_pay_2355978">
                <g id="Group-2">
                    <g id="Group-4">
                        <path d="M54.6875,36.1675395 L54.6875,12.7676361 C54.6875,11.1628885 53.3859257,9.85714286 51.7862403,9.85714286 L11.9174304,9.85714286 C10.1709075,9.85714286 8.75,11.280179 8.75,13.0295405 L8.75,35.9103 C8.75,37.6567737 10.1709075,39.0778105 11.9174304,39.0778105 L16.1671493,39.0778105 C15.2910875,42.6286811 15.7122748,46.4008598 17.4071994,49.6932692 L21.521504,57.6872403 L18.7038939,57.6872403 C18.4528063,57.6872403 18.2496294,57.8909437 18.2496294,58.1421854 L18.2496294,68.5450549 C18.2496294,68.7962966 18.4528063,69 18.7038939,69 L44.6972294,69 C44.948317,69 45.1514939,68.7962966 45.1514939,68.5450549 L45.1514939,58.1421854 C45.1514939,57.8909437 44.948317,57.6872403 44.6972294,57.6872403 L41.553394,57.6872403 L46.3869692,48.932658 C47.8824045,46.2236468 48.1339357,43.0676876 47.0767948,40.2740406 C46.8972128,39.7991028 46.7135828,39.4080511 46.5240749,39.0778106 L51.7862403,39.0778106 C53.3859257,39.0778106 54.6875,37.7722871 54.6875,36.1675395 Z M9.65852905,15.7307767 L53.778971,15.7307767 L53.778971,20.2913344 L9.65852905,20.2913344 L9.65852905,15.7307767 Z M11.9174304,10.767033 L51.7862403,10.767033 C52.8850813,10.767033 53.778971,11.6644832 53.778971,12.7676361 L53.778971,14.8208866 L9.65852909,14.8208866 L9.65852909,13.0295405 C9.65852909,11.7819958 10.6717519,10.767033 11.9174304,10.767033 Z M11.9174304,38.1679205 C10.6717519,38.1679205 9.65852905,37.155179 9.65852905,35.9103001 L9.65852905,21.2012245 L53.778971,21.2012245 L53.778971,36.1675395 C53.778971,37.2704703 52.8850813,38.1679205 51.7862402,38.1679205 L27.4174883,38.1679205 L29.5217333,33.1382008 L36.8136993,33.1382008 C37.0647869,33.1382008 37.2679638,32.9344974 37.2679638,32.6832557 C37.2679638,32.4320141 37.0647869,32.2283107 36.8136993,32.2283107 L29.9023851,32.2283107 L30.3155872,31.2406712 C30.8563572,29.9471433 30.8581316,28.5214415 30.3209106,27.2265808 C29.7836897,25.9317201 28.7731285,24.9276421 27.4764339,24.3993905 C26.1810703,23.8718053 24.7601628,23.884023 23.4736715,24.4333781 C22.3683702,24.9057334 21.4819112,25.7267116 20.9264186,26.7738571 L13.4341593,26.7738571 C13.1830716,26.7738571 12.9798947,26.9775606 12.9798947,27.2288022 C12.9798947,27.4800438 13.1830716,27.6837472 13.4341593,27.6837472 L20.5281885,27.6837472 L18.7265461,32.2283107 L13.4341593,32.2283107 C13.1830716,32.2283107 12.9798947,32.4320141 12.9798947,32.6832557 C12.9798947,32.9344974 13.1830716,33.1382008 13.4341593,33.1382008 L18.3658295,33.1382008 L16.7910144,37.1105287 C16.6527721,37.4592625 16.5329398,37.8126613 16.4215086,38.1679205 L11.9174304,38.1679205 L11.9174304,38.1679205 Z M44.2429649,68.0901099 L19.1581585,68.0901099 L19.1581585,58.5971304 L44.2429649,58.5971304 L44.2429649,68.0901099 Z M46.2268232,40.5963674 C47.1894736,43.1396613 46.9579052,46.0177219 45.5920063,48.4923742 L40.5153563,57.6872403 L22.5433774,57.6872403 L18.2145836,49.2765325 C16.3229978,45.6014294 16.1118357,41.2894478 17.6356625,37.446406 L19.4529979,32.8623015 C19.4536911,32.8606909 19.4542178,32.8591359 19.4548833,32.8575254 L21.5235281,27.6395411 C21.9494011,26.5652666 22.7683193,25.7237959 23.8303401,25.2701837 C24.8919173,24.8167937 26.0652861,24.8067973 27.1339611,25.242194 C28.2044106,25.678257 29.0384119,26.5070656 29.4820296,27.5757866 C29.9256473,28.6447298 29.9238728,29.8214114 29.4775934,30.8892439 L23.9554403,44.089759 C23.858288,44.3214522 23.967418,44.5880215 24.1985428,44.6850973 C24.4309985,44.7817286 24.6962819,44.6728795 24.7929905,44.4411863 L27.0368366,39.0778106 L45.4311672,39.0778106 C45.6976982,39.3960555 45.9651443,39.9040923 46.2268232,40.5963674 Z" id="Shape" stroke="#BFC5D2" stroke-width="1.09375" fill-rule="nonzero"></path>
                        <path d="M43.8993537,33.952381 C44.4158897,33.952381 44.9217119,33.833066 45.3828157,33.6178162 C45.8363569,33.8299434 46.3436588,33.952381 46.8814579,33.952381 C48.7732221,33.952381 50.3125,32.4785118 50.3125,30.6666667 C50.3125,28.8548216 48.7732221,27.3809524 46.8814579,27.3809524 C46.3436588,27.3809524 45.8363569,27.5033899 45.3828157,27.7155171 C44.9217119,27.5002673 44.4158897,27.3809524 43.8993537,27.3809524 C42.0075895,27.3809524 40.46875,28.8548216 40.46875,30.6666667 C40.46875,32.4785118 42.0075895,33.952381 43.8993537,33.952381 Z M49.4146244,30.6666666 C49.4146244,32.0042958 48.2782507,33.0925364 46.8814579,33.0925364 C46.4383292,33.0925364 46.0218616,32.9823531 45.6591273,32.7900899 C45.65699,32.788568 45.6546061,32.7876758 45.6524414,32.7862063 C44.8755412,32.3713985 44.3482914,31.57726 44.3482914,30.6666666 C44.3482914,29.7553123 44.8763632,28.960544 45.6543321,28.5460248 C45.6557295,28.5450539 45.657264,28.5445291 45.6586615,28.543532 C46.0215053,28.3511113 46.4381374,28.2407968 46.8814579,28.2407968 C48.2782507,28.2407968 49.4146244,29.3290375 49.4146244,30.6666666 Z M43.8993537,28.2407968 C44.1006413,28.2407968 44.2994355,28.2672209 44.4929687,28.312643 C43.8511279,28.9100313 43.4504159,29.7438191 43.4504159,30.6666667 C43.4504159,31.5895143 43.8511279,32.4233021 44.4929687,33.0206904 C44.2994355,33.0661125 44.1006413,33.0925365 43.8993537,33.0925365 C42.5029993,33.0925365 41.3666256,32.0042959 41.3666256,30.6666667 C41.3666256,29.3290376 42.5029993,28.2407968 43.8993537,28.2407968 Z" id="Shape" stroke="#BFC5D2" stroke-width="1.09375" fill-rule="nonzero"></path>
                        <path d="M38.28125,61.8122759 C38.28125,62.07677 38.4734993,62.2912184 38.7110824,62.2912184 L40.7028352,62.2912184 L40.7028352,64.1401051 C40.7028352,64.4045992 40.8950844,64.6190476 41.1326676,64.6190476 C41.3702507,64.6190476 41.5625,64.4045992 41.5625,64.1401051 L41.5625,61.8122759 C41.5625,61.5477817 41.3702507,61.3333333 41.1326676,61.3333333 L38.7110824,61.3333333 C38.4734993,61.3333333 38.28125,61.5477817 38.28125,61.8122759 Z" id="Path" stroke="#BFC5D2" stroke-width="1.09375" fill-rule="nonzero"></path>
                        <path d="M60.2700043,49.1199312 C60.6612905,46.2378007 62.1463267,44.7967355 64.7251129,44.7967355 C67.3038991,44.7967355 68.7467448,43.0073475 69.0536499,39.4285714" id="Path-2" stroke="#7DA2FF" stroke-width="2.1875" stroke-linecap="round"></path>
                        <path d="M0,49.1199312 C0.391286214,46.2378007 1.87632243,44.7967355 4.45510864,44.7967355 C7.03389486,44.7967355 8.47674052,43.0073475 8.78364563,39.4285714" id="Path-2-Copy" stroke="#FDB758" stroke-width="2.1875" stroke-linecap="round" transform="translate(4.391823, 44.274251) scale(-1, 1) translate(-4.391823, -44.274251) "></path>
                        <path d="M50.3125,9.69135975 C50.7037862,6.80922929 52.1888224,5.36816406 54.7676086,5.36816406 C57.3463949,5.36816406 58.7892405,3.57877604 59.0961456,-4.33431069e-13" id="Path-2-Copy-2" stroke="#F82C1C" stroke-width="2.1875" stroke-linecap="round" transform="translate(54.704323, 4.845680) scale(-1, 1) translate(-54.704323, -4.845680) "></path>
                    </g>
                </g>
            </g>
        </g>
    </g>
</svg>