<?xml version="1.0" encoding="UTF-8"?>
<svg width="55px" height="55px" viewBox="0 0 55 55" version="1.1" xmlns="http://www.w3.org/2000/svg" xmlns:xlink="http://www.w3.org/1999/xlink">
    <!-- Generator: Sketch 61 (89581) - https://sketch.com -->
    <title>play_circle_outline</title>
    <desc>Created with Sketch.</desc>
    <g id="desktop-🖥" stroke="none" stroke-width="1" fill="none" fill-rule="evenodd">
        <g id="Corporativas-04" transform="translate(-646.000000, -1932.000000)">
            <g id="Group-6" transform="translate(160.000000, 1734.000000)">
                <g id="video1-copy" transform="translate(351.000000, 103.000000)">
                    <g id="Group-5">
                        <g id="play_circle_outline" transform="translate(129.863248, 89.629893)">
                            <g id="-Round-/-AV-/-play_circle_outline">
                                <rect id="Rectangle-Copy-63" x="0" y="0" width="64.9316239" height="64.9359431"></rect>
                                <path d="M29.2192308,43.0200623 L41.8538426,33.5502372 C42.5843234,33.0091044 42.5843234,31.9268387 41.8538426,31.3857058 L29.2192308,21.9158808 C28.3264209,21.2394647 27.0548433,21.8888241 27.0548433,22.9981465 L27.0548433,41.9377966 C27.0548433,43.0471189 28.3264209,43.6964784 29.2192308,43.0200623 Z M32.465812,5.41132859 C17.5315385,5.41132859 5.41096866,17.5327046 5.41096866,32.4679715 C5.41096866,47.4032384 17.5315385,59.5246145 32.465812,59.5246145 C47.4000855,59.5246145 59.5206553,47.4032384 59.5206553,32.4679715 C59.5206553,17.5327046 47.4000855,5.41132859 32.465812,5.41132859 Z M32.465812,54.1132859 C20.5346261,54.1132859 10.8219373,44.3999511 10.8219373,32.4679715 C10.8219373,20.535992 20.5346261,10.8226572 32.465812,10.8226572 C44.3969979,10.8226572 54.1096866,20.535992 54.1096866,32.4679715 C54.1096866,44.3999511 44.3969979,54.1132859 32.465812,54.1132859 Z" id="🔹Icon-Color" fill="#FFFFFF"></path>
                            </g>
                        </g>
                    </g>
                </g>
            </g>
        </g>
    </g>
</svg>