<?xml version="1.0" encoding="UTF-8"?>
<svg width="88px" height="55px" viewBox="0 0 88 55" version="1.1" xmlns="http://www.w3.org/2000/svg" xmlns:xlink="http://www.w3.org/1999/xlink">
    <!-- Generator: Sketch 61.2 (89653) - https://sketch.com -->
    <title>Group 4</title>
    <desc>Created with Sketch.</desc>
    <g id="mobile-📱" stroke="none" stroke-width="1" fill="none" fill-rule="evenodd">
        <g id="sesionado---tab-grupo" transform="translate(-138.000000, -598.000000)">
            <g id="Group-9" transform="translate(16.000000, 560.000000)">
                <g id="Group-4" transform="translate(122.000000, 38.000000)">
                    <path d="M84.3113772,7 C86.3485473,7 88,8.65654643 88,10.7 C88,12.7434536 86.3485473,14.4 84.3113772,14.4 L63.2335329,14.4 C65.270703,14.4 66.9221557,16.0565464 66.9221557,18.1 C66.9221557,20.1434536 65.270703,21.8 63.2335329,21.8 L74.8263473,21.8 C76.8635174,21.8 78.5149701,23.4565464 78.5149701,25.5 C78.5149701,27.5434536 76.8635174,29.2 74.8263473,29.2 L69.4652434,29.2 C66.8966377,29.2 64.8143713,30.8565464 64.8143713,32.9 C64.8143713,34.2623024 65.8682635,35.4956357 67.9760479,36.6 C70.013218,36.6 71.6646707,38.2565464 71.6646707,40.3 C71.6646707,42.3434536 70.013218,44 67.9760479,44 L24.239521,44 C22.2023509,44 20.5508982,42.3434536 20.5508982,40.3 C20.5508982,38.2565464 22.2023509,36.6 24.239521,36.6 L3.68862275,36.6 C1.65145266,36.6 0,34.9434536 0,32.9 C0,30.8565464 1.65145266,29.2 3.68862275,29.2 L24.7664671,29.2 C26.8036372,29.2 28.4550898,27.5434536 28.4550898,25.5 C28.4550898,23.4565464 26.8036372,21.8 24.7664671,21.8 L11.5928144,21.8 C9.55564428,21.8 7.90419162,20.1434536 7.90419162,18.1 C7.90419162,16.0565464 9.55564428,14.4 11.5928144,14.4 L32.6706587,14.4 C30.6334886,14.4 28.9820359,12.7434536 28.9820359,10.7 C28.9820359,8.65654643 30.6334886,7 32.6706587,7 L84.3113772,7 Z M84.3113772,21.8 C86.3485473,21.8 88,23.4565464 88,25.5 C88,27.5434536 86.3485473,29.2 84.3113772,29.2 C82.2742072,29.2 80.6227545,27.5434536 80.6227545,25.5 C80.6227545,23.4565464 82.2742072,21.8 84.3113772,21.8 Z" id="Background" fill="#EFF0F2"></path>
                    <path d="M59.496105,10.5404436 L60,46.3255414 L60,49.9094637 C60,51.064035 59.0644756,52 57.9104478,52 L27.0895522,52 C25.9355244,52 25,51.064035 25,49.9094637 L25,11.2455397 C25,10.668254 25.4677622,10.2002715 26.0447761,10.2002715 C26.048421,10.2002715 26.0520659,10.2002715 26.0557106,10.2002715 L28.6094413,10.2270699 M30.6744172,10.2486931 L33.0855339,10.2739409" id="Shape" stroke="#77869E" stroke-width="1.32" fill="#FFFFFF" stroke-linecap="round" transform="translate(42.500000, 31.000000) rotate(-7.000000) translate(-42.500000, -31.000000) "></path>
                    <path d="M58.539296,11.3275622 L59,44.7070068 L59,48.05 C59,49.1269553 58.1446634,50 57.0895522,50 L28.9104478,50 C27.8553366,50 27,49.1269553 27,48.05 L27,12.056 C27,11.4727873 27.4727873,11 28.056,11 L31.5527052,11 L31.5527052,11" id="Rectangle" fill="#EFF0F2" transform="translate(43.000000, 30.500000) rotate(-7.000000) translate(-43.000000, -30.500000) "></path>
                    <path d="M34.112,0.66 C33.3100825,0.66 32.66,1.31008254 32.66,2.112 L32.66,42.888 C32.66,43.6899175 33.3100825,44.34 34.112,44.34 L64.888,44.34 C65.6899175,44.34 66.34,43.6899175 66.34,42.888 L66.34,2 C66.34,1.25993844 65.7400616,0.66 65,0.66 L34.112,0.66 Z" id="Rectangle" stroke="#77869E" stroke-width="1.32" fill="#FFFFFF"></path>
                    <path d="M39,10.2692308 L52.3023256,10.2692308 M39,16.7307692 L61,16.7307692 M39,23.7307692 L61,23.7307692 M39,30.7307692 L61,30.7307692 M39,37.7307692 L52.3023256,37.7307692" id="lines" stroke="#A4C3FE" stroke-width="1.32" stroke-linecap="round" stroke-linejoin="round"></path>
                </g>
            </g>
        </g>
    </g>
</svg>