<?xml version="1.0" encoding="UTF-8"?>
<svg width="44px" height="44px" viewBox="0 0 44 44" version="1.1" xmlns="http://www.w3.org/2000/svg" xmlns:xlink="http://www.w3.org/1999/xlink">
    <!-- Generator: Sketch 61 (89581) - https://sketch.com -->
    <title>Group 3</title>
    <desc>Created with Sketch.</desc>
    <g id="mobile-📱" stroke="none" stroke-width="1" fill="none" fill-rule="evenodd">
        <g id="login---validado" transform="translate(-40.000000, -671.000000)" fill="#77869E" fill-rule="nonzero">
            <g id="Group-4" transform="translate(16.000000, 152.000000)">
                <g id="Group-3" transform="translate(24.000000, 519.000000)">
                    <path d="M41.3,16.8 L29.4,16.8 L29.4,2.1 C29.4,0.9422 28.4578,-1.81188398e-13 27.3,-1.81188398e-13 L2.1,-1.81188398e-13 C0.9422,-1.81188398e-13 -1.81188398e-13,0.9422 -1.81188398e-13,2.1 L-1.81188398e-13,18.9 C-1.81188398e-13,20.0578 0.9422,21 2.1,21 L12.6,21 L12.6,22.4 L10.5,22.4 C8.5701,22.4 7,23.9701 7,25.9 C7,26.2864 7.3129,26.6 7.7,26.6 L21.7,26.6 C22.0871,26.6 22.4,26.2864 22.4,25.9 C22.4,23.9701 20.8299,22.4 18.9,22.4 L16.8,22.4 L16.8,21 L25.2,21 L25.2,41.3 C25.2,42.4578 26.1422,43.4 27.3,43.4 L41.3,43.4 C42.4578,43.4 43.4,42.4578 43.4,41.3 L43.4,18.9 C43.4,17.7422 42.4578,16.8 41.3,16.8 Z M20.8803,25.2 L8.5197,25.2 C8.8088,24.3852 9.5872,23.8 10.5,23.8 L18.9,23.8 C19.8128,23.8 20.5912,24.3852 20.8803,25.2 Z M15.4,22.4 L14,22.4 L14,21 L15.4,21 L15.4,22.4 Z M2.1,19.6 C1.7136,19.6 1.4,19.2857 1.4,18.9 L1.4,2.1 C1.4,1.7143 1.7136,1.4 2.1,1.4 L27.3,1.4 C27.6864,1.4 28,1.7143 28,2.1 L28,16.8 L27.3,16.8 C27.0536,16.8 26.8198,16.8504 26.6,16.9288 L26.6,3.5 C26.6,3.1136 26.2871,2.8 25.9,2.8 L3.5,2.8 C3.1129,2.8 2.8,3.1136 2.8,3.5 L2.8,17.5 C2.8,17.8864 3.1129,18.2 3.5,18.2 L25.3288,18.2 C25.2504,18.4198 25.2,18.6536 25.2,18.9 L25.2,19.6 L2.1,19.6 Z M19.6,16.8 L9.8,16.8 L9.8,7 L19.6,7 L19.6,16.8 Z M20.3,5.6 L9.1,5.6 C8.7129,5.6 8.4,5.9136 8.4,6.3 L8.4,16.8 L4.2,16.8 L4.2,4.2 L25.2,4.2 L25.2,16.8 L21,16.8 L21,6.3 C21,5.9136 20.6871,5.6 20.3,5.6 Z M42,41.3 C42,41.6857 41.6864,42 41.3,42 L27.3,42 C26.9136,42 26.6,41.6857 26.6,41.3 L26.6,18.9 C26.6,18.5143 26.9136,18.2 27.3,18.2 L41.3,18.2 C41.6864,18.2 42,18.5143 42,18.9 L42,41.3 Z" id="Shape"></path>
                    <rect id="Rectangle" x="33.6" y="39.2" width="1.4" height="1.4"></rect>
                    <path d="M39.9,19.6 L28.7,19.6 C28.3129,19.6 28,19.9136 28,20.3 L28,37.1 C28,37.4864 28.3129,37.8 28.7,37.8 L39.9,37.8 C40.2871,37.8 40.6,37.4864 40.6,37.1 L40.6,20.3 C40.6,19.9136 40.2871,19.6 39.9,19.6 Z M39.2,36.4 L29.4,36.4 L29.4,21 L39.2,21 L39.2,36.4 Z" id="Shape"></path>
                    <rect id="Rectangle" x="30.8" y="22.4" width="1.4" height="1.4"></rect>
                    <rect id="Rectangle" x="30.8" y="28" width="1.4" height="1.4"></rect>
                    <path d="M35,25.9 L35,22.4 L33.6,22.4 L33.6,25.2 L30.8,25.2 L30.8,26.6 L34.3,26.6 C34.6871,26.6 35,26.2864 35,25.9 Z" id="Path"></path>
                    <rect id="Rectangle" x="36.4" y="22.4" width="1.4" height="1.4"></rect>
                    <path d="M33.6,29.4 L37.1,29.4 C37.4871,29.4 37.8,29.0864 37.8,28.7 L37.8,25.2 L36.4,25.2 L36.4,28 L33.6,28 L33.6,29.4 Z" id="Path"></path>
                    <rect id="Rectangle" x="11.2" y="8.4" width="1.4" height="1.4"></rect>
                    <rect id="Rectangle" x="11.2" y="14" width="1.4" height="1.4"></rect>
                    <path d="M15.4,11.9 L15.4,8.4 L14,8.4 L14,11.2 L11.2,11.2 L11.2,12.6 L14.7,12.6 C15.0871,12.6 15.4,12.2864 15.4,11.9 Z" id="Path"></path>
                    <rect id="Rectangle" x="16.8" y="8.4" width="1.4" height="1.4"></rect>
                    <path d="M14,15.4 L17.5,15.4 C17.8871,15.4 18.2,15.0864 18.2,14.7 L18.2,11.2 L16.8,11.2 L16.8,14 L14,14 L14,15.4 Z" id="Path"></path>
                </g>
            </g>
        </g>
    </g>
</svg>