<?xml version="1.0" encoding="UTF-8"?>
<svg width="88px" height="88px" viewBox="0 0 88 88" version="1.1" xmlns="http://www.w3.org/2000/svg" xmlns:xlink="http://www.w3.org/1999/xlink">
    <!-- Generator: Sketch 61 (89581) - https://sketch.com -->
    <title>Group 6</title>
    <desc>Created with Sketch.</desc>
    <defs>
        <rect id="path-1" x="0" y="0" width="88" height="88" rx="44"></rect>
    </defs>
    <g id="mobile-📱" stroke="none" stroke-width="1" fill="none" fill-rule="evenodd">
        <g id="registro-cliente" transform="translate(-132.000000, -184.000000)">
            <g id="Group-7" transform="translate(16.000000, 152.000000)">
                <g id="Group">
                    <g id="Group-6" transform="translate(116.000000, 32.000000)">
                        <mask id="mask-2" fill="white">
                            <use xlink:href="#path-1"></use>
                        </mask>
                        <use id="Mask-Copy" fill="#F6F8FA" xlink:href="#path-1"></use>
                        <g id="Group-2" mask="url(#mask-2)">
                            <g transform="translate(4.190476, 3.492063)">
                                <line x1="0" y1="84.6164265" x2="75.2685484" y2="84.6164265" id="Path-5" stroke="#E9EEF2" stroke-width="0.558730159"></line>
                                <g id="Group-18" stroke="none" stroke-width="1" fill-rule="evenodd" transform="translate(6.365726, 0.000000)">
                                    <g id="11">
                                        <path d="M69.1646975,34.1490552 C78.5909443,34.1490552 86.2321578,26.5045716 86.2321578,17.0745276 C86.2321578,7.64448358 78.5909443,0 69.1646975,0 C59.7385566,0 52.0972372,7.64448358 52.0972372,17.0745276 C52.0972372,26.5045716 59.7385566,34.1490552 69.1646975,34.1490552 Z" id="Path" fill="#E9EEF2" fill-rule="nonzero"></path>
                                        <polygon id="Path" fill="#E9EEF2" fill-rule="nonzero" points="92.2559673 84.368254 47.412052 84.368254 64.4153128 16.7397329 75.2527065 16.7397329"></polygon>
                                        <path d="M12.5440704,81.4131458 L15.6247464,57.2451606 L17.0818229,63.5948871 L15.959874,81.4131458 C19.2212857,87.2995632 21.7375027,88.446728 23.508525,84.8546405 C25.2795474,81.2625529 25.9809253,73.5892802 25.6126589,61.8348223 C25.6944633,60.4925165 25.5606898,59.1461761 25.215779,57.8424317 L20.7370034,40.9098276 L6.50552912,40.8013531 L6.45487836,60.786456 L4.290079,81.4131458 L12.5440704,81.4131458 Z" id="Path" fill="#EA6F57" fill-rule="nonzero"></path>
                                        <path d="M31.8968216,19.8362334 L31.7434817,18.9692258 C31.6983817,18.5463427 31.6754848,18.121377 31.6740971,17.6961338 C31.6740971,17.0318213 32.0342031,16.2029926 31.4208433,15.1013584 C30.8074835,13.9997243 32.0453046,14.6654251 32.358923,15.185352 C32.6239722,15.6192029 32.6267475,16.5965821 32.9271828,16.9207555 C33.0520751,16.8307922 33.1637843,16.7234748 33.2581474,16.6021354 L35.3396852,13.1111977 C35.3716021,13.0547416 35.4236406,13.0118354 35.484699,12.9904067 C35.5457575,12.968971 35.6130605,12.9704565 35.6734251,12.9945786 L35.8121943,13.0508057 C35.8468866,13.0648555 35.8788035,13.086076 35.9051697,13.1131136 C35.9315358,13.1401512 35.9516573,13.1724019 35.9648404,13.2077833 C35.9780235,13.2431578 35.9835742,13.2808924 35.9807989,13.3185368 C35.9787173,13.3561811 35.9683096,13.3929092 35.9509635,13.426347 C35.5547775,14.1899245 34.3127932,16.4397016 34.3551178,16.4556673 L34.4293593,16.5250835 L36.9556524,13.1278576 C36.9931201,13.0740045 37.0493216,13.0357632 37.1131555,13.0202973 C37.1769893,13.0048314 37.2442923,13.0132099 37.3025754,13.043864 L37.4906076,13.1445175 C37.5232184,13.1615591 37.5516661,13.1850426 37.574563,13.213524 C37.5974599,13.2420055 37.6141122,13.274881 37.6238261,13.3101305 C37.6335399,13.3453731 37.6363153,13.3822469 37.6307645,13.4184682 C37.6259076,13.4546896 37.6134184,13.4895018 37.5946845,13.5207529 C37.1089924,14.3329218 35.2356083,16.9499103 35.2772391,16.9679585 L35.3729898,17.0415396 L37.7792476,14.3412517 C37.8187968,14.2846151 37.8791614,14.2454505 37.9464644,14.2318796 C38.0144613,14.2183088 38.0852336,14.2313729 38.1435167,14.2683648 L38.2878366,14.3606882 C38.317672,14.3797499 38.3440382,14.4045384 38.3641597,14.4336377 C38.3842812,14.4627369 38.398852,14.4955777 38.4064843,14.5302719 C38.4141166,14.564966 38.4148105,14.6008334 38.4085658,14.6358191 C38.4023212,14.6708048 38.389832,14.7042218 38.3704043,14.7341471 L36.1195681,17.4281875 L36.2062988,17.5350883 L38.2267782,15.7212446 C38.2704905,15.6717509 38.3308551,15.6399583 38.3967705,15.6320448 C38.461992,15.6241314 38.5286012,15.6405136 38.5827212,15.6782066 L38.6521058,15.7261037 C38.709695,15.7667121 38.7492442,15.8281454 38.7617334,15.8973533 C38.7749165,15.9665612 38.7603457,16.0381293 38.7214904,16.0967859 C38.443952,16.5181419 37.5176676,17.2768603 36.8238217,18.1633044 C36.2853972,18.84983 36.0543465,19.4676337 35.282096,20.2582835 C34.9559884,20.5935635 34.4314409,20.9455033 34.1441886,21.1440335" id="Path" fill="#FFB394" fill-rule="nonzero"></path>
                                        <polygon id="Path" fill="#162C56" fill-rule="nonzero" points="4.7778527 81.1417918 3.17853779 84.3321576 17.5647397 84.3321576 11.5719922 81.1417918"></polygon>
                                        <path d="M27.4520445,27.0714777 C27.4520445,27.0714777 21.9706615,25.0799286 14.9274312,25.2347266 C6.62487062,25.417291 2.67480563,31.3551477 0.981127672,35.2126026 C0.825220487,35.5664861 0.759652045,35.9535505 0.790320036,36.3390183 C0.820988027,36.7245555 0.946851682,37.0963484 1.1566707,37.4211465 C1.36648971,37.7459446 1.65367255,38.0134744 1.99240814,38.1997179 C2.33114373,38.3860309 2.71081624,38.4852265 3.09735782,38.4883502 C5.34763078,38.8057183 7.0353355,39.0437443 8.16047198,39.2024283 C8.55580044,39.2581836 7.13705867,41.1900944 7.58867873,41.2537888 C9.40204407,41.5095374 13.7571512,41.4130936 20.6540002,40.9644573 L22.5014536,32.6816901 L29.5974161,33.1016578 C30.5701882,33.1593426 31.5318586,32.8681419 32.3096599,32.2803954 C33.0874613,31.692649 33.6307426,30.8467439 33.840978,29.8946321 L35.8288466,20.8989945 L30.9531911,19.6050776 L27.4520445,27.0714777 Z" id="Path" fill="#1E63F8" fill-rule="nonzero"></path>
                                        <g id="Clipped" transform="translate(0.777831, 19.602995)"></g>
                                        <line x1="15.9335079" y1="17.7537492" x2="15.7163341" y2="25.6866257" id="Path" stroke="#FFB394" stroke-width="4.51847314" stroke-linecap="round" stroke-linejoin="round"></line>
                                        <path d="M17.1824306,23.4964958 L17.6042889,23.5049259 C18.0949074,23.5146528 18.5818485,23.4232195 19.0303505,23.2370458 C19.4788525,23.0508721 19.8779527,22.774562 20.1992034,22.4278288 C20.520454,22.0810957 20.7559454,21.6724343 20.8889556,21.2309607 C21.0219659,20.7894223 21.049234,20.3259658 20.9687479,19.8735331 L20.5711742,17.633742 C20.4426045,16.9098627 20.045239,16.2514783 19.4488784,15.7742549 C18.8524484,15.2970315 18.0951849,15.0315054 17.3100982,15.0243269 L17.3100982,15.0243269 C16.871657,15.0201313 16.4365462,15.0967018 16.0297443,15.2496483 C15.6229424,15.4026013 15.2524287,15.6289473 14.9392266,15.915756 C14.6260246,16.2025841 14.3763094,16.5441944 14.2044438,16.9212108 C14.0325087,17.2982272 13.9417537,17.7031923 13.9373131,18.1129561 L13.9164977,20.3449657 C13.9076859,21.1661792 14.2455888,21.9576283 14.8570059,22.5475351 C15.4683535,23.1375067 16.3038828,23.4784686 17.1824306,23.4964958 L17.1824306,23.4964958 Z" id="Path" fill="#FFB394" fill-rule="nonzero"></path>
                                        <path d="M18.5625556,20.6122212 C18.4668467,20.835814 18.4638354,21.0882729 18.5541522,21.3140666 C18.6445384,21.5398603 18.8208304,21.7204561 19.0443147,21.8161534 C19.267799,21.9118507 19.5201584,21.9148079 19.7458835,21.8244061 C19.9716086,21.733935 20.1521724,21.5575343 20.2478812,21.3339414 C20.4470723,20.8688461 19.9620762,20.7092472 19.4965129,20.5093861 C19.0309495,20.309525 18.7617466,20.1471258 18.5625556,20.6122212 Z" id="Path" fill="#24272D" fill-rule="nonzero" transform="translate(19.391181, 21.100541) rotate(-16.000000) translate(-19.391181, -21.100541) "></path>
                                        <path d="M15.1952558,20.6639777 L15.8086156,17.0751632 L15.9536294,16.2234272 C16.1821823,16.4266776 16.4425826,16.5908468 16.7244922,16.7093402 C17.747915,17.1452735 20.6717819,16.6669963 20.8875679,14.5657697 C21.0665802,12.8518852 19.3680453,13.9826742 18.4431487,13.9611552 C16.9909291,13.9264471 15.3338905,13.3218325 13.4639757,14.5657697 C11.7646822,15.6963374 11.9127227,17.4879393 11.9769834,18.4318042 C12.0409291,19.3710433 12.7400888,21.7420929 13.5832558,22.1650323 C13.5832558,20.0499225 14.2099945,18.4315546 15.1952558,20.6639777 Z" id="Path" fill="#24272D" fill-rule="nonzero"></path>
                                        <path d="M18.0185149,23.5055705 C17.0564558,23.5055705 16.2667105,23.4434159 15.6492792,23.3191065 C15.0318478,23.1947972 15.8160423,23.592926 18.0018626,24.5134929 L18.0185149,23.5055705 Z" id="Path" fill="#7C5F56" fill-rule="nonzero"></path>
                                        <path d="M19.4902763,19.0579693 C19.6799738,19.0579693 19.7555144,18.7981335 19.7555144,18.6083497 C19.7555144,18.418566 19.6799738,18.1587302 19.4902763,18.1587302 C19.3005788,18.1587302 19.1868137,18.418566 19.1868137,18.6083497 C19.1868137,18.7981335 19.3005788,19.0579693 19.4902763,19.0579693 Z" id="Path" fill="#24272D" fill-rule="nonzero"></path>
                                        <path d="M20.6524797,50.8253857 L20.5829564,50.812266 C19.5668884,50.6211634 18.5882881,51.2902656 18.3972723,52.3067955 L12.8052902,82.056679 C12.614205,83.0736254 13.2830032,84.052393 14.2990712,84.2439816 L14.3686639,84.2564765 C15.3847319,84.448065 16.3632629,83.7788934 16.554348,82.7626411 L22.1462607,53.0120635 C22.3373459,51.9955335 21.6685478,51.0165577 20.6524797,50.8253857 Z" id="Path" fill="#FFBA5F" fill-rule="nonzero" transform="translate(17.475775, 67.534445) rotate(-24.000000) translate(-17.475775, -67.534445) "></path>
                                        <path d="M0.647734694,78.7587357 L0.63469039,78.8281518 C0.443605216,79.8450983 1.11240333,80.8238658 2.12847133,81.0147602 L5.38177622,81.6270106 C6.39784422,81.817905 7.37644455,81.1494275 7.56752972,80.1324811 L7.58057403,80.063065 C7.7716592,79.0461185 7.10286109,78.0673509 6.08679309,77.8762483 L2.8334882,77.2642062 C1.81742019,77.0730341 0.838819868,77.7421363 0.647734694,78.7587357 Z" id="Path" fill="#FFBA5F" fill-rule="nonzero"></path>
                                        <path d="M18.6925126,71.7324925 L18.6793989,71.8021169 C18.4883831,72.8186469 19.1571812,73.7976227 20.1732492,73.9887947 L24.4814081,74.7992976 C25.4974761,74.9904696 26.4760764,74.3213675 26.6671616,73.3048375 L26.6802059,73.2352825 C26.8712911,72.2187526 26.202493,71.2397073 25.186425,71.0485353 L20.8781967,70.2380324 C19.8621287,70.0468604 18.8835978,70.7159626 18.6925126,71.7324925 Z" id="Path" fill="#FFBA5F" fill-rule="nonzero" transform="translate(22.679813, 72.518665) rotate(-24.000000) translate(-22.679813, -72.518665) "></path>
                                        <path d="M19.5212246,80.447698 L19.5081109,80.5173224 C19.3170951,81.5338523 19.9858932,82.5128281 21.0019612,82.7040002 L25.3101201,83.514503 C26.3261881,83.7056751 27.3047884,83.0365729 27.4958736,82.020043 L27.5089179,81.950488 C27.7000031,80.933958 27.031205,79.9549128 26.015137,79.7637407 L21.7069087,78.9532379 C20.6908407,78.7620658 19.7123097,79.431168 19.5212246,80.447698 Z" id="Path-Copy" fill="#FFBA5F" fill-rule="nonzero" transform="translate(23.508525, 81.233870) rotate(-24.000000) translate(-23.508525, -81.233870) "></path>
                                        <path d="M12.8128166,42.2957604 C13.0726619,42.2963158 13.3318827,42.3208891 13.5871487,42.3693415 C14.6024534,42.5612078 15.5097958,43.1247974 16.1319674,43.9500859 C16.7540697,44.7753744 17.046387,45.8030803 16.9516771,46.8324523 C16.8569671,47.8618242 16.3821683,48.8188645 15.6199091,49.516705 C14.85765,50.2145455 13.8627443,50.6029982 12.8294689,50.6062607 C12.5687216,50.6058442 12.3085987,50.5812015 12.0523614,50.5326796 C11.0370566,50.3408134 10.1296449,49.7771544 9.50747325,48.9517965 C8.88537097,48.1264385 8.59312306,47.0986632 8.68790242,46.0692218 C8.78268177,45.0398499 9.25761933,44.0827401 10.0200173,43.3849691 C10.7824152,42.687198 11.7774597,42.2988147 12.810735,42.2957604 L12.810735,42.2957604 L12.8128166,42.2957604 Z M12.810735,37.9225435 C10.6172105,37.9227518 8.50805755,38.7682404 6.92130125,40.2834559 C5.33461433,41.7986715 4.39223276,43.8671336 4.28989049,46.0592953 C4.18761759,48.2513876 4.93329383,50.3987065 6.37205279,52.0552533 C7.81081175,53.7117306 9.83205439,54.7501266 12.0160039,54.9547654 C14.1999534,55.1594042 16.3787685,54.5145283 18.0999921,53.1541108 C19.8211464,51.7936932 20.9523928,49.8222054 21.2587258,47.6492026 C21.5650588,45.4761997 21.0229569,43.2686276 19.7450315,41.4849799 C18.467106,39.7013322 16.5515361,38.4787751 14.396173,38.0710941 C13.8734989,37.9722456 13.3427067,37.9225435 12.810735,37.9225435 L12.810735,37.9225435 Z" id="Shape" fill="#FFBA5F" fill-rule="nonzero" transform="translate(12.811479, 46.457259) rotate(-24.000000) translate(-12.811479, -46.457259) "></path>
                                        <line x1="13.3614209" y1="35.9782626" x2="8.10970095" y2="33.2800572" id="Path" stroke="#FFFFFF" stroke-width="0.511627907" stroke-linecap="square"></line>
                                        <line x1="9.16434679" y1="33.7166848" x2="12.7050427" y2="30.3347304" id="Path" stroke="#FFFFFF" stroke-width="0.511627907" stroke-linecap="square"></line>
                                        <line x1="22.3002383" y1="33.9776895" x2="22.9260873" y2="31.5148048" id="Path" stroke="#FFFFFF" stroke-width="0.511627907" stroke-linecap="square"></line>
                                        <path d="M10.735214,38.3127274 C10.735214,38.3127274 10.8316586,36.31979 13.4578655,36.0219948" id="Path" stroke="#FFFFFF" stroke-width="0.511627907" stroke-linecap="square"></path>
                                        <path d="M10.7608863,38.1725068 L12.0139721,39.2533161 C12.0139721,39.2533161 11.5581153,42.499909 13.0103349,42.499909 C13.0103349,42.499909 12.9527457,43.0142826 13.2379164,43.0989703 C13.523087,43.183658 14.4618606,42.0660581 14.4618606,42.0660581 C14.4618606,42.0660581 15.6004618,41.7883936 15.941834,40.762423 C16.2832062,39.7364524 16.6252723,37.2596846 16.3116539,37.0319996 C15.9980355,36.8043147 12.6967165,36.31979 12.6967165,36.31979 C12.6967165,36.31979 11.3020862,36.31979 10.7608863,38.1725068 Z" id="Path" fill="#FFB394" fill-rule="nonzero"></path>
                                        <path d="M12.6474718,54.6953561 C12.6474718,54.6953561 13.7576254,55.172245 14.4098406,55.3201014" id="Path" stroke="#FFFFFF" stroke-width="0.511627907" stroke-linecap="square" transform="translate(13.528656, 55.007729) rotate(-24.000000) translate(-13.528656, -55.007729) "></path>
                                        <line x1="0.31017864" y1="81.7644545" x2="1.164303" y2="77.293361" id="Path" stroke="#FFFFFF" stroke-width="0.511627907" stroke-linecap="square"></line>
                                        <line x1="1.37800755" y1="76.381927" x2="1.76239821" y2="74.3889896" id="Path" stroke="#FFFFFF" stroke-width="0.511627907" stroke-linecap="square"></line>
                                        <path d="M20.5838887,17.8280477 C21.1365287,18.84227 21.6208876,18.6758832 21.6956862,19.07343 C21.7704849,19.4709767 21.0952653,19.3987238 20.9687479,19.8735331 C20.884403,20.1900727 20.5968153,20.0048453 20.1059847,19.3178509 C20.0561606,17.6485006 20.2154619,17.1518995 20.5838887,17.8280477 Z" id="Path-8" fill="#FFB394"></path>
                                        <path d="M19.9224344,17.5373249 C19.7987473,17.2928414 18.4051844,17.0730952 18.367658,17.380028 C18.3301316,17.6869608 20.0461214,17.7818084 19.9224344,17.5373249 Z" id="Path-9" fill="#24272D" transform="translate(19.147933, 17.452933) rotate(-17.000000) translate(-19.147933, -17.452933) "></path>
                                    </g>
                                    <path d="M13.3563091,20.6931539 C13.7667059,21.2562507 14.5435811,21.3710862 15.0915474,20.949663 C15.6395137,20.5282397 15.7510962,19.7302194 15.3407694,19.1671225 L14.9197257,18.5894194 C14.5093288,18.0263225 13.7324537,17.911487 13.1844873,18.3329103 C12.636451,18.7543335 12.5249385,19.5524258 12.9352653,20.1154507 L13.3563091,20.6931539 Z" id="Path" fill="#FFB394" fill-rule="nonzero"></path>
                                    <line x1="14.026455" y1="19.4180902" x2="14.8073192" y2="20.1992777" id="Path" stroke="#24272D" stroke-width="0.511627907" opacity="0.595424107" stroke-linecap="round" stroke-linejoin="round"></line>
                                </g>
                            </g>
                        </g>
                    </g>
                </g>
            </g>
        </g>
    </g>
</svg>