<?xml version="1.0" encoding="UTF-8"?>
<svg width="20px" height="20px" viewBox="0 0 20 20" version="1.1" xmlns="http://www.w3.org/2000/svg" xmlns:xlink="http://www.w3.org/1999/xlink">
    <!-- Generator: Sketch 61.2 (89653) - https://sketch.com -->
    <title>🔹Icon Color</title>
    <desc>Created with Sketch.</desc>
    <g id="mobile-📱" stroke="none" stroke-width="1" fill="none" fill-rule="evenodd">
        <g id="notificaciones" transform="translate(-311.000000, -544.000000)" fill="#FFFFFF">
            <g id="Group" transform="translate(16.000000, 527.000000)">
                <path d="M305,22 C305.55,22 306,22.45 306,23 L306,27 C306,27.55 305.55,28 305,28 C304.45,28 304,27.55 304,27 L304,23 C304,22.45 304.45,22 305,22 Z M304.99,17 C299.47,17 295,21.48 295,27 C295,32.52 299.47,37 304.99,37 C310.52,37 315,32.52 315,27 C315,21.48 310.52,17 304.99,17 Z M305,35 C300.58,35 297,31.42 297,27 C297,22.58 300.58,19 305,19 C309.42,19 313,22.58 313,27 C313,31.42 309.42,35 305,35 Z M306,32 L304,32 L304,30 L306,30 L306,32 Z" id="🔹Icon-Color"></path>
            </g>
        </g>
    </g>
</svg>