<?xml version="1.0" encoding="UTF-8"?>
<svg width="61px" height="72px" viewBox="0 0 61 72" version="1.1" xmlns="http://www.w3.org/2000/svg" xmlns:xlink="http://www.w3.org/1999/xlink">
    <!-- Generator: Sketch 60 (88103) - https://sketch.com -->
    <title>icon-correo</title>
    <desc>Created with Sketch.</desc>
    <defs>
        <polygon id="path-1" points="0.457533333 0.1002 60.6968667 0.1002 60.6968667 32.6666667 0.457533333 32.6666667"></polygon>
        <polygon id="path-3" points="0.136666667 0.1282 58.3453333 0.1282 58.3453333 20.6666667 0.136666667 20.6666667"></polygon>
    </defs>
    <g id="desktop-🖥" stroke="none" stroke-width="1" fill="none" fill-rule="evenodd">
        <g id="icon-correo">
            <path d="M44.0126667,18.9569333 L43.7053333,18.1489333 C44.2433333,17.9436 44.7813333,17.7356 45.3173333,17.5262667 L45.6313333,18.3316 C45.0933333,18.5416 44.554,18.7509333 44.0126667,18.9569333" id="Fill-17" fill="#00C8B7"></path>
            <path d="M60.6936667,39.4208667 L30.5736667,57.1828667 L0.453666667,39.4208667 C0.453666667,39.4062 0.453666667,39.3862 0.459,39.3715333 C0.483666667,39.2588667 2.14566667,37.8708667 4.681,35.8115333 C4.70566667,35.7922 4.725,35.7722 4.74966667,35.7528667 C13.067,29.0002 30.5736667,15.1708667 30.5736667,15.1708667 C30.5736667,15.1708667 48.0803333,29.0002 56.3976667,35.7528667 C58.9723333,37.8415333 60.6643333,39.2542 60.6883333,39.3715333 C60.6936667,39.3862 60.6936667,39.4062 60.6936667,39.4208667" id="Fill-19" fill="#274684"></path>
            <path d="M42.9606,0.4612 L10.4632667,0.4612 C7.67593333,0.4612 5.4166,2.7212 5.4166,5.50786667 L5.4166,54.6438667 C5.4166,57.4312 7.67593333,59.6905333 10.4632667,59.6905333 L51.1839333,59.6905333 C53.9712667,59.6905333 56.2306,57.4312 56.2306,54.6438667 L56.2306,13.7312 L42.9606,0.4612 Z" id="Fill-21" fill="#FFFFFF"></path>
            <path d="M42.9606,8.6842 C42.9606,11.4715333 45.2206,13.7308667 48.0072667,13.7308667 L56.2306,13.7308667 L42.9606,0.461533333 L42.9606,8.6842 Z" id="Fill-23" fill="#E6E8E8"></path>
            <path d="M26.1126,8.76686667 L14.9012667,8.76686667 C13.9079333,8.76686667 13.1032667,9.57153333 13.1032667,10.5648667 L13.1032667,21.7762 C13.1032667,22.7688667 13.9079333,23.5742 14.9012667,23.5742 L26.1126,23.5742 C27.1052667,23.5742 27.9106,22.7688667 27.9106,21.7762 L27.9106,10.5648667 C27.9106,9.57153333 27.1052667,8.76686667 26.1126,8.76686667" id="Fill-25" fill="#5B92FE"></path>
            <path d="M41.4716667,27.6890667 L14.569,27.6890667 C13.7696667,27.6890667 13.121,28.3377333 13.121,29.1377333 C13.121,29.9377333 13.7696667,30.5864 14.569,30.5864 L41.4716667,30.5864 C42.271,30.5864 42.9203333,29.9377333 42.9203333,29.1377333 C42.9203333,28.3377333 42.271,27.6890667 41.4716667,27.6890667" id="Fill-27" fill="#D9DBDB"></path>
            <path d="M41.4716667,34.9052 L14.569,34.9052 C13.7696667,34.9052 13.121,35.5538667 13.121,36.3538667 C13.121,37.1538667 13.7696667,37.8025333 14.569,37.8025333 L41.4716667,37.8025333 C42.271,37.8025333 42.9203333,37.1538667 42.9203333,36.3538667 C42.9203333,35.5538667 42.271,34.9052 41.4716667,34.9052" id="Fill-29" fill="#D9DBDB"></path>
            <path d="M29.2538667,41.9052 L14.5692,41.9052 C13.7692,41.9052 13.1205333,42.5538667 13.1205333,43.3538667 C13.1205333,44.1538667 13.7692,44.8025333 14.5692,44.8025333 L29.2538667,44.8025333 C30.0538667,44.8025333 30.7025333,44.1538667 30.7025333,43.3538667 C30.7025333,42.5538667 30.0538667,41.9052 29.2538667,41.9052" id="Fill-31" fill="#D9DBDB"></path>
            <g id="Group-35" transform="translate(0.000000, 39.319333)">
                <mask id="mask-2" fill="white">
                    <use xlink:href="#path-1"></use>
                </mask>
                <g id="Clip-34"></g>
                <path d="M60.6968667,0.1002 L60.6968667,28.9962 C60.6968667,31.0162 59.0455333,32.6668667 57.0262,32.6668667 L4.11753333,32.6668667 C2.0982,32.6668667 0.457533333,31.0162 0.457533333,28.9962 L0.457533333,0.1002 L30.5768667,17.8595333 L60.6968667,0.1002 Z" id="Fill-33" fill="#5B92FE" mask="url(#mask-2)"></path>
            </g>
            <g id="Group-38" transform="translate(1.333333, 51.319333)">
                <mask id="mask-4" fill="white">
                    <use xlink:href="#path-3"></use>
                </mask>
                <g id="Clip-37"></g>
                <path d="M58.3453333,19.5168667 L38.9593333,0.130866667 L29.2433333,5.85953333 L19.524,0.1282 L0.136666667,19.5155333 C0.803333333,20.2208667 1.74066667,20.6668667 2.78466667,20.6668667 L55.6926667,20.6668667 C56.7366667,20.6668667 57.6753333,20.2215333 58.3453333,19.5168667" id="Fill-36" fill="#1D62F8" mask="url(#mask-4)"></path>
            </g>
        </g>
    </g>
</svg>