<?xml version="1.0" encoding="UTF-8"?>
<svg width="85px" height="41px" viewBox="0 0 85 41" version="1.1" xmlns="http://www.w3.org/2000/svg" xmlns:xlink="http://www.w3.org/1999/xlink">
    <!-- Generator: Sketch 61.2 (89653) - https://sketch.com -->
    <title>Group 4 Copy</title>
    <desc>Created with Sketch.</desc>
    <g id="mobile-📱" stroke="none" stroke-width="1" fill="none" fill-rule="evenodd">
        <g id="grupo" transform="translate(-138.000000, -973.000000)">
            <g id="Group-4-Copy" transform="translate(138.000000, 974.000000)">
                <path d="M80.9552493,4.02366864 C82.9113271,4.02366864 84.4970414,5.59994422 84.4970414,7.5443787 C84.4970414,9.48881317 82.9113271,11.0650888 80.9552493,11.0650888 L60.7164369,11.0650888 C62.6725147,11.0650888 64.2582291,12.6413643 64.2582291,14.5857988 C64.2582291,16.5302333 62.6725147,18.1065089 60.7164369,18.1065089 L71.8477837,18.1065089 C73.8038615,18.1065089 75.3895759,19.6827845 75.3895759,21.6272189 C75.3895759,23.5716534 73.8038615,25.147929 71.8477837,25.147929 L66.7000858,25.147929 C64.2337268,25.147929 62.2343479,26.7242046 62.2343479,28.6686391 C62.2343479,29.9649287 63.2462885,31.1384987 65.2701697,32.1893491 C67.2262475,32.1893491 68.8119619,33.7656247 68.8119619,35.7100592 C68.8119619,37.6544936 67.2262475,39.2307692 65.2701697,39.2307692 L23.2746342,39.2307692 C21.3185564,39.2307692 19.732842,37.6544936 19.732842,35.7100592 C19.732842,33.7656247 21.3185564,32.1893491 23.2746342,32.1893491 L3.54179216,32.1893491 C1.58571436,32.1893491 0,30.6130735 0,28.6686391 C0,26.7242046 1.58571436,25.147929 3.54179216,25.147929 L23.7806045,25.147929 C25.7366823,25.147929 27.3223966,23.5716534 27.3223966,21.6272189 C27.3223966,19.6827845 25.7366823,18.1065089 23.7806045,18.1065089 L11.1313468,18.1065089 C9.17526898,18.1065089 7.58955462,16.5302333 7.58955462,14.5857988 C7.58955462,12.6413643 9.17526898,11.0650888 11.1313468,11.0650888 L31.3701591,11.0650888 C29.4140813,11.0650888 27.8283669,9.48881317 27.8283669,7.5443787 C27.8283669,5.59994422 29.4140813,4.02366864 31.3701591,4.02366864 L80.9552493,4.02366864 Z M80.9552493,18.1065089 C82.9113271,18.1065089 84.4970414,19.6827845 84.4970414,21.6272189 C84.4970414,23.5716534 82.9113271,25.147929 80.9552493,25.147929 C78.9991715,25.147929 77.4134571,23.5716534 77.4134571,21.6272189 C77.4134571,19.6827845 78.9991715,18.1065089 80.9552493,18.1065089 Z" id="Background" fill="#E2E5EA" opacity="0.454008557"></path>
                <path d="M11.5441423,6.92449932 L53.3021819,0.239315942 C54.1250329,0.107582992 54.8988761,0.667844861 55.0306091,1.49069585 C55.0308727,1.49234285 55.0311337,1.49399029 55.0313919,1.49563815 L59.1163045,27.5650336 C59.2450055,28.386387 58.6850638,29.1570943 57.8641417,29.2885184 L16.1061021,35.9737018 C15.2832511,36.1054348 14.5094079,35.5451729 14.377675,34.7223219 C14.3774113,34.7206749 14.3771503,34.7190275 14.3768921,34.7173796 L10.2919796,8.64798414 C10.1632786,7.82663074 10.7232202,7.05592347 11.5441423,6.92449932 Z" id="Rectangle" fill="#FFFFFF"></path>
                <path d="M17.7769958,35.9188776 L16.1759022,36.1865536 C15.0760868,36.3703025 14.0433088,35.5784741 13.8690428,34.4178966 L10.0842891,9.20069422 C9.91009723,8.04010507 10.6604544,6.95024671 11.7602586,6.76642744 L52.0855273,0.0264641378 C53.1853428,-0.157284766 54.2181207,0.634543681 54.3923867,1.79512111 C54.5620334,2.92593219 54.6972938,3.82713257 54.7980939,4.49873397 M55.0855804,6.4141713 C55.1768838,7.02249937 55.2568383,7.55521243 55.3254438,8.01231049" id="Shape" stroke="#76869F" stroke-width="1.25739645" stroke-linecap="round"></path>
                <path d="M13.5722096,7.13972839 L51.6757723,1.23540888 C52.4953364,1.10841371 53.2637681,1.66667067 53.3963054,2.48535682 L57.0945082,25.3292413 C57.2276822,26.1518603 56.6687766,26.9266836 55.8461576,27.0598577 C55.8427984,27.0604015 55.8394373,27.060934 55.8360745,27.061455 L17.7325118,32.9657745 C16.9129476,33.0927697 16.1445159,32.5345128 16.0119786,31.7158266 L12.3137758,8.8719421 C12.1806018,8.04932311 12.7395074,7.27449978 13.5621264,7.14132577 C13.5654856,7.14078194 13.5688467,7.14024948 13.5722096,7.13972839 Z" id="Rectangle" fill="#E2E5EA"></path>
                <rect id="Rectangle" stroke="#77869E" stroke-width="1.25739645" fill="#FFFFFF" x="20.7470414" y="9.68195266" width="44.0088757" height="28.9201183" rx="2.01183432"></rect>
                <rect id="Rectangle" fill="#E2E5EA" x="21.1242604" y="16.0946746" width="42.2485207" height="7.04142012"></rect>
                <path d="M63.9601888,15.591716 L30.7171184,15.591716 M60.930758,22.1301775 L21.1242604,22.1301775 M39.1649981,31.6863905 L24.8722178,31.6863905 M28.1714777,15.591716 L24.5379639,15.591716" id="lines" stroke="#76869F" stroke-width="1.25739645" stroke-linecap="round" stroke-linejoin="round"></path>
            </g>
        </g>
    </g>
</svg>