<?xml version="1.0" encoding="UTF-8"?>
<svg width="60px" height="67px" viewBox="0 0 60 67" version="1.1" xmlns="http://www.w3.org/2000/svg" xmlns:xlink="http://www.w3.org/1999/xlink">
    <!-- Generator: Sketch 60 (88103) - https://sketch.com -->
    <title>icon-busquedaavanzada</title>
    <desc>Created with Sketch.</desc>
    <defs>
        <rect id="path-1" x="0" y="0" width="85" height="85"></rect>
        <path d="M36.6990914,24.5488382 L38.8914143,40.9481042 L16.3847163,41.503953 L18.9740741,57.3283817 L0.330697982,59.726127 C-2.10847706,41.4711545 11.9741769,14.5055824 11.9741769,14.5055824 L12.4920484,17.6318004 C14.4409717,13.8219919 16.3363817,11.4760338 26.3951736,11.7401483 C36.52992,12.0077152 39.5698261,12.339153 39.5698261,12.339153 L37.4551839,2.87246092 L47.2826598,0.0725020183 L51.807131,16.333669 C52.0075473,17.0526473 52.0527748,17.8059778 51.9398788,18.5437722 C51.8268101,19.2815665 51.5580348,19.9869076 51.1515056,20.6128417 C50.7449764,21.2389484 50.2100151,21.7711477 49.5818369,22.1745697 C48.9538313,22.577819 48.2471093,22.8427966 47.5087971,22.9520675 L36.6990914,24.5488382 Z" id="path-3"></path>
    </defs>
    <g id="desktop-🖥" stroke="none" stroke-width="1" fill="none" fill-rule="evenodd">
        <g id="icon-busquedaavanzada" transform="translate(-9.000000, -18.000000)">
            <mask id="mask-2" fill="white">
                <use xlink:href="#path-1"></use>
            </mask>
            <g id="Rectangle"></g>
            <g id="15-copy" mask="url(#mask-2)">
                <g transform="translate(42.383636, 60.948393) rotate(-15.000000) translate(-42.383636, -60.948393) translate(14.383636, 16.948393)">
                    <path d="M37.4379215,15.4429299 C37.54242,16.9729657 39.0128204,17.3863386 39.2431812,18.4422909 C39.4735419,19.4982432 38.198812,19.7521229 37.686935,20.4828982" id="Path" stroke="none" fill="#FFB394" fill-rule="nonzero"></path>
                    <line x1="47.9973226" y1="17.4937013" x2="55.1802011" y2="18.330927" id="Path" stroke="#32373F" stroke-width="6.21445872" fill="none" stroke-linecap="round"></line>
                    <path d="M50.2970175,17.8037337 C50.4995053,16.0640305 49.9158641,14.5668639 48.9935348,14.4594918 C48.0712056,14.3521198 47.1594064,15.6752816 46.9569186,17.4148122 C46.7542582,19.1545154 47.3378994,20.6516821 48.2602287,20.7590541 C49.1825579,20.8664261 50.0945298,19.5432643 50.2970175,17.8037337 Z" id="Path" stroke="none" fill="#2B292D" fill-rule="nonzero"></path>
                    <line x1="38.4494972" y1="16.3319428" x2="47.9697028" y2="17.4298305" id="Path" stroke="#32373F" stroke-width="3.97034862" fill="none"></line>
                    <path d="M39.4403582,16.4455292 C39.5680998,15.3490225 39.2271677,14.4082225 38.6787417,14.3443517 C38.1304884,14.2804809 37.5825803,15.1177066 37.4548386,16.2143859 C37.3272696,17.3110652 37.6682017,18.2516926 38.216455,18.3155634 C38.764881,18.3794343 39.3127891,17.5422086 39.4403582,16.4455292 Z" id="Path" stroke="none" fill="#2B292D" fill-rule="nonzero"></path>
                    <path d="M39.3056577,14.4209967 C39.3056577,14.4209967 39.2884492,14.075749 39.8719178,13.7011552 C42.2886517,12.1768866 49.4352793,11.0479266 49.0416969,17.3763171 C48.6601982,23.513095 42.9014664,21.0549314 40.6176528,19.5461989 C39.9634084,19.1146393 40.1291273,18.5259919 40.1291273,18.5259919 C40.1291273,18.5259919 43.6092242,19.0352323 43.723156,16.8342782 C43.8370877,14.633324 39.3056577,14.4209967 39.3056577,14.4209967 Z" id="Path" stroke="none" fill="#FFB394" fill-rule="nonzero"></path>
                    <path d="M49.925531,40.7323244 L39.1158253,42.329095 L46.8299754,73.9187122 L21.5804971,75.1594656 L21.3908081,75.1086385 L2.74743193,77.5063839 C0.308256881,59.2514114 14.3909108,32.2858393 14.3909108,32.2858393 L14.9087824,35.4120572 C16.8577057,31.6022488 18.7531156,29.2562906 28.8119075,29.5204051 C38.9466539,29.7879721 41.98656,30.1194099 41.98656,30.1194099 L39.8719178,20.6527178 L49.6993938,17.8527589 L54.223865,34.1139259 C54.4242812,34.8329042 54.4695087,35.5862347 54.3566127,36.3240291 C54.2435441,37.0618234 53.9747687,37.7671645 53.5682396,38.3930986 C53.1617104,39.0192053 52.6267491,39.5514046 51.9985709,39.9548266 C51.3705653,40.3580759 50.6638432,40.6230535 49.925531,40.7323244 Z" id="Path" stroke="none" fill="#004C99" fill-rule="nonzero"></path>
                    <g id="Clipped" stroke="none" stroke-width="1" fill="none" fill-rule="evenodd" transform="translate(2.416734, 17.780257)">
                        <mask id="mask-4" fill="white">
                            <use xlink:href="#path-3"></use>
                        </mask>
                        <g id="Path"></g>
                        <g id="Group" mask="url(#mask-4)" fill="#B49AC9" fill-rule="nonzero">
                            <g transform="translate(-3.230532, 4.833468)" id="Path">
                                <path d="M6.49065688,37.4973534 C6.49065688,39.2719266 3.27812697,44.4765358 3.27812697,44.4765358 C3.27812697,44.4765358 0.0638708257,39.2719266 0.0638708257,37.4973534 C0.0832046972,36.6580562 0.430351266,35.8596709 1.03090965,35.2727498 C1.63129541,34.6860013 2.43762143,34.3574981 3.27726385,34.3574981 C4.11673365,34.3574981 4.92305967,34.6860013 5.52361806,35.2727498 C6.12400382,35.8596709 6.47115039,36.6580562 6.49065688,37.4973534 L6.49065688,37.4973534 Z"></path>
                                <path d="M16.36992,26.6082407 C16.36992,28.3828139 13.1573901,33.5891494 13.1573901,33.5891494 C13.1573901,33.5891494 9.94313394,28.3810877 9.94313394,26.6082407 C9.96246782,25.7689436 10.3096144,24.9703856 10.9101728,24.3836371 C11.5105585,23.7968887 12.3168846,23.4683855 13.156527,23.4683855 C13.9959968,23.4683855 14.8023228,23.7968887 15.4027086,24.3836371 C16.0032669,24.9703856 16.3504135,25.7689436 16.36992,26.6082407 L16.36992,26.6082407 Z"></path>
                                <path d="M25.4117848,14.7092785 C25.4117848,16.4838517 22.1975287,21.6884609 22.1975287,21.6884609 C22.1975287,21.6884609 18.9849988,16.4838517 18.9849988,14.7092785 C19.0045052,13.8699814 19.3516518,13.0714234 19.9522102,12.4846749 C20.552596,11.8979265 21.358922,11.5694233 22.1983918,11.5694233 C23.0380342,11.5694233 23.8443602,11.8979265 24.444746,12.4846749 C25.0453044,13.0714234 25.3924509,13.8699814 25.4117848,14.7092785 Z"></path>
                                <path d="M33.7496895,26.6082407 C33.7496895,28.3828139 30.5371596,33.5891494 30.5371596,33.5891494 C30.5371596,33.5891494 27.3246297,28.3810877 27.3246297,26.6082407 C27.3246297,25.7561694 27.6629725,24.9391407 28.2654297,24.3366834 C28.867887,23.7342262 29.6850883,23.3957108 30.5371596,23.3957108 C31.3890583,23.3957108 32.2062597,23.7342262 32.8087169,24.3366834 C33.4111742,24.9391407 33.7496895,25.7561694 33.7496895,26.6082407 L33.7496895,26.6082407 Z"></path>
                                <path d="M35.2910479,3.82189211 C35.2910479,5.59646532 32.0767918,10.8028007 32.0767918,10.8028007 C32.0767918,10.8028007 28.8642619,5.59301284 28.8642619,3.82189211 C28.8837684,2.98259494 29.2309149,2.18420961 29.8314733,1.59746114 C30.4318591,1.01054004 31.2381851,0.682209468 32.0776549,0.682209468 C32.9172973,0.682209468 33.7236233,1.01054004 34.3240091,1.59746114 C34.9245675,2.18420961 35.2717141,2.98259494 35.2910479,3.82189211 Z"></path>
                                <path d="M44.9719662,14.2052169 C44.9719662,15.9797901 41.7594363,21.1843993 41.7594363,21.1843993 C41.7594363,21.1843993 38.5469064,15.9797901 38.5469064,14.2052169 C38.5469064,13.3531455 38.8852492,12.5361168 39.487879,11.9336596 C40.0903363,11.3312023 40.907365,10.992687 41.7594363,10.992687 C42.6115077,10.992687 43.4285364,11.3312023 44.0309936,11.9336596 C44.6334509,12.5361168 44.9719662,13.3531455 44.9719662,14.2052169 L44.9719662,14.2052169 Z"></path>
                                <path d="M54.8512294,3.31437798 C54.8512294,5.08895119 51.6386994,10.2952866 51.6386994,10.2952866 C51.6386994,10.2952866 48.4261695,5.08895119 48.4261695,3.31437798 C48.4261695,2.46230664 48.7645123,1.64527794 49.3671422,1.0428207 C49.9695994,0.44036345 50.7866281,0.101848073 51.6386994,0.101848073 C52.4905982,0.101848073 53.3077995,0.44036345 53.9102567,1.0428207 C54.512714,1.64527794 54.8512294,2.46230664 54.8512294,3.31437798 L54.8512294,3.31437798 Z"></path>
                            </g>
                        </g>
                    </g>
                    <line x1="26.5108316" y1="15.2357813" x2="26.8629842" y2="29.5255839" id="Path" stroke="#FFB394" stroke-width="6.90495413" fill="none" stroke-linecap="round" stroke-linejoin="round"></line>
                    <path d="M30.1134914,25.850422 L30.8678576,25.9574488 C31.7434058,26.0819106 32.6356985,26.0118253 33.4810375,25.752199 C34.3263765,25.4925728 35.104047,25.0499652 35.7588092,24.4556213 C36.4137441,23.8612774 36.9295442,23.1298701 37.2694406,22.3135319 C37.6095096,21.4973663 37.7655615,20.6161215 37.7262033,19.7326327 L37.5328646,15.356618 C37.4691664,13.9438644 36.9100377,12.5987793 35.953529,11.557167 C34.9971928,10.5155546 33.7045854,9.84387523 32.3023618,9.66003083 L32.3023618,9.66003083 C30.7209547,9.45270958 29.12194,9.88185248 27.8567797,10.8528617 C26.5914469,11.8238708 25.7633703,13.2575119 25.5544954,14.8387464 L24.9951941,19.1077343 C24.7885634,20.6791292 25.2101108,22.2688223 26.1683458,23.5312206 C27.1267535,24.7936188 28.5443406,25.6270468 30.1134914,25.850422 L30.1134914,25.850422 Z" id="Path" stroke="none" fill="#FFB394" fill-rule="nonzero"></path>
                    <path d="M0.0355111927,22.1372829 C0.458439633,31.6937394 7.5083978,30.9618143 7.5083978,30.9618143 C7.5083978,30.9618143 2.38492183,41.9942048 13.653807,39.6534253 C24.9226921,37.3126459 28.359633,28.7936587 27.3187112,24.2070429 C26.9026877,22.3806826 27.4309167,19.5116741 26.1690363,18.2687824 C32.281647,16.4976617 32.3040881,13.7546686 32.3040881,13.7546686 C32.3040881,13.7546686 40.4640176,16.3802774 39.3816661,8.69506349 C38.2993145,1.00984954 30.0996815,-0.436738349 25.4526473,0.248578349 C24.473007,0.395308624 23.521159,0.690495413 22.6302473,1.12378128 C19.7560602,2.49268844 17.6604066,4.56762716 13.6866055,5.14591706 C2.7060022,6.74614018 5.73209835,13.6044859 5.73209835,13.6044859 C5.73209835,13.6044859 -0.249318165,15.6725196 0.0355111927,22.1372829 Z" id="Path" stroke="none" fill="#2B292D" fill-rule="nonzero"></path>
                    <path d="M36.306678,17.5177045 C36.747214,17.5177045 36.8216964,16.9577132 36.8216964,16.604007 C36.8216964,16.2503007 36.6747961,15.856413 36.3726147,15.7754437 C36.0704332,15.6944745 35.792578,16.1647973 35.792578,16.5185036 C35.792578,16.8722098 35.8663145,17.5177045 36.306678,17.5177045 Z" id="Path" stroke="none" fill="#2B292D" fill-rule="nonzero"></path>
                    <path d="M36.081098,21.1257072 C36.081098,21.1257072 35.2007163,21.1257072 35.1800015,20.2263369 L36.081098,21.1257072 Z" id="Path" stroke="none" fill="#3361C2" fill-rule="nonzero"></path>
                    <path d="M36.081098,21.1257072 C36.081098,21.1257072 35.2007163,21.1257072 35.1800015,20.2263369" id="Path" stroke="#2B292D" stroke-width="0.51787156" fill="none" stroke-linecap="square"></path>
                    <path d="M30.1411112,20.7804594 L30.277484,20.6855163 C31.2942385,19.9604961 31.6412125,18.3516418 31.0473864,17.1087501 L29.9546774,14.8145791 C29.3608514,13.5734136 28.0437314,13.1487589 27.0200719,13.8720528 L26.8854253,13.9687222 C25.8669446,14.6937424 25.5199706,16.3025967 26.1137967,17.5454884 L27.2082319,19.8379332 C27.8072367,21.0842774 29.1243567,21.5054796 30.1411112,20.7804594 Z" id="Path" stroke="none" fill="#FFB394" fill-rule="nonzero"></path>
                    <line x1="27.2928176" y1="15.0476213" x2="28.9482804" y2="18.5139083" id="Path" stroke="#2B292D" stroke-width="0.51787156" fill="none" stroke-linecap="square"></line>
                    <line x1="31.1448119" y1="28.8492965" x2="43.3375282" y2="30.4296078" id="Path" stroke="#FFFFFF" stroke-width="0.51787156" fill="none" stroke-linecap="square"></line>
                </g>
            </g>
        </g>
    </g>
</svg>