<?xml version="1.0" encoding="UTF-8"?>
<svg width="88px" height="88px" viewBox="0 0 88 88" version="1.1" xmlns="http://www.w3.org/2000/svg" xmlns:xlink="http://www.w3.org/1999/xlink">
    <!-- Generator: Sketch 61 (89581) - https://sketch.com -->
    <title>Group 7</title>
    <desc>Created with Sketch.</desc>
    <g id="mobile-📱" stroke="none" stroke-width="1" fill="none" fill-rule="evenodd">
        <g id="modal-beneficios" transform="translate(-136.000000, -285.000000)">
            <g id="Group-6" transform="translate(16.000000, 232.000000)">
                <g id="Group-7" transform="translate(120.000000, 53.000000)">
                    <g id="Group-3">
                        <g id="-Round-/-Action-/-done" transform="translate(18.000000, 24.000000)">
                            <polygon id="Path" points="0 0 48 0 48 48 0 48"></polygon>
                        </g>
                        <rect id="Rectangle" fill="#F6F8FA" x="0" y="0" width="88" height="88" rx="44"></rect>
                        <g id="Group-45" transform="translate(27.000000, 27.000000)" fill-rule="nonzero">
                            <path d="M26.6445199,20.9018004 C26.5788254,21.2052464 26.5725687,21.5227699 26.62575,21.837165 L27.8536115,28.991609 C28.202418,31.0281385 26.0642184,32.5829084 24.2341573,31.6209532 L17.8086095,28.2423788 C17.0844058,27.8622892 16.2178641,27.8607251 15.4920962,28.2408147 L9.03526529,31.6350305 C8.13587628,32.0948921 7.16610032,31.9509898 6.45440989,31.4442037 C5.7239496,30.9233401 5.26878056,30.0176945 5.4439659,28.991609 L6.67182741,21.837165 C6.80947303,21.0284969 6.54200256,20.2026232 5.95388036,19.6285784 L0.756194004,14.5622811 C0.0257337188,13.8505906 -0.146323308,12.8776864 0.114890542,12.0392994 C0.38236101,11.1774501 1.10343637,10.4579389 2.13890683,10.30778 L9.32150561,9.2644888 C10.1333019,9.14561303 10.8356074,8.63569857 11.2000555,7.90054582 L14.4128294,1.3905336 C14.8695626,0.462989817 15.7580026,4.88498131e-13 16.6480066,4.88498131e-13 C17.5380107,4.88498131e-13 18.4264506,0.462989817 18.884748,1.3905336 L22.0975219,7.90054582 C22.2867846,8.28376375 22.5683325,8.60597963 22.9108824,8.84216701 C23.2237134,9.06114868 23.5865973,9.20817923 23.9760718,9.2644888 L31.1586706,10.30778 C32.153473,10.4516823 32.8573427,11.1211405 33.1482755,11.9360652 C33.456414,12.7979145 33.3015626,13.8208717 32.5413834,14.5622811 L27.3436971,19.6285784 C27.0871757,19.8788432 26.8916563,20.1760326 26.7649598,20.4998126 C26.7133427,20.6296375 26.6726747,20.7641548 26.6445199,20.9018004 Z" id="Path" fill="#FEB247"></path>
                            <path d="M16.6480066,3.90798505e-13 L16.6480066,17.6155112 L0.114890542,12.0392994 C0.38236101,11.1774501 1.10343637,10.4579389 2.13890683,10.30778 L9.32150561,9.2644888 C10.1333019,9.14561303 10.8356074,8.63569857 11.2000555,7.90054582 L14.4128294,1.3905336 C14.8695626,0.462989817 15.7580026,3.90798505e-13 16.6480066,3.90798505e-13 Z" id="Path" fill="#FFE26B"></path>
                            <path d="M16.6480066,17.6155112 L16.6480066,27.6323585 L15.4920962,28.2408147 L9.03526529,31.6350305 C8.13587628,32.0948921 7.16610032,31.9509898 6.45440989,31.4442037 L16.6480066,17.6155112 Z" id="Path" fill="#FFDD8D"></path>
                            <path d="M32.5413834,14.5622811 L27.3436971,19.6285784 C27.0871757,19.8788432 26.8916563,20.1760326 26.7649598,20.4998126 L26.4052042,20.5451731 L16.6480066,17.6155112 L22.6778233,9.07522607 L22.9108824,8.84216701 C23.2237134,9.06114868 23.5865973,9.20817923 23.9760718,9.2644888 L31.1586706,10.30778 C33.204585,10.6049695 34.022638,13.1201303 32.5413834,14.5622811 Z" id="Path" fill="#FFDD8D"></path>
                            <path d="M32.5413834,14.5622811 L27.3436971,19.6285784 C27.0871757,19.8788432 26.8916563,20.1760326 26.7649598,20.4998126 C26.7133427,20.6296375 26.6726747,20.7641548 26.6445199,20.9018004 L16.6480066,17.6155112 L33.1482755,11.9360652 C33.456414,12.7979145 33.3015626,13.8208717 32.5413834,14.5622811 Z" id="Path" fill="#FFE26B"></path>
                        </g>
                    </g>
                </g>
            </g>
        </g>
    </g>
</svg>