<?xml version="1.0" encoding="UTF-8"?>
<svg width="31px" height="30px" viewBox="0 0 31 30" version="1.1" xmlns="http://www.w3.org/2000/svg" xmlns:xlink="http://www.w3.org/1999/xlink">
    <!-- Generator: Sketch 61.2 (89653) - https://sketch.com -->
    <title>Shape</title>
    <desc>Created with Sketch.</desc>
    <g id="desktop-🖥" stroke="none" stroke-width="1" fill="none" fill-rule="evenodd">
        <g id="Corporativas-04" transform="translate(-934.000000, -2645.000000)" fill="#FFFFFF" fill-rule="nonzero">
            <g id="Group-9" transform="translate(0.000000, 2460.000000)">
                <g id="Group-2">
                    <g id="Group-14" transform="translate(227.000000, 169.000000)">
                        <g id="acciones" transform="translate(659.000000, 0.000000)">
                            <g id="Group-8" transform="translate(0.000000, 16.000000)">
                                <path d="M54.4,3.33333333 C54.5,4.81666667 54.75,6.26666667 55.15,7.65 L53.15,9.65 C52.4666667,7.65 52.0333333,5.53333333 51.8833333,3.33333333 L54.4,3.33333333 L54.4,3.33333333 Z M70.8333333,23.3666667 C72.25,23.7666667 73.7,24.0166667 75.1666667,24.1166667 L75.1666667,26.6 C72.9666667,26.45 70.85,26.0166667 68.8333333,25.35 L70.8333333,23.3666667 L70.8333333,23.3666667 Z M56,0 L50.1666667,0 C49.25,0 48.5,0.75 48.5,1.66666667 C48.5,17.3166667 61.1833333,30 76.8333333,30 C77.75,30 78.5,29.25 78.5,28.3333333 L78.5,22.5166667 C78.5,21.6 77.75,20.85 76.8333333,20.85 C74.7666667,20.85 72.75,20.5166667 70.8833333,19.9 C70.7166667,19.8333333 70.5333333,19.8166667 70.3666667,19.8166667 C69.9333333,19.8166667 69.5166667,19.9833333 69.1833333,20.3 L65.5166667,23.9666667 C60.8,21.55 56.9333333,17.7 54.5333333,12.9833333 L58.2,9.31666667 C58.6666667,8.85 58.8,8.2 58.6166667,7.61666667 C58,5.75 57.6666667,3.75 57.6666667,1.66666667 C57.6666667,0.75 56.9166667,0 56,0 Z" id="Shape"></path>
                            </g>
                        </g>
                    </g>
                </g>
            </g>
        </g>
    </g>
</svg>