<?xml version="1.0" encoding="UTF-8"?>
<svg width="59px" height="66px" viewBox="0 0 59 66" version="1.1" xmlns="http://www.w3.org/2000/svg" xmlns:xlink="http://www.w3.org/1999/xlink">
    <!-- Generator: Sketch 61 (89581) - https://sketch.com -->
    <title>Group 50</title>
    <desc>Created with Sketch.</desc>
    <g id="mobile-📱" stroke="none" stroke-width="1" fill="none" fill-rule="evenodd">
        <g id="sesionado---recomendar-cuentas-a-inscribir" transform="translate(-148.000000, -299.000000)">
            <g id="Group-42" transform="translate(136.000000, 288.000000)">
                <g id="Group-50" transform="translate(10.000000, 9.000000)">
                    <g id="Group-9" transform="translate(38.500000, 39.500000) rotate(-15.000000) translate(-38.500000, -39.500000) translate(13.000000, 11.000000)">
                        <path d="M16.8072211,0.159692523 C18.4452211,-0.389307477 20.3012211,0.524692523 20.8962211,2.17369252 L20.8962211,2.17369252 L28.2898961,20.4307365 C28.6846992,20.2637255 29.0697742,20.1011301 29.4435394,19.9436454 L25.2753911,6.06689799 C24.8341233,4.59516438 25.5872298,3.08443749 27.0370813,2.53634668 C28.7117069,1.90394336 30.6578636,2.7884342 31.2728306,4.46207263 L31.2728306,4.46207263 L41.0729199,29.5138985 L39.6706422,28.8882729 C39.813547,29.6724786 39.9365707,30.4912396 40.0332562,31.3427332 C40.909328,39.0581517 39.2012211,50.0606925 39.2012211,50.0606925 C39.2012211,50.0606925 29.8027408,58.1221691 19.8728749,55.733817 C13.6236326,54.2307361 9.82643392,43.9207899 6.86028808,36.514974 C5.72541847,33.6814533 4.85052246,30.5065104 4.85052246,30.5065104 C4.85052246,30.5065104 4.87265344,30.4969006 4.91572962,30.4782021 C3.49577078,26.5079089 1.87043386,21.6472308 0.0422210607,15.896743 C-0.208741827,14.460363 0.682954796,13.1408899 2.0824636,12.880734 C3.4215878,12.6312879 4.79945531,13.4334519 5.29603279,14.7527744 L11.9448746,27.4356868 C12.2727276,27.2941001 12.6077515,27.1494614 12.9490048,27.0021846 L6.7881058,9.68991499 C6.27744575,7.97614828 7.17348452,6.24331721 8.84155398,5.7177991 C10.6168675,5.15729942 12.6021639,6.16735257 13.2540043,7.96332699 L13.2540043,7.96332699 L19.7684528,24.0665866 C20.0670762,23.9384147 20.3659498,23.8101936 20.6646247,23.6821204 L14.9252211,3.53769252 C14.5882211,2.06769252 15.3862211,0.635692523 16.8072211,0.159692523 Z" id="Combined-Shape" fill="#FFCCC5"></path>
                        <path d="M50.6496898,17.5944591 C51.1776898,15.9774591 50.0636898,14.2044591 48.3076898,13.8684591 C47.1656898,13.6494591 45.3556898,13.7904591 44.5006898,15.4294591 L33.6272211,34.8526925 L39.2012211,50.0606925 C46.9122211,46.0670726 48.4566898,24.2984591 50.6496898,17.5944591 Z" id="Fill-96" fill="#FFCCC5"></path>
                        <path d="M37.1962211,28.7526925 C37.1962211,28.7526925 26.4632211,27.6266925 25.3612211,41.9306925" id="Stroke-101" stroke="#D4938A" stroke-width="2.532" opacity="0.359584263" stroke-linecap="round" stroke-linejoin="round"></path>
                    </g>
                    <path d="M14.2531072,47.5612107 C14.2531072,47.5612107 3.52010722,46.4352107 2.41810722,60.7392107" id="Stroke-101-Copy" stroke="#1E63F8" stroke-width="2.532" stroke-linecap="round" stroke-linejoin="round" transform="translate(8.335607, 54.139794) rotate(-68.000000) translate(-8.335607, -54.139794) "></path>
                    <path d="M54.3234578,1.62931443 C54.3234578,1.62931443 43.5904578,0.503314428 42.4884578,14.8073144" id="Stroke-101-Copy-3" stroke="#1E63F8" stroke-width="2.532" stroke-linecap="round" stroke-linejoin="round" transform="translate(48.405958, 8.207898) rotate(-292.000000) translate(-48.405958, -8.207898) "></path>
                    <path d="M19.0888561,47.0611447 C19.0888561,47.0611447 10.9268789,46.2080391 10.0888561,57.0453603" id="Stroke-101-Copy-2" stroke="#1E63F8" stroke-width="2.532" stroke-linecap="round" stroke-linejoin="round" transform="translate(14.588856, 52.045360) rotate(-68.000000) translate(-14.588856, -52.045360) "></path>
                    <path d="M49.8626628,9.07416316 C49.8626628,9.07416316 41.7006857,8.22105748 40.8626628,19.0583787" id="Stroke-101-Copy-4" stroke="#1E63F8" stroke-width="2.532" stroke-linecap="round" stroke-linejoin="round" transform="translate(45.362663, 14.058379) rotate(-292.000000) translate(-45.362663, -14.058379) "></path>
                </g>
            </g>
        </g>
    </g>
</svg>