<?xml version="1.0" encoding="UTF-8"?>
<svg width="9px" height="40px" viewBox="0 0 9 40" version="1.1" xmlns="http://www.w3.org/2000/svg" xmlns:xlink="http://www.w3.org/1999/xlink">
    <!-- Generator: Sketch 61 (89581) - https://sketch.com -->
    <title>icon-info</title>
    <desc>Created with Sketch.</desc>
    <g id="mobile-📱" stroke="none" stroke-width="1" fill="none" fill-rule="evenodd">
        <path d="M4.05714286,24.3428571 C1.82571429,24.3428571 0,22.5171429 0,20.2857143 L0,4.05714286 C0,1.82571429 1.82571429,0 4.05714286,0 C6.28857143,0 8.11428571,1.82571429 8.11428571,4.05714286 L8.11428571,20.2857143 C8.11428571,22.5171429 6.28857143,24.3428571 4.05714286,24.3428571 Z M4.05714286,39.5571429 C1.81644473,39.5571429 2.74406379e-16,37.7406981 0,35.5 C-2.74406379e-16,33.2593019 1.81644473,31.4428571 4.05714286,31.4428571 C6.29784099,31.4428571 8.11428571,33.2593019 8.11428571,35.5 C8.11428571,37.7406981 6.29784099,39.5571429 4.05714286,39.5571429 Z" id="icon-info" fill="#FFFFFF" transform="translate(4.057143, 19.778571) rotate(-180.000000) translate(-4.057143, -19.778571) "></path>
    </g>
</svg>