<?xml version="1.0" encoding="UTF-8"?>
<svg width="45px" height="51px" viewBox="0 0 45 51" version="1.1" xmlns="http://www.w3.org/2000/svg" xmlns:xlink="http://www.w3.org/1999/xlink">
    <!-- Generator: Sketch 61.2 (89653) - https://sketch.com -->
    <title>Combined Shape</title>
    <desc>Created with Sketch.</desc>
    <g id="Page-1" stroke="none" stroke-width="1" fill="none" fill-rule="evenodd">
        <g id="Artboard" transform="translate(-11.000000, -1.000000)" fill="#FFB842">
            <path d="M45.8230169,1 C47.9604284,1 49.7003086,2.74119743 49.7003086,4.88225232 L49.7003086,4.88225232 L49.7003086,27.0906985 C53.4786713,29.4862081 56,33.6974341 56,38.4966322 C56,45.9421597 49.9499002,52 42.5138864,52 C37.6754402,52 33.437829,49.4272808 31.0571792,45.585923 L31.0571792,45.585923 L14.8772917,45.585923 C12.7389726,45.585923 11,43.8438168 11,41.7036707 L11,41.7036707 L11,4.88225232 C11,2.74119743 12.7389726,1 14.8772917,1 L14.8772917,1 Z M42.5138864,27.7195652 C36.5790525,27.7195652 31.7505899,32.5542053 31.7505899,38.4966322 C31.7505899,44.4390592 36.5790525,49.2736992 42.5138864,49.2736992 C48.4487203,49.2736992 53.2771828,44.4390592 53.2771828,38.4966322 C53.2771828,32.5542053 48.4487203,27.7195652 42.5138864,27.7195652 Z M46.6302414,33.4241679 L48.6206208,35.2844138 L40.4258486,44.075825 L36.368851,39.3356967 L38.4354692,37.5617837 L40.5120712,39.9872826 L46.6302414,33.4241679 Z M45.8230169,3.72630078 L14.8772917,3.72630078 C14.2410601,3.72630078 13.7228172,4.2452067 13.7228172,4.88225232 L13.7228172,4.88225232 L13.7228172,41.7036707 C13.7228172,42.3407163 14.2410601,42.8596222 14.8772917,42.8596222 L14.8772917,42.8596222 L29.763841,42.8596222 C29.2946088,41.4892017 29.0277727,40.0251782 29.0277727,38.4966322 C29.0277727,31.0511048 35.0778726,24.9932644 42.5138864,24.9932644 C44.0804139,24.9932644 45.5779633,25.2758909 46.9774914,25.7693514 L46.9774914,25.7693514 L46.9774914,4.88225232 C46.9774914,4.2452067 46.4592485,3.72630078 45.8230169,3.72630078 L45.8230169,3.72630078 Z M30.3497913,25.4513738 C31.1021964,25.4513738 31.7111999,26.0611565 31.7111999,26.8145242 C31.7111999,27.567892 31.1021964,28.1776746 30.3497913,28.1776746 L30.3497913,28.1776746 L20.0130695,28.1776746 C19.2606644,28.1776746 18.6516609,27.567892 18.6516609,26.8145242 C18.6516609,26.0611565 19.2606644,25.4513738 20.0130695,25.4513738 L20.0130695,25.4513738 Z M40.6864222,17.3009159 C41.4388274,17.3009159 42.0478308,17.9106985 42.0478308,18.6640663 C42.0478308,19.4174341 41.4388274,20.0272167 40.6864222,20.0272167 L40.6864222,20.0272167 L20.0129788,20.0272167 C19.2605736,20.0272167 18.6515702,19.4174341 18.6515702,18.6640663 C18.6515702,17.9106985 19.2605736,17.3009159 20.0129788,17.3009159 L20.0129788,17.3009159 Z M40.6864222,9.15082145 C41.4388274,9.15082145 42.0478308,9.76060406 42.0478308,10.5139718 C42.0478308,11.2673396 41.4388274,11.8771222 40.6864222,11.8771222 L40.6864222,11.8771222 L20.0129788,11.8771222 C19.2605736,11.8771222 18.6515702,11.2673396 18.6515702,10.5139718 C18.6515702,9.76060406 19.2605736,9.15082145 20.0129788,9.15082145 L20.0129788,9.15082145 Z" id="Combined-Shape"></path>
        </g>
    </g>
</svg>