<?xml version="1.0" encoding="UTF-8"?>
<svg width="17px" height="14px" viewBox="0 0 17 14" version="1.1" xmlns="http://www.w3.org/2000/svg" xmlns:xlink="http://www.w3.org/1999/xlink">
    <!-- Generator: Sketch 58 (84663) - https://sketch.com -->
    <title>🔹Icon Color</title>
    <desc>Created with Sketch.</desc>
    <g id="desktop-🖥" stroke="none" stroke-width="1" fill="none" fill-rule="evenodd">
        <g id="Corporativas-02" transform="translate(-1123.000000, -281.000000)" fill="#FB6262">
            <g id="Group-6" transform="translate(1123.000000, 280.000000)">
                <g id="Group-5">
                    <path d="M15,1 L1.5,1 C0.675,1 5.32907052e-15,1.675 5.32907052e-15,2.5 L5.32907052e-15,4.7425 C5.32907052e-15,5.155 0.3375,5.4925 0.75,5.4925 C1.1625,5.4925 1.5,5.155 1.5,4.7425 L1.5,3.235 C1.5,2.8225 1.8375,2.485 2.25,2.485 L14.25,2.485 C14.6625,2.485 15,2.8225 15,3.235 L15,12.2575 C15,12.67 14.6625,13.0075 14.25,13.0075 L2.25,13.0075 C1.8375,13.0075 1.5,12.67 1.5,12.2575 L1.5,10.7425 C1.5,10.33 1.1625,9.9925 0.75,9.9925 C0.3375,9.9925 5.32907052e-15,10.33 5.32907052e-15,10.7425 L5.32907052e-15,13 C5.32907052e-15,13.8175 0.6675,14.485 1.485,14.485 L15,14.485 C15.825,14.485 16.5,13.81 16.5,12.985 L16.5,2.5 C16.5,1.675 15.825,1 15,1 Z M8.1375,10.105 L10.23,8.0125 C10.38,7.8625 10.38,7.63 10.23,7.48 L8.1375,5.3875 C7.905,5.1475 7.5,5.3125 7.5,5.65 L7.5,6.9925 L0.75,6.9925 C0.3375,6.9925 5.32907052e-15,7.33 5.32907052e-15,7.7425 C5.32907052e-15,8.155 0.3375,8.4925 0.75,8.4925 L7.5,8.4925 L7.5,9.835 C7.5,10.1725 7.905,10.3375 8.1375,10.105 L8.1375,10.105 Z" id="🔹Icon-Color"></path>
                </g>
            </g>
        </g>
    </g>
</svg>