<?xml version="1.0" encoding="UTF-8"?>
<svg width="381px" height="346px" viewBox="0 0 381 346" version="1.1" xmlns="http://www.w3.org/2000/svg" xmlns:xlink="http://www.w3.org/1999/xlink">
    <!-- Generator: Sketch 61.2 (89653) - https://sketch.com -->
    <title>img-welcome-03</title>
    <desc>Created with Sketch.</desc>
    <g id="img-welcome-03" stroke="none" stroke-width="1" fill="none" fill-rule="evenodd">
        <g id="Group-29-Copy" transform="translate(58.000000, 86.000000)">
            <g id="Group-3-Copy-2" transform="translate(0.000000, 26.248555)">
                <g id="3">
                    <g id="Group" transform="translate(150.535645, 7.995376) scale(-1, 1) translate(-150.535645, -7.995376) translate(142.540270, 0.000000)"></g>
                    <path d="M131.526776,186.024413 C203.063215,186.024413 261.05737,185.291804 261.05737,184.387929 C261.05737,183.484054 203.063215,182.751445 131.526776,182.751445 C59.9892885,182.751445 1.99644493,183.484054 1.99644493,184.387929 C1.99644493,185.291804 59.9892885,186.024413 131.526776,186.024413 Z" id="Path" fill="#E4EFF7" fill-rule="nonzero"></path>
                    <line x1="12.8181732" y1="135.340688" x2="12.8181732" y2="183.790688" id="Path" stroke="#042C5C" stroke-width="1.0227321"></line>
                    <line x1="60.2834321" y1="135.340688" x2="60.2834321" y2="183.790688" id="Path" stroke="#042C5C" stroke-width="1.0227321"></line>
                    <path d="M70.5247403,90.2782719 L4.57221466,90.2782719 C2.04894376,90.2782719 0.00342853211,92.3237871 0.00342853211,94.847058 L0.00342853211,160.917647 L0.00342853211,160.917647 L70.5247403,160.917647 L70.5247403,90.2782719 Z" id="Path" fill="#EBF4FF" fill-rule="nonzero"></path>
                    <path d="M260.534932,65.7625314 L75.0935264,65.7625314 C72.5702555,65.7625314 70.5247403,67.8080467 70.5247403,70.3313176 L70.5247403,160.920274 L70.5247403,160.920274 L265.103718,160.920274 L265.103718,70.3313176 C265.103718,67.8080467 263.058203,65.7625314 260.534932,65.7625314 Z" id="Path" fill="#EBF4FF" fill-rule="nonzero"></path>
                    <line x1="24.1690146" y1="90.2782719" x2="24.1690146" y2="140.875314" id="Path" stroke="#042C5C" stroke-width="0.613639259" stroke-linecap="square"></line>
                    <path d="M11.4451783,105.742127 C13.7625844,105.742127 15.6410023,103.860565 15.6410023,101.539279 C15.6410023,99.2179932 13.7625844,97.3364305 11.4451783,97.3364305 C9.12803452,97.3364305 7.24935433,99.2179932 7.24935433,101.539279 C7.24935433,103.860565 9.12803452,105.742127 11.4451783,105.742127 Z" id="Path" stroke="#042C5C" stroke-width="0.613639259" stroke-linecap="square"></path>
                    <path d="M30.7037482,114.386861 C30.7037482,114.386861 29.0070619,98.035154 46.1155342,98.035154 C63.2240066,98.035154 75.4050081,114.386861 75.4050081,114.386861" id="Path" fill="#042C5C" fill-rule="nonzero"></path>
                    <path d="M79.8607109,105.235159 L72.6176698,103.367518 L76.3073725,98.9991824 C76.3687364,98.9258952 76.4479326,98.8699448 76.5373561,98.8360594 C76.6267796,98.8024366 76.7232836,98.7921921 76.8176896,98.8063767 C76.9120956,98.8205613 77.0012569,98.8586497 77.0767817,98.9174895 C77.1523066,98.9760667 77.2115726,99.0530314 77.2488105,99.1410285 L79.8607109,105.235159 Z" id="Path" fill="#042C5C" fill-rule="nonzero"></path>
                    <path d="M68.8492953,99.0254502 L72.5206413,103.367518 L65.2776002,105.235159 L67.8763887,99.1725499 C67.9152,99.081926 67.976564,99.0028599 68.0547112,98.9427066 C68.1325962,98.8825534 68.2246421,98.8431517 68.3219327,98.8284417 C68.4192234,98.8137317 68.5188742,98.8239762 68.6111823,98.858387 C68.7032282,98.8930605 68.785309,98.9503243 68.8492953,99.0254502 Z" id="Path" fill="#042C5C" fill-rule="nonzero"></path>
                    <path d="M72.6908345,116.842901 C77.636662,116.842901 81.6462963,113.56179 81.6462963,109.514184 C81.6462963,105.466578 77.636662,102.185467 72.6908345,102.185467 C67.7447447,102.185467 63.7353726,105.466578 63.7353726,109.514184 C63.7353726,113.56179 67.7447447,116.842901 72.6908345,116.842901 Z" id="Path" fill="#042C5C" fill-rule="nonzero"></path>
                    <polygon id="Path" fill="#EBF4FF" fill-rule="nonzero" points="84.2033888 114.242388 64.6351146 114.242388 64.6351146 120.748923 84.2033888 120.748923"></polygon>
                    <line x1="134.658172" y1="114.386861" x2="24.1690146" y2="114.386861" id="Path" stroke="#042C5C" stroke-width="0.613639259" stroke-linecap="square"></line>
                    <path d="M69.2321643,106.259603 C69.2321643,105.623922 69.9139857,105.109073 70.7557729,105.109073 C71.5975601,105.109073 72.2767591,105.634429 72.2767591,106.259603" id="Path" fill="#FFFFFF" fill-rule="nonzero"></path>
                    <path d="M76.7555389,106.259603 C76.7555389,105.623922 77.4373603,105.109073 78.2791475,105.109073 C79.1209347,105.109073 79.8027561,105.634429 79.8027561,106.259603" id="Path" fill="#FFFFFF" fill-rule="nonzero"></path>
                    <path d="M72.9848044,110.294338 C72.9848044,110.294338 74.9883103,110.173506 74.9883103,108.274344 C74.9883103,108.274344 75.5993272,110.144611 76.8528296,110.144611" id="Path" stroke="#FFFFFF" stroke-width="0.613639259" stroke-linejoin="round"></path>
                    <path d="M74.0547395,107.654423 L75.7855169,107.654423 C75.8340311,107.659677 75.8801852,107.678327 75.9184721,107.708535 C75.9570212,107.73848 75.986392,107.77867 76.0031753,107.824639 C76.0202208,107.870345 76.0238921,107.920254 76.0141893,107.968061 C76.0044865,108.015868 75.9816717,108.060261 75.9481051,108.095723 L75.0827164,108.836475 C75.0363001,108.872987 74.979132,108.89295 74.9201282,108.89295 C74.8611244,108.89295 74.8036941,108.872987 74.75754,108.836475 L73.8921513,108.095723 C73.8585847,108.060261 73.8357699,108.015868 73.8260671,107.968061 C73.8163642,107.920254 73.8200356,107.870345 73.8370811,107.824639 C73.8538644,107.77867 73.8832352,107.73848 73.9217843,107.708535 C73.9600712,107.678327 74.0062253,107.659677 74.0547395,107.654423 Z" id="Path" fill="#EA6F57" fill-rule="nonzero"></path>
                    <path d="M48.9162467,124.014011 C46.4013747,121.087778 40.3384091,127.061076 36.5438107,124.639185 C30.5804959,120.83298 41.1146365,104.071495 37.3803532,101.618082 C35.0700276,100.105057 29.1853844,111.959716 30.2159837,120.654359 C30.8532245,126.026125 35.4607637,129.91376 41.2064202,129.522369 C44.6181495,129.288586 50.5106599,125.868518 48.9162467,124.014011 Z" id="Path" fill="#042C5C" fill-rule="nonzero"></path>
                    <line x1="204.514882" y1="135.340688" x2="204.514882" y2="183.790688" id="Path" stroke="#042C5C" stroke-width="1.0227321"></line>
                    <line x1="251.980141" y1="135.340688" x2="251.980141" y2="183.790688" id="Path" stroke="#042C5C" stroke-width="1.0227321"></line>
                    <path d="M125.796854,88.4789274 C125.796854,88.4789274 128.823092,87.2811155 132.032898,87.2811155 L146.049572,87.2811155" id="Path" stroke="#FFFFFF" stroke-width="0.613639259"></path>
                </g>
            </g>
            <g id="Man_1" transform="translate(117.800000, 0.000000)">
                <g id="Body_1_" transform="translate(9.423121, 0.213064)">
                    <path d="M29.5409799,30.3237286 C9.11829504,31.9237633 8.7491568,31.9237633 5.20606316,47.3776824 C1.66296952,62.8316015 0.263847399,80.3901642 0.263847399,80.3901642 L26.3470474,94.7510012 L72.0663065,94.3347408 C74.1648961,94.315624 75.8506498,92.5988916 75.8315428,90.500302 C75.8310668,90.4480218 75.8295119,90.395757 75.8268791,90.343541 C74.8407837,70.7864143 73.9765501,54.4782006 73.2341783,41.4189 C72.867218,34.9635836 67.6123519,27.9948466 61.0019845,27.9948466 C47.4697952,27.9948466 33.3233688,30.8133102 29.5409799,30.3237286 Z" id="XMLID_618_" fill="#EA6F57" fill-rule="nonzero"></path>
                    <g id="XMLID_91_" transform="translate(9.576879, 0.261936)">
                        <path d="M28.4056786,29.3352445 C23.4141351,29.8011219 18.9882997,30.1671684 15.1281727,30.466661 C15.3943884,32.2968937 16.3261432,33.9607415 17.7237754,35.2252659 C17.8901602,35.3583737 18.023268,35.4914816 18.1896528,35.6245894 C20.2528241,37.2551603 22.9149807,37.7875916 25.5105834,37.3217142 C28.8050021,36.722729 31.3673278,34.7926655 33.1975605,32.2303398 C33.9296535,31.1987541 34.5619157,30.0673376 35.0610701,28.8693671 C32.6651292,29.0024749 30.435573,29.1688597 28.4056786,29.3352445 Z" id="XMLID_472_" fill="#ED9F94" fill-rule="nonzero"></path>
                        <g id="XMLID_86_">
                            <path d="M33.7632687,30.7661537 L18.9882997,35.7576972 L17.0582362,31.8642932 L14.5624644,26.8727497 L10.269737,18.2207408 L20.9183633,13.4954129 C21.4507946,14.5602755 33.7632687,30.7661537 33.7632687,30.7661537 Z" id="XMLID_471_" fill="#ED9F94" fill-rule="nonzero"></path>
                            <path d="M17.0582362,31.8642932 L17.1580671,32.063955 C18.9882997,30.1006145 19.9866085,27.5382888 20.2861011,24.7430244 C20.6521476,21.0160052 19.4541771,17.9545251 18.1563758,14.7266603 L10.3030139,18.2207408 L14.5957414,26.8727497 L17.0582362,31.8642932 Z" id="XMLID_470_" fill="#000000" fill-rule="nonzero" opacity="0.222958519"></path>
                            <path d="M20.0531624,4.44408051 C15.693881,0.683784342 1.81738983,5.54717971 3.01536029,11.1044316 C3.25809387,12.2281982 3.9326607,14.4238155 4.18005379,15.8747153 C4.84838568,19.794318 6.28927008,23.6374592 9.19051263,26.2695211 C11.9135615,28.7399224 20.7187015,27.8377814 22.3159955,22.8129609 C23.9465664,17.7548634 24.4124438,8.17109971 20.0531624,4.44408051 Z" id="XMLID_469_" fill="#ED9F94" fill-rule="nonzero"></path>
                            <path d="M11.8537213,23.3747734 C12.9726959,23.7383515 16.8544494,23.6485354 17.1057765,19.95 L9.975,22.3614971 C10.4814978,22.7946292 11.1077382,23.132388 11.8537213,23.3747734 Z" id="Path-4" fill="#F6F8FA"></path>
                            <path d="M22.8979527,6.08758899 C21.6669676,-1.05994055 10.5297724,1.17770358 10.097172,1.51047316 C9.76440238,1.34408837 0.848641622,3.29425255 0.541660763,6.99259528 C0.234679905,10.690938 2.1125437,12.5371876 5.78730125,11.414621 C9.16010909,10.7781094 12.0999696,9.23596234 13.2313861,8.13782276 C13.5974327,8.83663886 15.4876857,9.46974616 16.4859945,9.46974616 C16.9851488,9.46974616 17.2089535,9.33738147 17.575,9.13771973 C18.4734778,10.4355211 18.9550228,11.6984572 20.8518093,11.2658567 C21.4951438,11.1228935 22.270804,15.6568863 23.9896544,18.05 C24.7454793,19.1023167 25.0946214,19.3519638 25.7286476,20.1734844 C25.6288168,17.1785582 24.229031,8.31714512 22.8979527,6.08758899 Z" id="XMLID_468_" fill="#042C5C" fill-rule="nonzero"></path>
                            <path d="M12.2409968,19.7773723 C11.8416733,19.9770341 11.4090728,20.2099728 10.9431954,20.2432497 C10.4107641,20.2765267 9.74522497,19.9104802 9.91160976,19.278218 C9.97816367,19.0120023 9.61211714,18.8788945 9.54556323,19.1451102 C9.37917844,19.7440954 9.67867106,20.3430806 10.2776563,20.5427424 C11.0097493,20.842235 11.7751194,20.4761884 12.4073816,20.1434189 C12.6403203,20.010311 12.4739355,19.6442645 12.2409968,19.7773723 Z" id="XMLID_467_" fill="#042C5C" fill-rule="nonzero"></path>
                            <path d="M13.2979401,13.7949055 C13.3977709,14.160952 13.5308788,14.5269985 13.6307096,14.8597681 C13.7638175,15.2258146 14.2962488,14.9928759 14.1964179,14.6268294 C14.096587,14.2607829 13.9634792,13.8947364 13.8636483,13.5619668 C13.7305405,13.1626433 13.1648322,13.428859 13.2979401,13.7949055 Z" id="XMLID_463_" stroke="#042C5C" stroke-width="0.661059908" fill="#042C5C" fill-rule="nonzero"></path>
                            <path d="M6.79609059,15.4587533 C6.89592146,15.8247999 7.02902929,16.1908464 7.12886016,16.523616 C7.26196799,16.8896625 7.79439931,16.6567238 7.69456843,16.2906773 C7.59473756,15.9246307 7.46162973,15.5585842 7.36179886,15.2258146 C7.22869103,14.8597681 6.66298276,15.0927068 6.79609059,15.4587533 Z" id="XMLID_462_" stroke="#042C5C" stroke-width="0.661059908" fill="#042C5C" fill-rule="nonzero"></path>
                            <path d="M6.75514782,13.1914849 C6.32254738,13.2913158 5.88994693,13.3911467 5.45734649,13.4577006 C5.25768475,13.4909776 5.12457692,13.7904702 5.19113083,13.956855 C5.25768475,14.1897937 5.49062345,14.2563476 5.69028519,14.2230706 C6.12288563,14.1232397 6.55548608,14.0234089 6.98808652,13.956855 C7.18774826,13.923578 7.32085609,13.6240854 7.25430218,13.4577006 C7.18774826,13.2247619 6.95480956,13.158208 6.75514782,13.1914849 Z" id="XMLID_461_" fill="#042C5C" fill-rule="nonzero"></path>
                            <path d="M13.2174758,10.8274054 C12.8514293,10.9605132 12.4521058,11.126898 12.0860593,11.2600058 C11.5869049,11.4596676 11.9196745,12.1917606 12.4188288,11.9920989 C12.7848754,11.858991 13.1841988,11.6926063 13.5502454,11.5594984 C14.0161228,11.3931136 13.6833532,10.6610206 13.2174758,10.8274054 Z" id="XMLID_460_" fill="#042C5C" fill-rule="nonzero"></path>
                            <path d="M26.542169,10.6003176 C25.2776447,9.00302364 22.1163337,8.96974616 20.6854246,11.3324106 C21.3509637,13.428859 21.9499489,15.5585842 22.5489342,17.6883095 C23.8134585,17.8546943 26.0762916,17.1226012 27.0080464,15.6251381 C28.0729091,13.9945672 27.9065243,12.3307194 26.542169,10.6003176 Z" id="XMLID_456_" fill="#ED9F94" fill-rule="nonzero"></path>
                            <path d="M23.8467355,12.5636581 C23.5472429,13.2957511 23.2144733,14.0278442 22.9149807,14.7932142 C22.8151498,15.0261529 23.1811964,15.1592607 23.3143042,14.926322 C23.3475811,14.8930451 23.3475811,14.8264912 23.3808581,14.7932142 C23.3808581,14.7599372 23.3808581,14.7599372 23.3808581,14.7266603 C23.6803507,14.0611211 23.9465664,13.395582 24.246059,12.6967659 C24.3126129,12.4638272 23.9465664,12.3307194 23.8467355,12.5636581 Z" id="XMLID_455_" fill="#042C5C" fill-rule="nonzero"></path>
                        </g>
                    </g>
                </g>
                <g id="Hand_4_" transform="translate(30.153988, 45.059214)" fill-rule="nonzero">
                    <path d="M30.6816832,31.3224555 C13.9085272,34.2247769 3.88232601,39.0871075 0.188462428,40.6324994 L0.33923237,49.7163884 L45.6832925,49.8671584 C43.1955884,42.4417387 37.2778682,35.0540116 30.6816832,31.3224555 Z" id="XMLID_2199_" fill="#FFA79B"></path>
                    <path d="M31.8878428,0.376924855 C31.8878428,0.0753849711 31.4355329,0.0753849711 31.4355329,0.376924855 C31.209378,10.2146636 30.9832231,20.0524023 30.7570682,29.890141 C30.7570682,30.116296 31.0586081,30.1916809 31.1716855,30.0032185 C31.3224555,29.7393711 31.8878428,0.376924855 31.8878428,0.376924855 Z" id="XMLID_538_" fill="#FFFFFF"></path>
                </g>
                <g id="Hand_3_" transform="translate(23.871908, 39.782266)" fill="#FFFFFF" fill-rule="nonzero">
                    <path d="M1.49513526,0.753849711 C1.23128786,6.44541503 1.00513295,12.1746728 0.741285549,17.8662382 C0.741285549,18.167778 1.19359538,18.167778 1.19359538,17.8662382 C1.45744277,12.1746728 1.68359769,6.44541503 1.94744509,0.753849711 C1.94744509,0.452309827 1.49513526,0.452309827 1.49513526,0.753849711 Z" id="XMLID_537_"></path>
                </g>
                <g id="Legs_1_" transform="translate(0.753850, 94.436370)" fill-rule="nonzero">
                    <path d="M67.8841665,116.31901 C68.1857064,106.443579 68.3364763,94.1558289 68.3364763,85.1850173 C60.7225942,86.4288694 53.2217896,85.8634821 45.4948301,86.1273295 C49.3394636,103.692028 49.4902335,105.23742 44.8917503,106.481272 C39.6901873,107.875894 39.9540347,113.982076 40.2555746,116.31901 L67.8841665,116.31901 Z" id="XMLID_2044_" fill="#FFA79B"></path>
                    <path d="M34.9032416,116.31901 C35.5440139,106.933582 35.9209387,94.1181364 35.6193988,85.0342474 C32.6416925,85.1096324 14.5116069,84.6573225 13.4185249,84.7327075 C16.5470012,97.4727676 18.0547006,105.652037 11.4208231,107.084351 C6.18156763,108.215126 6.74695491,114.019769 7.19926474,116.31901 L34.9032416,116.31901 Z" id="XMLID_2042_" fill="#FFA79B"></path>
                    <path d="M67.8841665,116.31901 C68.0726289,109.94898 68.1857064,102.561253 68.2610913,95.7012208 C59.6672046,96.492763 52.7317873,96.492763 47.4925318,95.7012208 C49.1510012,104.370492 48.4348439,105.53896 44.8540578,106.481272 C39.6524948,107.875894 39.9163422,113.982076 40.2178821,116.31901 L67.8841665,116.31901 Z" id="XMLID_188_" fill="#FFFFFF"></path>
                    <path d="M34.9032416,116.31901 C35.317859,110.212828 35.6193988,102.712023 35.6947838,95.7012208 C29.0609064,96.568148 22.3893364,96.417378 15.7177665,95.7012208 C16.6223861,102.108943 15.8685364,106.142039 11.3831306,107.084351 C6.14387514,108.215126 6.70926243,114.019769 7.16157225,116.31901 L34.9032416,116.31901 Z" id="XMLID_187_" fill="#FFFFFF"></path>
                    <path d="M67.8841665,116.31901 C67.9972439,112.813609 68.0726289,109.006668 68.1480139,105.162035 C65.6980023,106.518964 63.1349133,107.159736 60.1572069,105.991269 C58.1218127,105.199727 55.8602636,103.202025 53.6364069,103.013563 C51.6763977,102.825101 49.678696,103.42818 47.9825341,104.48357 C47.4548393,105.576652 46.4371422,106.028962 44.8917503,106.481272 C39.6901873,107.875894 39.9540347,113.982076 40.2555746,116.31901 L67.8841665,116.31901 Z" id="XMLID_186_" fill="#042C5C"></path>
                    <path d="M34.9032416,116.31901 C35.091704,113.378997 35.2801665,110.09975 35.3932439,106.745119 C33.1316948,107.461276 30.6816832,107.272814 28.0055168,106.142039 C24.3493457,104.558955 18.9593202,100.714321 15.3785341,104.48357 C15.2277642,104.672032 15.0393017,104.78511 14.8508393,104.898187 C14.0969896,106.028962 12.966215,106.745119 11.3454382,107.122044 C6.10618266,108.252818 6.67156994,114.057461 7.12387977,116.356703 L34.9032416,116.356703 L34.9032416,116.31901 Z" id="XMLID_185_" fill="#042C5C"></path>
                    <path d="M7.76465202,0.0753849711 C1.24385202,4.33463584 -2.18616416,13.6069873 2.29924162,40.3309595 C6.48310751,65.3587699 9.61158382,79.568837 11.722363,88.4642636 C13.4562173,88.4642636 31.4355329,88.7658035 36.7124809,88.7658035 C37.0140208,65.0195376 34.4132393,44.9671353 34.4132393,44.9671353 C55.8979561,44.1755931 52.7317873,20.5424046 48.5856139,0.113077457 L7.76465202,0.113077457 L7.76465202,0.0753849711 Z" id="XMLID_184_" fill="#1E63F8"></path>
                    <path d="M32.8301549,35.8455538 C33.6593896,40.5571145 34.3755468,44.9294428 34.3755468,44.9294428 C45.7963699,44.5148254 50.2440832,37.6171006 51.2994728,28.1939792 C45.2309827,31.0209156 39.200185,33.9609295 32.8301549,35.8455538 Z" id="XMLID_183_" fill="#000000" opacity="0.282412574"></path>
                    <path d="M37.0517133,0.0753849711 C34.1870844,5.57848786 33.7724671,16.3962312 36.637096,37.0517133 C39.9163422,60.6472092 41.687889,78.4380624 42.7055861,88.3134936 C50.3571607,88.2758012 61.4387514,88.6150335 69.090326,88.1627237 C70.5980254,63.8510705 68.9395561,45.9094474 68.9395561,45.9094474 C76.3649757,45.6456 80.6996116,42.5171237 82.9988532,37.730178 C87.333489,28.6839815 84.4311676,13.5692948 81.6042312,0.113077457 L37.0517133,0.113077457 L37.0517133,0.0753849711 Z" id="XMLID_182_" fill="#1E63F8"></path>
                    <path d="M54.5410266,0.0753849711 C61.3633665,7.50080462 72.8595746,9.6492763 83.1496231,7.80234451 C82.6596208,5.20156301 82.131926,2.6007815 81.5665387,0.0753849711 L54.5410266,0.0753849711 Z" id="XMLID_179_" fill="#000000" opacity="0.282412574"></path>
                    <path d="M38.3709503,0.0753849711 L37.5417156,0.0753849711 C34.1870844,2.6007815 33.9609295,7.91542197 33.9609295,11.9108254 C33.923237,18.3939329 34.4509318,24.8770405 35.4309364,31.284763 C35.4686289,31.5863029 35.9209387,31.4732254 35.8832462,31.1716855 C34.9786266,25.4047353 34.4886243,19.5624 34.4132393,13.7200647 C34.3755468,9.31004393 34.0740069,2.6007815 38.3709503,0.0753849711 Z" id="XMLID_172_" fill="#000000"></path>
                    <path d="M75.6488185,38.7478751 C73.4249618,38.3332578 71.0503353,37.6171006 68.9395561,36.486326 C68.9395561,40.519422 68.9395561,45.8717549 68.9395561,45.8717549 C75.4980486,45.6079075 79.644222,43.157896 82.0942335,39.2755699 C79.9080694,39.3132624 77.6842127,39.1248 75.6488185,38.7478751 Z" id="XMLID_160_" fill="#000000" opacity="0.282412574"></path>
                    <path d="M32.5663075,34.4886243 C32.2647676,33.7724671 31.9632277,33.0563098 31.6239954,32.3401526 C31.5109179,32.0763052 31.0963006,32.3024601 31.209378,32.5663075 C31.5109179,33.2824647 31.8124578,33.998622 32.1516902,34.7147792 C32.3024601,34.9786266 32.679385,34.7524717 32.5663075,34.4886243 Z" id="XMLID_126_" fill="#FFFFFF"></path>
                    <path d="M68.3741688,32.4155376 C68.3364763,32.1139977 67.8841665,32.1139977 67.921859,32.4155376 C68.0349364,33.2447723 68.1103214,34.0740069 68.2233988,34.8655491 C68.2610913,35.167089 68.7134012,35.167089 68.6757087,34.8655491 C68.6003237,34.0740069 68.4872462,33.2447723 68.3741688,32.4155376 Z" id="XMLID_125_" fill="#FFFFFF"></path>
                    <path d="M33.1316948,85.2604023 L12.7777526,85.2604023 C12.4762127,85.2604023 12.4762127,85.7127121 12.7777526,85.7127121 L33.1316948,85.7127121 C33.4332347,85.7127121 33.4332347,85.2604023 33.1316948,85.2604023 Z" id="XMLID_124_" fill="#FFFFFF"></path>
                    <path d="M65.0572301,85.2604023 L44.7032879,85.2604023 C44.401748,85.2604023 44.401748,85.7127121 44.7032879,85.7127121 L65.0572301,85.7127121 C65.3587699,85.7127121 65.3587699,85.2604023 65.0572301,85.2604023 Z" id="XMLID_123_" fill="#FFFFFF"></path>
                </g>
            </g>
            <g id="Notebook" transform="translate(94.050000, 44.650000)">
                <g id="XMLID_25_" transform="translate(21.454075, 0.000000)"></g>
                <g id="XMLID_28_" transform="translate(0.000000, 6.156439)">
                    <g id="Group-6" transform="translate(8.428410, 7.128208) scale(-1, 1) translate(-8.428410, -7.128208) translate(0.428410, 0.628208)" fill="#FCB235" fill-rule="nonzero">
                        <path d="M10.2403382,0.211043274 C8.69494628,2.35951495 7.14955438,4.54567911 5.60416247,6.69415079 C5.2649301,7.1841531 6.05647229,7.63646293 6.39570466,7.14646061 C7.94109657,4.99798894 9.48648848,2.81182478 11.0318804,0.6633531 C11.4088052,0.173350788 10.5795706,-0.278959038 10.2403382,0.211043274 Z" id="XMLID_145_"></path>
                        <path d="M15.0272839,8.05108027 C12.7657347,9.37031726 10.5041856,10.7272467 8.24263646,12.0464837 C7.71494166,12.3480236 8.20494397,13.1395658 8.69494628,12.8380259 C10.9564954,11.5187889 13.2180445,10.1618595 15.4795937,8.84262246 C16.0072885,8.54108258 15.5549787,7.74954038 15.0272839,8.05108027 Z" id="XMLID_144_"></path>
                        <path d="M0.967986745,1.53028027 C0.666446861,2.54797738 0.364906976,3.60336697 0.0256746065,4.62106408 C-0.162787821,5.18645137 0.741831832,5.45029876 0.93029426,4.88491148 C1.23183414,3.86721437 1.53337403,2.81182478 1.8726064,1.79412767 C2.02337634,1.22874038 1.11875669,0.964892985 0.967986745,1.53028027 Z" id="XMLID_423_"></path>
                    </g>
                    <g id="XMLID_27_" transform="translate(13.915578, 10.302613)">
                        <polygon id="XMLID_573_" fill="#042C5C" fill-rule="nonzero" points="54.8425665 34.2624694 8.33003931 34.2624694 0.226154913 0.263847399 46.7386821 0.263847399"></polygon>
                        <line x1="51.5152274" y1="33.0437457" x2="66.9795468" y2="33.0437457" id="Path-30" stroke="#042C5C" stroke-width="2.51283237" stroke-linecap="round"></line>
                        <path d="M26.3847399,21.3590751 C28.4665463,21.3590751 30.1539884,19.671633 30.1539884,17.5898266 C30.1539884,15.5080202 28.4665463,13.820578 26.3847399,13.820578 C24.303166,13.820578 22.6154913,15.5080202 22.6154913,17.5898266 C22.6154913,19.671633 24.303166,21.3590751 26.3847399,21.3590751 Z" id="Path" fill="#FFFFFF" fill-rule="nonzero"></path>
                        <path d="M28.8975723,10.1212377 C28.8975723,10.1212377 28.6780731,11.4872382 27.6372224,12.1410134 C26.5963717,12.7947886 25.1283237,12.4960437 25.1283237,12.4960437 C25.1283237,12.4960437 25.3478228,11.1300432 26.3886736,10.4741032 C27.4295243,9.81816314 28.8975723,10.1212377 28.8975723,10.1212377 Z" id="Path" fill="#FFFFFF" fill-rule="nonzero"></path>
                    </g>
                </g>
            </g>
            <path d="M265.103718,116.526827 L199.151192,116.526827 C196.627921,116.526827 194.582406,118.572342 194.582406,121.095613 L194.582406,187.166202 L194.582406,187.166202 L265.103718,187.166202 L265.103718,116.526827 Z" id="Path" fill="#EBF4FF" fill-rule="nonzero"></path>
            <line x1="218.14458" y1="117.314861" x2="218.14458" y2="167.911903" id="Path" stroke="#042C5C" stroke-width="0.613639259" stroke-linecap="square"></line>
            <path d="M206.48019,131.990682 C208.798382,131.990682 210.676014,130.10912 210.676014,127.787834 C210.676014,125.466548 208.798382,123.584985 206.48019,123.584985 C204.161997,123.584985 202.284366,125.466548 202.284366,127.787834 C202.284366,130.10912 204.161997,131.990682 206.48019,131.990682 Z" id="Path" stroke="#042C5C" stroke-width="0.613639259" stroke-linecap="square"></path>
            <line x1="201.875" y1="116.375" x2="265.10634" y2="116.568855" id="Path" stroke="#042C5C" stroke-width="0.613639259" stroke-linecap="square"></line>
        </g>
    </g>
</svg>