<?xml version="1.0" encoding="UTF-8"?>
<svg width="381px" height="346px" viewBox="0 0 381 346" version="1.1" xmlns="http://www.w3.org/2000/svg" xmlns:xlink="http://www.w3.org/1999/xlink">
    <!-- Generator: Sketch 61.2 (89653) - https://sketch.com -->
    <title>img-welcome-02</title>
    <desc>Created with Sketch.</desc>
    <g id="img-welcome-02" stroke="none" stroke-width="1" fill="none" fill-rule="evenodd">
        <g id="Group-69-Copy" transform="translate(33.000000, 100.000000)">
            <path d="M44.3454396,72.4328061 C44.410931,77.1744404 41.0053799,79.737486 36.8794237,79.737486 C32.7534676,79.737486 29.4134078,76.4696029 29.4134078,72.4328061 C29.4134078,68.3960093 31.9675712,64.9358977 36.8139324,64.8077455 C40.9398885,64.6795932 44.2799483,68.3960093 44.3454396,72.4328061 Z" id="XMLID_309_" fill="#FFC970" fill-rule="nonzero"></path>
            <path d="M38.8978305,74.9512915 C38.5415212,75.3015709 38.0253723,75.525539 37.3493836,75.6232459 L37.3493836,76.5852598 L36.2719697,76.5852598 L36.2719697,75.6583742 C35.8392317,75.6320782 35.4113813,75.5577567 34.9974416,75.4370659 C34.6432807,75.3395597 34.3072199,75.1918201 34.0011291,74.9989656 L34.584415,73.7333428 C34.8862628,73.9216306 35.2159321,74.0677142 35.5630034,74.1669265 C35.9167883,74.2741682 36.2862027,74.3297212 36.6581415,74.3315278 C37.3384269,74.3315278 37.6786233,74.166776 37.6786233,73.8372223 C37.6786233,73.6639393 37.581409,73.5352693 37.3869803,73.4513127 C37.1925517,73.367356 36.879962,73.279184 36.4492113,73.1868467 C36.0465506,73.1077578 35.6504425,73.0020718 35.2638411,72.8706919 C34.9468472,72.7577795 34.6658387,72.5712482 34.4474556,72.3287123 C34.219727,72.0804555 34.1058628,71.7459336 34.1058628,71.3250463 C34.1019957,71.0878298 34.1493675,70.8522694 34.2450242,70.6325167 C34.3407347,70.4127641 34.4827965,70.2132353 34.662831,70.045874 C35.033427,69.6905762 35.5689114,69.473132 36.2692842,69.3934911 L36.2692842,68.4400084 L37.3466982,68.4400084 L37.3466982,69.3764287 C37.6795364,69.4040797 38.008776,69.4620916 38.3295833,69.5495611 C38.6236969,69.6283489 38.9058332,69.7420141 39.1690638,69.8877966 L38.6212262,71.1624524 C38.0229016,70.8503122 37.4424623,70.6942422 36.879962,70.6942422 C36.526553,70.6942422 36.2690694,70.7444255 36.1076184,70.8447921 C35.9461137,70.9451587 35.8653882,71.0766389 35.8653882,71.2392328 C35.8653882,71.400823 35.9611524,71.5221161 36.1527344,71.6030617 C36.3442628,71.6840074 36.6523946,71.767663 37.0770761,71.8539782 C37.4819926,71.9317624 37.8803564,72.0370971 38.2688915,72.1691294 C38.5843278,72.2828447 38.8649066,72.4674691 39.085814,72.7065925 C39.3160132,72.9524907 39.4311665,73.2870627 39.4311665,73.7102585 C39.4340669,73.9397467 39.3884674,74.1674786 39.2969463,74.3804565 C39.2054252,74.5934344 39.0697549,74.787443 38.8978305,74.9512915 L38.8978305,74.9512915 Z" id="Path" fill="#FFFFFF" fill-rule="nonzero"></path>
            <path d="M288.702982,105.240069 C288.768473,109.981703 285.362922,112.544749 281.236966,112.544749 C277.111009,112.544749 273.77095,109.276865 273.77095,105.240069 C273.77095,101.203272 276.325113,97.7431603 281.171474,97.615008 C285.29743,97.4868557 288.63749,101.203272 288.702982,105.240069 Z" id="XMLID_309_" fill="#FFC970" fill-rule="nonzero"></path>
            <path d="M283.255372,107.758554 C282.899063,108.108834 282.382914,108.332802 281.706926,108.430508 L281.706926,109.392522 L280.629512,109.392522 L280.629512,108.465637 C280.196774,108.439341 279.768923,108.365019 279.354984,108.244328 C279.000823,108.146822 278.664762,107.999083 278.358671,107.806228 L278.941957,106.540605 C279.243805,106.728893 279.573474,106.874977 279.920545,106.974189 C280.27433,107.081431 280.643745,107.136984 281.015683,107.13879 C281.695969,107.13879 282.036165,106.974039 282.036165,106.644485 C282.036165,106.471202 281.938951,106.342532 281.744522,106.258575 C281.550094,106.174619 281.237504,106.086447 280.806753,105.994109 C280.404093,105.91502 280.007984,105.809334 279.621383,105.677954 C279.304389,105.565042 279.023381,105.378511 278.804998,105.135975 C278.577269,104.887718 278.463405,104.553196 278.463405,104.132309 C278.459538,103.895092 278.506909,103.659532 278.602566,103.439779 C278.698277,103.220027 278.840338,103.020498 279.020373,102.853137 C279.390969,102.497839 279.926453,102.280395 280.626826,102.200754 L280.626826,101.247271 L281.70424,101.247271 L281.70424,102.183691 C282.037078,102.211342 282.366318,102.269354 282.687125,102.356824 C282.981239,102.435611 283.263375,102.549277 283.526606,102.695059 L282.978768,103.969715 C282.380444,103.657575 281.800004,103.501505 281.237504,103.501505 C280.884095,103.501505 280.626611,103.551688 280.46516,103.652055 C280.303656,103.752421 280.22293,103.883902 280.22293,104.046495 C280.22293,104.208086 280.318694,104.329379 280.510276,104.410324 C280.701805,104.49127 281.009936,104.574926 281.434618,104.661241 C281.839534,104.739025 282.237898,104.84436 282.626433,104.976392 C282.94187,105.090107 283.222448,105.274732 283.443356,105.513855 C283.673555,105.759753 283.788708,106.094325 283.788708,106.517521 C283.791609,106.747009 283.746009,106.974741 283.654488,107.187719 C283.562967,107.400697 283.427297,107.594706 283.255372,107.758554 L283.255372,107.758554 Z" id="Path" fill="#FFFFFF" fill-rule="nonzero"></path>
            <path d="M174.741347,109.629532 C174.786598,112.978135 172.433525,114.788191 169.582687,114.788191 C166.73185,114.788191 164.424028,112.48037 164.424028,109.629532 C164.424028,106.778694 166.188833,104.335119 169.537436,104.244616 C172.388274,104.154113 174.696095,106.778694 174.741347,109.629532 Z" id="XMLID_309_" fill="#FFC970" fill-rule="nonzero" transform="translate(169.583008, 109.515266) rotate(-345.000000) translate(-169.583008, -109.515266) "></path>
            <path d="M171.109299,111.323684 C170.812375,111.615583 170.382251,111.802223 169.818927,111.883646 L169.818927,112.685324 L168.921082,112.685324 L168.921082,111.912919 C168.560467,111.891006 168.203925,111.829072 167.858975,111.728496 C167.563841,111.647241 167.283791,111.524124 167.028715,111.363412 L167.514786,110.308727 C167.766326,110.465633 168.041051,110.587369 168.330277,110.670046 C168.625098,110.759414 168.932943,110.805709 169.242892,110.807214 C169.809796,110.807214 170.093293,110.669921 170.093293,110.395293 C170.093293,110.25089 170.012281,110.143665 169.850258,110.073702 C169.688234,110.003738 169.427742,109.930261 169.068783,109.853313 C168.733233,109.787406 168.403143,109.699334 168.080975,109.589851 C167.816813,109.495757 167.58264,109.340314 167.400654,109.138201 C167.21088,108.931321 167.115993,108.652552 167.115993,108.301813 C167.11277,108.104132 167.152247,107.907832 167.231961,107.724705 C167.31172,107.541578 167.430104,107.375304 167.580133,107.235836 C167.888963,106.939754 168.3352,106.758551 168.918844,106.692183 L168.918844,105.897615 L169.816689,105.897615 L169.816689,106.677965 C170.094054,106.701007 170.368421,106.749351 170.63576,106.822242 C170.880855,106.887898 171.115968,106.982619 171.335327,107.104105 L170.878796,108.166318 C170.380192,107.906201 169.896493,107.776143 169.427742,107.776143 C169.133235,107.776143 168.918665,107.817962 168.784123,107.901601 C168.649535,107.98524 168.582264,108.094807 168.582264,108.230302 C168.582264,108.36496 168.662068,108.466038 168.821719,108.533492 C168.981326,108.600947 169.238103,108.67066 169.592004,108.742589 C169.929434,108.80741 170.261404,108.895189 170.585184,109.005215 C170.848047,109.099978 171.081863,109.253832 171.265952,109.453101 C171.457785,109.658017 171.553746,109.936827 171.553746,110.28949 C171.556163,110.48073 171.518164,110.670506 171.441896,110.847988 C171.365628,111.02547 171.25257,111.187143 171.109299,111.323684 L171.109299,111.323684 Z" id="Path" fill="#FFFFFF" fill-rule="nonzero" transform="translate(169.291285, 109.291469) rotate(-345.000000) translate(-169.291285, -109.291469) "></path>
            <path d="M263.023743,41.7459389 C263.114246,49.5291792 257.638827,53.7828104 250.986872,53.7828104 C244.334916,53.7828104 238.95,48.3978942 238.95,41.7459389 C238.95,35.0939836 243.067877,29.4375591 250.851117,29.1660507 C257.503073,28.9397937 262.93324,35.0939836 263.023743,41.7459389 Z" id="XMLID_312_" fill="#FFC970" fill-rule="nonzero" transform="translate(250.987425, 41.471405) rotate(14.000000) translate(-250.987425, -41.471405) "></path>
            <path d="M253.888292,45.4893299 C253.294443,46.073129 252.434194,46.4464091 251.307547,46.6092539 L251.307547,48.2126103 L249.511857,48.2126103 L249.511857,46.6678011 C248.790627,46.6239743 248.077543,46.5001052 247.387643,46.2989538 C246.797375,46.1364436 246.237274,45.8902108 245.727122,45.5687868 L246.699266,43.4594154 C247.202345,43.7732283 247.751794,44.016701 248.330246,44.1820549 C248.919888,44.3607911 249.535579,44.4533793 250.155476,44.4563903 C251.289285,44.4563903 251.856279,44.181804 251.856279,43.6325478 C251.856279,43.3437429 251.694256,43.129293 251.370208,42.9893652 C251.04616,42.8494374 250.525177,42.702484 249.807259,42.5485885 C249.136158,42.4167737 248.475978,42.2406304 247.831642,42.0216639 C247.303319,41.8334765 246.834972,41.522591 246.471,41.1183645 C246.091452,40.7046032 245.901679,40.1470667 245.901679,39.4455878 C245.895233,39.0502271 245.974186,38.6576264 246.133614,38.2913719 C246.293132,37.9251175 246.529901,37.5925695 246.829959,37.313634 C247.447619,36.721471 248.340093,36.359064 249.507381,36.2263291 L249.507381,34.6371913 L251.303071,34.6371913 L251.303071,36.1978919 C251.857801,36.2439769 252.406534,36.3406634 252.941213,36.4864459 C253.431402,36.6177589 253.901629,36.8072008 254.340347,37.0501717 L253.427284,39.174598 C252.430077,38.6543645 251.462678,38.3942477 250.525177,38.3942477 C249.936162,38.3942477 249.507023,38.4778865 249.237938,38.6451642 C248.968764,38.8124419 248.834221,39.0315756 248.834221,39.3025654 C248.834221,39.5718825 248.993828,39.7740375 249.313131,39.908947 C249.632345,40.0438564 250.145898,40.1832823 250.853701,40.3271411 C251.528562,40.4567813 252.192501,40.6323392 252.84006,40.852393 C253.365787,41.0419186 253.833418,41.3496259 254.201597,41.7481649 C254.585263,42.1579952 254.777185,42.7156153 254.777185,43.4209416 C254.782019,43.8034219 254.70602,44.182975 254.553485,44.5379382 C254.400949,44.8929014 254.174832,45.2162491 253.888292,45.4893299 L253.888292,45.4893299 Z" id="Path" fill="#FFFFFF" fill-rule="nonzero" transform="translate(250.252262, 41.424901) rotate(14.000000) translate(-250.252262, -41.424901) "></path>
            <path d="M0,199.912267 C0,149.206151 48.3832696,79.5112291 80.3882124,79.5112291 C112.393155,79.5112291 109.144817,128.229754 143.900076,128.229754 C178.655334,128.229754 208.724144,98.5771695 239.587552,98.5771695 C270.45096,98.5771695 315.628492,199.912267 315.628492,199.912267 L0,199.912267 Z" id="Path-Copy-2" fill="#EBF4FF" fill-rule="nonzero" transform="translate(157.814246, 139.711748) scale(-1, 1) translate(-157.814246, -139.711748) "></path>
            <g id="Legs_1_" transform="translate(76.927374, 63.039721)" fill-rule="nonzero">
                <g id="XMLID_159_" transform="translate(0.000000, 1.583799)">
                    <path d="M14.127486,126.988994 C12.4169832,126.102067 17.3267598,114.350279 21.8247486,102.851899 C16.2814525,102.503464 10.7064804,102.37676 5.19486034,101.838268 C2.59743017,115.617318 0,133.039106 0,135.098045 C0,135.098045 18.5304469,129.237989 14.127486,126.988994 Z" id="XMLID_164_" fill="#FFA79B"></path>
                    <path d="M3.80111732,105.607709 C7.22212291,105.544358 21.5079888,106.082849 23.4085475,106.146201 C24.8339665,100.254469 26.987933,89.5479888 27.8748603,84.5748603 C29.4903352,75.3254749 37.5993855,8.83759777 38.7713966,0.285083799 L10.7698324,0.285083799 C10.5164246,1.77385475 10.1996648,3.16759777 10.0729609,4.5296648 C9.81955307,7.12709497 9.62949721,9.62949721 9.43944134,12.0685475 C7.66558659,34.7802235 7.76061453,52.487095 8.6475419,86.5387709 C7.5072067,89.7697207 5.28988827,97.3719553 3.80111732,105.607709 Z" id="XMLID_369_" fill="#D24A43"></path>
                    <path d="M14.127486,126.988994 C14.0958101,126.957318 14.0324581,126.925642 14.0007821,126.893966 C12.4803352,127.590838 10.8331844,127.844246 9.02765363,127.65419 C6.33519553,127.369106 3.73776536,126.577207 1.04530726,126.767263 C0.411787709,131.138547 0,134.306145 0,135.098045 L20.3993296,135.098045 C20.9378212,129.491397 18.5304469,129.237989 14.127486,126.988994 Z" id="XMLID_134_" fill="#1E63F8"></path>
                </g>
                <g id="XMLID_158_" transform="translate(19.639106, 0.000000)">
                    <path d="M40.2918436,127.875922 C38.6130168,126.323799 39.626648,115.807374 40.5452514,104.562402 C35.0969832,104.752458 29.6803911,104.847486 24.2637989,104.65743 C24.9923464,118.59486 26.7978771,136.71352 26.7978771,136.71352 L52.6771508,136.71352 C53.1206145,128.414413 44.9165363,132.152179 40.2918436,127.875922 Z" id="XMLID_165_" fill="#FFA79B"></path>
                    <path d="M22.5216201,108.236816 C28.9518436,108.426872 35.6671508,108.331844 41.2421229,108.426872 C41.7806145,97.0235196 41.7172626,90.8467039 41.4321788,84.1630726 C40.5135754,63.5103352 35.477095,31.9927374 32.3728492,13.1772067 C31.8026816,9.72452514 31.2958659,6.68363128 30.8840782,4.24458101 L2.02726257,0.126703911 C1.64715084,8.55251397 24.137095,90.9417318 24.137095,90.9417318 C23.7569832,94.2677095 22.8700559,101.109721 22.5216201,108.236816 Z" id="XMLID_131_" fill="#D24A43"></path>
                    <path d="M40.5769274,128.12933 C38.6763687,128.667821 36.7441341,129.016257 34.7485475,129.111285 C31.7710056,129.269665 28.8884916,128.509441 25.9743017,128.256034 C26.4177654,133.260838 26.7662011,136.681844 26.7662011,136.681844 L52.6454749,136.681844 C53.1206145,128.572793 45.2649721,131.993799 40.5769274,128.12933 Z" id="XMLID_365_" fill="#1E63F8"></path>
                    <path d="M12.1002235,46.6587151 C11.34,43.0793296 10.5797765,39.4682682 9.81955307,35.8888827 C9.78787709,35.7621788 9.75620112,35.6354749 9.72452514,35.5087709 C9.85122905,35.5087709 9.97793296,35.5404469 10.1046369,35.5721229 C10.1363128,35.6988268 10.1679888,35.8255307 10.1679888,35.9522346 C10.9282123,39.4999441 11.6567598,43.0476536 12.4169832,46.5953631 C12.5120112,46.785419 12.1635754,46.8804469 12.1002235,46.6587151 Z" id="XMLID_336_" fill="#000000"></path>
                    <path d="M10.2313408,35.9205587 C10.1046369,35.8888827 9.97793296,35.8888827 9.85122905,35.8572067 C6.65195531,35.445419 3.42100559,35.0653073 0.221731844,34.6535196 C9.01362318e-15,34.6218436 9.01362318e-15,34.2417318 0.221731844,34.2734078 C3.38932961,34.6535196 6.58860335,35.0653073 9.75620112,35.445419 C9.88290503,35.445419 10.0096089,35.477095 10.1363128,35.5087709 C10.1679888,35.6671508 10.1996648,35.7938547 10.2313408,35.9205587 Z" id="XMLID_335_" fill="#000000"></path>
                </g>
            </g>
            <g id="Head_2_" transform="translate(98.372011, 0.000000)">
                <path d="M19.1639665,17.3629609 C18.9422346,17.5846927 16.9149721,28.512905 16.9149721,28.512905 L7.88731844,24.3 L13.1455307,15.0189385 L19.1639665,17.3629609 Z" id="XMLID_2997_" fill="#FFA79B" fill-rule="nonzero"></path>
                <path d="M18.403743,20.6889385 C18.7521788,18.8834078 19.0689385,17.4579888 19.1639665,17.3946369 L16.946648,16.5393855 C16.8516201,18.0598324 17.3267598,19.7386592 18.403743,20.6889385 Z" id="XMLID_407_" fill="#000000" fill-rule="nonzero" opacity="0.291573661"></path>
                <path d="M10.3580447,5.13603352 C11.308324,2.7603352 15.8379888,1.65167598 18.8472067,2.38022346 C20.1459218,2.69698324 20.8111173,1.81005587 21.0962011,2.88703911 C21.7930726,5.51614525 24.0103911,14.1003352 23.0284358,16.0642458 C21.317933,19.5169274 16.6932402,18.693352 14.3808939,16.2859777 C12.0051955,13.8469274 9.02765363,8.52536313 10.3580447,5.13603352 Z" id="XMLID_2996_" fill="#FFA79B" fill-rule="nonzero"></path>
                <path d="M19.8996962,12.1105926 C20.3030668,13.3724994 21.1344594,13.9678698 22.3938738,13.8967039" id="Path-11" stroke="#042C5C" stroke-width="0.67877095" stroke-linecap="round"></path>
                <path d="M20.55955,0.701396648 C18.9423704,0.289608939 10.8168548,-1.23425011 7.93014689,5.13603352 C5.18253994,11.1993541 -1.28714711,13.1336169 0.638066788,17.4098739 C1.8316994,20.070656 10.9719848,21.8926257 14.0523271,19.9603911 C17.7102335,17.6797207 16.2470709,10.2041899 16.670618,9.63402235 C18.1337805,8.08189944 17.5947206,6.05463687 16.7091222,4.5975419 C17.787242,4.97765363 20.7905757,4.09072626 21.3681399,3.01374302 C22.0997212,1.46162011 21.0601057,0.828100559 20.55955,0.701396648 Z" id="XMLID_2995_" fill="#1E63F8" fill-rule="nonzero"></path>
                <path d="M13.6523464,11.4078771 C13.8424022,9.95078212 15.7746369,8.74709497 17.5801676,9.63402235 C17.9602793,11.1544693 18.403743,12.6749162 18.8788827,14.1953631 C18.1503352,14.7655307 16.4715084,15.1773184 15.3311732,14.6388268 C14.0007821,14.0369832 13.4622905,12.96 13.6523464,11.4078771 Z" id="XMLID_2994_" fill="#FFA79B" fill-rule="nonzero"></path>
                <path d="M23.8740987,10.0399602 C23.6840429,9.46979262 23.0188473,9.21638479 22.4803557,9.46979262 C22.2902998,9.56482055 22.2586239,9.81822837 22.3536518,9.94493228 C22.3536518,9.97660826 22.3853278,9.97660826 22.3853278,9.97660826 C22.3219758,10.0082842 22.2902998,10.0399602 22.2269479,10.0716362 C21.8785121,10.35672 22.3853278,10.8635356 22.7337635,10.5784518 C22.7337635,10.5784518 22.7654395,10.5784518 22.7337635,10.6101278 C22.4486797,10.8001837 22.5437077,11.2753233 22.9238194,11.2753233 C23.525663,11.2753233 24.0641546,10.6418038 23.8740987,10.0399602 Z" id="XMLID_398_" fill="#FFA79B" fill-rule="nonzero"></path>
                <path d="M20.6527374,6.01391061 C20.3676536,6.20396648 20.0825698,6.39402235 19.829162,6.55240223 C19.4173743,6.80581006 19.797486,7.43932961 20.2092737,7.18592179 C20.4943575,6.99586592 20.7794413,6.80581006 21.0328492,6.64743017 C21.4446369,6.39402235 21.0645251,5.72882682 20.6527374,6.01391061 Z" id="XMLID_2981_" fill="#042C5C" fill-rule="nonzero"></path>
                <path d="M20.5098062,8.4303352 C20.4781302,8.77877095 20.4464542,9.09553073 20.4147782,9.44396648 C20.3831022,9.66569832 20.763214,9.66569832 20.79489,9.44396648 C20.8265659,9.09553073 20.8582419,8.77877095 20.8899179,8.4303352 C20.8899179,8.17692737 20.5414821,8.17692737 20.5098062,8.4303352 Z" id="XMLID_124_" stroke="#042C5C" stroke-width="0.5" fill="#042C5C" fill-rule="nonzero"></path>
                <path d="M17.5801676,12.1681006 L16.4715084,11.2494972 C16.2814525,11.0911173 16.0280447,11.3445251 16.2181006,11.502905 C16.5982123,11.8196648 16.946648,12.1047486 17.3267598,12.4215084 C17.4851397,12.5798883 17.7385475,12.2948045 17.5801676,12.1681006 Z" id="XMLID_123_" fill="#042C5C" fill-rule="nonzero"></path>
            </g>
            <g id="Body" transform="translate(86.113408, 24.078268)" fill-rule="nonzero">
                <path d="M42.8259218,52.1703352 C43.4911173,43.902905 44.0929609,31.4859218 44.5681006,21.7613966 C45.5183799,1.29871508 38.1378771,0.0316759777 24.8339665,0.126703911 C6.05011173,0.253407821 5.0998324,-0.348435754 2.94586592,15.8063128 C1.42541899,27.3680447 0.506815642,44.5997765 0.221731844,52.5821229 C3.00921788,52.7721788 35.6671508,52.0436313 42.8259218,52.1703352 Z" id="XMLID_130_" fill="#BCD7FD"></path>
                <path d="M32.7529609,26.8612291 C31.3592179,30.1238547 31.5492737,34.051676 32.7846369,37.5043575 C33.8932961,40.6402793 35.9522346,42.9526257 38.6130168,43.8712291 C37.2192737,39.8483799 35.5404469,35.9205587 34.3050838,31.8977095 C33.7665922,30.2505587 33.2597765,28.5717318 32.7529609,26.8612291 Z" id="XMLID_333_" fill="#000000" opacity="0.291573661"></path>
            </g>
            <g id="Hand_3_" transform="translate(125.708380, 19.960391)" fill-rule="nonzero">
                <path d="M0.158379888,14.6659777 L10.2313408,12.5436872 C10.2313408,12.5436872 18.2770391,28.5717318 17.8335754,28.7301117 C17.3584358,28.9201676 8.20407821,31.5175978 7.91899441,31.3275419 C7.66558659,31.137486 0.158379888,14.6659777 0.158379888,14.6659777 Z" id="XMLID_367_" fill="#BCD7FD"></path>
                <path d="M10.2630168,12.5120112 C13.8740782,11.4983799 19.9875419,10.1046369 19.9875419,10.1046369 C19.9875419,10.1046369 21.7613966,5.70167598 23.9787151,2.59743017 C24.3588268,2.05893855 27.5264246,0.53849162 28.0649162,0.316759777 C33.5131844,-1.64715084 29.9021229,13.8740782 29.9021229,13.8740782 C29.9021229,13.8740782 16.0280447,26.0059777 15.8379888,25.7208939 C15.616257,25.467486 10.2630168,12.5120112 10.2630168,12.5120112 Z" id="XMLID_320_" fill="#FFA79B"></path>
                <path d="M23.3768715,8.26743017 C23.3451955,6.96871508 23.1234637,5.79670391 22.648324,4.59301676 C22.9650838,3.92782123 23.2184916,3.23094972 23.3768715,2.47072626 C23.4718994,2.02726257 22.9650838,1.55212291 22.5532961,1.86888268 C21.7613966,2.47072626 21.1595531,3.16759777 20.7794413,3.99117318 C20.7477654,4.02284916 20.7160894,4.05452514 20.7160894,4.11787709 C19.7658101,6.08178771 19.3540223,8.10905028 19.4807263,10.3263687 C19.5124022,10.6431285 19.7024581,10.8015084 19.9558659,10.8331844 C20.1775978,10.9915642 20.4626816,10.9915642 20.6527374,10.8331844 C20.8427933,11.1816201 21.3812849,11.34 21.6030168,10.8965363 C21.7297207,10.6748045 21.8247486,10.4847486 21.9197765,10.2630168 C22.0464804,10.1996648 22.1415084,10.1046369 22.2048603,9.91458101 C22.3315642,9.59782123 22.4582682,9.2177095 22.5532961,8.80592179 C22.9017318,8.90094972 23.3768715,8.67921788 23.3768715,8.26743017 Z" id="XMLID_112_" fill="#FFA79B"></path>
                <path d="M22.616648,5.28988827 C22.5216201,5.06815642 22.2048603,5.25821229 22.2998883,5.47994413 C22.743352,6.46189944 22.9650838,7.5072067 22.9967598,8.58418994 C22.9967598,8.80592179 23.3768715,8.83759777 23.3768715,8.58418994 C23.3135196,7.44385475 23.0601117,6.33519553 22.616648,5.28988827 Z" id="XMLID_295_" fill="#D24A43"></path>
            </g>
            <g id="Point_2" transform="translate(146.840782, 1.181061)" fill-rule="nonzero">
                <path d="M28.5065877,15.2996954 C28.631722,24.5928026 22.1873103,29.6849162 14.3664224,29.6849162 C6.54553443,29.6849162 0.226256983,23.2561228 0.226256983,15.2996954 C0.226256983,7.34326791 5.04392395,0.596217432 14.1787211,0.277960334 C21.999609,0.0233546552 28.3814535,7.34326791 28.5065877,15.2996954 Z" id="XMLID_115_" fill="#FFC970"></path>
                <path d="M18.4578515,19.7200462 C17.7897716,20.4011451 16.8219923,20.8366386 15.5545136,21.0266242 L15.5545136,22.8972067 L13.5343624,22.8972067 L13.5343624,21.0949292 C12.7229787,21.043798 11.9207591,20.8992841 11.1446223,20.6646075 C10.4805706,20.4750122 9.85045663,20.1877406 9.27653631,19.8127459 L10.3701974,17.3518127 C10.936162,17.7179277 11.554292,18.0019791 12.2050506,18.1948921 C12.8683973,18.4034177 13.5610494,18.5114372 14.2584345,18.51495 C15.5339697,18.51495 16.1718379,18.1945994 16.1718379,17.5538005 C16.1718379,17.2168614 15.9895611,16.9666698 15.6250074,16.8034207 C15.2604537,16.6401717 14.674348,16.468726 13.8666904,16.2891813 C13.1117017,16.1353974 12.368999,15.9298968 11.6441213,15.6744359 C11.0497577,15.4548839 10.5228669,15.0921841 10.1133985,14.6205866 C9.68640746,14.1378651 9.47291193,13.4874059 9.47291193,12.6690138 C9.46566113,12.2077596 9.55448333,11.7497255 9.73383973,11.3224286 C9.91329682,10.8951317 10.1796627,10.5071591 10.5172274,10.1817343 C11.2120949,9.49087755 12.2161282,9.06806931 13.5293271,8.91321201 L13.5293271,7.05921788 L15.5494783,7.05921788 L15.5494783,8.88003527 C16.1735499,8.9338011 16.7908743,9.04660201 17.3923879,9.21668158 C17.9438509,9.36988004 18.4728566,9.59089565 18.966414,9.8743616 L17.9392185,12.352859 C16.8173598,11.7459199 15.7290361,11.4424503 14.674348,11.4424503 C14.0117062,11.4424503 13.5289243,11.540029 13.2262038,11.7351862 C12.9233825,11.9303435 12.7720222,12.1859995 12.7720222,12.5021543 C12.7720222,12.8163576 12.95158,13.0522051 13.3107963,13.2095995 C13.6699119,13.3669938 14.2476591,13.5296574 15.043937,13.6974927 C15.8031553,13.8487395 16.5500876,14.0535571 17.2785908,14.3102865 C17.8700338,14.5313997 18.3961191,14.8903915 18.8103205,15.3553537 C19.2419441,15.8334891 19.4578565,16.4840458 19.4578565,17.3069265 C19.4632946,17.7531536 19.3777957,18.1959655 19.2061936,18.6100892 C19.0345916,19.024213 18.7802096,19.401452 18.4578515,19.7200462 L18.4578515,19.7200462 Z" id="Path" fill="#FFFFFF"></path>
            </g>
            <g id="Hand_2_" transform="translate(110.820670, 22.177709)" fill-rule="nonzero">
                <path d="M22.3949162,50.4598324 C25.4041341,47.2288827 28.381676,43.966257 31.0741341,40.4818994 C30.9791061,39.3732402 30.7890503,38.6130168 30.7890503,38.6130168 C30.7890503,38.6130168 27.2730168,27.4630726 22.3632402,13.0505028 C17.7385475,-0.506815642 15.1094413,1.74217877 0.126703911,1.99558659 C0.126703911,1.99558659 0.0633519553,2.91418994 -2.30215846e-14,4.49798883 C9.5027933,18.7205028 17.1367039,34.1783799 22.3949162,50.4598324 Z" id="XMLID_171_" fill="#BCD7FD"></path>
                <path d="M51.7268715,2.66078212 C51.7585475,1.80553073 51.061676,1.20368715 50.6498883,1.52044693 C50.7449162,0.855251397 49.4778771,-0.0633519553 49.0977654,0.601843575 C48.9710615,0.0633519553 48.210838,-0.380111732 47.3872626,0.696871508 C46.9121229,1.29871508 46.5003352,3.00921788 46.2786034,3.99117318 C46.0885475,4.27625698 44.1563128,5.89173184 43.5861453,6.39854749 C42.8892737,6.5252514 42.9209497,2.66078212 42.9526257,1.90055866 C43.0159777,0.665195531 41.9706704,-0.126703911 41.6539106,0.601843575 C41.083743,1.86888268 40.4185475,3.86446927 40.3235196,5.25821229 C40.2601676,5.89173184 39.9434078,8.6475419 38.232905,10.7381564 C36.1106145,12.4486592 33.6715642,14.6343017 31.2641899,16.8832961 C31.5809497,23.7253073 32.5312291,30.4722905 34.051676,37.1242458 C39.5949721,29.3636313 44.8531844,20.3676536 47.2288827,15.2994972 C47.4506145,15.0777654 50.3331285,10.9915642 50.4281564,10.8965363 C51.6635196,9.18603352 52.7088268,6.55692737 52.8355307,4.24458101 C52.7405028,3.32597765 52.2970391,2.34402235 51.7268715,2.66078212 Z" id="XMLID_173_" fill="#FFA79B"></path>
                <path d="M47.2605587,6.33519553 C47.1021788,6.49357542 46.817095,6.27184358 46.9754749,6.11346369 C48.3058659,4.75139665 48.9710615,2.9775419 48.8443575,1.10865922 C48.8126816,0.886927374 49.1927933,0.823575419 49.2244693,1.07698324 C49.3194972,3.00921788 48.6543017,4.90977654 47.2605587,6.33519553 Z" id="XMLID_114_" fill="#D24A43"></path>
                <path d="M48.8443575,7.03206704 C49.8896648,5.51162011 50.3964804,3.80111732 50.3014525,1.99558659 C50.3014525,1.74217877 50.6498883,1.77385475 50.6815642,2.02726257 C50.7449162,3.92782123 50.2064246,5.70167598 49.1611173,7.25379888 C49.0344134,7.44385475 48.7176536,7.22212291 48.8443575,7.03206704 Z" id="XMLID_300_" fill="#D24A43"></path>
                <path d="M50.0797207,7.88731844 C50.966648,6.39854749 51.5051397,4.8147486 51.6635196,3.07256983 C51.6951955,2.81916201 52.0436313,2.88251397 52.0436313,3.13592179 C51.8852514,4.94145251 51.3467598,6.58860335 50.3964804,8.10905028 C50.2381006,8.33078212 49.9530168,8.10905028 50.0797207,7.88731844 Z" id="XMLID_299_" fill="#D24A43"></path>
                <path d="M33.4181564,14.8560335 C29.3002793,18.5937989 25.0240223,22.8067039 22.4582682,25.2457542 C17.2317318,30.2505587 17.6751955,51.093352 17.6751955,51.093352 C22.2048603,54.0075419 28.0332402,50.7132402 43.1110056,28.1282682 C39.9117318,24.7389385 36.0155866,18.7205028 33.4181564,14.8560335 Z" id="XMLID_298_" fill="#BCD7FD"></path>
                <path d="M40.1968156,7.34882682 C40.1651397,7.12709497 39.8167039,7.09541899 39.8167039,7.34882682 C39.9434078,8.71089385 38.4863128,9.85122905 37.6627374,10.7698324 C36.7758101,11.7517877 35.9205587,12.733743 35.0336313,13.7156983 C34.8752514,13.9057542 35.1286592,14.159162 35.2870391,13.9691061 C36.3956983,12.702067 37.5043575,11.4667039 38.6130168,10.1996648 C39.3732402,9.40776536 40.2918436,8.55251397 40.1968156,7.34882682 Z" id="XMLID_297_" fill="#D24A43"></path>
                <path d="M26.0693296,23.5986034 C25.9109497,23.2184916 25.7525698,22.8067039 25.5941899,22.4265922 C25.530838,22.2998883 25.499162,22.1731844 25.4358101,22.0464804 C24.1687709,18.8788827 22.9017318,15.7112849 21.6346927,12.5436872 C21.5396648,12.3219553 21.9197765,12.2269274 21.9831285,12.4486592 C23.2184916,15.552905 24.4538547,18.6888268 25.7208939,21.7930726 C25.7842458,21.9197765 25.8159218,22.0464804 25.8792737,22.1731844 C26.0693296,22.616648 26.2277095,23.0601117 26.4177654,23.5352514 C26.5127933,23.7253073 26.1643575,23.8203352 26.0693296,23.5986034 Z" id="XMLID_294_" fill="#FFFFFF"></path>
                <path d="M28.2549721,19.9558659 C27.4630726,20.6844134 26.6711732,21.4129609 25.8792737,22.1415084 L25.5941899,22.3949162 C25.530838,22.2682123 25.499162,22.1415084 25.4358101,22.0148045 C25.530838,21.9197765 25.6258659,21.8564246 25.7208939,21.7613966 C26.4811173,21.0645251 27.2413408,20.3676536 27.9698883,19.6707821 C28.1916201,19.5440782 28.4450279,19.797486 28.2549721,19.9558659 Z" id="XMLID_111_" fill="#FFFFFF"></path>
            </g>
        </g>
    </g>
</svg>