<?xml version="1.0" encoding="UTF-8"?>
<svg width="483px" height="433px" viewBox="0 0 483 433" version="1.1" xmlns="http://www.w3.org/2000/svg" xmlns:xlink="http://www.w3.org/1999/xlink">
    <!-- Generator: Sketch 60 (88103) - https://sketch.com -->
    <title>img-decidecuantopagar</title>
    <desc>Created with Sketch.</desc>
    <defs>
        <rect id="path-1" x="28.9647811" y="0" width="419.489933" height="419.489933" rx="209.744967"></rect>
        <rect id="path-3" x="-8.52651283e-14" y="-3.90798505e-14" width="163.001803" height="57.530048" rx="8.38979867"></rect>
        <filter x="-10.1%" y="-18.3%" width="120.2%" height="157.4%" filterUnits="objectBoundingBox" id="filter-4">
            <feOffset dx="0" dy="6" in="SourceAlpha" result="shadowOffsetOuter1"></feOffset>
            <feGaussianBlur stdDeviation="4.5" in="shadowOffsetOuter1" result="shadowBlurOuter1"></feGaussianBlur>
            <feComposite in="shadowBlurOuter1" in2="SourceAlpha" operator="out" result="shadowBlurOuter1"></feComposite>
            <feColorMatrix values="0 0 0 0 0.51372549   0 0 0 0 0.525490196   0 0 0 0 0.639215686  0 0 0 0.12 0" type="matrix" in="shadowBlurOuter1"></feColorMatrix>
        </filter>
        <rect id="path-5" x="-8.52651283e-14" y="-7.21200877e-13" width="163.001803" height="57.530048" rx="8.38979867"></rect>
        <filter x="-10.1%" y="-18.3%" width="120.2%" height="157.4%" filterUnits="objectBoundingBox" id="filter-6">
            <feOffset dx="0" dy="6" in="SourceAlpha" result="shadowOffsetOuter1"></feOffset>
            <feGaussianBlur stdDeviation="4.5" in="shadowOffsetOuter1" result="shadowBlurOuter1"></feGaussianBlur>
            <feComposite in="shadowBlurOuter1" in2="SourceAlpha" operator="out" result="shadowBlurOuter1"></feComposite>
            <feColorMatrix values="0 0 0 0 0.51372549   0 0 0 0 0.525490196   0 0 0 0 0.639215686  0 0 0 0.12 0" type="matrix" in="shadowBlurOuter1"></feColorMatrix>
        </filter>
        <linearGradient x1="142.237234%" y1="9.32740216%" x2="23.9091967%" y2="100%" id="linearGradient-7">
            <stop stop-color="#114DCD" offset="0%"></stop>
            <stop stop-color="#1E63F8" offset="100%"></stop>
        </linearGradient>
        <circle id="path-8" cx="5.99271333" cy="5.99271333" r="5.99271333"></circle>
        <filter x="-187.7%" y="-79.3%" width="375.5%" height="433.9%" filterUnits="objectBoundingBox" id="filter-9">
            <feMorphology radius="7" operator="erode" in="SourceAlpha" result="shadowSpreadOuter1"></feMorphology>
            <feOffset dx="0" dy="20" in="shadowSpreadOuter1" result="shadowOffsetOuter1"></feOffset>
            <feGaussianBlur stdDeviation="6.5" in="shadowOffsetOuter1" result="shadowBlurOuter1"></feGaussianBlur>
            <feColorMatrix values="0 0 0 0 0.0144758141   0 0 0 0 0.171333194   0 0 0 0 0.36188072  0 0 0 0.191925262 0" type="matrix" in="shadowBlurOuter1"></feColorMatrix>
        </filter>
        <rect id="path-10" x="-8.52651283e-14" y="-7.21200877e-13" width="163.001803" height="57.530048" rx="8.38979867"></rect>
        <filter x="-10.1%" y="-18.3%" width="120.2%" height="157.4%" filterUnits="objectBoundingBox" id="filter-11">
            <feOffset dx="0" dy="6" in="SourceAlpha" result="shadowOffsetOuter1"></feOffset>
            <feGaussianBlur stdDeviation="4.5" in="shadowOffsetOuter1" result="shadowBlurOuter1"></feGaussianBlur>
            <feComposite in="shadowBlurOuter1" in2="SourceAlpha" operator="out" result="shadowBlurOuter1"></feComposite>
            <feColorMatrix values="0 0 0 0 0.51372549   0 0 0 0 0.525490196   0 0 0 0 0.639215686  0 0 0 0.12 0" type="matrix" in="shadowBlurOuter1"></feColorMatrix>
        </filter>
    </defs>
    <g id="desktop-🖥" stroke="none" stroke-width="1" fill="none" fill-rule="evenodd">
        <g id="img-decidecuantopagar" transform="translate(9.000000, 0.000000)">
            <mask id="mask-2" fill="white">
                <use xlink:href="#path-1"></use>
            </mask>
            <use id="Rectangle" fill="#F6F8FA" transform="translate(238.709748, 209.744967) scale(-1, 1) translate(-238.709748, -209.744967) " xlink:href="#path-1"></use>
            <g id="Group-16" transform="translate(61.924704, 47.941707)">
                <g id="Group-13">
                    <g id="Rectangle-2-Copy">
                        <use fill="black" fill-opacity="1" filter="url(#filter-4)" xlink:href="#path-3"></use>
                        <use fill="#FFFFFF" fill-rule="evenodd" xlink:href="#path-3"></use>
                    </g>
                    <text id="Pagar-en-UF" font-family="CircularStd-Bold, Circular Std" font-size="14.382512" font-weight="bold" fill="#4E5665">
                        <tspan x="54.2539564" y="33.775954">Pagar en UF</tspan>
                    </text>
                    <circle id="Oval-2" fill="#1D3EDE" opacity="0.05" cx="28.4653883" cy="29.9635667" r="11.9854267"></circle>
                </g>
                <g id="Group-13" transform="translate(53.492808, 18.976926)" fill="#042C5C" font-family="CircularStd-Bold, Circular Std" font-size="14.382512" font-weight="bold">
                    <text id="Pagar-en-UF">
                        <tspan x="0.761148181" y="14.7990284">Pagar en UF</tspan>
                    </text>
                </g>
            </g>
            <g id="Group-15" transform="translate(243.703676, 47.941707)">
                <rect id="Rectangle" fill="#FFB842" x="0" y="0" width="56.9307767" height="56.9307767" rx="13.9829978"></rect>
                <polygon id="Path-3" stroke="#FFFFFF" stroke-width="2.57165568" fill="#FFFFFF" stroke-linejoin="round" points="31.2279977 15.9805689 20.9744967 29.5994011 26.352059 29.5994011 25.2684546 40.9502078 35.95628 26.8464283 30.2421706 26.8464283"></polygon>
            </g>
            <g id="Group-25" transform="translate(143.825120, 104.872483)">
                <g id="Bench" transform="translate(20.135517, 93.630153)" fill-rule="nonzero">
                    <path d="M284.565191,120.360052 L2.5169396,120.360052 C-0.25169396,120.360052 -0.25169396,124.689188 2.5169396,124.689188 L284.61553,124.689188 C287.333825,124.689188 287.384164,120.360052 284.565191,120.360052 Z" id="XMLID_784_" fill="#BFC5D2"></path>
                    <path d="M271.67846,123.380379 L271.67846,231.558443 C271.67846,234.327077 276.007597,234.327077 276.007597,231.558443 L276.007597,123.380379 L271.67846,123.380379 Z" id="XMLID_674_" fill="#BFC5D2"></path>
                    <path d="M15.7057031,123.380379 L15.7057031,231.558443 C15.7057031,234.327077 20.0348392,234.327077 20.0348392,231.558443 L20.0348392,123.380379 L15.7057031,123.380379 Z" id="XMLID_673_" fill="#BFC5D2"></path>
                    <path d="M271.67846,22.6021176 L271.67846,119.655309 C271.67846,122.423942 276.007597,122.423942 276.007597,119.655309 L276.007597,22.6021176 C276.007597,19.7831453 271.67846,19.7831453 271.67846,22.6021176 Z" id="XMLID_672_" fill="#BFC5D2"></path>
                    <path d="M28.0890459,22.6021176 L28.0890459,119.655309 C28.0890459,122.423942 32.4181821,122.423942 32.4181821,119.655309 L32.4181821,22.6021176 C32.4181821,19.7831453 28.0890459,19.7831453 28.0890459,22.6021176 Z" id="XMLID_671_" fill="#BFC5D2"></path>
                    <path d="M286.226371,4.32913611 L286.226371,62.4201021 C286.226371,64.6350089 284.414175,66.4472054 282.199268,66.4472054 L22.5517788,66.4472054 C20.336872,66.4472054 18.5246755,64.6350089 18.5246755,62.4201021 L18.5246755,4.32913611 C18.5246755,2.11422926 20.336872,0.302032752 22.5517788,0.302032752 L282.199268,0.302032752 C284.414175,0.302032752 286.226371,2.11422926 286.226371,4.32913611 Z" id="XMLID_106_" fill="#BFC5D2"></path>
                    <rect id="XMLID_87_" fill="#FFFFFF" x="18.5246755" y="44.5498309" width="267.701696" height="1.2584698"></rect>
                    <rect id="XMLID_84_" fill="#FFFFFF" x="18.5246755" y="21.0416151" width="267.701696" height="1.2584698"></rect>
                </g>
                <g id="Circle" transform="translate(294.481933, 0.000000)">
                    <g id="XMLID_82_"></g>
                </g>
                <g id="Man" transform="translate(17.618577, 5.537267)">
                    <g id="XMLID_90_" transform="translate(137.928290, 42.284585)" fill="#1E63F8" fill-rule="nonzero">
                        <path d="M17.8199324,99.0164039 C29.8509037,101.130633 41.9825525,102.590458 54.1142014,103.899267 C69.7695657,105.560447 85.5256076,106.969933 101.130633,108.882807 C104.704687,72.0851502 105.107398,28.5420951 103.043507,18.3736591 C98.5633548,-3.67473182 64.1819598,0.654404296 64.1819598,0.654404296 C64.1819598,0.654404296 18.877047,13.8431678 18.877047,15.6553643 C18.877047,17.2662057 2.5169396,82.6059577 0.201355168,95.7443824 C6.09099383,96.8518358 11.9302937,98.009628 17.8199324,99.0164039 Z" id="XMLID_783_"></path>
                    </g>
                    <g id="XMLID_71_" transform="translate(0.000000, 132.894411)" fill-rule="nonzero">
                        <path d="M89.4520334,150.0096 C84.468493,150.86536 79.384275,151.167392 74.300057,151.519764 C73.1422648,151.620442 71.9341338,151.67078 70.7260028,151.721119 C77.9747888,177.544919 72.4375217,173.215783 61.3126487,174.876963 C46.462705,177.142209 47.8218524,189.273858 47.8218524,189.273858 L109.486873,189.273858 C108.429758,172.762734 107.322305,158.76855 106.164512,146.888595 C100.627245,147.895371 95.0396393,149.053163 89.4520334,150.0096 Z" id="XMLID_523_" fill="#FFFFFF"></path>
                        <path d="M95.593366,176.739499 C87.9418696,176.638821 80.9951163,171.302909 73.4946363,171.504264 C71.9844726,174.876963 67.5546589,173.970865 61.4133262,174.876963 C46.5633826,177.142209 47.92253,189.273858 47.92253,189.273858 L109.58755,189.273858 C109.235179,183.937946 108.882807,178.904067 108.530436,174.071543 C104.352316,175.682384 100.073519,176.789838 95.593366,176.739499 Z" id="XMLID_522_" fill="#042C5C"></path>
                        <path d="M139.539131,0.25169396 C138.582694,4.68150766 138.129645,7.45014122 138.331,7.45014122 C138.532356,7.45014122 141.401667,8.35623947 146.032836,9.86640323 C136.468465,14.3465557 121.970893,20.2865332 100.073519,27.6863356 C46.9660929,45.7076231 36.6466406,47.670836 58.6446927,113.664992 C65.8431399,135.260334 68.1083856,150.059939 70.2729536,158.969905 C81.6998594,157.057031 99.217759,154.389075 110.644665,152.778234 C105.208075,92.3716833 95.1403169,82.1529086 95.1403169,82.1529086 C95.1403169,82.1529086 95.0899781,80.4917284 147.341644,78.9815647 C220.332893,76.9176742 228.890487,79.4346138 234.729787,51.7482782 C237.498421,38.5595147 239.511972,20.8402599 240.820781,2.81897235 C207.043452,2.06389047 173.316461,0.25169396 139.539131,0.25169396 Z" id="XMLID_519_" fill="#2D4F6F"></path>
                        <path d="M36.9990121,112.809233 C33.1732639,135.8644 30.7570019,129.521712 20.3872108,126.350368 C6.04065504,121.970893 0.25169396,134.203219 0.25169396,134.203219 L55.8760591,160.782102 C61.7656978,146.938934 66.5982218,135.159657 70.5749864,125.091898 C59.3494358,121.215811 48.2245627,116.886675 36.9990121,112.809233 Z" id="XMLID_517_" fill="#FFFFFF"></path>
                        <path d="M47.670836,141.049295 C45.0028801,138.079306 42.7376344,134.807285 39.9690009,131.937974 C38.005788,129.874083 35.7405423,128.414258 33.2739415,127.206127 C30.6563243,131.988313 27.2836253,128.464597 20.3872108,126.350368 C6.04065504,121.970893 0.25169396,134.203219 0.25169396,134.203219 L55.8760591,160.782102 C57.4869005,157.006692 58.9970642,153.382299 60.4568892,149.908923 C55.5740264,148.650453 51.1945515,144.975721 47.670836,141.049295 Z" id="XMLID_516_" fill="#042C5C"></path>
                        <path d="M185.800481,13.3901187 C185.800481,13.3901187 194.408415,8.55759464 138.482017,4.32913611 C66.9505934,-1.00677584 53.7618299,0.604065504 42.6369568,70.675664 C39.1635802,92.4220221 36.8479957,105.510108 35.2371544,114.420074 C46.2613499,118.547855 63.2758616,126.24969 74.4007346,130.075439 C95.4926884,76.9176742 88.3949188,67.1016097 89.1500006,57.9902884 C89.1500006,57.9902884 89.1500006,57.9902884 106.063835,64.8867029 C112.90991,61.3126487 120.108358,58.2419824 126.954433,54.8189445 C137.676596,49.4326938 148.449098,44.1471206 159.221599,38.8615474 C170.245795,33.4249579 181.26999,27.9380296 192.243847,22.3000849 L185.800481,13.3901187 Z" id="XMLID_514_" fill="#2D4F6F"></path>
                        <path d="M91.1635523,43.9457654 C91.1635523,44.1974594 91.1635523,44.3988146 91.1635523,44.6505085 C91.1635523,50.590486 90.9118584,56.5808022 90.4084704,62.5207797 C88.6466127,84.468493 83.7134111,106.164512 75.8102208,126.753078 C75.6592044,127.10545 75.0551389,126.953636 75.2061553,126.602062 C77.4210621,120.813101 79.4346138,114.923462 81.1461327,108.983485 C87.2371265,88.2439024 90.3581317,66.6485606 90.4588092,45.0532188 C90.4588092,44.8015249 90.4588092,44.6001697 90.4588092,44.3484758 C90.760842,44.1974594 90.9621972,44.046443 91.1635523,43.9457654 Z" id="XMLID_493_" fill="#FFFFFF"></path>
                        <path d="M156.805337,15.5043479 C151.368748,17.2662057 145.982497,19.128741 140.646585,21.1422926 C123.531396,27.585658 106.969933,35.4888484 91.1132135,44.6505085 C90.9118584,44.7511861 90.7105032,44.9022025 90.509148,45.0028801 C88.9989843,45.8586395 87.4384817,46.7647378 85.928318,47.670836 C85.5759464,47.8721912 85.2739137,47.3184645 85.6262852,47.1171093 C87.2371265,46.1606723 88.8983067,45.2042352 90.509148,44.2477982 C90.7105032,44.0967818 90.9118584,43.9961042 91.1132135,43.8954266 C94.2845574,42.0328913 97.5062401,40.2710336 100.727923,38.5595147 C118.598194,28.9951442 137.324225,21.0919539 156.603982,14.9002824 C157.057031,14.7996049 157.208047,15.4036704 156.805337,15.5043479 Z" id="XMLID_492_" fill="#FFFFFF"></path>
                        <path d="M94.1838798,81.4481655 C93.4791368,80.8441 92.7240549,80.1896957 92.0193118,79.5856302 C91.717279,79.3339362 91.2642299,79.7869853 91.5662627,80.0386793 C92.2710057,80.6427448 93.0260876,81.2971491 93.7308307,81.9012146 C94.0328635,82.1529086 94.4859126,81.6998594 94.1838798,81.4481655 Z" id="XMLID_490_" fill="#FFFFFF"></path>
                        <path d="M224.61169,17.9709487 C224.561351,17.5682384 223.957286,17.7695936 224.007624,18.1219651 C225.719143,27.5353192 223.856608,37.4520613 218.671712,45.506268 C213.939866,52.9060704 206.640741,58.4433375 198.284502,61.1112935 C197.93213,61.2119711 198.083147,61.8160366 198.435518,61.715359 C206.942774,58.9467254 214.342576,53.3087807 219.1751,45.8083007 C224.511012,37.6030776 226.373548,27.5353192 224.61169,17.9709487 Z" id="XMLID_476_" fill="#FFFFFF"></path>
                        <path d="M221.69204,31.7637778 C215.903079,27.7366744 211.875976,21.5953418 210.365812,14.6989273 C210.265134,14.2962169 209.661069,14.4975721 209.761746,14.8499436 C211.27191,21.9477133 215.45003,28.1393847 221.339668,32.3175045 C221.69204,32.5188596 222.044412,32.0154717 221.69204,31.7637778 Z" id="XMLID_475_" fill="#FFFFFF"></path>
                        <path d="M168.483937,14.1955393 C166.017336,14.4472333 163.550735,14.6989273 161.084134,14.9506212 C160.681424,15.00096 160.681424,15.6050255 161.084134,15.5546867 C163.550735,15.3029928 166.017336,15.0512988 168.483937,14.7996049 C168.886647,14.7492661 168.886647,14.1452006 168.483937,14.1955393 Z" id="XMLID_491_" fill="#FFFFFF"></path>
                    </g>
                    <g id="XMLID_95_" transform="translate(59.903162, 42.787973)" fill-rule="nonzero">
                        <path d="M69.215839,55.9767367 C65.7928012,71.883795 65.1887356,75.7095432 65.1887356,75.7095432 C65.1887356,75.7095432 23.5585547,79.4346138 9.11132135,90.5594868 C5.33591195,93.0764264 -0.25169396,101.734699 0.050338792,104.855704 C0.100677584,105.560447 0.100677584,107.171288 1.76185772,106.567223 C2.46660081,108.933146 3.52371544,109.889583 4.22845853,109.486873 C5.93997746,112.10449 9.16166015,111.047375 9.31267652,109.18484 C10.3697912,111.349408 13.0880859,112.658217 17.9709487,103.597234 C18.2729815,103.446218 25.9748167,101.986393 26.9312537,101.885715 C31.2603898,103.244862 27.5353192,105.459769 25.0687184,107.775354 C24.0619426,108.731791 23.8102486,110.896359 24.917702,110.997036 C29.6998873,111.450086 37.4520613,104.201299 40.5227276,101.432666 L83.1858566,98.6350837 C90.469411,98.1574735 96.3487027,92.5003567 97.1063966,85.2405925 L100.123857,56.3291083 L100.123857,56.3291083 C89.8044049,56.5304634 79.5352914,56.7318186 69.215839,55.9767367 Z" id="XMLID_75_" fill="#ED9F94"></path>
                        <path d="M142.207087,0.151016376 L126.048335,9.06098256 L103.798589,21.3436478 L99.8721633,59.0977418 C89.552711,58.4433375 79.2332586,57.5372393 68.9138063,57.3862229 C70.1219373,51.798617 71.6824398,44.6505085 73.7463303,35.4888484 C80.4413896,5.6882835 88.8479679,4.53049128 122.121909,1.8625353 C128.011548,1.40948618 134.656269,0.855759464 142.207087,0.151016376 Z" id="XMLID_782_" fill="#1E63F8"></path>
                        <path d="M71.5314234,77.5217397 L66.547883,76.3639475 C66.1451727,76.2632699 65.9941563,76.8673354 66.3968667,76.968013 C68.0580468,77.3707233 69.7192269,77.7734337 71.3804071,78.1258052 C71.7831174,78.2264828 71.9341338,77.6224173 71.5314234,77.5217397 Z" id="XMLID_486_" fill="#042C5C"></path>
                        <path d="M19.4307737,96.9021746 C15.00096,98.5633548 11.628261,102.036731 10.0677584,106.466545 C9.91674203,106.818917 10.5208075,107.020272 10.6718239,106.617561 C12.1316489,102.389103 15.4036704,99.0164039 19.5817901,97.4559013 C19.9845004,97.3552237 19.8334841,96.7511582 19.4307737,96.9021746 Z" id="XMLID_485_" fill="#042C5C"></path>
                        <path d="M16.7124789,93.8818471 C10.8228403,96.1974315 6.39302658,101.28165 4.88286282,107.422982 C4.78218524,107.825692 5.38625074,107.976709 5.48692833,107.573999 C6.9467533,101.634021 11.1752118,96.7008194 16.8634953,94.4859126 C17.2158669,94.3348962 17.0648505,93.7308307 16.7124789,93.8818471 Z" id="XMLID_484_" fill="#042C5C"></path>
                        <path d="M10.9235179,92.3716833 C6.49370417,95.3920109 3.32236027,99.8721633 2.01355168,105.107398 C1.9128741,105.510108 2.5169396,105.661124 2.61761718,105.258414 C3.87608698,100.224535 6.9467533,95.84506 11.2255506,92.92541 C11.5779222,92.6737161 11.2758894,92.1199894 10.9235179,92.3716833 Z" id="XMLID_483_" fill="#042C5C"></path>
                        <path d="M102.08707,19.9845004 C101.68436,25.3204124 101.28165,30.7066631 100.878939,36.0425751 C100.8286,36.4452854 101.483005,36.4452854 101.483005,36.0425751 C101.885715,30.7066631 102.288425,25.3204124 102.691136,19.9845004 C102.741474,19.5817901 102.137409,19.5817901 102.08707,19.9845004 Z" id="XMLID_474_" fill="#FFFFFF"></path>
                    </g>
                    <g id="XMLID_85_" transform="translate(132.391023, 70.977697)" fill-rule="nonzero">
                        <path d="M28.5420951,30.9583571 L13.3901187,30.9583571 C12.5343592,30.9583571 11.7289385,30.4549692 11.4269058,29.6495485 L0.25169396,3.02032752 C-0.352371544,1.61084134 0.704743088,0.050338792 2.21490685,0.050338792 L17.3668832,0.050338792 C18.2226427,0.050338792 19.0280634,0.553726712 19.3300961,1.35914738 L30.505308,27.9883684 C31.1093735,29.3978545 30.0522588,30.9583571 28.5420951,30.9583571 Z" id="XMLID_498_" fill="#042C5C"></path>
                        <path d="M16.6118014,1.81219651 C15.1016376,1.81219651 13.5914738,1.8625353 12.0813101,1.8625353 C11.6785997,1.8625353 11.6785997,2.46660081 12.0813101,2.46660081 C13.5914738,2.46660081 15.1016376,2.41626202 16.6118014,2.41626202 C17.0145117,2.41626202 17.0145117,1.81219651 16.6118014,1.81219651 Z" id="XMLID_454_" fill="#FFFFFF"></path>
                        <path d="M15.2023152,5.48692833 C14.0948618,5.38625074 12.9370695,6.09099383 12.6853756,7.19844726 C12.6853756,7.24878605 12.6853756,7.29912484 12.6853756,7.34946363 C12.6350368,7.39980243 12.6350368,7.45014122 12.6350368,7.50048001 C12.6350368,8.70861102 13.6418126,9.71538686 14.8499436,9.76572565 C16.0077359,9.81606444 16.8634953,8.85962739 16.9641729,7.70183518 C17.0145117,6.64472054 16.3097686,5.6379447 15.2023152,5.48692833 Z M14.9506212,9.21199894 C14.044523,9.21199894 13.2894411,8.45691706 13.2894411,7.5508188 C13.2894411,7.50048001 13.2894411,7.50048001 13.2894411,7.45014122 C13.2894411,7.45014122 13.3397799,7.39980243 13.3397799,7.39980243 C13.7424902,5.6882835 16.4104462,5.6882835 16.4104462,7.60115759 C16.3097686,8.40657827 15.8063807,9.21199894 14.9506212,9.21199894 Z" id="XMLID_451_" fill="#FFFFFF"></path>
                        <path d="M24.3639753,18.7763694 C22.4511012,13.8431678 20.5382271,8.85962739 18.5750143,3.92642578 C18.4239979,3.57405423 17.8199324,3.72507061 17.9709487,4.07744215 L23.7599098,18.9273858 C23.9109262,19.3300961 24.5149917,19.1790798 24.3639753,18.7763694 Z" id="XMLID_450_" fill="#FFFFFF"></path>
                        <circle id="XMLID_449_" fill="#FFFFFF" cx="16.4104462" cy="11.8799549" r="1"></circle>
                    </g>
                    <g id="XMLID_97_" transform="translate(132.894411, 41.781197)" fill-rule="nonzero">
                        <path d="M107.876031,53.963185 C101.885715,52.6543764 95.9457376,51.3455678 90.0057601,49.8857429 C86.2806895,48.9796446 82.6059577,48.1238852 78.8305483,47.670836 L76.2632699,62.6214573 C76.2632699,62.6214573 42.0328913,56.0270755 37.0996897,55.4733488 C36.1432527,50.9931963 34.1800398,45.4559292 31.8644553,41.881875 C29.6495485,38.5091759 26.6795598,37.0493509 25.3707512,36.7473182 C22.753134,36.1432527 23.709571,41.378487 26.5285434,42.7879732 C26.9312537,43.5933939 26.377527,50.8421799 21.9980521,50.0367593 C20.9409375,49.4326938 19.8838228,48.878967 18.8267082,48.3252403 C17.668916,47.5701584 11.0745342,45.8083007 6.24201021,41.3281482 C5.18489558,40.6234052 3.7754094,38.8112086 2.46660081,38.7105311 C0.75508188,38.5595147 -0.352371544,39.8683233 0.151016376,41.4791646 C0.302032752,42.0328913 4.68150766,46.3116886 5.13455678,46.7647378 C5.43658954,48.6272731 5.18489558,49.6843877 5.93997746,51.3455678 C5.99031625,53.0570868 6.292349,54.6175893 6.84607571,56.1277531 C6.69505934,63.175184 11.9302937,67.5043201 18.0212875,70.2729536 C20.0348392,71.9341338 22.5517788,73.7966691 25.5721063,75.8605596 C67.5546589,104.60401 92.8750713,110.946698 106.164512,107.876031 C115.376511,105.711463 121.014456,79.2332586 121.064795,57.9902884 C121.064795,57.6379168 121.064795,57.2855453 121.064795,56.9331738 C116.584642,55.8760591 112.255506,54.9196221 107.876031,53.963185 Z" id="XMLID_74_" fill="#ED9F94"></path>
                        <path d="M78.5285155,49.6340489 L85.1732361,10.8731791 L76.4142863,5.53726712 L69.215839,1.15779222 C72.2361665,0.906098256 75.6592044,0.654404296 79.2332586,0.453049128 C96.3987867,-0.553726712 117.239047,0.151016376 118.698872,16.6118014 C119.453953,25.2197348 120.964117,41.7308586 120.913778,57.9399496 C106.718239,55.6243652 92.5730385,52.8053928 78.5285155,49.6340489 Z" id="XMLID_779_" fill="#1E63F8"></path>
                        <path d="M82.052231,66.547883 C80.592406,65.4404296 79.132581,64.3329762 77.6727561,63.2255228 C77.3707233,62.9738288 77.0686906,63.5275555 77.3707233,63.7792495 C78.8305483,64.8867029 80.2903733,65.9941563 81.7501982,67.1016097 C82.052231,67.3029649 82.3542637,66.7492382 82.052231,66.547883 Z" id="XMLID_488_" fill="#042C5C"></path>
                        <path d="M13.0377471,52.4530213 C11.1752118,51.2952291 9.36301531,50.1374368 7.50048001,48.9796446 C7.14810847,48.7782895 6.84607571,49.2816774 7.19844726,49.5333713 C9.06098256,50.6911636 10.8731791,51.8489558 12.7357144,53.006748 C13.0377471,53.2081032 13.3901187,52.6543764 13.0377471,52.4530213 Z" id="XMLID_482_" fill="#042C5C"></path>
                        <path d="M11.376567,55.7753815 C9.71538686,55.1209772 8.35623947,54.0135238 7.39980243,52.5033601 C7.19844726,52.1509885 6.64472054,52.5033601 6.84607571,52.8053928 C7.90319035,54.4162342 9.41335411,55.6243652 11.2255506,56.3291083 C11.628261,56.4801246 11.7792773,55.9263979 11.376567,55.7753815 Z" id="XMLID_480_" fill="#042C5C"></path>
                        <path d="M10.7725015,60.3562116 C9.76572565,59.5004522 8.75894981,58.6446927 7.75217397,57.839272 C7.45014122,57.5875781 6.99709209,58.0406272 7.29912484,58.2923211 C8.30590068,59.1480806 9.31267652,60.0038401 10.3194524,60.8092607 C10.6214851,61.0609547 11.0745342,60.6079056 10.7725015,60.3562116 Z" id="XMLID_479_" fill="#042C5C"></path>
                        <path d="M24.3136365,74.9544613 C17.3668832,72.2361665 11.4772446,67.3533037 7.5508188,61.0106159 C7.34946363,60.6582444 6.79573692,60.9602771 6.99709209,61.3126487 C11.0241954,67.8063528 17.0145117,72.7898932 24.1122814,75.5585268 C24.5149917,75.6592044 24.6660081,75.0551389 24.3136365,74.9544613 Z" id="XMLID_478_" fill="#042C5C"></path>
                        <path d="M80.2903733,23.7599098 C79.4346138,31.3610674 78.6291931,39.0125638 77.7734337,46.6137214 C77.7230949,47.0164317 78.3271604,47.0164317 78.3774992,46.6137214 C79.2332586,39.0125638 80.0386793,31.3610674 80.8944388,23.7599098 C80.9951163,23.3571995 80.340712,23.3571995 80.2903733,23.7599098 Z" id="XMLID_477_" fill="#FFFFFF"></path>
                    </g>
                    <g id="XMLID_91_" transform="translate(151.640349, 0.500000)">
                        <path d="M42.9699008,42.9389896 C35.419082,43.6437327 28.7240226,44.1974594 22.8847227,44.6505085 C23.2874331,47.4191421 24.6969193,49.9360817 26.8111485,51.8489558 C27.0628425,52.0503109 27.2641977,52.2516661 27.5158916,52.4530213 C30.6368967,54.9196221 34.6640001,55.7250428 38.5904259,55.0202997 C43.5739663,54.1142014 47.4500532,51.1945515 50.2186868,47.3184645 C51.3261402,45.7579619 52.2825773,44.046443 53.0376592,42.2342465 C49.4132661,42.4356017 46.0405671,42.6872956 42.9699008,42.9389896 Z" id="XMLID_472_" fill="#ED9F94" fill-rule="nonzero"></path>
                        <g id="XMLID_86_">
                            <path d="M51.0744463,45.1035576 L28.7240226,52.6543764 L25.8043727,46.7647378 L22.0289633,39.213919 L15.5352591,26.1258331 L31.6436726,18.9777246 C32.4490932,20.5885659 51.0744463,45.1035576 51.0744463,45.1035576 Z" id="XMLID_471_" fill="#ED9F94" fill-rule="nonzero"></path>
                            <path d="M25.8043727,46.7647378 L25.9553891,47.0667705 C28.7240226,44.0967818 30.2341864,40.2206948 30.6872355,35.9922363 C31.2409622,30.3542916 29.4287657,25.7231227 27.4655528,20.8402599 L15.5855979,26.1258331 L22.0793021,39.213919 L25.8043727,46.7647378 Z" id="XMLID_470_" fill="#000000" fill-rule="nonzero" opacity="0.222958519"></path>
                            <path d="M30.334864,5.28557316 C23.7404822,-0.402710336 2.74920594,6.95425582 4.56140246,15.3608341 C4.92859094,17.0607808 5.94902316,20.3821399 6.32326018,22.5769482 C7.33426067,28.5062183 9.51391849,34.3198233 13.9026925,38.3014018 C18.021909,42.0384326 31.3416398,40.6737439 33.7579018,33.0725863 C36.2245026,25.42109 36.9292457,10.9235179 30.334864,5.28557316 Z" id="XMLID_469_" fill="#ED9F94" fill-rule="nonzero"></path>
                            <path d="M19.0484264,33.8019296 C20.7411242,34.3519223 26.6131388,34.2160555 26.993327,28.6211989 L16.206443,32.2691241 C16.9726335,32.9243327 17.9199613,33.4352679 19.0484264,33.8019296 Z" id="Path-4" fill="#F6F8FA"></path>
                            <path d="M32.6504484,8.00386793 C30.7883099,-2.8083587 15.9286205,0.344452267 15.2742162,0.847840187 C14.7708283,0.596146227 1.28375902,3.54620288 0.819382263,9.14076805 C0.355005502,14.7353332 3.19569176,17.528196 8.7545791,15.8300645 C13.8567004,14.8671992 18.3038927,12.5343592 20.0154116,10.8731791 C20.5691383,11.9302937 21.6765917,12.6853756 23.1867555,12.6853756 C23.9418374,12.6853756 24.6465805,12.5343592 25.2003072,12.2323265 C26.5594546,14.1955393 28.6736838,16.2594298 31.542995,15.6050255 C32.9021424,15.3029928 34.3116285,20.5382271 35.6204371,20.4878883 C35.4694207,15.9573971 34.6640001,11.376567 32.6504484,8.00386793 Z" id="XMLID_468_" fill="#042C5C" fill-rule="nonzero"></path>
                            <path d="M17.3474556,27.0319313 C16.7433901,27.3339641 16.0889858,27.6863356 15.3842427,27.7366744 C14.5788221,27.7870132 13.5720462,27.2332865 13.8237402,26.2768494 C13.9244178,25.8741391 13.3706911,25.6727839 13.2700135,26.0754943 C13.0183195,26.9815925 13.4713686,27.8876908 14.3774669,28.1897235 C15.4849203,28.6427727 16.6427125,28.0890459 17.5991496,27.585658 C17.9515211,27.3843029 17.6998272,26.8305761 17.3474556,27.0319313 Z" id="XMLID_467_" fill="#042C5C" fill-rule="nonzero"></path>
                            <path d="M13.0686583,21.9477133 C13.874079,24.3639753 12.5149316,27.0319313 9.89731441,27.4346416 C7.27969722,27.837352 5.16546796,25.7734615 5.16546796,23.2061831 C5.16546796,22.8034728 4.56140246,22.753134 4.56140246,23.1558443 C4.56140246,26.1258331 6.97766447,28.5420951 9.99799199,28.0387071 C13.0183195,27.5353192 14.5788221,24.4646529 13.622385,21.6960194 C13.4713686,21.293309 12.9176419,21.545003 13.0686583,21.9477133 Z" id="XMLID_466_" fill="#2D4F6F" fill-rule="nonzero"></path>
                            <path d="M24.6969193,18.0716263 C25.8547115,20.336872 24.8982744,23.1558443 22.3813348,23.961265 C19.8643952,24.7666857 17.4481332,23.0048279 17.0957617,20.4878883 C17.0454229,20.085178 16.4413574,20.1355168 16.4916962,20.4878883 C16.9447453,23.4075383 19.6630401,25.42109 22.58269,24.5149917 C25.5023399,23.6088935 26.5594546,20.336872 25.250646,17.668916 C25.0492908,17.3668832 24.5459029,17.7192548 24.6969193,18.0716263 Z" id="XMLID_465_" fill="#2D4F6F" fill-rule="nonzero"></path>
                            <path d="M17.0454229,21.1926314 C17.0454229,21.1926314 17.0454229,21.1926314 17.0454229,21.1926314 C15.8372919,21.6456806 14.6291609,22.0987297 13.4210298,22.5517788 C13.0686583,22.7027952 13.3203523,23.2565219 13.6727238,23.1055055 C14.8808548,22.6524564 16.0889858,22.1994073 17.2971168,21.7463581 C17.2971168,21.7463581 17.2971168,21.7463581 17.2971168,21.7463581 C17.1964392,21.545003 17.1461005,21.3939866 17.0454229,21.1926314 Z" id="XMLID_464_" fill="#2D4F6F" fill-rule="nonzero"></path>
                            <path d="M20.1160892,19.4307737 C20.2671056,19.9845004 20.4684607,20.5382271 20.6194771,21.0416151 C20.8208323,21.5953418 21.6262529,21.2429702 21.4752366,20.6892435 C21.3242202,20.1355168 21.122865,19.5817901 20.9718486,19.0784022 C20.7704935,18.4743367 19.914734,18.877047 20.1160892,19.4307737 Z" id="XMLID_463_" stroke="#042C5C" stroke-width="0.4" fill="#042C5C" fill-rule="nonzero"></path>
                            <path d="M10.2805971,21.9477133 C10.4316135,22.50144 10.6329687,23.0551667 10.783985,23.5585547 C10.9853402,24.1122814 11.7907609,23.7599098 11.6397445,23.2061831 C11.4887281,22.6524564 11.287373,22.0987297 11.1363566,21.5953418 C10.9350014,21.0416151 10.079242,21.3939866 10.2805971,21.9477133 Z" id="XMLID_462_" stroke="#042C5C" stroke-width="0.4" fill="#042C5C" fill-rule="nonzero"></path>
                            <path d="M10.2186621,18.5179661 C9.5642578,18.6689824 8.9098535,18.8199988 8.2554492,18.9206764 C7.95341645,18.9710152 7.75206128,19.4240643 7.85273887,19.6757583 C7.95341645,20.0281298 8.305788,20.1288074 8.60782075,20.0784686 C9.26222504,19.9274522 9.91662934,19.7764359 10.5710336,19.6757583 C10.8730664,19.6254195 11.0744216,19.1723704 10.973744,18.9206764 C10.8730664,18.5683049 10.5206948,18.4676273 10.2186621,18.5179661 Z" id="XMLID_461_" fill="#042C5C" fill-rule="nonzero"></path>
                            <path d="M19.9943691,14.9417704 C19.4406424,15.1431256 18.8365769,15.3948195 18.2828502,15.5961747 C17.5277683,15.8982075 18.0311562,17.0056609 18.7862381,16.7036281 C19.3399648,16.502273 19.9440303,16.250579 20.497757,16.0492238 C21.2025001,15.7975299 20.6991122,14.6900765 19.9943691,14.9417704 Z" id="XMLID_460_" fill="#042C5C" fill-rule="nonzero"></path>
                            <path d="M34.1102734,13.6418126 C31.1906234,15.2023152 28.2709735,16.7628177 25.3513236,18.3233203 C24.998952,18.5246755 25.250646,19.0784022 25.6030175,18.877047 C28.5226675,17.3165445 31.4423174,15.7560419 34.3619673,14.1955393 C34.7646777,13.9941842 34.4626449,13.4404575 34.1102734,13.6418126 Z" id="XMLID_458_" fill="#2D4F6F" fill-rule="nonzero"></path>
                            <path d="M40.1509284,14.5982497 C38.2380543,12.1819877 33.4558691,12.1316489 31.291301,15.7057031 C32.2980769,18.877047 33.2041751,22.0987297 34.1102734,25.3204124 C36.0231475,25.5721063 39.4461853,24.4646529 40.8556715,22.1994073 C42.4665128,19.7328065 42.2148189,17.2158669 40.1509284,14.5982497 Z" id="XMLID_456_" fill="#ED9F94" fill-rule="nonzero"></path>
                            <path d="M36.0734863,17.5682384 C35.6204371,18.6756918 35.1170492,19.7831453 34.6640001,20.9409375 C34.5129837,21.293309 35.0667104,21.4946642 35.2680656,21.1422926 C35.3184044,21.0919539 35.3184044,20.9912763 35.3687432,20.9409375 C35.3687432,20.8905987 35.3687432,20.8905987 35.3687432,20.8402599 C35.8217923,19.8334841 36.2245026,18.8267082 36.6775518,17.7695936 C36.7782293,17.417222 36.2245026,17.2158669 36.0734863,17.5682384 Z" id="XMLID_455_" fill="#042C5C" fill-rule="nonzero"></path>
                        </g>
                    </g>
                </g>
                <g id="Wi_Fi" transform="translate(152.023152, 61.916714)"></g>
                <path d="M329.517732,326.447066 L0.604065504,326.447066 C-0.201355168,326.447066 -0.201355168,327.705536 0.604065504,327.705536 L329.517732,327.705536 C330.323153,327.705536 330.323153,326.447066 329.517732,326.447066 Z" id="Shadow" fill="#F6F8FA" fill-rule="nonzero"></path>
            </g>
            <g id="Group-6" transform="translate(28.964781, 115.859124)">
                <g id="Rectangle-2-Copy">
                    <use fill="black" fill-opacity="1" filter="url(#filter-6)" xlink:href="#path-5"></use>
                    <use fill="#FFFFFF" fill-rule="evenodd" xlink:href="#path-5"></use>
                </g>
                <text id="Pagar-total" font-family="CircularStd-Bold, Circular Std" font-size="14.382512" font-weight="bold" fill="#042C5C">
                    <tspan x="64.4216683" y="33.775954">Pagar total</tspan>
                </text>
                <g id="Icon-Copy-2" transform="translate(16.479962, 17.978140)">
                    <circle id="Oval-2" fill="#1D3EDE" opacity="0.05" cx="11.9854267" cy="11.9854267" r="11.9854267"></circle>
                    <g id="Group-4" transform="translate(5.992713, 5.992713)">
                        <g id="Oval-2-Copy">
                            <use fill="black" fill-opacity="1" filter="url(#filter-9)" xlink:href="#path-8"></use>
                            <use fill="url(#linearGradient-7)" fill-rule="evenodd" xlink:href="#path-8"></use>
                        </g>
                    </g>
                </g>
            </g>
            <g id="Group-19" transform="translate(0.000000, 188.770470)">
                <g id="Rectangle-2-Copy">
                    <use fill="black" fill-opacity="1" filter="url(#filter-11)" xlink:href="#path-10"></use>
                    <use fill="#FFFFFF" fill-rule="evenodd" xlink:href="#path-10"></use>
                </g>
                <text id="Abonar" font-family="CircularStd-Bold, Circular Std" font-size="14.382512" font-weight="bold" fill="#042C5C">
                    <tspan x="63.6226399" y="33.775954">Abonar</tspan>
                </text>
                <circle id="Oval-2" fill="#1D3EDE" opacity="0.05" cx="28.4653883" cy="29.9635667" r="11.9854267"></circle>
            </g>
        </g>
    </g>
</svg>