<?xml version="1.0" encoding="UTF-8"?>
<svg width="88px" height="88px" viewBox="0 0 88 88" version="1.1" xmlns="http://www.w3.org/2000/svg" xmlns:xlink="http://www.w3.org/1999/xlink">
    <!-- Generator: Sketch 58 (84663) - https://sketch.com -->
    <title>Group 42</title>
    <desc>Created with Sketch.</desc>
    <defs>
        <path d="M44,0 C19.6994988,0 0,19.6994988 0,44 C0,68.3005012 19.6994988,88 44,88 C68.3005012,88 88,68.3005012 88,44 C88,19.6994988 68.3005012,0 44,0 Z" id="path-1"></path>
    </defs>
    <g id="mobile-📱" stroke="none" stroke-width="1" fill="none" fill-rule="evenodd">
        <g id="productos-asincronos" transform="translate(-136.000000, -238.000000)">
            <g id="Group-42" transform="translate(136.000000, 238.000000)">
                <mask id="mask-2" fill="white">
                    <use xlink:href="#path-1"></use>
                </mask>
                <use id="Fill-1" fill="#F6F8FA" xlink:href="#path-1"></use>
                <g id="robot" mask="url(#mask-2)">
                    <g transform="translate(-2.000000, 9.000000)">
                        <path d="M7.29580818,73.6386 L27.6034082,98.3769" id="Stroke-56" stroke="#221B48" stroke-width="4.8" fill="none" stroke-linecap="round"></path>
                        <path d="M26.9587082,28.5924 L22.9534082,28.5924 C21.3607082,28.5924 20.0575082,27.2892 20.0575082,25.6962 C20.0575082,24.1032 21.3607082,22.8 22.9534082,22.8 L26.9587082,22.8 C28.5517082,22.8 29.8549082,24.1032 29.8549082,25.6962 C29.8549082,27.2892 28.5517082,28.5924 26.9587082,28.5924" id="Fill-58" stroke="none" fill="#221B48" fill-rule="evenodd"></path>
                        <path d="M30.9706082,63.2331 L12.1309082,76.6404 C8.80150818,79.0101 4.13800818,78.2247 1.76830818,74.8947 L1.36900818,74.3337 C-1.00069182,71.004 -0.214991819,66.3408 3.11470818,63.9711 L21.9541082,50.5635 C25.2841082,48.1938 29.9473082,48.9795 32.3167082,52.3092 L32.7160082,52.8702 C35.0860082,56.2002 34.3003082,60.8634 30.9706082,63.2331" id="Fill-59" stroke="none" fill="#2D5393" fill-rule="evenodd"></path>
                        <path d="M55.0879082,82.4121 L34.7803082,82.4121 C28.2310082,82.4121 22.8727082,77.0535 22.8727082,70.5045 L22.8727082,58.9386 C22.8727082,52.3893 28.2310082,47.0307 34.7803082,47.0307 L55.0879082,47.0307 C61.6369082,47.0307 66.9949082,52.3893 66.9949082,58.9386 L66.9949082,70.5045 C66.9949082,77.0535 61.6369082,82.4121 55.0879082,82.4121" id="Fill-61" stroke="none" fill="#568FBF" fill-rule="evenodd"></path>
                        <path d="M53.3464082,14.5095 L78.0709082,34.5012" id="Stroke-67" stroke="#221B48" stroke-width="4.8" fill="none" stroke-linecap="round"></path>
                        <path d="M84.6649082,42.132 L68.8279082,58.98 C66.0289082,61.9581 61.3009082,62.1039 58.3249082,59.3049 L57.8209082,58.8333 C54.8449082,56.034 54.6979082,51.3075 57.4969082,48.3294 L73.3339082,31.4814 C76.1329082,28.5036 80.8609082,28.3575 83.8399082,31.1568 L84.3409082,31.6284 C87.3169082,34.4277 87.4639082,39.1542 84.6649082,42.132" id="Fill-70" stroke="none" fill="#2D5393" fill-rule="evenodd"></path>
                        <path d="M39.6418082,36.0309 L42.7114082,47.3232" id="Stroke-71" stroke="#221B48" stroke-width="8.4" fill="none" stroke-linecap="round"></path>
                        <path d="M39.1882082,41.8617 L37.9882082,41.8617 C31.1215082,41.8617 25.5034082,36.2436 25.5034082,29.3769 L25.5034082,22.6386 C25.5034082,15.7719 31.1215082,10.1538 37.9882082,10.1538 L39.1882082,10.1538 C46.0546082,10.1538 51.6727082,15.7719 51.6727082,22.6386 L51.6727082,29.3769 C51.6727082,36.2436 46.0546082,41.8617 39.1882082,41.8617" id="Fill-72" stroke="none" fill="#568FBF" fill-rule="evenodd"></path>
                        <path d="M28.7803082,4.3386 C28.7803082,4.3386 33.3958082,7.2462 33.9034082,12.2769" id="Stroke-73" stroke="#221B48" stroke-width="1.8" fill="none" stroke-linecap="round"></path>
                        <path d="M31.3189082,3.1155 C31.3189082,4.836 29.9242082,6.2307 28.2034082,6.2307 C26.4829082,6.2307 25.0882082,4.836 25.0882082,3.1155 C25.0882082,1.395 26.4829082,3.35731443e-14 28.2034082,3.35731443e-14 C29.9242082,3.35731443e-14 31.3189082,1.395 31.3189082,3.1155" id="Fill-74" stroke="none" fill="#568FBF" fill-rule="evenodd"></path>
                        <path d="M44.7034082,70.8153 L34.7341082,70.8153 C32.7541082,70.8153 31.1341082,69.1956 31.1341082,67.2153 L31.1341082,61.3692 C31.1341082,59.3892 32.7541082,57.7692 34.7341082,57.7692 L44.7034082,57.7692 C46.6834082,57.7692 48.3034082,59.3892 48.3034082,61.3692 L48.3034082,67.2153 C48.3034082,69.1956 46.6834082,70.8153 44.7034082,70.8153" id="Fill-75" stroke="none" fill="#221B48" fill-rule="evenodd"></path>
                        <path d="M34.5010082,23.514 C34.3435082,24.4038 34.9375082,25.2525 35.8273082,25.4094 C36.7168082,25.5666 37.5655082,24.9729 37.7227082,24.0834 C37.8796082,23.1936 37.2859082,22.3449 36.3964082,22.1877 C35.5066082,22.0305 34.6579082,22.6245 34.5010082,23.514" id="Fill-76" stroke="none" fill="#221B48" fill-rule="evenodd"></path>
                        <path d="M76.4569082,35.916 C76.1719082,37.5177 77.2429082,39.0456 78.8449082,39.3285 C80.4439082,39.6114 81.9739082,38.5422 82.2559082,36.9408 C82.5379082,35.3388 81.4699082,33.8112 79.8679082,33.5283 C78.2659082,33.2451 76.7389082,34.3143 76.4569082,35.916" id="Fill-77" stroke="none" fill="#221B48" fill-rule="evenodd"></path>
                        <path d="M60.3949082,52.593 C60.1099082,54.1947 61.1809082,55.7223 62.7829082,56.0055 C64.3849082,56.2884 65.9119082,55.2192 66.1939082,53.6175 C66.4759082,52.0158 65.4079082,50.4879 63.8059082,50.205 C62.2039082,49.9221 60.6769082,50.9913 60.3949082,52.593" id="Fill-78" stroke="none" fill="#221B48" fill-rule="evenodd"></path>
                        <path d="M4.41490818,70.0125 C4.13170818,71.6142 5.20090818,73.1421 6.80260818,73.425 C8.40430818,73.7079 9.93220818,72.639 10.2151082,71.0373 C10.4980082,69.4353 9.42880818,67.9077 7.82740818,67.6248 C6.22570818,67.3416 4.69780818,68.4108 4.41490818,70.0125" id="Fill-79" stroke="none" fill="#221B48" fill-rule="evenodd"></path>
                        <path d="M26.0077082,23.5491 C25.8508082,24.4386 26.4445082,25.2873 27.3343082,25.4445 C28.2238082,25.6017 29.0725082,25.0077 29.2294082,24.1182 C29.3869082,23.2284 28.7929082,22.3797 27.9031082,22.2225 C27.0136082,22.0656 26.1652082,22.6593 26.0077082,23.5491" id="Fill-80" stroke="none" fill="#221B48" fill-rule="evenodd"></path>
                        <polyline id="Fill-81" stroke="none" fill="#2D5393" fill-rule="evenodd" points="32.5804082 21.7476 28.4527082 28.2978 32.8957082 28.4052 32.5804082 21.7476"></polyline>
                        <path d="M28.0420082,19.6155 L25.0651082,21.3 M35.9344082,19.5231 L38.4958082,20.9538" id="Stroke-82" stroke="#221B48" stroke-width="1.8" fill="none"></path>
                        <path d="M53.4202082,27.9726 L49.5343082,27.9726 L49.5343082,22.1802 L53.4202082,22.1802 C55.0129082,22.1802 56.3179082,23.4837 56.3179082,25.0764 C56.3179082,26.6694 55.0129082,27.9726 53.4202082,27.9726" id="Fill-83" stroke="none" fill="#221B48" fill-rule="evenodd"></path>
                        <path d="M37.4269082,29.496 C35.4613082,29.163 33.6238082,30.2856 33.4243082,31.4622" id="Stroke-84" stroke="#221B48" stroke-width="1.2" fill="none"></path>
                        <path d="M40.2619082,11.3223 C40.2619082,11.3223 47.9152082,19.6881 53.0344082,13.9845 C58.3579082,8.0538 46.1113082,4.1307 46.1113082,4.1307" id="Stroke-92" stroke="#2D5393" stroke-width="4.5" fill="none"></path>
                    </g>
                </g>
            </g>
        </g>
    </g>
</svg>