<?xml version="1.0" encoding="UTF-8"?>
<svg width="381px" height="346px" viewBox="0 0 381 346" version="1.1" xmlns="http://www.w3.org/2000/svg" xmlns:xlink="http://www.w3.org/1999/xlink">
    <!-- Generator: Sketch 61.2 (89653) - https://sketch.com -->
    <title>img-welcome-01</title>
    <desc>Created with Sketch.</desc>
    <g id="img-welcome-01" stroke="none" stroke-width="1" fill="none" fill-rule="evenodd">
        <g id="Group-72-Copy" transform="translate(40.000000, 50.000000)">
            <g id="Group-71" transform="translate(0.000000, 21.906073)">
                <rect id="Rectangle-Copy" fill="#1E63F8" x="48.6" y="1.49392713" width="6.08502024" height="6.08502024" rx="2.4340081"></rect>
                <rect id="Rectangle-Copy-2" fill="#FF7E87" x="115.615385" y="0" width="9.73603239" height="9.73603239" rx="2.4340081"></rect>
                <rect id="Rectangle" fill="#FFB842" x="69.3692308" y="23.1230769" width="33.5893117" height="33.5893117" rx="11.6832389"></rect>
                <path d="M82.5128745,45.0291498 C81.7096518,45.0291498 81.0524696,45.686332 81.0524696,46.4895547 C81.0524696,47.2927773 81.7096518,47.9499595 82.5128745,47.9499595 C83.3160972,47.9499595 83.9732794,47.2927773 83.9732794,46.4895547 C83.9732794,45.686332 83.3160972,45.0291498 82.5128745,45.0291498 Z M78.1316599,33.3459109 L78.1316599,34.8063158 L79.5920648,34.8063158 L82.2207935,40.3558543 L81.1985101,42.1083401 C81.1254899,42.3274008 81.0524696,42.6194818 81.0524696,42.8385425 C81.0524696,43.6417652 81.7096518,44.2989474 82.5128745,44.2989474 L91.2753036,44.2989474 L91.2753036,42.8385425 L82.8049555,42.8385425 C82.7319352,42.8385425 82.658915,42.7655223 82.658915,42.692502 L82.658915,42.6194531 L83.3160972,41.378109 L88.7195951,41.378109 C89.3037571,41.378109 89.7418785,41.086028 89.9609393,40.6479066 L92.589668,35.9016194 C92.7357085,35.7555789 92.7357085,35.6825587 92.7357085,35.5365182 C92.7357085,35.0983968 92.4436275,34.8063158 92.0055061,34.8063158 L81.1985101,34.8063158 L80.5413279,33.3459109 L78.1316599,33.3459109 Z M89.8148988,45.0291498 C89.0116761,45.0291498 88.3544939,45.686332 88.3544939,46.4895547 C88.3544939,47.2927773 89.0116761,47.9499595 89.8148988,47.9499595 C90.6181215,47.9499595 91.2753036,47.2927773 91.2753036,46.4895547 C91.2753036,45.686332 90.6181215,45.0291498 89.8148988,45.0291498 Z" id="Shape" fill="#FFFFFF" fill-rule="nonzero"></path>
                <line x1="73.6169739" y1="113.368419" x2="48.7758346" y2="220.618494" id="Path" stroke="#D6DAE1" stroke-width="2.5235796" stroke-linecap="round"></line>
                <path d="M150.222267,224.235961 C233.187414,224.235961 300.444786,223.348772 300.444786,222.256847 C300.444786,221.164922 233.187414,220.277733 150.222267,220.277733 C67.2568677,220.277733 0,221.164922 0,222.256847 C0,223.348772 67.2568677,224.235961 150.222267,224.235961 Z" id="Path" fill="#EBF4FF" fill-rule="nonzero"></path>
                <line x1="96.6749497" y1="113.368419" x2="70.5600882" y2="220.618494" id="Path" stroke="#D6DAE1" stroke-width="2.5235796" stroke-linecap="round"></line>
                <line x1="182.59305" y1="113.27237" x2="203.901567" y2="220.368727" id="Path" stroke="#D6DAE1" stroke-width="2.5235796" stroke-linecap="round"></line>
                <line x1="54.264893" y1="113.307757" x2="220.262833" y2="113.307757" id="Path" stroke="#D6DAE1" stroke-width="2.5235796"></line>
                <path d="M173.948823,52.594047 C174.391812,52.7644275 183.762743,66.5311773 183.762743,66.5311773 L193.576664,55.320136 L180.764045,45.7788243 L173.948823,52.594047 Z" id="XMLID_604_" fill="#FFB394" fill-rule="nonzero"></path>
                <path d="M176.947521,56.6831806 C175.380019,54.4341571 174.085127,52.6621992 173.914747,52.594047 L176.436379,50.0383385 C177.492738,52.1169814 177.867576,54.7408421 176.947521,56.6831806 Z" id="XMLID_603_" fill="#000000" fill-rule="nonzero" opacity="0.274786086"></path>
                <path d="M178.61725,30.4786494 C175.891161,27.7866364 168.97371,29.0133765 165.327566,31.8076178 C163.725989,33.0343579 162.260716,32.2165312 162.533325,33.8521846 C163.180771,37.9072421 165.327566,50.9583935 167.849198,53.1051887 C172.279093,56.819485 178.106109,52.900732 179.878066,48.1982283 C181.615948,43.4616486 182.501927,34.3292502 178.61725,30.4786494 Z" id="XMLID_602_" fill="#FFB394" fill-rule="nonzero"></path>
                <path d="M161.033976,34.4833165 C163.373434,37.3846946 168.155365,36.2893493 171.188139,34.7559242 C172.005966,38.2316878 174.289584,45.5062154 181.138883,45.983281 C183.899048,39.8155045 183.626439,30.5468016 179.639534,30.8534866 C178.637905,24.9816624 168.764713,26.1493177 165.118569,28.9776351 C161.545117,27.9910931 159.486657,31.1227393 161.033976,34.4833165 Z" id="XMLID_601_" fill="#042C5C" fill-rule="nonzero"></path>
                <path d="M178.889859,38.6909927 C177.765347,36.8168065 174.391812,36.3397409 172.449474,38.6228405 C172.824311,40.9740923 173.130996,43.291268 173.437681,45.676596 C174.766649,46.0173571 177.322358,45.5743676 178.583174,44.1431709 C179.980295,42.5075174 180.082523,40.7014834 178.889859,38.6909927 Z" id="XMLID_599_" fill="#FFB394" fill-rule="nonzero"></path>
                <path d="M162.908162,44.6445765 C162.805934,43.7245215 163.589684,43.0089231 164.475663,43.0429992 C164.748272,43.0429992 164.986805,43.3837603 164.952729,43.6222931 C164.952729,43.6563692 164.918653,43.6563692 164.918653,43.6904453 C165.020881,43.6904453 165.089033,43.7245215 165.191262,43.7245215 C165.838708,43.9289781 165.46387,44.9171854 164.816424,44.7127287 C164.816424,44.7127287 164.782348,44.7468049 164.8505,44.7468049 C165.361642,44.8149571 165.497947,45.5646316 165.020881,45.7690883 C164.100826,46.1439255 163.01039,45.5987077 162.908162,44.6445765 Z" id="XMLID_595_" fill="#FFB394" fill-rule="nonzero"></path>
                <path d="M166.612722,40.4872907 C166.510494,40.9984324 166.374189,41.475498 166.271961,41.9866397 C166.203809,42.2592486 166.646798,42.395553 166.714951,42.1229441 C166.817179,41.6118024 166.953483,41.1347368 167.055712,40.6235951 C167.089788,40.3169101 166.646798,40.1806057 166.612722,40.4872907 Z" id="XMLID_545_" stroke="#042C5C" stroke-width="0.608502024" fill="#042C5C" fill-rule="nonzero" transform="translate(166.661219, 41.292979) rotate(-19.000000) translate(-166.661219, -41.292979) "></path>
                <path d="M176.368227,39.7814283 C176.061542,40.1562656 175.754857,40.5311028 175.448172,40.9400162 C175.448172,40.9400162 175.448172,40.9400162 175.448172,40.9400162 L175.209639,41.2467012 C175.039258,41.485234 175.345943,41.791919 175.5504,41.5874623 C175.925237,41.1103968 176.334151,40.6333312 176.708988,40.1221895 C176.879368,39.8836567 176.538607,39.5428955 176.368227,39.7814283 Z" id="XMLID_543_" fill="#042C5C" fill-rule="nonzero"></path>
                <path d="M167.267976,37.9720476 C166.893139,37.9038953 166.518302,37.8357431 166.109388,37.7335148 C165.870855,37.6994387 165.598246,37.801667 165.530094,38.0401998 C165.461942,38.2787326 165.598246,38.5513415 165.836779,38.6194937 C166.211617,38.687646 166.586454,38.7557982 166.995367,38.8580265 C167.2339,38.8921026 167.506509,38.7898743 167.574661,38.5513415 C167.642813,38.3128087 167.506509,38.0061237 167.267976,37.9720476 Z" id="XMLID_539_" fill="#042C5C" fill-rule="nonzero"></path>
                <path d="M180.423284,71.5744421 C171.324962,83.8418429 168.939634,90.2822283 168.939634,90.2822283 C168.939634,90.2822283 158.989409,69.9728648 154.968428,65.8155789 C154.968428,65.8155789 143.212168,61.5901409 141.746896,63.736936 C140.281623,65.8837312 140.894993,70.1091692 141.780972,72.6308016 C142.666951,75.152434 146.108638,76.5495547 149.414021,76.2087935 C149.414021,76.2087935 157.012994,111.375343 163.725989,112.840615 C170.404907,114.305888 177.117901,113.488062 177.935728,113.385833 C182.433775,112.840615 199.948897,79.650481 199.982973,78.5259692 C199.982973,77.4014575 180.423284,71.5744421 180.423284,71.5744421 Z" id="XMLID_548_" fill="#ECA182" fill-rule="nonzero"></path>
                <path d="M169.961917,92.3608713 C169.723385,91.7815773 169.484852,91.1682073 169.246319,90.5889134 C169.144091,90.3503806 168.735177,90.4526089 168.837406,90.6911417 C169.075938,91.2704356 169.314471,91.8838057 169.553004,92.4630996 C169.655232,92.7016324 170.064146,92.599404 169.961917,92.3608713 Z" id="XMLID_164_" fill="#FFFFFF" fill-rule="nonzero"></path>
                <rect id="XMLID_170_" fill="#1E63F8" fill-rule="nonzero" transform="translate(148.123068, 68.095690) rotate(8.870752) translate(-148.123068, -68.095690) " x="143.097038" y="61.6896318" width="10.0520596" height="12.8121166"></rect>
                <path d="M147.164998,63.7710121 C146.79016,66.2926445 146.415323,68.7802008 146.074562,71.3018332 C146.00641,71.8129749 146.79016,72.0515077 146.892389,71.540366 C147.267226,69.0187336 147.642063,66.5311773 147.982824,64.0095449 C148.050977,63.4643271 147.23315,63.2257943 147.164998,63.7710121 Z" id="XMLID_166_" fill="#FFFFFF" fill-rule="nonzero"></path>
                <path d="M150.504457,54.0252437 C148.664347,54.9112227 147.744291,57.0580178 148.357662,59.0003563 C148.528042,59.511498 149.311793,59.3070413 149.175488,58.7618235 C148.664347,57.1602462 149.448097,55.4564405 150.947446,54.7408421 C151.424512,54.5023093 150.981522,53.7867109 150.504457,54.0252437 Z" id="XMLID_141_" fill="#EBF4FF" fill-rule="nonzero"></path>
                <path d="M151.663045,55.4564405 C150.470381,56.2401911 149.857011,57.5691595 150.061467,58.9662802 C150.129619,59.511498 150.947446,59.2729652 150.879294,58.7277474 C150.742989,57.705464 151.220055,56.7172567 152.106034,56.1720389 C152.514947,55.89943 152.106034,55.1838316 151.663045,55.4564405 Z" id="XMLID_140_" fill="#EBF4FF" fill-rule="nonzero"></path>
                <path d="M143.416625,63.5324794 C143.007712,63.3961749 142.803255,63.8732405 142.973636,64.1458494 C142.701027,64.1458494 142.462494,64.2140016 142.223961,64.4184583 C141.542439,64.9636761 141.644667,66.0881879 142.360266,66.5652534 C142.428418,66.6334057 142.530646,66.6334057 142.598798,66.6334057 C142.632874,67.0082429 142.701027,67.3830802 142.837331,67.6556891 C142.837331,67.6897652 142.803255,67.7579174 142.803255,67.7919935 C142.564722,67.8260696 142.326189,67.9623741 142.087657,68.2009069 C141.917276,68.3712874 141.780972,68.6779725 141.712819,69.0187336 C141.031297,69.9387887 140.247547,71.1314526 140.82684,72.3241166 C141.167602,73.0056389 141.917276,73.4486283 142.701027,73.2441717 C143.825538,72.9374866 144.1663,71.6766704 143.825538,70.654387 C143.859615,70.5862348 143.859615,70.5180826 143.893691,70.4499304 C143.927767,70.347702 143.961843,70.2795498 143.995919,70.1773215 C144.064071,70.0069409 144.098147,69.8024842 144.132223,69.5639514 C144.541137,69.1209619 144.745594,68.5757441 144.745594,67.9964502 C145.086355,67.621613 145.358964,67.1445474 145.461192,66.735634 C145.767877,65.3044372 144.77967,64.0095449 143.416625,63.5324794 Z M142.803255,65.0659045 C142.803255,65.1340567 142.803255,65.1681328 142.803255,65.236285 C142.803255,65.3385134 142.837331,65.4066656 142.871407,65.4748178 C142.803255,65.54297 142.769179,65.6451984 142.735103,65.7474267 C142.530646,65.54297 142.598798,65.2022089 142.803255,65.0659045 Z" id="XMLID_167_" fill="#ECA182" fill-rule="nonzero"></path>
                <path d="M144.268528,67.1104713 C143.178092,66.8378623 142.394342,65.9518834 142.189885,64.8614478 C142.155809,64.6569911 141.815048,64.7251433 141.849124,64.9636761 C142.053581,66.1563401 142.973636,67.1445474 144.1663,67.4512324 C144.404832,67.4853085 144.472985,67.1445474 144.268528,67.1104713 Z" id="XMLID_209_" fill="#042C5C" fill-rule="nonzero"></path>
                <path d="M143.246245,69.2913425 C142.530646,69.1209619 141.985428,68.6098202 141.780972,67.928298 C141.712819,67.7238413 141.406134,67.7919935 141.440211,68.0305263 C141.678743,68.848353 142.326189,69.4617231 143.144016,69.6321036 C143.382549,69.6661798 143.450701,69.3254186 143.246245,69.2913425 Z" id="XMLID_210_" fill="#042C5C" fill-rule="nonzero"></path>
                <path d="M143.10994,71.8129749 C142.428418,71.6766704 141.8832,71.1314526 141.780972,70.4158543 C141.746896,70.2113976 141.406134,70.2795498 141.440211,70.5180826 C141.576515,71.3359093 142.223961,71.9833555 143.007712,72.153736 C143.246245,72.1878121 143.348473,71.847051 143.10994,71.8129749 Z" id="XMLID_211_" fill="#042C5C" fill-rule="nonzero"></path>
                <path d="M158.853104,71.8811271 C158.750876,69.8706364 157.796745,67.2467757 156.092939,65.8155789 C151.35636,62.7828049 150.742989,62.4420437 150.163696,62.9531854 C149.005108,63.9754688 149.993315,65.236285 151.049674,65.9859595 C151.254131,66.3267206 152.037882,67.1445474 152.208262,67.2808518 C152.276415,67.5534607 154.252829,71.8811271 154.832123,72.5967255 C155.03658,72.8693344 155.411417,72.7671061 155.547721,72.5626494 C155.888483,72.6308016 156.26332,72.5626494 156.535929,72.3581927 C157.115223,72.2900405 157.558212,71.9492794 157.864897,71.5062899 C157.933049,71.7107466 157.967126,71.8811271 158.035278,72.0855838 C158.171582,72.4604211 158.887181,72.3241166 158.853104,71.8811271 Z" id="XMLID_169_" fill="#ECA182" fill-rule="nonzero"></path>
                <path d="M154.729895,71.7788988 C154.355057,71.0633004 153.946144,70.347702 153.571307,69.6321036 C153.469079,69.427647 153.162394,69.5980275 153.264622,69.8024842 L154.42321,71.9492794 C154.559514,72.153736 154.832123,71.9833555 154.729895,71.7788988 Z" id="XMLID_212_" fill="#042C5C" fill-rule="nonzero"></path>
                <path d="M172.006484,220.044068 C170.438983,213.058465 159.500551,164.602232 150.708913,147.564175 L140.963145,145.894445 L159.705007,220.044068 L172.006484,220.044068 L172.006484,220.044068 Z" id="XMLID_197_" fill="#FFB394" fill-rule="nonzero"></path>
                <path d="M172.006484,220.044068 C171.665723,218.442491 170.81382,214.694118 169.621156,209.650853 C165.838708,211.252431 161.681422,211.968029 157.592288,211.69542 L159.705007,220.078144 L172.006484,220.078144 L172.006484,220.044068 Z" id="XMLID_195_" fill="#2252B2" fill-rule="nonzero"></path>
                <path d="M165.566099,193.260243 C161.306585,176.733328 155.684026,157.173639 150.708913,147.530099 L140.963145,145.860369 L153.19647,194.316602 C157.353755,194.043994 161.476965,193.703232 165.566099,193.260243 Z" id="XMLID_196_" fill="#CF5C46" fill-rule="nonzero"></path>
                <path d="M221.042011,114.476269 C207.820479,114.237736 194.564871,113.556214 181.343339,113.999203 C181.547796,116.588988 181.650024,118.122413 181.650024,118.122413 C181.650024,118.122413 174.971106,118.974316 148.187281,121.052959 C121.403456,123.131602 113.872635,129.844596 126.446721,168.725441 C139.020806,207.606287 145.427116,209.719006 137.58961,211.661344 C127.537156,214.182977 126.514873,218.238034 126.583025,220.009992 L161.78365,220.009992 C158.410115,174.552457 150.265924,151.55108 150.265924,151.55108 C150.265924,151.55108 150.265924,151.55108 174.119203,151.959994 C229.901801,152.982277 223.870329,135.364926 221.042011,114.476269 Z" id="XMLID_193_" fill="#FFB394" fill-rule="nonzero"></path>
                <path d="M221.042011,114.476269 C207.820479,114.237736 194.564871,113.556214 181.343339,113.999203 C181.547796,116.588988 181.650024,118.122413 181.650024,118.122413 C181.650024,118.122413 174.971106,118.974316 148.187281,121.052959 C121.403456,123.131602 113.872635,129.844596 126.446721,168.725441 C131.455909,184.264149 135.476891,193.907689 138.032599,200.041389 C145.188583,198.916878 152.378643,198.133127 159.568703,197.349377 C155.752178,166.919407 150.3,151.55108 150.3,151.55108 C150.3,151.55108 150.33208,150.844373 174.153279,151.959994 C231.319735,154.637275 224.620003,148.382002 221.042011,114.476269 Z" id="XMLID_192_" fill="#EA6F57" fill-rule="nonzero"></path>
                <path d="M161.817726,220.044068 C161.579194,217.04537 161.340661,214.1489 161.102128,211.354659 C159.023485,211.933953 156.910766,212.240638 154.661743,212.13841 C150.061467,211.968029 145.461192,210.230147 140.82684,209.889386 C140.417927,210.775365 139.395644,211.252431 137.58961,211.69542 C127.537156,214.217053 126.514873,218.27211 126.583025,220.044068 L161.817726,220.044068 L161.817726,220.044068 Z" id="XMLID_191_" fill="#2252B2" fill-rule="nonzero"></path>
                <path d="M149.175488,150.596949 C152.174186,160.615326 154.389134,170.906313 155.718102,181.299527 C155.752178,181.572136 156.161091,181.572136 156.127015,181.299527 C154.798047,170.906313 152.617176,160.649402 149.618478,150.596949 C149.448097,150.562873 149.311793,150.596949 149.175488,150.596949 Z" id="XMLID_130_" fill="#FFFFFF" fill-rule="nonzero"></path>
                <path d="M189.48753,118.735783 L183.35383,118.94024 C183.081221,118.94024 183.081221,119.383229 183.35383,119.349153 L189.48753,119.144696 C189.760139,119.144696 189.760139,118.735783 189.48753,118.735783 Z" id="XMLID_129_" fill="#FFFFFF" fill-rule="nonzero"></path>
                <path d="M162.737781,212.785856 C162.703705,212.513247 162.294792,212.513247 162.328868,212.785856 C162.601477,215.000803 162.908162,217.249827 163.180771,219.464774 C163.214847,219.737383 163.62376,219.737383 163.589684,219.464774 C163.317075,217.249827 163.01039,215.034879 162.737781,212.785856 Z" id="XMLID_128_" fill="#FFFFFF" fill-rule="nonzero"></path>
                <path d="M221.042011,114.37404 L181.343339,114.37404 C181.309263,113.862899 181.241111,113.317681 181.207035,112.704311 C181.002578,110.489364 180.764045,107.729198 180.525513,104.628272 C180.491436,104.083054 180.423284,103.537836 180.389208,102.958543 C180.321056,102.242944 180.28698,101.49327 180.218828,100.709519 C180.184751,100.164301 180.150675,99.6190834 180.082523,99.0397895 C179.878066,96.4500049 179.707686,93.7239158 179.537305,90.9637506 C179.503229,90.4185328 179.469153,89.8392389 179.435077,89.2940211 C179.401001,88.5443466 179.332849,87.7946721 179.298772,87.0790737 C179.264696,86.5338559 179.23062,85.9545619 179.196544,85.4093441 C179.06024,82.955864 178.958011,80.5364599 178.855783,78.151132 C178.821707,77.6059142 178.821707,77.0266202 178.787631,76.4814024 C178.753555,75.7317279 178.753555,74.9820534 178.719479,74.2664551 C178.719479,73.6871611 178.685402,73.1419433 178.685402,72.5967255 C178.61725,69.3254186 178.61725,66.2585684 178.719479,63.6687838 C178.753555,63.0894899 178.753555,62.5442721 178.787631,61.9990543 C178.821707,61.6582931 178.821707,61.3516081 178.855783,61.010847 C178.889859,60.5678575 178.958011,60.1589441 179.026164,59.7500308 C179.128392,59.1707368 179.264696,58.5914429 179.435077,58.0803012 C181.172959,52.7644275 186.216223,50.1746429 189.044541,51.6739919 C190.850575,52.6621992 193.917425,54.8771466 193.917425,54.8771466 C195.28047,55.8653538 196.541286,56.9557895 197.768026,58.0803012 C198.34732,58.625519 198.926614,59.1707368 199.471832,59.7500308 C200.18743,60.4656291 200.868952,61.2153036 201.516398,61.9990543 C201.993464,62.5442721 202.47053,63.0894899 202.913519,63.6687838 C205.128466,66.428949 207.070805,69.427647 208.808687,72.5967255 C209.115372,73.1419433 209.422057,73.7212372 209.694666,74.2664551 C210.069503,75.0161296 210.44434,75.7317279 210.785101,76.4814024 C211.05771,77.0266202 211.296243,77.6059142 211.568852,78.151132 C212.625211,80.5023838 213.579343,82.955864 214.431245,85.4093441 C214.635702,85.9545619 214.806083,86.5338559 215.010539,87.0790737 C215.249072,87.8287482 215.487605,88.5443466 215.726138,89.2940211 C215.896518,89.8392389 216.066899,90.4185328 216.237279,90.9637506 C217.02103,93.6557636 217.702552,96.3477765 218.315922,99.0397895 C218.452227,99.5850073 218.554455,100.164301 218.69076,100.709519 C218.86114,101.459194 218.997445,102.208868 219.133749,102.958543 C219.235977,103.50376 219.338206,104.083054 219.440434,104.628272 C219.951576,107.354361 220.360489,110.08045 220.735326,112.704311 C220.803479,113.181377 220.871631,113.624366 220.939783,114.101432 C221.007935,114.169584 221.042011,114.271812 221.042011,114.37404 Z" id="XMLID_2045_" fill="#1E63F8" fill-rule="nonzero"></path>
                <path d="M188.635628,85.8864097 C188.022257,80.6046121 187.442964,75.3228146 186.829594,70.041017 C186.795517,69.7684081 186.386604,69.7684081 186.42068,70.041017 C187.03405,75.3228146 187.613344,80.6046121 188.226714,85.8864097 C188.363019,85.8864097 188.499323,85.8864097 188.635628,85.8864097 Z" id="XMLID_150_" fill="#FFFFFF" fill-rule="nonzero"></path>
                <path d="M221.042011,114.37404 L181.343339,114.37404 C181.309263,113.862899 181.241111,113.317681 181.207035,112.704311 L220.837555,112.704311 C220.905707,113.181377 220.973859,113.624366 221.042011,114.101432 C221.007935,114.169584 221.042011,114.271812 221.042011,114.37404 Z" id="XMLID_190_" fill="#FFFFFF" fill-rule="nonzero"></path>
                <path d="M209.933198,90.3163045 C209.728742,89.8051628 194.121882,89.2258688 189.078617,90.2481522 L189.419378,93.8602202 C172.313169,94.1328291 159.886597,95.3983108 153.749628,96.5420782 C149.592342,97.5302855 143.7317,98.5885327 141.857514,100.701252 C139.642566,103.222884 137.998523,106.042369 139.702329,107.643946 C139.497872,108.018783 140.247547,109.552208 141.065373,109.143295 C140.894993,109.415904 141.406134,110.233731 142.735103,110.301883 C143.72331,111.153786 145.548247,111.604173 146.740911,109.798139 C146.915045,109.747584 148.951112,107.778869 149.300033,107.623789 C150.330369,107.165851 150.498861,106.833524 151.714059,106.775216 C154.742295,106.629914 155.960806,107.321011 161.61327,107.252133 C161.61327,107.252133 174.766649,114.408117 200.528191,112.056865 C216.612117,110.591592 214.942387,103.060771 209.933198,90.3163045 Z" id="XMLID_171_" fill="#FFB394" fill-rule="nonzero"></path>
                <path d="M191.566173,93.9624486 C191.089108,93.8942964 190.577966,93.8261441 190.1009,93.7579919 C189.828291,93.7239158 189.726063,94.1328291 189.998672,94.1669053 C190.475738,94.2350575 190.986879,94.3032097 191.463945,94.3713619 C191.736554,94.4054381 191.838782,93.9965247 191.566173,93.9624486 Z" id="XMLID_165_" fill="#FFFFFF" fill-rule="nonzero"></path>
                <path d="M146.3668,105.338276 C145.037832,106.599093 143.91332,108.064365 143.027341,109.665943 C142.891036,109.904476 143.265874,110.108932 143.402178,109.870399 C144.288157,108.302898 145.378593,106.871702 146.673485,105.644961 C146.877942,105.440505 146.571257,105.13382 146.3668,105.338276 Z" id="XMLID_163_" fill="#042C5C" fill-rule="nonzero"></path>
                <path d="M144.460046,103.513205 C142.994773,104.978478 141.904338,106.682284 141.188739,108.624622 C141.086511,108.863155 141.495424,108.999459 141.597653,108.726851 C142.279175,106.852664 143.335534,105.182935 144.766731,103.785814 C144.971188,103.615434 144.664503,103.308748 144.460046,103.513205 Z" id="XMLID_162_" fill="#042C5C" fill-rule="nonzero"></path>
                <path d="M143.847774,102.230355 C141.462446,102.673345 140.610543,105.024597 139.963097,107.069163 C139.894945,107.341772 140.303858,107.444001 140.37201,107.171392 C140.951304,105.263129 141.735055,103.048182 143.950002,102.639269 C144.222611,102.605192 144.086307,102.196279 143.847774,102.230355 Z" id="XMLID_161_" fill="#042C5C" fill-rule="nonzero"></path>
                <path d="M211.437415,90.9296745 L188.378451,90.9296745 C188.35708,90.3844567 188.335709,89.8051628 188.314338,89.2599449 L211.138226,89.2599449 C211.223709,89.8392389 211.330562,90.3844567 211.437415,90.9296745 Z" id="Stripe" fill="#FFFFFF" fill-rule="nonzero"></path>
                <path d="M209.636249,153.712479 L157.772405,153.712479 C157.090883,153.712479 156.511589,153.167262 156.511589,152.451663 C156.511589,151.770141 157.056806,151.190847 157.772405,151.190847 L209.636249,151.190847 C215.633645,151.190847 220.813215,147.135789 222.278487,141.308774 L241.054426,65.6938785 C241.224806,65.0123563 241.906329,64.6034429 242.587851,64.7738235 C243.269373,64.944204 243.678287,65.6257263 243.507906,66.3072486 L224.731968,141.922144 C222.96001,148.873671 216.758157,153.712479 209.636249,153.712479 Z" id="XMLID_2021_" fill="#042C5C" fill-rule="nonzero"></path>
                <path d="M164.110562,152.792424 C160.634798,175.180431 157.124959,197.534361 153.649195,219.922368 C153.410662,221.489869 155.830066,222.171391 156.068599,220.60389 C159.578439,198.011427 163.122355,175.418964 166.632194,152.860577 C165.780291,152.860577 164.962465,152.8265 164.110562,152.792424 Z" id="XMLID_442_" fill="#042C5C" fill-rule="nonzero"></path>
                <path d="M139.209122,111.940032 C134.574771,100.933448 132.053138,95.276813 127.418787,84.2702283 C127.21433,83.7931628 126.396504,83.9976194 126.60096,84.5087611 C131.235312,95.5153457 133.756944,101.171981 138.391296,112.178565 C138.629828,112.655631 139.447655,112.451174 139.209122,111.940032 Z" id="XMLID_194_" stroke="#042C5C" stroke-width="1.21700405" fill="#042C5C" fill-rule="nonzero"></path>
                <path d="M169.066202,112.572874 L139.147375,112.572874 C138.602157,112.572874 138.602157,113.424777 139.147375,113.424777 L169.066202,113.424777 C169.61142,113.390701 169.61142,112.572874 169.066202,112.572874 Z" id="XMLID_513_" stroke="#042C5C" stroke-width="1.21700405" fill="#042C5C" fill-rule="nonzero"></path>
                <path d="M166.729555,47.0294191 C168.16107,46.7895095 169.517827,46.1227531 170.799826,45.0291498 C169.953226,47.8104709 168.922505,49.3909613 167.707664,49.7706211 C167.267587,48.6419545 166.94155,47.7282205 166.729555,47.0294191 Z" id="Path-29" fill="#FFFFFF"></path>
            </g>
            <g id="Group-6" transform="translate(69.369231, 45.029150)"></g>
            <g id="Chair_3" transform="translate(212.975709, 172.497571)" fill="#042C5C" fill-rule="nonzero">
                <path d="M14.0734348,69.6034785 C10.4272907,46.4317215 6.78114656,23.2599644 3.13500243,0.0882072875 C2.38532794,0.497120648 1.60157733,0.803805668 0.749674494,1.07641457 C4.36174251,23.9414866 7.93973441,46.8406348 11.5518024,69.7057069 C11.8244113,71.3072842 14.3460437,71.2050559 14.0734348,69.6034785 Z" id="XMLID_154_"></path>
            </g>
            <g id="Group-5" transform="translate(211.758704, 0.000000)"></g>
            <g id="Man_2" transform="translate(120.483401, 51.114170)">
                <g id="Head_2_" transform="translate(40.550575, 0.000000)"></g>
                <g id="Hand_2_" transform="translate(20.104907, 25.897846)">
                    <g id="Cup_1_" transform="translate(1.363045, 0.000000)"></g>
                    <g id="XMLID_29_" transform="translate(0.000000, 8.859789)"></g>
                </g>
                <g id="Legs_2_" transform="translate(0.000000, 85.531045)"></g>
                <g id="Body" transform="translate(60.363401, 82.804955)">
                    <g id="XMLID_208_" transform="translate(0.000000, 0.730202)"></g>
                </g>
                <g id="Hand" transform="translate(18.401101, 60.996243)">
                    <g id="XMLID_67_" transform="translate(0.000000, 0.681522)"></g>
                </g>
            </g>
            <g id="Notebook_1_" transform="translate(126.568421, 98.577328)"></g>
        </g>
    </g>
</svg>