<?xml version="1.0" encoding="UTF-8"?>
<svg width="809px" height="809px" viewBox="0 0 809 809" version="1.1" xmlns="http://www.w3.org/2000/svg" xmlns:xlink="http://www.w3.org/1999/xlink">
    <!-- Generator: Sketch 60 (88103) - https://sketch.com -->
    <title>img-pagacuentas</title>
    <desc>Created with Sketch.</desc>
    <defs>
        <rect id="path-1" x="0" y="0" width="809" height="809" rx="404.5"></rect>
        <linearGradient x1="142.237234%" y1="12.787264%" x2="23.9091967%" y2="95.7466919%" id="linearGradient-3">
            <stop stop-color="#114DCD" offset="0%"></stop>
            <stop stop-color="#1E63F8" offset="100%"></stop>
        </linearGradient>
        <filter x="-131.0%" y="-131.0%" width="361.9%" height="361.9%" filterUnits="objectBoundingBox" id="filter-4">
            <feOffset dx="0" dy="19" in="SourceAlpha" result="shadowOffsetOuter1"></feOffset>
            <feGaussianBlur stdDeviation="12" in="shadowOffsetOuter1" result="shadowBlurOuter1"></feGaussianBlur>
            <feColorMatrix values="0 0 0 0 0   0 0 0 0 0   0 0 0 0 0  0 0 0 0.118143575 0" type="matrix" in="shadowBlurOuter1" result="shadowMatrixOuter1"></feColorMatrix>
            <feMerge>
                <feMergeNode in="shadowMatrixOuter1"></feMergeNode>
                <feMergeNode in="SourceGraphic"></feMergeNode>
            </feMerge>
        </filter>
        <rect id="path-5" x="0" y="0" width="63" height="63" rx="20"></rect>
        <filter x="-60.3%" y="-34.9%" width="220.6%" height="220.6%" filterUnits="objectBoundingBox" id="filter-6">
            <feOffset dx="0" dy="16" in="SourceAlpha" result="shadowOffsetOuter1"></feOffset>
            <feGaussianBlur stdDeviation="10" in="shadowOffsetOuter1" result="shadowBlurOuter1"></feGaussianBlur>
            <feColorMatrix values="0 0 0 0 0   0 0 0 0 0   0 0 0 0 0  0 0 0 0.118143575 0" type="matrix" in="shadowBlurOuter1"></feColorMatrix>
        </filter>
        <filter x="-107.8%" y="-107.8%" width="315.6%" height="315.6%" filterUnits="objectBoundingBox" id="filter-7">
            <feOffset dx="0" dy="16" in="SourceAlpha" result="shadowOffsetOuter1"></feOffset>
            <feGaussianBlur stdDeviation="10" in="shadowOffsetOuter1" result="shadowBlurOuter1"></feGaussianBlur>
            <feColorMatrix values="0 0 0 0 0   0 0 0 0 0   0 0 0 0 0  0 0 0 0.118143575 0" type="matrix" in="shadowBlurOuter1" result="shadowMatrixOuter1"></feColorMatrix>
            <feMerge>
                <feMergeNode in="shadowMatrixOuter1"></feMergeNode>
                <feMergeNode in="SourceGraphic"></feMergeNode>
            </feMerge>
        </filter>
        <filter x="-123.1%" y="-123.1%" width="346.3%" height="346.3%" filterUnits="objectBoundingBox" id="filter-8">
            <feOffset dx="0" dy="19" in="SourceAlpha" result="shadowOffsetOuter1"></feOffset>
            <feGaussianBlur stdDeviation="12" in="shadowOffsetOuter1" result="shadowBlurOuter1"></feGaussianBlur>
            <feColorMatrix values="0 0 0 0 0   0 0 0 0 0   0 0 0 0 0  0 0 0 0.118143575 0" type="matrix" in="shadowBlurOuter1" result="shadowMatrixOuter1"></feColorMatrix>
            <feMerge>
                <feMergeNode in="shadowMatrixOuter1"></feMergeNode>
                <feMergeNode in="SourceGraphic"></feMergeNode>
            </feMerge>
        </filter>
    </defs>
    <g id="desktop-🖥" stroke="none" stroke-width="1" fill="none" fill-rule="evenodd">
        <g id="img-pagacuentas">
            <mask id="mask-2" fill="white">
                <use xlink:href="#path-1"></use>
            </mask>
            <use id="Mask" fill="#F6F8FA" xlink:href="#path-1"></use>
            <path d="M85.3930641,426 L73.6069359,426 C70.5104806,426 68,423.520936 68,420.46323 L68,409.538705 C68,406.480999 70.5104806,404 73.6069359,404 L85.3930641,404 C88.4895194,404 91,406.480999 91,409.538705 L91,420.46323 C91,423.520936 88.4895194,426 85.3930641,426" id="Fill-18" fill="url(#linearGradient-3)" opacity="0.290829613" mask="url(#mask-2)"></path>
            <path d="M560.100098,415.376221 C561.322428,405.131721 564.374,397.350772 581.381,395.155772 C581.381,395.155772 601.018,392.810772 606.92,406.317772 C606.92,406.317772 613.690579,415.453974 604.98761,418.814252 C601.577759,420.13082 592.873793,416.799419 586.64748,415.376221 C570.515137,411.688721 566.013468,416.649902 560.100098,415.376221 Z" id="Fill-58" fill="#042C5C" mask="url(#mask-2)"></path>
            <g id="Teammates-11" mask="url(#mask-2)">
                <g transform="translate(-215.000000, 244.000000)">
                    <g id="Window_3" stroke-width="1" fill="none" fill-rule="evenodd" transform="translate(807.000000, 330.000000)">
                        <rect id="XMLID_463_" fill="#FFFFFF" fill-rule="nonzero" x="0.1" y="195.6" width="124" height="82.7"></rect>
                        <path d="M127.1,4.5 C127.3,6.9 125.1,8.9 122.7,8.9 C120.3,8.9 118.3,6.9 118.3,4.5 C118.3,2.1 120.3,0.1 122.7,0.1 C125.1,0.1 126.9,1.6 127.1,4.5 Z" id="XMLID_399_" fill="#D24A43" fill-rule="nonzero"></path>
                        <path d="M110.4,4.5 C110.6,6.9 108.4,8.9 106,8.9 C103.6,8.9 101.6,6.9 101.6,4.5 C101.6,2.1 103.6,0.1 106,0.1 C108.4,0.1 110.1,1.6 110.4,4.5 Z" id="XMLID_398_" fill="#D24A43" fill-rule="nonzero"></path>
                    </g>
                    <g id="Window_2" stroke-width="1" fill="none" fill-rule="evenodd" transform="translate(944.000000, 372.000000)">
                        <path d="M21.8,111.1 L1.7,111.1 C1.1,111.1 0.6,110.6 0.6,110 C0.6,109.4 1.1,108.9 1.7,108.9 L20.7,108.9 L20.7,89.9 C20.7,89.3 21.2,88.8 21.8,88.8 C22.4,88.8 22.9,89.3 22.9,89.9 L22.9,110 C22.9,110.6 22.5,111.1 21.8,111.1 Z" id="XMLID_630_" fill="#003865" fill-rule="nonzero"></path>
                        <path d="M21.8,22.9 C21.2,22.9 20.7,22.4 20.7,21.8 L20.7,2.8 L1.7,2.8 C1.1,2.8 0.6,2.3 0.6,1.7 C0.6,1.1 1.1,0.6 1.7,0.6 L21.8,0.6 C22.4,0.6 22.9,1.1 22.9,1.7 L22.9,21.8 C22.9,22.4 22.5,22.9 21.8,22.9 Z" id="XMLID_629_" fill="#003865" fill-rule="nonzero"></path>
                    </g>
                    <g id="Scheme" stroke-width="1" fill="none" fill-rule="evenodd" transform="translate(368.000000, 174.000000)"></g>
                    <g id="Window_1" stroke-width="1" fill="none" fill-rule="evenodd" transform="translate(0.000000, 321.000000)"></g>
                    <g id="Ornament" stroke-width="1" fill="none" fill-rule="evenodd" transform="translate(98.000000, 281.000000)">
                        <path d="M227,361.4 C193.3,361.4 172.1,340.2 168.9,303.4 L168.9,303.4 C167.7,289.3 172.5,275.6 182.5,264.7 C193.7,252.5 210.3,245.2 227,245.2 C259.1,245.2 285.100286,271.3 285.100286,303.3 C285.2,335.3 259.1,361.4 227,361.4 Z M171.1,303.2 C174.2,338.8 194.6,359.2 227,359.2 C257.8,359.2 282.9,334.1 282.9,303.3 C282.9,272.5 257.8,247.4 227,247.4 C210.9,247.4 194.9,254.4 184.2,266.2 C174.6,276.6 170,289.8 171.1,303.2 L171.1,303.2 Z" id="XMLID_625_" fill="#DEE7FF" fill-rule="nonzero"></path>
                        <path d="M888.2,8.7 C882.7,14.4 877.2,20 871.7,25.7 C870.7,26.7 872.3,28.3 873.3,27.3 C878.8,21.6 884.3,16 889.8,10.3 C890.8,9.2 889.2,7.6 888.2,8.7 Z" id="XMLID_83_" fill="#DEE7FF" fill-rule="nonzero"></path>
                        <path d="M880.3,0.8 C876.9,5.2 873.4,9.6 870,14.1 C869.1,15.2 870.5,16.7 871.6,15.7 C872.2,15.1 872.7,14.6 873.3,14 C873.6,13.7 873.7,13.4 873.6,13.1 C876.4,9.6 879.1,6 881.9,2.5 C882.8,1.3 881.2,-0.3 880.3,0.8 Z" id="XMLID_66_" fill="#DEE7FF" fill-rule="nonzero"></path>
                    </g>
                    <g id="Man_1" stroke-width="1" fill="none" fill-rule="evenodd" transform="translate(273.000000, 123.000000)">
                        <g id="Legs_2_" transform="translate(43.000000, 228.000000)" fill-rule="nonzero">
                            <path d="M193.9,20.4 L67.6,13.7 L125.7,330 C103.7,342.8 70.8,389.2 44.3,431 C66.8,449.3 91.3,465.1 112.5,484.8 C139.1,452.2 174.2,396.2 201.7,356.9 C248.6,289.7 228.5,156.7 193.9,20.4 Z" id="XMLID_439_" fill="#FFB944"></path>
                            <path d="M47.5,388.1 C46.7,391.3 47,441.1 51.7,495.3 C73.2,492.9 94.7,491.1 116.2,488.6 C116.8,466 122.2,430.2 128,370.2 C140.3,243.9 147,-0.8 143.6,0.296303884 C140.2,1.4 25.1,22.7 25.1,22.7 C25.1,108.7 48.6,383.6 47.5,388.1 Z" id="XMLID_437_" fill="#FFB944"></path>
                            <path d="M132.7,312.4 C130.3,355.3 126.3,398 120.7,440.6 C120.6,441.3 119.5,441.3 119.6,440.6 C122.7,416.6 125.4,392.5 127.5,368.4 C131.3,325.6 133.5,282.7 134.2,239.8 C134.8,201.8 134.1,163.7 132.2,125.7 C132.2,125.3 132.2,124.9 132.1,124.5 C132.5,124.4 132.8,124.3 133.2,124.2 C133.2,124.6 133.2,125 133.3,125.4 C134.3,144.8 134.9,164.2 135.3,183.6 C135.9,226.5 135.1,269.5 132.7,312.4 Z" id="XMLID_341_" fill="#042C5C"></path>
                            <path d="M160.4,117.7 C151.4,120.2 142.3,122.8 133.3,125.3 C132.9,125.4 132.6,125.5 132.2,125.6 C132.2,125.2 132.2,124.8 132.1,124.4 C132.5,124.3 132.8,124.2 133.2,124.1 C142.2,121.6 151.1,119.1 160.1,116.5 C160.8,116.5 161.1,117.5 160.4,117.7 Z" id="XMLID_340_" fill="#042C5C"></path>
                        </g>
                        <g id="Body_2_" transform="translate(61.000000, 74.000000)" fill-rule="nonzero">
                            <path d="M98.3,0.8 C161.9,5.3 193.4,-1.4 196.3,43.4 C199.7,96 207.7,193.6 204.4,193.500077 C201,193.4 11.1,188.8 11.1,188.8 L0,61.1 L98.3,0.8 Z" id="XMLID_424_" fill="#BFC5D2"></path>
                            <path d="M116,33.4 C113.8,37 111.5,40.6 109.3,44.2 C99.8,30.2 90.4,16.1 80.9,2.1 C80.5,1.5 79.5,2.1 79.9,2.7 C89.5,17 99.1,31.3 108.8,45.6 C109,45.9 109.5,46 109.8,45.6 L117,34.1 C117.3,33.4 116.4,32.8 116,33.4 Z" id="XMLID_329_" fill="#FFFFFF"></path>
                            <path d="M131.1,11.1 C129.8,20.8 128.4,30.5 127.1,40.2 C124.7,37.7 122.3,35.1 119.9,32.6 C119.4,32.1 118.6,32.9 119.1,33.4 L127.1,41.9 C127.4,42.2 128,42.1 128,41.7 L132.2,11.5 C132.3,10.7 131.2,10.4 131.1,11.1 Z" id="XMLID_328_" fill="#FFFFFF"></path>
                            <path d="M117.4,37.3 C116.1,75.2 114.9,113.1 113.6,150.9 C113.2,161.8 112.9,172.7 112.5,183.6 C112.5,184.3 113.6,184.3 113.6,183.6 C114.9,145.7 116.1,107.8 117.4,70 C117.8,59.1 118.1,48.2 118.5,37.3 C118.5,36.6 117.4,36.6 117.4,37.3 Z" id="XMLID_327_" fill="#FFFFFF"></path>
                        </g>
                        <g id="Hand_3_" transform="translate(0.000000, 71.000000)" fill-rule="nonzero">
                            <path d="M99.1,273 C103.7,262.7 108.4,252.5 113,242.2 L80,145.5 L159.4,3.8 C69.1,-2.8 60.3,-7.6 28.6,66.2 C-3.1,140 -16.2,137.2 37,219.8 C57.8,252.2 92.9,292.4 90.6,290.3 C93.1,284.5 96,278.7 99.1,273 Z" id="XMLID_423_" fill="#CC7C79"></path>
                            <path d="M46,196.2 C60.1,186.8 74.8,178.5 89.1,169.5 L81.5,146.4 L159.3,3.8 C69,-2.8 60.2,-7.6 28.5,66.2 C-1.6,136.3 -14.9,137.3 29.4,208.1 C34.9,204 40.4,200 46,196.2 Z" id="XMLID_422_" fill="#BFC5D2"></path>
                            <rect id="XMLID_345_" fill="#BFC5D2" transform="translate(55.513270, 184.303740) rotate(-33.423090) translate(-55.513270, -184.303740) " x="17.1644627" y="173.70407" width="76.6976146" height="21.1993407"></rect>
                            <path d="M83.2,162.6 C80.9,157.5 78.7,152.4 76.4,147.3 C76.2,146.8 75.9,146.2 75.7,145.7 C73.1,140 70.6,134.2 68,128.5 C67.7,127.9 68.7,127.3 69,127.9 C71.4,133.3 73.8,138.7 76.2,144 C76.4,144.5 76.7,145.1 76.9,145.6 C79.3,151.1 81.8,156.5 84.2,161.9 C84.4,162.7 83.5,163.3 83.2,162.6 Z" id="XMLID_333_" fill="#FFFFFF"></path>
                            <path d="M92.1,170 C91,166.6 89.9,163.3 88.7,159.9 C88.5,159.2 87.4,159.5 87.6,160.2 C88.7,163.6 89.8,166.9 91,170.3 C91.2,171 92.3,170.7 92.1,170 Z" id="XMLID_332_" fill="#FFFFFF"></path>
                            <path d="M99,69.7 L76.8,145.7 L76.3,147.3 C76.1,146.8 75.8,146.2 75.6,145.7 C75.8,145.2 75.9,144.6 76.1,144.1 C83.4,119.2 90.6,94.3 97.9,69.4 C98.1,68.8 99.2,69.1 99,69.7 Z" id="XMLID_331_" fill="#FFFFFF"></path>
                            <path d="M76.9,164.3 C60.1,173.4 43.4,182.5 26.6,191.6 C26,191.9 26.5,192.9 27.2,192.6 C44,183.5 60.7,174.4 77.5,165.3 C78.1,164.9 77.6,163.9 76.9,164.3 Z" id="XMLID_330_" fill="#FFFFFF"></path>
                        </g>
                        <g id="Head" transform="translate(143.000000, 0.000000)">
                            <path d="M25.3,48 C24.6,49.3 10.4,63.4 0.4,74 L35.7,103 L56.9,64.4 L25.3,48 Z" id="XMLID_381_" fill="#CC7C79" fill-rule="nonzero"></path>
                            <path d="M23.2,12.9 C31.6,-0.4 70,3 71.3,18.5 C72.2,30.1 74.7,62.2 69.3,68.5 C58.6,81.1 40.1,74.7 31.9,62.8 C23.6,50.7 14.9,26.1 23.2,12.9 Z" id="XMLID_380_" fill="#CC7C79" fill-rule="nonzero"></path>
                            <path d="M39.5,38.5 C35.2,32.4 34.6,23.8 34.3,16.5 C34.2,13.1 34.1,9.4 34.3,5.8 C29.4,7.1 25.4,9.4 23.2,12.8 C14.8,26 23.6,50.7 31.9,62.7 C40.1,74.6 58.6,81 69.3,68.4 C72,65.2 72.7,55.3 72.7,44.8 C60.7,46.9 47,49.3 39.5,38.5 Z" id="XMLID_379_" fill="#042C5C" fill-rule="nonzero"></path>
                            <path d="M60.4648438,57.1655273 C55.194654,57.1655273 52.2263599,55.9038086 51,51 C53.8766276,51.9838867 58.7883054,52.3052022 65.7350335,51.9639464 C65.7350335,55.431667 63.9783036,57.1655273 60.4648438,57.1655273 Z" id="Path-26" fill="#FFFFFF"></path>
                            <path d="M45.3,17 C56,19.3 68,16.5 70.7,15.8 C80.6,8.5 75.3,-3.6 56.1,1.5 C42.1,-0.4 24.4,0.8 19.7,13.2 C9.5,27.1 19.2,30.7 22,40.8 C25.8,39.6 26.4,34.2 30.9,33.2 C37.4,31.6 40,29.6 45.3,17 Z" id="XMLID_377_" fill="#042C5C" fill-rule="nonzero"></path>
                            <path d="M59.3,40.7 C60.5,40.9 61.8,41.2 63,40.9 C64.4,40.6 65.9,39.1 64.9,37.6 C64.5,37 65.4,36.3 65.8,36.9 C66.7,38.3 66.4,40.1 65,41.1 C63.3,42.4 61.1,42.1 59.1,41.8 C58.4,41.7 58.6,40.6 59.3,40.7 Z" id="XMLID_376_" fill="#042C5C" fill-rule="nonzero"></path>
                            <path d="M53.1,29.9 C53.3,30.9 53.6,31.9 53.8,32.9 C54,33.9 52.4,34.1 52.2,33.1 C52,32.1 51.7,31.1 51.5,30.1 C51.3,29 52.9,28.9 53.1,29.9 Z" id="XMLID_375_" fill="#042C5C" fill-rule="nonzero"></path>
                            <path d="M69.9,28.3 C70.1,29.3 70.4,30.3 70.6,31.3 C70.8,32.3 69.2,32.5 69,31.5 C68.8,30.5 68.5,29.5 68.3,28.5 C68,27.4 69.6,27.2 69.9,28.3 Z" id="XMLID_374_" fill="#042C5C" fill-rule="nonzero"></path>
                            <path d="M49.7,24.1 C50.8,23.9 51.9,23.7 53,23.5 C54.4,23.2 54.7,25.5 53.3,25.7 C52.2,25.9 51.1,26.1 50,26.3 C48.6,26.6 48.3,24.3 49.7,24.1 Z" id="XMLID_373_" fill="#042C5C" fill-rule="nonzero"></path>
                            <path d="M66.3,22.5 C67.4,22.3 68.5,22.1 69.6,21.9 C71,21.6 71.3,23.9 69.9,24.1 C68.8,24.3 67.7,24.5 66.6,24.7 C65.2,25 64.9,22.8 66.3,22.5 Z" id="XMLID_372_" fill="#042C5C" fill-rule="nonzero"></path>
                            <path d="M15.2,35.9 C17.3,30.7 25.5,28.1 31.1,33.2 C31,39.2 31.1,45.3 31.3,51.3 C28.1,52.7 21.6,52.6 18,49.5 C13.9,45.9 13,41.5 15.2,35.9 Z" id="XMLID_370_" fill="#CC7C79" fill-rule="nonzero"></path>
                            <path d="M23.1,38.2 C24.5,39.9 25.9,41.6 27.3,43.2 C27.8,43.8 26.9,44.4 26.4,43.9 C26.3,43.8 26.2,43.7 26.1,43.6 C26.1,43.6 26,43.5 26,43.5 C24.7,42 23.4,40.4 22.2,38.9 C21.7,38.3 22.6,37.6 23.1,38.2 Z" id="XMLID_369_" fill="#042C5C" fill-rule="nonzero"></path>
                        </g>
                    </g>
                    <g id="Woman" stroke-width="1" fill="none" fill-rule="evenodd" transform="translate(637.000000, 93.000000)">
                        <g id="Hand_5_" transform="translate(33.000000, 158.000000)" fill-rule="nonzero">
                            <path d="M53.9,7.81597009e-13 C27.1,58.7 12,243 12,243 L53.9,251.4 L97.5,20.1 L53.9,7.81597009e-13 Z" id="XMLID_435_" fill="#FF7E87"></path>
                            <path d="M8.3,170.1 C3.3,211.5 0.7,243.4 0.7,243.4 L42.6,251.8 L55.1,185.5 C40,179.3 24.1,174.7 8.3,170.1 Z" id="XMLID_434_" fill="#FFC2B9"></path>
                        </g>
                        <g id="Legs_1_" transform="translate(63.000000, 261.000000)" fill-rule="nonzero">
                            <path d="M91.7,430.9 C90.2,331.9 83.8,200.6 84.4,131.4 L79.9,54.3 C79.9,54.3 31.2,-78.4 7.8,72.2 C-8.7,178.6 5.4,325.2 20.2,429.5 C42.4,430.7 69.5,431.1 91.7,430.9 Z" id="XMLID_607_" fill="#042C5C"></path>
                            <path d="M123.422936,437.6 L188.3,418.836655 C180.049235,380.498577 172.406422,359.402491 172.406422,359.402491 C172.406422,359.402491 167.625795,231.621237 162,144.5 C160.285675,117.951906 146.816179,88.4614722 148.175229,76.0252669 L46.3,38.6 C46.3,38.6 83.7324159,323.397153 117.690826,420.865125 C119.688379,426.747687 121.599083,432.325979 123.422936,437.6 Z" id="XMLID_605_" fill="#042C5C"></path>
                            <path d="M77,206.3 C77.1,207 76,207 75.9,206.3 C73.3,185.6 70.7,164.9 68,144.2 C67.9,143.8 67.9,143.4 67.8,143 C68.2,143.1 68.6,143.2 69,143.3 C69.1,143.7 69.1,144.1 69.2,144.5 C71.8,165.1 74.4,185.7 77,206.3 Z" id="XMLID_344_" fill="#FFFFFF"></path>
                            <path d="M69.2,144.5 C68.8,144.4 68.4,144.3 68,144.2 C63.1,143 58.3,141.7 53.4,140.5 C52.7,140.3 53,139.2 53.7,139.4 C58.4,140.6 63.1,141.8 67.8,143 C68.2,143.1 68.6,143.2 69,143.3 C69.1,143.8 69.2,144.1 69.2,144.5 Z" id="XMLID_343_" fill="#FFFFFF"></path>
                        </g>
                        <g id="Body_1_" transform="translate(64.000000, 140.000000)" fill-rule="nonzero">
                            <path d="M146.707031,200 L7.72112266,191.412 C7.72112266,191.412 -2.33181894,151.1729 13.5681811,78.7729001 C24.2681811,30.1729001 35.9,-5.4 81.9,1 C88.8,2 96.3,3.1 104.5,4.4 C113.4,5.8 121.3,7.1 128.5,8.4 C209.5,23.7 168.207031,42.9 146.707031,200 Z" id="XMLID_419_" fill="#FF7E87"></path>
                            <path d="M3.7,143.9 C2.5,158.1 1.3,172.2 0.1,186.4 C-1.38777878e-17,187.1 1.2,187.1 1.2,186.4 C2.4,172.2 3.6,158.1 4.8,143.9 C4.9,143.2 3.8,143.2 3.7,143.9 Z" id="XMLID_335_" fill="#042C5C"></path>
                        </g>
                        <g id="Hand">
                            <g id="Group-15" filter="url(#filter-4)"></g>
                            <path d="M198,170.1 C151.1,196.9 127.6,223.7 127.6,223.7 C127.9,224 96.4,91.8 84.9,85.2 C77.6,81.1 55.8,79 55.6,79.2 C55.6,79.2 44.4,58.2 43.6,58.1 C42.6,56.3 39.2,56 38.3,58.6 C36.1,64.8 44.5,84.9 46.8,88.9 C40.2,101.8 42.9,117.7 54.7,127.5 C56.8,176.1 64.3,277.7 90.8,299.2 C126,327.7 224.9,235.5 224.9,235.5 L198,170.1 Z" id="XMLID_367_" fill="#FF7E87" fill-rule="nonzero"></path>
                            <path d="M54.6,127.4 C55.2,141.9 56.3,161.1 58.3,181.5 C78.1,182 97.6,176.2 112.2,162.4 C102.6,126.9 91,88.6 84.9,85.2 C77.6,81.1 55.8,79 55.6,79.2 C55.6,79.2 44.4,58.2 43.6,58.1 C42.6,56.3 39.2,56 38.3,58.6 C36.1,64.8 44.5,84.9 46.8,88.9 C40.1,101.8 42.8,117.7 54.6,127.4 Z" id="XMLID_366_" fill="#FFC2B9" fill-rule="nonzero"></path>
                            <g id="Group-21">
                                <g id="Rectangle">
                                    <use fill="black" fill-opacity="1" filter="url(#filter-6)" xlink:href="#path-5"></use>
                                    <use fill="#8184FF" fill-rule="evenodd" xlink:href="#path-5"></use>
                                </g>
                                <path d="M41.0484703,35.7663629 L37.6549735,35.3789144 C36.8399998,35.2853923 36.0383864,35.5659585 35.4638968,36.1404512 L33.0056156,38.5987458 C29.2246723,36.6748631 26.1251004,33.5886347 24.2012282,29.7943105 L26.6728696,27.3226557 C27.2473592,26.748163 27.5279239,25.9465452 27.4344023,25.1315671 L27.0469558,21.7647724 C26.8866331,20.4153825 25.7510141,19.4 24.3882713,19.4 L22.0769526,19.4 C20.5672473,19.4 19.3113863,20.6558679 19.4049078,22.1655813 C20.1129997,33.5752744 29.2380325,42.6869964 40.6343034,43.3950921 C42.1440086,43.4886142 43.4,42.2327463 43.4,40.7230329 L43.4,38.4117016 C43.4132299,37.0623117 42.3978529,35.9266865 41.0484703,35.7663629 Z" id="🔹Icon-Color" fill="#FFFFFF"></path>
                            </g>
                            <path d="M132.6,223.6 C131.1,219.4 129.6,215.2 128.1,210.9 C128,210.6 127.9,210.2 127.7,209.9 C122.8,196.1 117.8,182.3 112.9,168.5 C112.7,167.8 113.7,167.5 114,168.2 C118.9,182 123.8,195.7 128.8,209.5 C128.9,209.8 129,210.2 129.2,210.5 C130.7,214.7 132.2,219 133.8,223.3 C134,224 132.9,224.3 132.6,223.6 Z" id="XMLID_337_" fill="#042C5C" fill-rule="nonzero"></path>
                            <path d="M178.6,192 L129.2,210.6 L128.2,211 C128.1,210.7 128,210.3 127.8,210 L128.8,209.6 L178.3,191 C178.9,190.7 179.2,191.8 178.6,192 Z" id="XMLID_336_" fill="#042C5C" fill-rule="nonzero"></path>
                            <path d="M59.9,116.8 C59.3,114.3 58.2,112 56.7,109.9 C56,109 55.2,108.1 54.4,107.3 C53.5,106.5 52.1,105.8 51.3,104.9 C50.4,103.9 51.3,102.2 51.5,100.8 C51.7,99.5 51.8,98.2 51.8,96.9 C51.8,94.7 51.4,92.5 50.8,90.3 C50.4,90.3 50,90.3 49.6,90.4 C51,95.1 50.9,99.9 49.3,104.6 C49.2,104.8 49.3,105.1 49.6,105.2 C54.3,107.7 57.5,111.9 58.8,117 C59,117.8 60.1,117.5 59.9,116.8 Z" id="XMLID_294_" fill="#042C5C" fill-rule="nonzero"></path>
                            <path d="M61.5,100.7 C51.6,99.9 54,88.6 56.3,82.3 C56.5,81.6 55.5,81.3 55.2,82 C53.6,86.3 52,90.9 53.5,95.5 C54.7,99.2 57.7,101.5 61.5,101.8 C62.2,101.9 62.2,100.7 61.5,100.7 Z" id="XMLID_293_" fill="#042C5C" fill-rule="nonzero"></path>
                            <path d="M69.9,102.3 C65.3,102.2 63.2,97.9 63.3,93.9 C63.4,90.9 64.6,87.9 65.8,85.2 C66.1,84.5 65,84.2 64.7,84.9 C63.1,88.9 61.3,93.4 62.6,97.8 C63.6,101.1 66.4,103.5 69.9,103.5 C70.7,103.4 70.7,102.3 69.9,102.3 Z" id="XMLID_291_" fill="#042C5C" fill-rule="nonzero"></path>
                            <path d="M82.6,104 C78.4,106.3 74.4,102.9 73.3,98.9 C72.3,95.4 73.2,91.7 73.9,88.3 C74.1,87.6 73,87.3 72.8,88 C71.8,92.7 70.7,98 73.5,102.3 C75.6,105.5 79.7,106.9 83.1,105 C83.8,104.6 83.2,103.7 82.6,104 Z" id="XMLID_290_" fill="#042C5C" fill-rule="nonzero"></path>
                            <path d="M83,93.9 C83.1,93.2 82,92.9 81.9,93.6 C81.7,94.8 81.5,96 81.3,97.2 C81.2,97.9 82.2,98.2 82.4,97.5 L82.6,96.4 C82.6,96.3 82.6,96.3 82.6,96.2 C82.7,95.4 82.8,94.7 83,93.9 Z" id="XMLID_289_" fill="#042C5C" fill-rule="nonzero"></path>
                            <path d="M108,305.8 C106.1,305.8 104.4,305.6 102.9,305.2 C78.8,298.1 72.7,266.2 67.8,240.6 C66.6,234.1 65.4,228 64,222.7 C63.9,222.4 64.1,222.1 64.4,222 C64.7,221.9 65,222.1 65.1,222.4 C66.5,227.7 67.7,233.8 68.9,240.4 C73.8,265.8 79.8,297.3 103.3,304.2 C124.4,310.4 188.4,268.5 215.7,250.6 C216,250.4 216.3,250.5 216.5,250.8 C216.7,251.1 216.6,251.4 216.3,251.6 C190.7,268.2 133.2,305.8 108,305.8 Z" id="XMLID_269_" fill="#042C5C" fill-rule="nonzero"></path>
                        </g>
                        <g id="Head_2_" transform="translate(131.000000, 47.000000)">
                            <path d="M37.5,97.3 C29.4,96 21.8,94.9 14.9,93.9 C14.4,94.7 14,95.5 13.8,96.5 C13.6,97.5 13.6,98.5 13.8,99.3 C13.3,107.1 19.3,115.2 27.6,117.5 C41,121.2 54.6,112.6 61.4,101.2 C54.3,100 46.3,98.7 37.5,97.3 Z" id="XMLID_63_" fill="#FFC2B9" fill-rule="nonzero"></path>
                            <path d="M23.4,110.1 L24.3,114 C39.1,110.9 47.0771484,111.194141 59.0771484,101.994141 C51.2771484,87.1941406 49.1,63.9 48.8,62.2 L13.9,69.6 L19.9,95.3 L23.4,110.1 Z" id="XMLID_61_" fill="#FFC2B9" fill-rule="nonzero"></path>
                            <path d="M19.6,93.8 L13.9,69.5 L32.8,65.9 C31.5,75.9 26.8,86.5 19.6,93.8 Z" id="XMLID_60_" fill="#000000" fill-rule="nonzero" opacity="0.238699777"></path>
                            <path d="M57.4290351,38.05 C52.9290351,22.95 15.0290351,15.95 9.62903507,30.45 C5.62903507,41.35 -2.5,62.4 1,69.9 C7.9,85 27.5,83.7 38.6,74.5 C49.7,65.2 61.9290351,53.05 57.4290351,38.05 Z" id="XMLID_59_" fill="#FFC2B9" fill-rule="nonzero"></path>
                            <path d="M5.13153934,55 C11.3250964,56.0991211 16.5160319,56.916748 20.7043457,57.4528809 C17.2726442,64.3421427 12.6574182,63.4165039 8.48993777,62.0078102 C5.71161746,61.068681 4.59215132,58.7327443 5.13153934,55 Z" id="Path-28" fill="#FFFFFF"></path>
                            <path d="M36.4885742,17.4292506 C36.4885742,17.4292506 58.5770676,16.2738759 61.4,30.0892153 C64.2229324,43.9059892 55.738076,56.185 55.738076,56.185 C55.738076,56.185 37.8113634,48.4247522 34.3589179,37.9107847 C32.3032042,31.6503799 35.2309663,24.754278 36.4885742,17.4292506 Z" id="Fill-56" fill="#042C5C"></path>
                            <path d="M87.512,16.755 C87.512,26.009 80.01,33.511 70.756,33.511 C61.502,33.511 54,26.009 54,16.755 C54,7.502 61.502,0 70.756,0 C80.01,0 87.512,7.502 87.512,16.755" id="Fill-59" fill="#042C5C"></path>
                            <path d="M7.10009766,31.3762207 C8.32242813,21.1317207 11.374,13.3507718 28.381,11.1557718 C28.381,11.1557718 48.018,8.81077184 53.92,22.3177718 C53.92,22.3177718 60.6905795,31.453974 51.9876102,34.8142523 C48.5777586,36.1308203 39.873793,32.7994195 33.6474796,31.3762207 C17.5151367,27.6887207 13.0134684,32.6499023 7.10009766,31.3762207 Z" id="Fill-58" fill="#042C5C"></path>
                            <path d="M13.6006327,41.4452062 C13.1006327,42.3452062 12.6006327,43.2452062 12.1006327,44.1452062 C11.6006327,45.0452062 13.1006327,45.6452062 13.6006327,44.7452062 C14.1006327,43.8452062 14.6006327,42.9452062 15.1006327,42.0452062 C15.7006327,41.1452062 14.1006327,40.5452062 13.6006327,41.4452062 Z" id="XMLID_56_" fill="#042C5C" fill-rule="nonzero"></path>
                            <path d="M18.5338562,37.6107847 C17.5338562,37.1107847 16.5338562,36.6107847 15.5338562,36.1107847 C14.2338562,35.5107847 13.3338562,37.5107847 14.6338562,38.2107847 C15.6338562,38.7107847 16.6338562,39.2107847 17.6338562,39.7107847 C18.9338562,40.3107847 19.7338562,38.3107847 18.5338562,37.6107847 Z" id="XMLID_37_" fill="#042C5C" fill-rule="nonzero"></path>
                            <path d="M56.6,51.3 C56,45.8 47.5753091,43.7331288 40.7753091,47.0331288 C39.1753091,52.8331288 38.7,56 36.9,61.8 C39.6,64 45.9,65.7 50.2,63.6 C55.1,61.3 57.2,57.3 56.6,51.3 Z" id="XMLID_36_" fill="#FFC2B9" fill-rule="nonzero"></path>
                            <path d="M48,52.1 C46.2,53.3 44.4,54.6 42.6,55.8 C42,56.2 42.7,57.1 43.3,56.7 C43.4,56.6 43.6,56.5 43.7,56.5 C43.7,56.5 43.8,56.4 43.8,56.4 C45.4,55.3 47.1,54.1 48.7,53 C49.3,52.6 48.6,51.7 48,52.1 Z" id="XMLID_35_" fill="#042C5C" fill-rule="nonzero"></path>
                            <path d="M7.30892268,44.2550787 C7.40892268,43.6550787 7.20892268,43.0550787 6.60892268,42.6550787 C4.10892268,40.9550787 0.208922677,42.7550787 0.00892267678,45.8550787 C-0.191077323,48.9550787 3.00892268,50.9550787 5.80892268,50.0550787 C7.10892268,50.4550787 8.50892268,48.7550787 7.60892268,47.4550787 C8.10892268,46.5550787 8.20892268,45.2550787 7.30892268,44.2550787 Z" id="XMLID_243_" fill="#FFC2B9" fill-rule="nonzero"></path>
                        </g>
                    </g>
                    <g id="Man_2" stroke-width="1" fill="none" fill-rule="evenodd" transform="translate(462.000000, 167.000000)">
                        <g id="Body" transform="translate(45.000000, 63.000000)" fill-rule="nonzero">
                            <path d="M176.3,126 L175.6,119.7 L164.6,15.1 L100.1,5.1 L72.9,0.9 L69.4,2.1 L59.2,5.7 L0.7,26.2 L4,106.8 L11.9,282.1 L186.6,283.2 C178.9,231.2 176,178.6 176.3,126 Z" id="XMLID_598_" fill="#1E63F8"></path>
                            <path d="M35.4,192.9 C41.4,179.4 45.3,165.2 48.2,150.7 C34.4,156 20.5,160.9 6.6,165.9 L9.5,231.4 C20.2,220.2 29,207.4 35.4,192.9 Z" id="XMLID_405_" fill="#000000"></path>
                        </g>
                        <g id="Legs" transform="translate(52.000000, 270.000000)" fill-rule="nonzero">
                            <path d="M93.6,64.1 L25.5,64.1 L4.9,75.2 C4.9,75.2 11.3,208.6 22.8,285.3 C33.9,359.5 39.6,396 41.8,417.2 C41.8,417.2 90.9,422.4 111,423.4 C111.4,393.9 110.6,357.9 105.5,328.9 L93.6,64.1 Z" id="XMLID_82_" fill="#697CCC"></path>
                            <path d="M180.2,64.1 L84.4,64.1 C101.3,157.1 131.1,315.5 131.1,315.5 C129.4,332.7 139.7,381.5 149.1,420.9 L219.4,413.8 C219.4,413.8 216.1,375.1 213.8,344.5 C209.3,284.6 193.9,161.7 180.2,64.1 Z" id="XMLID_85_" fill="#697CCC"></path>
                            <path d="M1.4,0 L4.8,75.2 L179.5,76.3 C175.8,51 173.2,25.5 171.6,0 L1.4,0 L1.4,0 Z" id="XMLID_406_" fill="#697CCC"></path>
                            <path d="M95.5,112.1 C95.6,112.8 94.4,112.8 94.4,112.1 C92.6,94 90.9,75.8 89.1,57.7 C89.1,57.3 89,57 89,56.6 C89.4,56.5 89.7,56.5 90.1,56.4 C90.1,56.8 90.2,57.1 90.2,57.5 C92,75.7 93.7,93.9 95.5,112.1 Z" id="XMLID_326_" fill="#FFFFFF"></path>
                            <path d="M108.9,54.4 L90.2,57.5 L89.1,57.7 C89.1,57.3 89,57 89,56.6 C89.4,56.5 89.7,56.5 90.1,56.4 C96.3,55.4 102.4,54.4 108.6,53.3 C109.3,53.3 109.6,54.3 108.9,54.4 Z" id="XMLID_325_" fill="#FFFFFF"></path>
                        </g>
                        <g id="Hand_4_" transform="translate(117.000000, 61.000000)" fill-rule="nonzero">
                            <path d="M143.3,269.2 C129.8,263.5 113.5,259.7 113.5,259.7 C113.5,259.7 111.8,95.4 103.4,40.1 C95,-15.3 59.7,3.7 0.9,3 C0.9,3 24.7,41.4 27,40.6 C29.2,39.9 75.9,281.7 75.9,281.7 L149.5,282.4 C149.5,275.6 146.9,270.8 143.3,269.2 Z" id="XMLID_404_" fill="#ED9F94"></path>
                            <path d="M109.7,121 C107.6,121.2 105.6,121.4 103.5,121.6 C83.7,123.6 63.9,125.9 44.2,128.4 C35.5,80.6 27.9,40.3 26.9,40.6 C26.3,40.8 23.8,37.8 20.7,33.4 C14.5,24.7 5.5,10.5 2.2,5.1 C1.9,4.6 1.6,4.2 1.4,3.8 C1,3.2 0.8,2.9 0.8,2.9 C10.4,3 19.4,2.6 27.8,2.1 C70.5,-0.6 96.3,-6.3 103.3,40 C106.2,58.4 108.3,88.7 109.7,121 Z" id="XMLID_597_" fill="#1E63F8"></path>
                            <path d="M47.2,47.3 C46.9,54.7 46.6,62.2 46.4,69.6 C46.4,70.3 47.5,70.3 47.5,69.6 C47.8,62.2 48.1,54.7 48.3,47.3 C48.4,46.6 47.2,46.6 47.2,47.3 Z" id="XMLID_368_" fill="#FFFFFF"></path>
                            <path d="M113.1,201.5 C113.1,200.8 112,200.8 112,201.5 C112.1,215.5 112.2,229.4 112.3,243.4 C112.3,244.1 113.4,244.1 113.4,243.4 C113.3,229.4 113.2,215.5 113.1,201.5 Z" id="XMLID_334_" fill="#FFFFFF"></path>
                            <path d="M118.3,274.5 C111.6,272.2 104,271.7 97.1,270.5 C96.4,270.4 96.1,271.5 96.8,271.6 C102.3,272.5 107.8,273.4 113.3,274.4 C118.7,275.4 125.7,277.8 125.5,284.5 C125.5,285.2 126.6,285.2 126.6,284.5 C126.7,279.4 122.7,276 118.3,274.5 Z" id="XMLID_297_" fill="#D24A43"></path>
                            <path d="M145.7,282 C143.2,278.9 139.3,277.7 135.7,276.1 C131.1,274.1 126.4,272.1 121.8,270.2 C121.1,269.9 120.6,270.9 121.2,271.2 C125.5,273 129.8,274.9 134.1,276.7 C137.8,278.3 142.2,279.6 144.8,282.8 C145.4,283.3 146.2,282.5 145.7,282 Z" id="XMLID_296_" fill="#D24A43"></path>
                            <path d="M148.8,282.1 C146.6,273 137.3,269.8 129.3,267.5 C128.6,267.3 128.3,268.4 129,268.6 C136.6,270.8 145.6,273.8 147.7,282.4 C147.9,283.1 148.9,282.8 148.8,282.1 Z" id="XMLID_295_" fill="#D24A43"></path>
                        </g>
                        <g id="Hand_1_" transform="translate(0.000000, 64.000000)">
                            <path d="M153.7,64.4 C140,70 129.9,81.1 125.7,95.3 C125.5,96.1 125.6,96.8 125.9,97.3 C125.8,97.8 125.7,98.3 125.6,98.9 C125.1,102.4 130.4,103.9 131,100.4 C131.2,99.1 131.5,97.9 131.8,96.7 C132.6,96.8 133.4,96.6 134,95.9 C134.3,95.5 134.7,95.1 135,94.7 C136.2,95.6 138.1,95.7 139.2,94.1 C145,85.6 150.9,77.1 156.7,68.5 C158.2,66.6 156,63.5 153.7,64.4 Z" id="Thumb" fill="#ED9F94" fill-rule="nonzero"></path>
                            <g id="Group-20" transform="translate(149.000000, 43.000000)">
                                <rect id="Rectangle" fill="#FFB944" x="-1.0658141e-13" y="-1.01607611e-12" width="66.24" height="66.24" rx="18"></rect>
                                <polygon id="Path-3" stroke="#FFFFFF" stroke-width="2.4" fill="#FFFFFF" stroke-linejoin="round" points="36.3723558 16 22 35.0895483 29.5377414 35.0895483 28.0188507 51 43 31.2307 34.9905197 31.2307"></polygon>
                            </g>
                            <g id="Picture_1_" transform="translate(145.000000, 42.000000)">
                                <g id="Group-12" filter="url(#filter-7)"></g>
                            </g>
                            <g id="Hand_2_" fill-rule="nonzero">
                                <path d="M180.9,78.4 C183.1,72.8 179.3,72 174.2,72 C170.2,72.1 140.7,79.5 133.7,88.4 L69.5,112.4 L68.3,98.2 L72.5,43.9 L120.9,0.7 C41.2,6.7 15.1,5.2 7.7,38.7 C0.3,72.2 -9.8,201.1 26.7,207.8 C61.5,214.2 117.8,160.7 138.1,136.3 C149.7,131.5 182.2,111.5 176.5,103 C180.3,98.3 181.4,95.2 180.1,89.3 C183.4,87.8 182.3,79.1 180.9,78.4 Z" id="XMLID_361_" fill="#ED9F94"></path>
                                <path d="M120.9,0.7 L119.3,2.1 L106.6,13.5 L72.5,43.9 L70,102.1 C63,103.5 56,104.7 49,105.9 C33,108.5 16.8,110.6 0.6,112 C1.2,81.5 4.7,52.3 7.7,38.7 C14.6,7.7 37.4,6.6 103.7,1.9 C107.2,1.7 110.8,1.4 114.5,1.1 C115.8,1 117.2,0.9 118.6,0.8 C119.3,0.8 120.1,0.8 120.9,0.7 Z" id="XMLID_577_" fill="#1E63F8"></path>
                                <path d="M66.2,47.7 C66.1,47 65,47 65.1,47.7 C66.2,61.1 67.3,74.5 68.5,87.9 C68.6,88.6 69.7,88.6 69.6,87.9 C68.4,74.5 67.3,61.1 66.2,47.7 Z" id="XMLID_338_" fill="#FFFFFF"></path>
                                <path d="M66,112.8 C63.5,114 61,115.3 58.5,116.5 C57.9,116.8 58.4,117.8 59.1,117.5 L66.6,113.8 C67.2,113.4 66.7,112.5 66,112.8 Z" id="XMLID_203_" fill="#FFFFFF"></path>
                                <path d="M179,78.5 C173.5,81 168,83.6 162.5,86.1 C161.8,86.4 162.4,87.4 163.1,87.1 C168.6,84.6 174.1,82 179.6,79.5 C180.2,79.2 179.6,78.2 179,78.5 Z" id="XMLID_202_" fill="#D24A43"></path>
                                <path d="M178.5,89 C174.7,91.6 170.8,94.2 167,96.7 C166.4,97.1 167,98.1 167.6,97.7 C171.4,95.1 175.3,92.5 179.1,90 C179.7,89.6 179.1,88.6 178.5,89 Z" id="XMLID_201_" fill="#D24A43"></path>
                                <path d="M174.2,104.3 C171.6,106.1 169,107.8 166.4,109.6 C165.8,110 166.4,111 167,110.6 C169.6,108.8 172.2,107.1 174.8,105.3 C175.4,104.8 174.8,103.9 174.2,104.3 Z" id="XMLID_200_" fill="#D24A43"></path>
                                <path d="M146.1,79.7 C145.6,80.2 145.2,80.6 144.7,81.1 C144.2,81.6 145,82.4 145.5,81.9 C146,81.4 146.4,81 146.9,80.5 C147.4,79.9 146.6,79.1 146.1,79.7 Z" id="XMLID_298_" fill="#D24A43"></path>
                            </g>
                        </g>
                        <g id="Head_1_" transform="translate(93.000000, 0.000000)">
                            <path d="M42.7,94.2 L43.1,93.1 L51.8,68.2 L17.9,57.2 C17.7,57.9 14.9,63.1 12.3,67.1 C19.3,79.5 29.6,91.3 42.7,94.2 Z" id="XMLID_357_" fill="#ED9F94" fill-rule="nonzero"></path>
                            <path d="M52.1,68.2 C52,66.7 52,65.1 52,63.6 C52,63.4 52,63.3 52,63.2 C43.6,63.7 34.6,64.1 25,64 L21.5,65.2 C17.8,65.5 14.2,65.7 10.7,66 C10.9,66.9 11,67.9 11.2,68.8 C11.8,71.7 12.6,74.6 13.6,77.5 C17.1,87.7 23.2,97 35.2,97.2 C35.5,97.2 35.7,97.2 35.9,97.2 C39.2,97.1 42.3,96.2 44.9,94.4 C47.1,92.9 48.9,90.8 50.2,88.2 C53.2,81.9 52.4,75 52.1,68.2 Z" id="XMLID_358_" fill="#ED9F94" fill-rule="nonzero"></path>
                            <path d="M43.5,91.7 L51.7,68.1 L33.3,62.5 C33.6,72.7 37.1,83.8 43.5,91.7 Z" id="XMLID_356_" fill="#952C28" fill-rule="nonzero" opacity="0.377092634"></path>
                            <path d="M9.9,22.9 C16,8.4 54.4,5.4 58.2,20.4 C61.1,31.7 68.8,62.9 64.6,70 C56.1,84.2 36.8,81 26.8,70.6 C16.7,60.1 3.9,37.3 9.9,22.9 Z" id="XMLID_355_" fill="#ED9F94" fill-rule="nonzero"></path>
                            <path d="M46.7636599,56.3759223 C52.0659565,58.8414534 56.3992898,58.6530963 59.7636599,55.8108512" id="Path-27" stroke="#032B5B" stroke-width="1.2" stroke-linecap="round"></path>
                            <path d="M40.3,4.2 C36.8,2.4 -0.905604548,3.3 0.2,40.3 C-1.6034396e-13,43.6 2.1,46.9 5.6,47.4 C6.6,47.5 7.6,47.4 8.5,47.1 C9.4,47 10.1,46.7 10.8,46.2 C11.8,47.5 12.7,48.9 13.4,50.5 C16.9,48.7 16.7,43.3 20.9,41.5 C25.7,39.5 28.2,37.6 30.5,30.3 C33,28.9 34.5,26.2 34.3,23.4 C37.5,24.9 56.5,21.7 58.8,17.8 C59.4,16.8 59.6,15.8 59.6,14.7 C62.8,8.7 59.6,-7.3463252 40.3,4.2 Z" id="XMLID_354_" fill="#D24A43" fill-rule="nonzero"></path>
                            <path d="M53,47.8 C54.2,47.8 55.6,47.8 56.7,47.3 C58,46.7 59.2,45 58,43.7 C57.5,43.2 58.3,42.3 58.8,42.9 C59.9,44.1 59.9,46 58.8,47.2 C57.4,48.8 55.1,48.9 53.1,48.9 C52.3,48.9 52.3,47.8 53,47.8 Z" id="XMLID_353_" fill="#032B5B" fill-rule="nonzero"></path>
                            <path d="M41.6636599,36.945085 C42.0636599,37.945085 42.4636599,38.845085 42.8636599,39.845085 C43.2636599,40.845085 41.6636599,41.245085 41.2636599,40.345085 C40.8636599,39.345085 40.4636599,38.445085 40.0636599,37.445085 C39.6636599,36.345085 41.2636599,35.945085 41.6636599,36.945085 Z" id="XMLID_352_" fill="#032B5B" fill-rule="nonzero"></path>
                            <path d="M57.8636599,32.545085 C58.2636599,33.545085 58.6636599,34.445085 59.0636599,35.445085 C59.4636599,36.445085 57.8636599,36.845085 57.4636599,35.945085 C57.0636599,34.945085 56.6636599,34.045085 56.2636599,33.045085 C55.8636599,32.045085 57.4636599,31.545085 57.8636599,32.545085 Z" id="XMLID_351_" fill="#032B5B" fill-rule="nonzero"></path>
                            <path d="M34.763119,32.2763671 C35.863119,31.8763671 36.863119,31.4763671 37.963119,31.0763671 C39.363119,30.5763671 39.963119,32.6763671 38.663119,33.1763671 C37.563119,33.5763671 36.563119,33.9763671 35.463119,34.3763671 C34.063119,34.8763671 33.363119,32.7763671 34.763119,32.2763671 Z" id="XMLID_350_" fill="#032B5B" fill-rule="nonzero"></path>
                            <path d="M52.7193908,27.2763671 C53.8193908,26.8763671 54.8193908,26.4763671 55.9193908,26.0763671 C57.3193908,25.5763671 57.9193908,27.6763671 56.6193908,28.1763671 C55.5193908,28.5763671 54.5193908,28.9763671 53.4193908,29.3763671 C52.0193908,29.8763671 51.4193908,27.7763671 52.7193908,27.2763671 Z" id="XMLID_349_" fill="#032B5B" fill-rule="nonzero"></path>
                            <path d="M5.9,46.9 C7.1,41.5 14.7,37.5 21.2,41.5 C22.1,47.5 23.3,53.4 24.5,59.3 C21.6,61.2 15.2,62.2 11.1,59.7 C6.2,57 4.6,52.8 5.9,46.9 Z" id="XMLID_347_" fill="#ED9F94" fill-rule="nonzero"></path>
                            <path d="M14,47.8 C15.7,49.2 17.3,50.6 19,52.1 C19.6,52.6 18.8,53.3 18.2,52.9 C18.1,52.8 18,52.7 17.8,52.6 C17.8,52.6 17.7,52.5 17.7,52.5 C16.2,51.2 14.7,49.9 13.1,48.6 C12.7,48.2 13.4,47.4 14,47.8 Z" id="XMLID_346_" fill="#032B5B" fill-rule="nonzero"></path>
                        </g>
                    </g>
                    <g id="Text" stroke-width="1" fill="none" fill-rule="evenodd" transform="translate(497.000000, 0.000000)"></g>
                    <g id="Notebook" stroke-width="1" fill="none" fill-rule="evenodd" transform="translate(442.000000, 413.000000)">
                        <path d="M177.4,98.1 L32.1,98.1 L0.8,4.8 C0.1,2.7 1.7,0.5 3.9,0.5 L135.5,0.5 C141,0.5 145.8,4 147.6,9.2 L177.4,98.1 Z" id="XMLID_324_" fill="#042C5C" fill-rule="nonzero"></path>
                        <path d="M223.1,92.9031689 L166.5,92.9031689 C165.1,92.9031689 165.1,96.8974156 166.5,96.8974156 L223.1,96.8974156 C224.5,97.0789723 224.5,92.9031689 223.1,92.9031689 Z" id="XMLID_323_" fill="#042C5C" fill-rule="nonzero"></path>
                        <path d="M161,76.1 C153.7,54.8 146.3,33.4 139,12.1 C138.6,10.9 136.7,11.4 137.1,12.6 C144.4,33.9 151.8,55.3 159.1,76.6 C159.4,77.8 161.4,77.3 161,76.1 Z" id="XMLID_77_" fill="#FFFFFF" fill-rule="nonzero"></path>
                        <path d="M75.5,33.1 C73.1,37.5 70.7,41.9 68.3,46.3 C67.7,47.4 69.4,48.4 70,47.3 C72.4,42.9 74.8,38.5 77.2,34.1 C77.8,33 76.1,32 75.5,33.1 Z" id="XMLID_78_" fill="#FFFFFF" fill-rule="nonzero"></path>
                        <path d="M76.5,42.9 C74.8,46.2 73.2,49.6 71.5,52.9 C70.9,54 72.7,55.1 73.2,53.9 C74.9,50.6 76.5,47.2 78.2,43.9 C78.8,42.7 77.1,41.7 76.5,42.9 Z" id="XMLID_79_" fill="#FFFFFF" fill-rule="nonzero"></path>
                    </g>
                    <path d="M977.4,510 L280.1,510 C275.8,510 275.8,516.7 280.1,516.7 L977.4,516.7 C981.7,516.7 981.7,510 977.4,510 Z" id="Table" fill="#BFC5D2" fill-rule="nonzero"></path>
                    <g id="Picture" stroke-width="1" fill="none" fill-rule="evenodd" transform="translate(628.000000, 159.000000)"></g>
                </g>
            </g>
            <g id="Group-8" mask="url(#mask-2)">
                <g transform="translate(69.000000, 479.000000)" id="2480559">
                    <g>
                        <g id="luz-copy-2" transform="translate(327.000000, 48.000000)"></g>
                        <path d="M9.615,310.271 L3.601,310.271 C2.021,310.271 0.74,308.99 0.74,307.41 L0.74,301.765 C0.74,300.185 2.021,298.903 3.601,298.903 L9.615,298.903 C11.195,298.903 12.476,300.185 12.476,301.765 L12.476,307.41 C12.476,308.99 11.195,310.271 9.615,310.271" id="Fill-18" fill="#ED9F94"></path>
                        <g id="Group-26" transform="translate(357.000000, 212.000000)"></g>
                        <g id="Group-62" transform="translate(142.000000, 15.000000)"></g>
                        <g id="Group-91" transform="translate(151.000000, 112.000000)"></g>
                        <g id="Group-112" transform="translate(259.000000, 0.000000)"></g>
                    </g>
                </g>
            </g>
            <g id="luz" filter="url(#filter-8)" transform="translate(49.000000, 625.000000)">
                <rect id="Rectangle" fill="#FF7E87" x="0" y="0" width="66.24" height="66.24" rx="23.04"></rect>
                <path d="M25.92,43.2 C24.336,43.2 23.04,44.496 23.04,46.08 C23.04,47.664 24.336,48.96 25.92,48.96 C27.504,48.96 28.8,47.664 28.8,46.08 C28.8,44.496 27.504,43.2 25.92,43.2 Z M17.28,20.16 L17.28,23.04 L20.16,23.04 L25.344,33.984 L23.328,37.44 C23.184,37.872 23.04,38.448 23.04,38.88 C23.04,40.464 24.336,41.76 25.92,41.76 L43.2,41.76 L43.2,38.88 L26.496,38.88 C26.352,38.88 26.208,38.736 26.208,38.592 L26.208,38.4479435 L27.504,35.9999435 L38.16,35.9999435 C39.312,35.9999435 40.176,35.4239435 40.608,34.5599435 L45.792,25.2 C46.08,24.912 46.08,24.768 46.08,24.48 C46.08,23.616 45.504,23.04 44.64,23.04 L23.328,23.04 L22.032,20.16 L17.28,20.16 Z M40.32,43.2 C38.736,43.2 37.44,44.496 37.44,46.08 C37.44,47.664 38.736,48.96 40.32,48.96 C41.904,48.96 43.2,47.664 43.2,46.08 C43.2,44.496 41.904,43.2 40.32,43.2 Z" id="Shape" fill="#FFFFFF" fill-rule="nonzero"></path>
            </g>
        </g>
    </g>
</svg>