<?xml version="1.0" encoding="UTF-8"?>
<svg width="420px" height="420px" viewBox="0 0 420 420" version="1.1" xmlns="http://www.w3.org/2000/svg" xmlns:xlink="http://www.w3.org/1999/xlink">
    <!-- Generator: Sketch 60 (88103) - https://sketch.com -->
    <title>img-404</title>
    <desc>Created with Sketch.</desc>
    <defs>
        <rect id="path-1" x="0" y="0" width="420" height="420" rx="210"></rect>
        <linearGradient x1="142.237234%" y1="9.32740216%" x2="23.9091967%" y2="100%" id="linearGradient-3">
            <stop stop-color="#114DCD" offset="0%"></stop>
            <stop stop-color="#1E63F8" offset="100%"></stop>
        </linearGradient>
    </defs>
    <g id="desktop-🖥" stroke="none" stroke-width="1" fill="none" fill-rule="evenodd">
        <g id="img-404">
            <g id="Group-4" transform="translate(210.000000, 210.000000) scale(-1, 1) translate(-210.000000, -210.000000) ">
                <mask id="mask-2" fill="white">
                    <use xlink:href="#path-1"></use>
                </mask>
                <use id="Mask" fill="#FFFFFF" xlink:href="#path-1"></use>
                <g id="Woman" mask="url(#mask-2)">
                    <g transform="translate(44.000000, 112.000000)">
                        <path d="M254.5,63.9 C249.8,52.8 236,48.4 225.9,53.9 C225.9,53.9 225.8,53.9 225.8,53.9 C225.8,53.8 225.8,53.8 225.7,53.7 C225.7,53.5 225.8,53.4 225.8,53.2 C226.8,43.5 223,34.2 216.7,27 C212.7,22.3 204.2,22.6 200.1,27 C195.5,32 195.8,38.6 200.1,43.6 C201,44.6 201.1,44.7 200.4,43.9 C200.8,44.5 201.2,45.2 201.6,45.9 C201.8,46.2 201.9,46.4 202,46.5 C202,46.6 202,46.9 202.1,47.3 C202.2,47.6 202.4,49.8 202.5,49.4 C202.5,50 202.5,50.7 202.5,51.3 C200.8,54.6 199.9,58.5 200.2,62.5 C198.2,65.8 196.8,69.6 196.4,73.7 C195.2,85.4 202.4,96.5 212.3,96.1 C212.5,96.1 212.8,96.1 213,96 C213.5,96.7 214,97.3 214.6,97.9 C220.5,104.2 228.9,106.1 236.3,102.7 C241.4,100.3 245.1,95.9 247.3,90.5 C255.2,84.5 258.7,73.8 254.5,63.9 Z" id="Hair" fill="#952C28" fill-rule="nonzero"></path>
                        <g id="Hand_2_" stroke-width="1" fill="none" fill-rule="evenodd" transform="translate(0.000000, 21.000000)">
                            <path d="M118.8,114.7 C113,109.4 107.3,104.1 101.9,98.5 C99,95.5 96,92.3 92.8,89.5 C81.8,101.3 81.8,101.3 81.8,101.3 C81.8,101.3 71.5,80.6 56.9,52.8 C55.2,35.1 54.9,26 43.6,10.5 C34.3,-2.2 27.8,-0.4 34.6,10.5 C36.6,13.6 36.8,16.7 36.2,18.1 C36,18 27.3,10.5 20.8,2.3 C18.9,-0.1 15.1,-0.3 14.2,2 C11.3,0.5 7.1,3.6 9.2,7.1 C9.2,7.2 9.1,7.1 9,6.9 C6.8,4.4 3.5,8 3.4,10.5 C1.6,11 0.2,12.6 0.6,15 C1.5,20.1 8.7,39.8 14.5,49.3 C16.4,52.4 22.2,62.2 23.4,66.9 C31.7,99.3 45.1,148.3 48.9,160 C59.8,193.1 83.3,204.5 129.4,138.3 C131.4,135.4 133.3,132.7 135.2,130 C129.9,124.8 124.4,119.7 118.8,114.7 Z" id="XMLID_368_" fill="#FFA79B" fill-rule="nonzero"></path>
                            <path d="M176.9,68.2 C176.7,68.5 176.5,68.8 176.3,69.1 C175.7,70 175,71 174.3,72.2 C174,72.6 173.8,73 173.5,73.4 C173,74.1 172.5,74.9 172,75.7 C168.4,81.2 163.6,88.4 157.4,97.6 C156.9,98.4 156.3,99.2 155.8,99.9 C154.4,101.9 153,104 151.5,106.2 C151,107 150.4,107.8 149.9,108.5 C145,115.7 139.4,123.8 133,133 C130.5,130.7 128,128.5 125.5,126.2 C119.1,120.4 112.7,114.5 106.4,108.5 C105.6,107.7 104.7,106.9 103.9,106.2 C101.7,104.1 99.4,102 97.2,99.9 C96.4,99.1 95.5,98.3 94.7,97.6 C93,96 91.3,94.4 89.6,92.8 C93.1,89 98.1,83.6 105.4,75.7 C106.1,74.9 106.8,74.2 107.6,73.4 C107.8,73.2 108,72.9 108.2,72.7 C110.1,70.7 111.8,68.8 113.4,67.1 C114.2,66.3 115,65.5 115.7,64.8 C133.2,47.2 138.9,48.8 170.2,55.7 C170.8,55.8 171.4,56 172.1,56.1 C172.2,56.1 172.4,56.2 172.5,56.2 C173.1,58.3 173.7,60.5 174.2,62.6 C174.4,63.4 174.6,64.1 174.8,64.8 C174.9,65 174.9,65.2 175,65.4 C175,65.5 175.1,65.6 175.1,65.7 C175.1,65.8 175.2,65.9 175.2,66 C175.4,66.4 175.6,66.8 175.8,67.1 C176.2,67.6 176.5,67.9 176.9,68.2 Z" id="XMLID_367_" fill="#1E63F8" fill-rule="nonzero"></path>
                            <path d="M142.5,86.1 C139.6,97.3 136.7,108.5 133.9,119.8 C133.7,120.5 134.8,120.8 135,120.1 C137.9,108.9 140.8,97.7 143.6,86.4 C143.9,85.7 142.7,85.4 142.5,86.1 Z" id="XMLID_366_" fill="#FFFFFF" fill-rule="nonzero"></path>
                            <path d="M85,108.3 C84.2,106.5 83.4,104.8 82.7,103 C82.4,102.3 81.4,102.9 81.7,103.6 C82.5,105.4 83.3,107.1 84,108.9 C84.3,109.6 85.3,109 85,108.3 Z" id="XMLID_353_" fill="#D24A43" fill-rule="nonzero"></path>
                            <path d="M38.7,34.7 C37.2,30 36.6,25.1 37.1,20.2 C37.2,19.4 36,19.5 35.9,20.2 C35.4,25.3 36,30.2 37.5,35 C37.8,35.7 38.9,35.4 38.7,34.7 Z" id="XMLID_348_" fill="#D24A43" fill-rule="nonzero"></path>
                            <path d="M26.4,16.8 C21.7,13.2 18.1,8.6 15.5,3.2 C15.2,2.5 14.2,3.1 14.5,3.8 C17.1,9.4 20.9,14.1 25.8,17.8 C26.4,18.3 27,17.2 26.4,16.8 Z" id="XMLID_347_" fill="#D24A43" fill-rule="nonzero"></path>
                            <path d="M21.1,21.4 C17.1,17.5 13.8,13 11.3,7.9 C11,7.2 10,7.8 10.3,8.5 C12.8,13.6 16.2,18.2 20.3,22.2 C20.8,22.7 21.6,21.9 21.1,21.4 Z" id="XMLID_346_" fill="#D24A43" fill-rule="nonzero"></path>
                            <path d="M15.1,26.9 C11.2,22.7 8.1,18 5.8,12.8 C5.5,12.1 4.5,12.7 4.8,13.4 C7.2,18.7 10.4,23.5 14.3,27.8 C14.8,28.3 15.6,27.5 15.1,26.9 Z" id="XMLID_345_" fill="#D24A43" fill-rule="nonzero"></path>
                        </g>
                        <g id="Legs" stroke-width="1" fill="none" fill-rule="evenodd" transform="translate(93.000000, 247.000000)">
                            <path d="M95.3,351.2 C98.7,309.5 101.1,258.2 94.8,239.3 C94.8,239.3 105.8,85.5 111,0.5 L29,0.5 C26.9,79.8 25.7,167.2 28.2,199.4 C34.7,282 42.7,325.3 46.3,349.2 C62.1,352.2 79.1,353.4 95.3,351.2 Z" id="XMLID_391_" fill="#FFB944" fill-rule="nonzero"></path>
                            <path d="M209.9,337.8 C195,344.2 177.5,345.4 161.2,347.2 C151.7,310.3 124.1,252 116,225.2 C105,189.2 83.9,68.6 85.5,66.2 C86.1,65.2 81.9,36 76.6,2 C76.5,1.5 76.4,1 76.4,0.5 L169.6,0.5 L170.4,12.5 L185.6,230.7 C194.5,244.1 203.8,296.7 209.9,337.8 Z" id="XMLID_387_" fill="#FFB944" fill-rule="nonzero"></path>
                            <path d="M90.3,63.4 C89.9,63.2 89.5,63.1 89.1,63 C84,61.1 78.8,59.3 73.7,57.4 C73,57.1 73.3,56 74,56.3 C79,58.1 83.9,59.9 88.9,61.7 C89.3,61.9 89.7,62 90.1,62.1 C90.1,62.5 90.2,62.9 90.3,63.4 Z" id="XMLID_356_" fill="#FFFFFF" fill-rule="nonzero"></path>
                        </g>
                        <g id="Body" stroke-width="1" fill="none" fill-rule="evenodd" transform="translate(122.000000, 81.000000)">
                            <path d="M140.6,166.5 L101.2,167.1 L47.6,168 L0.4,168.8 C0.5,166.3 0.5,163.9 0.6,161.4 C0.6,160.6 0.6,159.8 0.7,159.1 C0.8,157 0.8,154.9 0.9,152.8 C0.9,152 0.9,151.2 1,150.5 C1.9,118.7 2.8,89.3 3.7,66.4 C3.9,60 4.2,54.1 4.4,48.7 C4.4,47.9 4.5,47.1 4.5,46.4 C4.6,44.2 4.7,42.1 4.8,40.1 C4.8,39.3 4.9,38.5 4.9,37.8 C5.5,25.2 6.1,17.9 6.4,17.6 C6.4,17.6 8.5,16.9 11.9,15.9 C13.9,15.2 16.4,14.4 19.2,13.6 C25,11.7 32,9.5 38.5,7.3 C41,6.5 43.4,5.7 45.7,5 C46.5,4.8 47.2,4.5 47.9,4.3 C49.5,3.8 51,3.3 52.3,2.8 C52.3,2.8 52.4,2.8 52.4,2.8 C55.6,1.7 57.7,1 58.1,0.7 L59.6,1.1 L75,4.8 L75.9,5 L79.9,6 L83.7,6.9 L83.9,6.9 L85.6,7.3 L88.7,8.1 L96.6,10 L98,13.6 L98.9,15.9 L107.3,37.8 L108.2,40.1 L110.6,46.4 L111.5,48.7 L125.4,85.1 L125.4,85.2 L125.4,85.2 L136.6,114.5 L139.6,150.5 L139.8,152.8 L139.9,154.4 L140.3,159.1 L140.5,161.4 L140.6,166.5 Z" id="XMLID_389_" fill="#1E63F8" fill-rule="nonzero"></path>
                            <path d="M140.8,168.9 L140.6,166.5 L139.6,154.3 C124.8,158.1 114.6,149.1 105.5,138.2 C102.5,134.6 98.3,136.5 96.5,139.8 C95.9,139.9 95.2,140 94.6,140.3 C105.5,156.3 121.9,166.8 140.8,168.9 Z" id="XMLID_364_" fill="#000000" fill-rule="nonzero"></path>
                        </g>
                        <g id="Notebook" stroke-width="1" fill="none" fill-rule="evenodd" transform="translate(118.000000, 129.000000)">
                            <path d="M82.8,121 L4.1,121 C1.8,121 -1.13686838e-13,119.1 -1.13686838e-13,116.9 L-1.13686838e-13,4.8 C-1.13686838e-13,2.5 1.9,0.7 4.1,0.7 L82.8,0.7 C85.1,0.7 86.9,2.6 86.9,4.8 L86.9,116.9 C87,119.2 85.1,121 82.8,121 Z" id="XMLID_1369_" fill="#003865" fill-rule="nonzero"></path>
                            <path d="M50.6,30.9 C46.5,36.2 42.5,41.5 38.4,46.9 C37.9,47.5 39,48.1 39.4,47.5 L51.6,31.5 C52,30.9 51,30.3 50.6,30.9 Z" id="XMLID_363_" fill="#FFFFFF" fill-rule="nonzero"></path>
                            <path d="M54.1,35 C50,40.3 46,45.6 41.9,51 C41.4,51.6 42.5,52.2 42.9,51.6 L55.1,35.6 C55.6,35 54.6,34.4 54.1,35 Z" id="XMLID_362_" fill="#FFFFFF" fill-rule="nonzero"></path>
                            <path d="M81.1,5.3 L81.1,112.2 C81.1,113 82.3,113 82.3,112.2 L82.3,5.3 C82.2,4.6 81.1,4.6 81.1,5.3 Z" id="XMLID_361_" fill="#FFFFFF" fill-rule="nonzero"></path>
                        </g>
                        <g id="Hand_1_" stroke-width="1" fill="none" fill-rule="evenodd" transform="translate(108.000000, 82.000000)">
                            <path d="M154.1,158.9 C146.5,159 137,157.8 125.1,155.1 C76,144.1 41.7,132.8 20.4,122 C19.1,121.4 17.5,120.5 15.8,119.5 C11.3,116.8 6.5,112.9 5.9,109.1 C1.4,106.9 1.4,102.2 3.2,98.1 C0.5,95.1 1.4,91 3.6,87.1 C0.4,82.1 2.1,76.3 8.6,76.8 C11,76.2 14.1,76.2 17.2,76.4 C20.1,76.6 23.1,77.2 25.5,77.7 C22.5,75.8 19.5,73.3 17.4,71 C14.8,68 13.7,65 16.1,63.2 C16.6,62.8 17.1,62.8 17.7,62.9 C20,63.5 23.3,67 29,69.8 C39.2,74.9 44.9,82.1 47.6,85.7 L110.4,95.7 L110.4,77.8 C111.7,77.9 124.6,78.5 137.3,79.1 C141.5,79.3 145.7,79.5 149.4,79.7 C153.1,79.9 156.4,80.1 158.6,80.2 C163,80.4 167.3,80.8 171.5,81.4 C171.6,81.7 171.7,82.1 171.7,82.4 C171.9,83.3 172.1,84.2 172.3,85 C172.5,85.8 172.7,86.6 172.8,87.3 C182.7,131.8 187.7,158.5 154.1,158.9 Z" id="XMLID_360_" fill="#FFA79B" fill-rule="nonzero"></path>
                            <path d="M172.5,85.9 C170.9,85.8 164.3,85.5 155.7,85 C150.7,84.7 145,84.4 139.2,84.1 L139.2,84.1 C123.2,83.3 106.9,82.3 103,82 L102.6,79.7 L102.2,77.4 L97,47.6 L96.6,45.3 L95.5,39 L95.1,36.7 L91.5,15.9 C91.5,15.9 91.5,15.5 91.5,14.8 C91.5,14.2 91.5,13.4 91.6,12.5 C91.7,10.4 92,7.9 92.6,6.2 C92.8,5.7 93,5.3 93.3,5 C93.3,5 93.5,4.9 93.8,4.8 C94.4,4.6 95.4,4.2 96.4,3.8 C98.1,3.2 99.9,2.6 100.2,2.5 C100.7,2.4 104.3,0.7 104.8,0.8 C105.1,0.9 105.5,0.9 105.8,1 C111.7,2 117.2,2.9 122.3,3.9 C125.8,4.6 129.1,5.3 132.2,6.2 C137.1,7.7 141.6,9.6 145.5,12.5 C146.5,13.2 147.4,14 148.4,14.8 C153.6,19.6 157.8,26.5 160.8,36.7 C161,37.5 161.3,38.3 161.5,39 C161.7,39.9 162,40.8 162.2,41.7 C162.5,42.9 162.8,44 163.1,45.2 C163.3,46 163.5,46.8 163.7,47.5 C166.2,57.8 168.6,67.8 170.8,77.3 C171,78.1 171.2,78.9 171.3,79.6 C171.7,81.4 172.1,83.1 172.5,84.9 C172.4,85.3 172.5,85.6 172.5,85.9 Z" id="XMLID_359_" fill="#1E63F8" fill-rule="nonzero"></path>
                            <path d="M108.7,45.7 C108.7,44.9 107.5,44.9 107.5,45.7 C107.9,56.1 108.3,66.6 108.7,77 C108.7,77.8 109.9,77.8 109.9,77 C109.5,66.6 109.1,56.1 108.7,45.7 Z" id="XMLID_355_" fill="#FFFFFF" fill-rule="nonzero"></path>
                            <path d="M120,97 C117.5,96.6 114.9,96.2 112.4,95.8 C111.7,95.7 111.3,96.8 112.1,96.9 C114.6,97.3 117.2,97.7 119.7,98.1 C120.4,98.3 120.7,97.1 120,97 Z" id="XMLID_354_" fill="#000000" fill-rule="nonzero"></path>
                            <path d="M6.7,77.8 C5.1,79.2 3.9,80.9 3.5,83 C3.3,83.9 3.7,85.1 3.4,85.8 C3.1,86.6 2.4,86.9 1.9,87.6 C-0.4,90.3 -0.4,94.3 1.6,97.1 C2,97.7 3.1,97.1 2.6,96.5 C0.3,93.4 1.1,89 4.5,87 C4.7,86.9 4.8,86.6 4.8,86.3 C4.2,83.3 5.2,80.5 7.6,78.5 C8.1,78.1 7.2,77.3 6.7,77.8 Z" id="XMLID_352_" fill="#D24A43" fill-rule="nonzero"></path>
                            <path d="M8.5,103.8 C8.1,103.4 7.7,103 7.3,102.6 C6.8,102.1 5.9,102.9 6.5,103.4 L7.7,104.6 C8.2,105.2 9,104.3 8.5,103.8 Z" id="XMLID_351_" fill="#D24A43" fill-rule="nonzero"></path>
                            <path d="M9.2,95.8 C8.7,95.3 8.3,94.8 7.8,94.2 C7.3,93.6 6.5,94.5 7,95 C7.5,95.5 7.9,96 8.4,96.6 C8.9,97.2 9.7,96.3 9.2,95.8 Z" id="XMLID_350_" fill="#D24A43" fill-rule="nonzero"></path>
                            <path d="M12.6,84.4 C11.9,83.6 11.2,82.7 10.4,81.9 C9.9,81.3 9.1,82.2 9.6,82.7 C10.3,83.5 11,84.4 11.8,85.2 C12.2,85.8 13.1,85 12.6,84.4 Z" id="XMLID_349_" fill="#D24A43" fill-rule="nonzero"></path>
                        </g>
                        <g id="Head" stroke-width="1" fill="none" fill-rule="evenodd" transform="translate(163.000000, 0.000000)">
                            <path d="M27.6,9.6 C27.6,9.2 28.5,5.1 28.5,4.7 C23.8,4.4 20.8,9.9 23.8,13.8 C25,12.3 26.3,10.9 27.6,9.6 Z" id="XMLID_386_" fill="#952C28" fill-rule="nonzero"></path>
                            <path d="M35.1,45.1 L7.6,52.9 C8,53.3 9.4,67.5 10.6,80.8 C15.7,83.4 20.6,86.1 25.4,89.1 C29.4,89.6 33.3,90 37.3,90.5 C38.4,89.7 39.4,89 40.4,88.4 C42,87.2 43.8,86.1 45.6,85 L35.1,45.1 Z" id="XMLID_87_" fill="#FFA79B" fill-rule="nonzero"></path>
                            <path d="M26.3,49.9 C26.4,48.8 26.4,47.8 26.4,46.7 L7.6,52.9 C7.9,53.2 8.7,60.9 9.6,70.1 C17.2,64.9 23.5,58 26.3,49.9 Z" id="XMLID_383_" fill="#000000" fill-rule="nonzero" opacity="0.215099516"></path>
                            <path d="M56.2,31 C57.3,22.4 45.6,11.6 35.5,8.9 C31.1,7.7 30.6,4 28,6.7 C21.6,13.4 1.1,33.8 0.6,42.8 C-0.1,55.9 15.1,61 26,57.7 C37,54.3 54.7,43.3 56.2,31 Z" id="XMLID_1371_" fill="#FFA79B" fill-rule="nonzero"></path>
                            <path d="M32.6,0.8 C37.3,1.8 41.5,8.1 42.6,12 C50.3,16.5 57.1,24.4 56.2,31.1 C55.1,39.3 46.9,47 38.3,52.1 C36.5,48.9 41.9,42.9 41.6,38.7 C35.9,29 36.9,25.1 39.3,21.3 C36,21 26.4,10.6 26.7,6.6 C27.5,0.9 31.1,0.5 32.6,0.8 Z" id="XMLID_381_" fill="#952C28" fill-rule="nonzero"></path>
                            <path d="M28.2,27.2 C27.4,28.1 27,28.4 26.2,29.3 C25.7,29.8 26.5,30.7 27,30.1 C27.8,29.2 28.2,28.9 29,28 C29.5,27.5 28.7,26.6 28.2,27.2 Z" id="XMLID_380_" fill="#000000" fill-rule="nonzero"></path>
                            <path d="M18.2,18.7 C17.4,19.6 17,19.9 16.2,20.8 C15.7,21.3 16.5,22.2 17,21.6 C17.8,20.7 18.2,20.4 19,19.5 C19.6,19 18.8,18.2 18.2,18.7 Z" id="XMLID_379_" fill="#000000" fill-rule="nonzero"></path>
                            <path d="M17.3,30.6 C16.5,30.3 15.4,30 14.9,29.2 C14.6,28.6 14.7,27.8 15.4,27.7 C16.1,27.6 15.8,26.5 15.1,26.6 C13.9,26.8 13.4,28.1 13.6,29.2 C13.9,30.7 15.6,31.3 16.9,31.7 C17.7,32 18,30.9 17.3,30.6 Z" id="XMLID_378_" fill="#D24A43" fill-rule="nonzero"></path>
                            <path d="M21.9,46.3 C21.1,47.5 19.4,48 18,47.4 C17.3,47.1 16.7,48.1 17.4,48.4 C19.4,49.3 21.7,48.6 22.9,46.8 C23.3,46.3 22.3,45.7 21.9,46.3 Z" id="XMLID_377_" fill="#D24A43" fill-rule="nonzero"></path>
                            <path d="M33.1,24.6 L32.2,22.8 C31.5,21.4 29.5,22.6 30.2,24 L31.1,25.8 C31.7,27.1 33.7,26 33.1,24.6 Z" id="XMLID_376_" fill="#952C28" fill-rule="nonzero"></path>
                            <path d="M22.3,15.4 C21.6,14.9 20.9,14.4 20.2,13.9 C19.7,13.5 18.9,13.8 18.6,14.3 C18.3,14.9 18.5,15.5 19,15.9 C19.7,16.4 20.4,16.9 21.1,17.4 C21.6,17.8 22.4,17.5 22.7,17 C23.1,16.4 22.8,15.8 22.3,15.4 Z" id="XMLID_375_" fill="#952C28" fill-rule="nonzero"></path>
                            <path d="M20.4,23.2 C18.6,24.5 16.3,24.9 14.3,23.7 C11.2,21.9 12.5,18.9 14.3,16.8 C14.8,16.2 14,15.4 13.5,16 C11.5,18.4 9.9,21.6 12.8,24.1 C15.1,26.1 18.6,26 21,24.2 C21.6,23.8 21,22.8 20.4,23.2 Z" id="XMLID_374_" fill="#FFFFFF" fill-rule="nonzero"></path>
                            <path d="M24.3,26.8 C23.6,28.9 24,31.2 25.6,32.8 C28.2,35.2 30.7,33.1 32.2,30.7 C32.6,30.1 33.7,30.6 33.2,31.2 C31.5,33.9 28.9,36.3 25.7,34.3 C23.1,32.7 22.1,29.3 23.1,26.5 C23.4,25.8 24.5,26.1 24.3,26.8 Z" id="XMLID_373_" fill="#FFFFFF" fill-rule="nonzero"></path>
                            <path d="M23.5,26.7 L20.5,24 C19.9,23.5 19.1,24.3 19.7,24.8 C20.7,25.7 21.7,26.6 22.7,27.5 C23.3,28.1 24.1,27.2 23.5,26.7 Z" id="XMLID_372_" fill="#FFFFFF" fill-rule="nonzero"></path>
                            <path d="M49.5,41.8 C43.8,38.4 38,35 32.3,31.6 C32,31.9 31.7,32.1 31.4,32.3 C31.4,32.4 31.5,32.4 31.6,32.5 C37.4,35.9 43.2,39.3 48.9,42.8 C49.5,43.1 50.2,42.1 49.5,41.8 Z" id="XMLID_371_" fill="#FFFFFF" fill-rule="nonzero"></path>
                            <path d="M51.8,48.8 C53,43.8 48.1,37.4 41.1,38.1 C37.9,42.7 34.6,47.1 31.2,51.5 C32.9,54.3 37.9,57.7 42.4,57.4 C47.4,57 50.5,54.2 51.8,48.8 Z" id="XMLID_1370_" fill="#FFA79B" fill-rule="nonzero"></path>
                            <path d="M45.4,46.5 C43.8,46.2 42.3,46 40.7,45.7 C40,45.6 39.6,46.7 40.4,46.8 C42,47.1 43.5,47.3 45.1,47.6 C45.8,47.7 46.2,46.6 45.4,46.5 Z" id="XMLID_369_" fill="#D24A43" fill-rule="nonzero"></path>
                            <path d="M49.8,82.8 L45.5,85.8 L42.2,88.1 L42.2,88.1 L18.2,105 C18.2,105 15.8,97.8 13.3,90.2 C13,89.2 12.6,88.1 12.3,87.1 C12.3,87 12.2,86.9 12.2,86.8 C12.2,86.7 12.1,86.6 12.1,86.5 C11.8,85.6 11.5,84.6 11.2,83.7 C10.4,81.3 9.7,79 9.2,77.2 C9.3,77.2 9.5,77.3 9.6,77.3 C9.6,77.2 48.9,82.6 49.8,82.8 Z" id="XMLID_1361_" fill="#FFA79B" fill-rule="nonzero"></path>
                        </g>
                    </g>
                </g>
            </g>
            <path d="M103.414,147.866 L90.259,147.866 C86.802,147.866 84,145.064 84,141.607 L84,129.259 C84,125.802 86.802,123 90.259,123 L103.414,123 C106.87,123 109.672,125.802 109.672,129.259 L109.672,141.607 C109.672,145.064 106.87,147.866 103.414,147.866" id="Fill-7" fill="#FFB944"></path>
            <path d="M55.6121845,293 L46.3885167,293 C43.9646307,293 42,291.084372 42,288.720944 L42,280.279056 C42,277.915628 43.9646307,276 46.3885167,276 L55.6121845,276 C58.0353693,276 60,277.915628 60,280.279056 L60,288.720944 C60,291.084372 58.0353693,293 55.6121845,293" id="Fill-7-Copy" fill="#1E63F8"></path>
            <path d="M366.591,394.567 L359.415,394.567 C357.529,394.567 356,393.038 356,391.152 L356,384.415 C356,382.529 357.529,381 359.415,381 L366.591,381 C368.477,381 370.007,382.529 370.007,384.415 L370.007,391.152 C370.007,393.038 368.477,394.567 366.591,394.567" id="Fill-8" fill="#FFB944"></path>
            <path d="M385.716548,120 L324.283452,120 C319.156317,120 315,115.118964 315,109.097832 L315,50.9030584 C315,44.8810359 319.156317,40 324.283452,40 L385.716548,40 C390.843683,40 395,44.8810359 395,50.9030584 L395,109.097832 C395,115.118964 390.843683,120 385.716548,120" id="Fill-16" fill="url(#linearGradient-3)"></path>
            <g id="search" transform="translate(341.000000, 66.000000)" fill="#FFFFFF">
                <g id="-Round-/-Action-/-search">
                    <path d="M20.6,18.2 L19.336,18.2 L18.888,17.768 C20.808,15.528 21.8,12.472 21.256,9.224 C20.504,4.776 16.792,1.224 12.312,0.68 C5.544,-0.152 -0.152,5.544 0.68,12.312 C1.224,16.792 4.776,20.504 9.224,21.256 C12.472,21.8 15.528,20.808 17.768,18.888 L18.2,19.336 L18.2,20.6 L25,27.4 C25.656,28.056 26.728,28.056 27.384,27.4 C28.04,26.744 28.04,25.672 27.384,25.016 L20.6,18.2 Z M11,18.2 C7.016,18.2 3.8,14.984 3.8,11 C3.8,7.016 7.016,3.8 11,3.8 C14.984,3.8 18.2,7.016 18.2,11 C18.2,14.984 14.984,18.2 11,18.2 Z" id="🔹Icon-Color"></path>
                </g>
            </g>
        </g>
    </g>
</svg>