<?xml version="1.0" encoding="UTF-8"?>
<svg width="475px" height="420px" viewBox="0 0 475 420" version="1.1" xmlns="http://www.w3.org/2000/svg" xmlns:xlink="http://www.w3.org/1999/xlink">
    <!-- Generator: Sketch 60 (88103) - https://sketch.com -->
    <title>img-1click</title>
    <desc>Created with Sketch.</desc>
    <defs>
        <path d="M93.8,0.8 C101.7529,0.8 108.2,7.2470996 108.2,15.2 L108.2,81.4 C108.2,89.3529004 101.7529,95.8 93.8,95.8 L30.013,95.8 L24.7,100.8 L19.387,95.8 L14.6,95.8 C6.6470996,95.8 0.2,89.3529004 0.2,81.4 L0.2,15.2 C0.2,7.2470996 6.6470996,0.8 14.6,0.8 L93.8,0.8 Z" id="path-1"></path>
        <filter x="-17.1%" y="-11.5%" width="134.3%" height="137.0%" filterUnits="objectBoundingBox" id="filter-2">
            <feOffset dx="0" dy="7" in="SourceAlpha" result="shadowOffsetOuter1"></feOffset>
            <feGaussianBlur stdDeviation="5" in="shadowOffsetOuter1" result="shadowBlurOuter1"></feGaussianBlur>
            <feComposite in="shadowBlurOuter1" in2="SourceAlpha" operator="out" result="shadowBlurOuter1"></feComposite>
            <feColorMatrix values="0 0 0 0 0.51372549   0 0 0 0 0.525490196   0 0 0 0 0.639215686  0 0 0 0.12 0" type="matrix" in="shadowBlurOuter1"></feColorMatrix>
        </filter>
        <filter x="-125.0%" y="-125.0%" width="350.0%" height="350.0%" filterUnits="objectBoundingBox" id="filter-3">
            <feOffset dx="0" dy="8" in="SourceAlpha" result="shadowOffsetOuter1"></feOffset>
            <feGaussianBlur stdDeviation="5" in="shadowOffsetOuter1" result="shadowBlurOuter1"></feGaussianBlur>
            <feColorMatrix values="0 0 0 0 0   0 0 0 0 0   0 0 0 0 0  0 0 0 0.118143575 0" type="matrix" in="shadowBlurOuter1" result="shadowMatrixOuter1"></feColorMatrix>
            <feMerge>
                <feMergeNode in="shadowMatrixOuter1"></feMergeNode>
                <feMergeNode in="SourceGraphic"></feMergeNode>
            </feMerge>
        </filter>
        <filter x="-129.6%" y="-129.6%" width="359.3%" height="359.3%" filterUnits="objectBoundingBox" id="filter-4">
            <feOffset dx="0" dy="8" in="SourceAlpha" result="shadowOffsetOuter1"></feOffset>
            <feGaussianBlur stdDeviation="5" in="shadowOffsetOuter1" result="shadowBlurOuter1"></feGaussianBlur>
            <feColorMatrix values="0 0 0 0 0   0 0 0 0 0   0 0 0 0 0  0 0 0 0.118143575 0" type="matrix" in="shadowBlurOuter1" result="shadowMatrixOuter1"></feColorMatrix>
            <feMerge>
                <feMergeNode in="shadowMatrixOuter1"></feMergeNode>
                <feMergeNode in="SourceGraphic"></feMergeNode>
            </feMerge>
        </filter>
        <linearGradient x1="96.8524205%" y1="3.14757948%" x2="-7.784182%" y2="109.520968%" id="linearGradient-5">
            <stop stop-color="#7E81FF" offset="0%"></stop>
            <stop stop-color="#8B8DFF" offset="100%"></stop>
        </linearGradient>
        <filter x="-125.0%" y="-125.0%" width="350.0%" height="350.0%" filterUnits="objectBoundingBox" id="filter-6">
            <feOffset dx="0" dy="8" in="SourceAlpha" result="shadowOffsetOuter1"></feOffset>
            <feGaussianBlur stdDeviation="5" in="shadowOffsetOuter1" result="shadowBlurOuter1"></feGaussianBlur>
            <feColorMatrix values="0 0 0 0 0   0 0 0 0 0   0 0 0 0 0  0 0 0 0.118143575 0" type="matrix" in="shadowBlurOuter1" result="shadowMatrixOuter1"></feColorMatrix>
            <feMerge>
                <feMergeNode in="shadowMatrixOuter1"></feMergeNode>
                <feMergeNode in="SourceGraphic"></feMergeNode>
            </feMerge>
        </filter>
    </defs>
    <g id="desktop-🖥" stroke="none" stroke-width="1" fill="none" fill-rule="evenodd">
        <g id="img-1click">
            <rect id="Rectangle" fill="#F6F8FA" x="55" y="0" width="420" height="420" rx="210"></rect>
            <g id="Group-4">
                <g id="Window_2" transform="translate(267.800000, 38.200000)">
                    <g id="Window" transform="translate(0.000000, 1.000000)">
                        <g id="Combined-Shape">
                            <use fill="black" fill-opacity="1" filter="url(#filter-2)" xlink:href="#path-1"></use>
                            <use fill="#FFFFFF" fill-rule="evenodd" xlink:href="#path-1"></use>
                        </g>
                    </g>
                    <g id="Arrow" transform="translate(56.200000, 0.200000)"></g>
                </g>
                <g id="Notebook" transform="translate(258.000000, 163.800000)" fill="#042C5C">
                    <path d="M53.6623636,1.84875859 C48.21,18.5151934 42.7576364,35.2275412 37.3052727,51.893976 C36.9387273,53.0418021 38.7714545,53.5468456 39.138,52.3990195 C44.5903636,35.7325847 50.0427273,19.0202369 55.4950909,2.35380207 C55.9074545,1.20597599 54.0289091,0.700932507 53.6623636,1.84875859 Z" id="XMLID_344_" stroke="#042C5C" stroke-width="1.2" fill-rule="nonzero"></path>
                    <path d="M37.7176364,51.4807586 L6.92781818,51.4807586 C5.69072727,51.4807586 5.69072727,53.4091064 6.92781818,53.4091064 L37.7176364,53.4091064 C38.9089091,53.3631934 38.9089091,51.4807586 37.7176364,51.4807586 Z" id="XMLID_343_" stroke="#042C5C" stroke-width="1.2" fill-rule="nonzero"></path>
                    <path d="M54.1675,0.700625 L41.6179591,4.92146241 C40.8877828,5.16704551 40.3198775,5.74821203 40.0912112,6.48386148 L27,48.6 L27,48.6 L2.33973214,48.6 L1.2,48.6 L0.165401786,52.24 L16.2723214,53.4091064 L37.7176364,53.4091064 L49.4035714,18.5792411" id="Path-18"></path>
                </g>
                <g id="Cup" transform="translate(265.200000, 189.600000)"></g>
                <g id="Wi_Fi" transform="translate(286.800000, 172.800000)"></g>
                <g id="Books" transform="translate(364.800000, 201.600000)" fill-rule="nonzero">
                    <path d="M52.44,11.44 C52.21,9.83272727 52.44,8.22545455 52.9,6.71272727 L2.944,6.71272727 C0.23,10.0690909 0.506,12.7636364 2.944,14.9854545 L54.096,14.9854545 C53.222,14.1345455 52.624,12.9527273 52.44,11.44 Z" id="XMLID_384_" fill="#BCD7FD"></path>
                    <path d="M43.286,2.08 C43.424,1.60727273 43.608,1.13454545 43.792,0.709090909 L2.944,0.709090909 C1.104,2.64727273 1.196,4.82181818 2.944,7.13818182 L44.712,7.13818182 C43.516,5.81454545 42.734,4.16 43.286,2.08 Z" id="XMLID_383_" fill="#BCD7FD"></path>
                    <path d="M44.988,6.85454545 L2.576,6.85454545 C2.392,6.85454545 2.208,6.76 2.116,6.61818182 C1.012,5.29454545 0.092,3.16727273 2.07,0.330909091 C2.208,0.141818182 2.392,0.0472727273 2.576,0.0472727273 L44.62,0.0472727273 C44.988,0.0472727273 45.264,0.330909091 45.264,0.709090909 C45.264,1.08727273 44.988,1.37090909 44.62,1.37090909 L2.898,1.37090909 C1.932,2.93090909 1.886,4.25454545 2.852,5.53090909 L44.942,5.53090909 C45.31,5.53090909 45.586,5.81454545 45.586,6.19272727 C45.586,6.57090909 45.356,6.85454545 44.988,6.85454545 Z" id="XMLID_2522_" fill="#7195C7"></path>
                    <path d="M54.372,15.4581818 L2.3,15.4581818 C2.116,15.4581818 1.886,15.3636364 1.794,15.1745455 C-0.138,12.4327273 -0.138,9.50181818 1.794,6.47636364 C1.932,6.28727273 2.116,6.19272727 2.346,6.19272727 L53.958,6.19272727 C54.326,6.19272727 54.602,6.47636364 54.602,6.85454545 C54.602,7.23272727 54.326,7.51636364 53.958,7.51636364 L2.668,7.51636364 C1.288,9.88 1.288,12.0545455 2.668,14.1818182 L54.418,14.1818182 C54.786,14.1818182 55.062,14.4654545 55.062,14.8436364 C55.062,15.2218182 54.74,15.4581818 54.372,15.4581818 Z" id="XMLID_2521_" fill="#7195C7"></path>
                    <path d="M49.174,8.65090909 L3.358,8.65090909 C2.944,8.65090909 2.944,9.31272727 3.358,9.31272727 L49.174,9.31272727 C49.588,9.31272727 49.588,8.65090909 49.174,8.65090909 Z" id="XMLID_268_" fill="#FFFFFF"></path>
                    <path d="M44.942,10.7781818 L22.632,10.7781818 C22.218,10.7781818 22.218,11.44 22.632,11.44 L44.942,11.44 C45.31,11.3927273 45.31,10.7781818 44.942,10.7781818 Z" id="XMLID_267_" fill="#FFFFFF"></path>
                </g>
                <g id="Group-3" transform="translate(253.200000, 175.200000)" fill-rule="nonzero">
                    <rect id="XMLID_2482_" fill="#7195C7" x="0.24" y="12.2564919" width="21.6" height="30" rx="2.4"></rect>
                    <path d="M28.572,19.9224922 C27.084,17.2344922 23.772,18.7704922 21.372,18.0504922 C20.124,17.6664922 19.596,19.5864922 20.844,19.9704922 C22.14,20.3544922 24.684,19.8264922 25.692,20.2584922 C28.188,21.4104922 27.18,31.5864922 26.844,33.4584922 C26.22,37.1544922 23.1,36.9624922 20.172,36.7704922 C18.876,36.6744922 18.876,38.6904922 20.172,38.7864922 C22.62,38.9304922 25.356,39.0264922 27.372,37.3464922 C29.724,35.4264922 29.964,22.4664922 28.572,19.9224922 Z" id="XMLID_2471_" fill="#7195C7"></path>
                    <path d="M9.984,0.208491923 C8.256,2.36849192 8.016,5.34449192 9.6,7.64849192 C10.08,8.36849192 11.232,7.69649192 10.752,6.97649192 C9.552,5.20049192 9.552,2.84849192 10.944,1.16849192 C11.472,0.496491923 10.512,-0.415508077 9.984,0.208491923 Z" id="XMLID_330_" fill="#BCD7FD"></path>
                    <path d="M12.96,0.208491923 C11.184,2.36849192 10.992,5.34449192 12.576,7.64849192 C13.056,8.36849192 14.208,7.69649192 13.728,6.97649192 C12.528,5.20049192 12.528,2.84849192 13.92,1.16849192 C14.448,0.496491923 13.488,-0.415508077 12.96,0.208491923 Z" id="XMLID_329_" fill="#BCD7FD"></path>
                </g>
                <g id="Arrows" transform="translate(52.800000, 0.000000)"></g>
                <g id="Ornament" transform="translate(415.200000, 31.200000)"></g>
                <g id="Woman" transform="translate(112.800000, 102.000000)" fill-rule="nonzero">
                    <g id="Legs" transform="translate(0.000000, 131.184689)">
                        <path d="M124.034483,54.7058373 C98.817931,85.3155981 107.011034,154.050909 107.011034,154.050909 L168.14069,154.050909 C168.14069,154.050909 167.822069,138.92823 147.976552,137.01512 C128.131034,135.10201 144.198621,116.19866 169.415172,56.3000957 L124.034483,54.7058373 Z" id="XMLID_380_" fill="#ED9F94"></path>
                        <path d="M147.976552,136.969569 C135.914483,135.830813 137.097931,128.360574 145.609655,109.183923 C132.637241,109.366124 119.664828,108.364019 106.737931,106.67866 C104.325517,131.594641 107.011034,154.005359 107.011034,154.005359 L168.14069,154.005359 C168.14069,154.005359 167.822069,138.882679 147.976552,136.969569 Z" id="XMLID_379_" fill="#BCD7FD"></path>
                        <path d="M221.304828,137.835024 C195.997241,132.460096 201.550345,118.703923 195.132414,75.9322488 C188.577931,32.0673684 186.529655,24.0049761 151.481379,20.6798086 C144.471724,38.6721531 137.735172,56.8011483 133.001379,75.4767464 C142.05931,75.0667943 147.657931,74.6568421 147.657931,74.6568421 C147.657931,74.6568421 146.383448,81.7171292 178.336552,154.005359 L237.463448,154.005359 C237.463448,154.005359 239.693793,141.706794 221.304828,137.835024 Z" id="XMLID_260_" fill="#ED9F94"></path>
                        <path d="M221.304828,137.835024 C202.642759,133.872153 200.776552,125.354258 198.50069,103.991196 C186.302069,108.227368 173.784828,111.461435 160.994483,113.374545 C165.273103,123.896651 170.917241,137.197321 178.336552,154.050909 L237.463448,154.050909 C237.463448,154.005359 239.693793,141.706794 221.304828,137.835024 Z" id="XMLID_359_" fill="#BCD7FD"></path>
                        <path d="M106.282759,17.901244 C94.9489655,17.2635407 84.0248276,17.2635407 73.737931,16.6258373 C73.0551724,12.754067 72.5089655,6.74143541 72.0537931,0.136650718 C48.5213793,0.819904306 24.9889655,2.59636364 1.54758621,4.73722488 C1.09241379,8.92784689 0.682758621,13.2551196 0.409655172,17.7190431 C-4.41517241,90.8727273 60.4924138,76.3877512 96.6331034,76.3877512 C115.886897,76.3877512 132.50069,75.6133971 141.194483,75.1123445 C146.383448,57.2566507 150.388966,38.9910048 155.532414,21.135311 C155.532414,21.135311 155.532414,21.135311 155.532414,21.135311 C143.788966,19.7232536 127.994483,19.1766507 106.282759,17.901244 Z" id="XMLID_194_" fill="#FECA55"></path>
                        <path d="M221.304828,137.835024 C214.750345,136.468517 210.244138,134.509856 207.103448,131.594641 C203.325517,133.507751 199.593103,135.466411 195.678621,137.15177 C188.486897,140.294737 181.158621,142.162297 173.375172,142.7089 C174.922759,146.307368 176.561379,150.042488 178.336552,154.050909 L237.463448,154.050909 C237.463448,154.005359 239.693793,141.706794 221.304828,137.835024 Z" id="XMLID_357_" fill="#1E63F8"></path>
                        <path d="M147.976552,136.969569 C145.108966,136.696268 142.969655,136.058565 141.513103,135.010909 C137.871724,137.06067 134.184828,139.01933 130.088276,140.158086 C122.25931,142.298947 114.111724,142.071196 106.055172,141.980096 C106.41931,149.404785 106.965517,154.050909 106.965517,154.050909 L168.095172,154.050909 C168.14069,154.005359 167.822069,138.882679 147.976552,136.969569 Z" id="XMLID_354_" fill="#1E63F8"></path>
                        <path d="M152.664828,89.7795215 C151.29931,85.6344498 149.933793,81.489378 148.568276,77.3443062 C148.431724,76.9799043 147.84,77.116555 147.976552,77.5265072 C149.342069,81.6715789 150.707586,85.8166507 152.073103,89.9617225 C152.209655,90.3261244 152.801379,90.1439234 152.664828,89.7795215 Z" id="XMLID_265_" stroke="#042C5C" stroke-width="1.2" fill="#042C5C"></path>
                        <path d="M131.908966,33.0694737 C119.437241,32.5228708 107.011034,31.794067 94.5848276,30.8830622 C88.3489655,30.4275598 82.1586207,29.8809569 75.9682759,29.3343541 C73.0096552,29.0610526 70.0510345,28.8333014 67.0924138,28.4688995 C64.3158621,28.1500478 61.4482759,27.603445 58.9903448,26.1458373 C53.937931,23.0939713 52.7544828,16.8080383 51.8441379,11.43311 C51.7986207,11.0231579 51.1613793,11.2053589 51.2524138,11.615311 C52.0262069,16.1247847 52.8910345,21.0442105 56.0772414,24.5515789 C59.582069,28.377799 64.9075862,28.9244019 69.777931,29.4254545 C83.0234483,30.7008612 96.2689655,31.794067 109.56,32.6139713 C117.024828,33.0694737 124.489655,33.4794258 131.954483,33.7982775 C132.273103,33.707177 132.273103,33.0694737 131.908966,33.0694737 Z" id="XMLID_2314_" stroke="#FFFFFF" stroke-width="1.2" fill="#FFFFFF"></path>
                        <path d="M29.2675862,59.03311 C29.04,58.4865072 28.0386207,57.7121531 27.6289655,57.302201 C27.0827586,56.7100478 26.582069,56.1178947 26.0358621,55.4801914 C24.897931,54.1592344 23.8510345,52.747177 22.8496552,51.3351196 C19.0717241,45.9601914 16.1586207,40.0386603 14.2013793,33.7982775 C14.1558621,33.6160766 13.9737931,33.5249761 13.7917241,33.5705263 C10.7875862,34.1171292 7.82896552,34.6181818 4.82482759,35.1647847 C4.41517241,35.2558852 4.59724138,35.8480383 5.00689655,35.7569378 C7.87448276,35.2558852 10.7875862,34.7092823 13.6551724,34.2082297 C15.5213793,39.99311 18.1613793,45.504689 21.5296552,50.5152153 C23.1682759,52.9749282 24.9889655,55.2979904 26.9917241,57.5299522 C27.4924138,58.076555 28.3572414,58.7142584 28.5393103,59.4430622 C28.7213793,60.171866 28.3117241,61.1739713 28.1751724,61.9027751 C27.7655172,63.8158852 27.3558621,65.7289952 26.9462069,67.6876555 C26.8551724,68.0976077 27.4924138,68.2342584 27.537931,67.8698565 C27.902069,66.0478469 28.3117241,64.2258373 28.6758621,62.4038278 C28.9034483,61.4472727 29.5862069,59.9441148 29.2675862,59.03311 Z" id="XMLID_2303_" stroke="#FFFFFF" stroke-width="1.2" fill="#FFFFFF"></path>
                        <path d="M71.7351724,16.8535885 L67.0013793,16.3980861 C66.5917241,16.3525359 66.5917241,16.9902392 67.0013793,17.0357895 L71.7351724,17.4912919 C72.0993103,17.4912919 72.0993103,16.8991388 71.7351724,16.8535885 Z" id="XMLID_2318_" stroke="#FFFFFF" stroke-width="1.2" fill="#FFFFFF"></path>
                    </g>
                    <g id="Head" transform="translate(45.517241, 0.000000)">
                        <path d="M31.862069,40.9952153 C31.0882759,41.0863158 10.742069,58.6687081 10.742069,58.6687081 L0.0910344828,37.0323445 L24.0786207,27.4667943 L31.862069,40.9952153 Z" id="XMLID_377_" fill="#ED9F94"></path>
                        <path d="M25.3986207,46.1423923 C28.8124138,43.2727273 31.5434483,41.0407656 31.8165517,41.0407656 L28.9489655,36.0302392 C26.4910345,38.8088038 24.8068966,42.7261244 25.3986207,46.1423923 Z" id="XMLID_376_" fill="#000000" opacity="0.138230097"></path>
                        <path d="M19.1172414,5.73933014 C22.622069,0.59215311 33.9558621,0.409952153 40.6013793,3.78066986 C43.5144828,5.23827751 45.5627586,3.50736842 45.6537931,6.1492823 C45.8813793,12.754067 46.5186207,34.1626794 43.1503448,38.3077512 C37.2786207,45.5957895 26.8096552,41.131866 22.5765517,34.2082297 C18.3434483,27.2390431 14.1558621,13.0273684 19.1172414,5.73933014 Z" id="XMLID_369_" fill="#ED9F94"></path>
                        <path d="M46.017931,0.819904306 C43.0593103,-0.865454545 37.8248276,0.501052632 35.4124138,2.00421053 C29.1310345,0.728803828 21.8482759,1.77645933 19.1627586,5.6937799 C15.84,10.5676555 5.37103448,15.3504306 6.87310345,26.3280383 C7.73793103,33.1150239 18.5710345,38.7632536 25.5351724,35.6202871 C33.8648276,31.8851675 32.5903448,21.317512 33.7737931,20.178756 C37.4606897,17.2179904 37.5062069,12.1163636 36.5048276,8.29014354 C38.4165517,9.70220096 44.697931,8.88229665 46.4275862,6.60478469 C48.6124138,3.32516746 46.9282759,1.36650718 46.017931,0.819904306 Z" id="XMLID_368_" fill="#042C5C"></path>
                        <path d="M34.32,31.7029665 C32.3172414,32.6595215 28.0841379,32.750622 25.6717241,30.837512 C22.8951724,28.6966507 22.2124138,25.8725359 23.4868966,22.3196172 C24.3972414,19.8143541 27.5834483,18.1745455 30.7241379,18.8122488 L30.7241379,18.8122488 C31.497931,18.9944498 32.3172414,19.2677512 33.0455172,19.7688038 C33.2731034,19.9054545 33.5006897,20.0876555 33.6827586,20.2243062 C33.8193103,24.0960766 34.0468966,27.8767464 34.32,31.7029665 Z" id="XMLID_367_" fill="#ED9F94"></path>
                        <path d="M47.9296552,22.8662201 C47.7931034,21.4086124 46.3365517,20.4976077 44.9710345,20.7709091 C44.5158621,20.8620096 44.2882759,21.4541627 44.4248276,21.8641148 C44.4248276,21.9096651 44.4703448,21.9552153 44.4703448,21.9552153 C44.3337931,22.0007656 44.1972414,22.0463158 44.0606897,22.091866 C43.0593103,22.5929187 44.0151724,24.0505263 44.9710345,23.5494737 C44.9710345,23.5494737 45.062069,23.5494737 44.9710345,23.5950239 C44.1972414,23.8683254 44.1517241,25.0981818 45.0165517,25.2803828 C46.4731034,25.6447847 48.0662069,24.4604785 47.9296552,22.8662201 Z" id="XMLID_366_" fill="#ED9F94"></path>
                        <path d="M32.2717241,26.5557895 L29.3586207,23.5950239 C29.04,23.2761722 28.5393103,23.7772249 28.857931,24.0960766 C29.8137931,25.0981818 30.8151724,26.1002871 31.7710345,27.0568421 C32.0441379,27.3756938 32.5903448,26.8746411 32.2717241,26.5557895 Z" id="XMLID_365_" stroke="#042C5C" stroke-width="0.7" fill="#042C5C"></path>
                        <path d="M43.56,17.2635407 C43.4234483,18.083445 43.2413793,18.857799 43.1048276,19.6777033 C43.0137931,20.1332057 43.6965517,20.3154067 43.7875862,19.8599043 C43.9241379,19.04 44.1062069,18.2656459 44.2427586,17.4457416 C44.3337931,16.9902392 43.6510345,16.8080383 43.56,17.2635407 Z" id="XMLID_363_" stroke="#042C5C" stroke-width="0.7" fill="#042C5C"></path>
                        <path d="M42.6259277,13.2247852 C42.2162725,13.3158856 41.8066173,13.4525364 41.3969622,13.5436368 C40.4866173,13.771388 40.8962725,15.1834454 41.7611001,14.910144 C42.1707553,14.8190435 42.5804104,14.6823928 42.9900656,14.5912923 C43.9004104,14.4090914 43.4907553,12.997034 42.6259277,13.2247852 Z" id="XMLID_362_" fill="#042C5C"></path>
                        <path d="M47.4744828,17.5368421 L45.4717241,22.7295694 C45.2896552,23.1395215 44.6068966,22.9573206 44.7889655,22.5473684 C45.0165517,22.0007656 45.1986207,21.4541627 45.4262069,20.9075598 C42.1034483,20.5887081 37.0510345,20.1332057 33.0910345,19.7688038 C32.3627586,19.3133014 31.5434483,18.9944498 30.7696552,18.8122488 C35.0482759,19.222201 41.6027586,19.7688038 45.6993103,20.178756 C46.0634483,19.222201 46.4275862,18.2656459 46.7917241,17.3090909 C46.9282759,16.8991388 47.6110345,17.0813397 47.4744828,17.5368421 Z" id="XMLID_361_" fill="#FFFFFF"></path>
                    </g>
                    <g id="Book" transform="translate(0.910345, 34.618182)">
                        <path d="M54.12,104.355598 C59.9462069,104.082297 65.7724138,103.672344 71.5986207,103.171292 C70.142069,86.5454545 69.5958621,61.4472727 69.5958621,61.4472727 L62.1310345,19.1766507 C62.1310345,19.1766507 61.9944828,-0.364401914 52.1627586,0.273301435 C33.182069,1.50315789 6.37241379,38.1711005 0.0910344828,106.177608 C18.1158621,105.676555 36.1406897,105.221053 54.12,104.355598 Z" id="XMLID_2491_" fill="#1E63F8"></path>
                        <path d="M40.1917241,63.7247847 C35.457931,88.2763636 60.0372414,96.0199043 68.0482759,94.9266986 C70.2331034,94.6078469 72.417931,94.1523445 74.5572414,93.6057416 C73.2372414,75.3856459 72.7365517,49.9686124 72.7365517,49.9686124 L69.777931,31.5207656 C64.68,34.5270813 59.9006897,38.2166507 55.5765517,42.270622 C49.2496552,48.1921531 41.5117241,56.8466986 40.1917241,63.7247847 Z" id="XMLID_355_" fill="#042C5C"></path>
                    </g>
                    <g id="Hand" transform="translate(44.972414, 34.618182)">
                        <path d="M114.884138,62.0849761 C113.609655,57.8943541 106.918621,59.4430622 103.186207,60.1263158 C103.277241,59.8985646 103.277241,59.3271551 104.77931,58.9420096 C106.417931,58.8053589 108.056552,58.3043062 109.558621,57.4844019 C111.333793,56.5278469 111.743448,54.0225837 110.013793,53.7948325 C102.64,52.7927273 96.6317241,53.7948325 95.0386207,54.1136842 C91.4882759,54.7969378 88.12,56.0723445 84.8882759,57.7121531 C84.4786207,57.8943541 84.16,58.1676555 83.9324138,58.4409569 C73.2813793,57.4844019 61.1737931,57.9854545 51.7972414,58.7598086 C51.1144828,70.0107177 51.2055172,81.3527273 52.7986207,92.4669856 C67,88.731866 81.7475862,84.4045933 90.4868966,81.7626794 C94.1737931,81.8082297 97.9062069,81.7171292 101.593103,81.4438278 C105.962759,81.1249761 110.696552,80.3050718 112.926897,76.0233493 C114.01931,73.9735885 114.155862,71.5594258 114.383448,69.3274641 C114.702069,67.0955024 115.521379,64.2713876 114.884138,62.0849761 Z" id="XMLID_195_" fill="#ED9F94"></path>
                        <path d="M56.0758621,58.4409569 C44.6965517,59.1697608 36.0482759,60.4451675 36.0482759,60.4451675 C27.5365517,9.33779904 23.1668966,2.50526316 9.51172414,0.409952153 C9.51172414,0.409952153 2.32,5.55712919 1.68275862,41.6784689 C1.04551724,77.7998086 2.63862069,99.0717703 17.2951724,99.5272727 C23.8496552,99.7550239 40.7365517,95.7466029 57.4413793,91.2371292 C56.8041379,80.3050718 56.3944828,69.3730144 56.0758621,58.4409569 Z" id="XMLID_2468_" fill="#1E63F8"></path>
                        <path d="M34.6827586,60.4451675 C33.3172414,60.7640191 31.9517241,61.0828708 30.5862069,61.4017225 C30.1765517,61.492823 30.3586207,62.0849761 30.7682759,61.9938756 C32.1337931,61.6750239 33.4993103,61.3561722 34.8648276,61.0373206 C35.2744828,60.9462201 35.0924138,60.354067 34.6827586,60.4451675 Z" id="XMLID_264_" stroke="#FFFEFF" stroke-width="1.2" fill="#FFFFFF"></path>
                        <path d="M0.591034483,40.9496651 C0.545517241,46.461244 0.545517241,51.972823 0.5,57.4844019 C0.5,57.8943541 1.13724138,57.8943541 1.13724138,57.4844019 C1.18275862,51.972823 1.18275862,46.461244 1.22827586,40.9496651 C1.22827586,40.5397129 0.591034483,40.5397129 0.591034483,40.9496651 Z" id="XMLID_263_" stroke="#042C5C" fill="#042C5C"></path>
                        <path d="M113.063448,64.4991388 C112.562759,64.8179904 112.062069,65.0912919 111.606897,65.4101435 C111.242759,65.6378947 111.561379,66.1844976 111.925517,65.9567464 L113.382069,65.0457416 C113.746207,64.8179904 113.427586,64.2713876 113.063448,64.4991388 Z" id="XMLID_258_" stroke="#042C5C" stroke-width="1.2" fill="#D24A43"></path>
                        <path d="M113.017931,68.8719617 C112.517241,69.1908134 112.016552,69.4641148 111.561379,69.7829665 C111.197241,70.0107177 111.515862,70.5573206 111.88,70.3295694 L113.336552,69.4185646 C113.655172,69.1908134 113.336552,68.6442105 113.017931,68.8719617 Z" id="XMLID_257_" stroke="#042C5C" stroke-width="1.2" fill="#D24A43"></path>
                        <path d="M111.971034,74.5201914 C111.470345,74.8390431 110.969655,75.1123445 110.514483,75.4311962 C110.150345,75.6589474 110.468966,76.2055502 110.833103,75.977799 L112.289655,75.0667943 C112.608276,74.8845933 112.289655,74.3379904 111.971034,74.5201914 Z" id="XMLID_256_" stroke="#042C5C" stroke-width="1.2" fill="#D24A43"></path>
                    </g>
                    <g id="Points" transform="translate(19.572414, 42.817225)" fill="#FFFFFF">
                        <path d="M23.8055172,1.68535885 C23.8510345,2.45971292 23.1682759,3.05186603 22.44,3.05186603 C21.7117241,3.05186603 21.0744828,2.41416268 21.0744828,1.68535885 C21.0744828,0.956555024 21.7117241,0.318851675 22.44,0.318851675 C23.1682759,0.318851675 23.7144828,0.774354067 23.8055172,1.68535885 Z" id="XMLID_217_"></path>
                        <path d="M44.7889655,1.68535885 C44.8344828,2.45971292 44.1517241,3.05186603 43.4234483,3.05186603 C42.6951724,3.05186603 42.057931,2.41416268 42.057931,1.68535885 C42.057931,0.956555024 42.6951724,0.318851675 43.4234483,0.318851675 C44.1517241,0.318851675 44.697931,0.774354067 44.7889655,1.68535885 Z" id="XMLID_216_"></path>
                        <path d="M2.82206897,21.8641148 C2.86758621,22.6384689 2.18482759,23.230622 1.45655172,23.230622 C1.32,23.230622 1.18344828,23.230622 1.04689655,23.1850718 C1.45655172,22.3651675 1.91172414,21.5452632 2.32137931,20.7709091 C2.64,20.9986603 2.77655172,21.3630622 2.82206897,21.8641148 Z" id="XMLID_215_"></path>
                        <path d="M23.8055172,21.8641148 C23.8510345,22.6384689 23.1682759,23.230622 22.44,23.230622 C21.7117241,23.230622 21.0744828,22.5929187 21.0744828,21.8641148 C21.0744828,21.0897608 21.7117241,20.4976077 22.44,20.4976077 C23.1682759,20.4976077 23.7144828,20.95311 23.8055172,21.8641148 Z" id="XMLID_214_"></path>
                        <path d="M44.7889655,21.8641148 C44.8344828,22.6384689 44.1517241,23.230622 43.4234483,23.230622 C42.6951724,23.230622 42.057931,22.5929187 42.057931,21.8641148 C42.057931,21.0897608 42.6951724,20.4976077 43.4234483,20.4976077 C44.1517241,20.4976077 44.697931,20.95311 44.7889655,21.8641148 Z" id="XMLID_213_"></path>
                        <path d="M2.82206897,42.0428708 C2.86758621,42.8172249 2.18482759,43.409378 1.45655172,43.409378 C0.728275862,43.409378 0.0910344828,42.7716746 0.0910344828,42.0428708 C0.0910344828,41.314067 0.728275862,40.6763636 1.45655172,40.6763636 C2.18482759,40.6763636 2.77655172,41.131866 2.82206897,42.0428708 Z" id="XMLID_212_"></path>
                        <path d="M23.8055172,42.0428708 C23.8510345,42.8172249 23.1682759,43.409378 22.44,43.409378 C21.7117241,43.409378 21.0744828,42.7716746 21.0744828,42.0428708 C21.0744828,41.314067 21.7117241,40.6763636 22.44,40.6763636 C23.1682759,40.6763636 23.7144828,41.131866 23.8055172,42.0428708 Z" id="XMLID_211_"></path>
                        <path d="M44.7889655,42.0428708 C44.8344828,42.8172249 44.1517241,43.409378 43.4234483,43.409378 C42.6951724,43.409378 42.057931,42.7716746 42.057931,42.0428708 C42.057931,41.314067 42.6951724,40.6763636 43.4234483,40.6763636 C44.1517241,40.6763636 44.697931,41.131866 44.7889655,42.0428708 Z" id="XMLID_210_"></path>
                        <path d="M2.82206897,62.2216268 C2.86758621,62.9959809 2.18482759,63.588134 1.45655172,63.588134 C0.728275862,63.588134 0.0910344828,62.9504306 0.0910344828,62.2216268 C0.0910344828,61.4472727 0.728275862,60.8551196 1.45655172,60.8551196 C2.18482759,60.8551196 2.77655172,61.310622 2.82206897,62.2216268 Z" id="XMLID_209_"></path>
                        <path d="M44.7889655,62.2216268 C44.8344828,62.9959809 44.1517241,63.588134 43.4234483,63.588134 C42.6951724,63.588134 42.057931,62.9504306 42.057931,62.2216268 C42.057931,61.4472727 42.6951724,60.8551196 43.4234483,60.8551196 C44.1517241,60.8551196 44.697931,61.310622 44.7889655,62.2216268 Z" id="XMLID_208_"></path>
                        <path d="M65.7724138,62.2216268 C65.817931,62.9959809 65.1351724,63.588134 64.4068966,63.588134 C63.6331034,63.588134 63.0413793,62.9504306 63.0413793,62.2216268 C63.0413793,61.4472727 63.6786207,60.8551196 64.4068966,60.8551196 C65.1351724,60.8551196 65.6813793,61.310622 65.7724138,62.2216268 Z" id="XMLID_207_"></path>
                        <path d="M2.82206897,82.4003828 C2.86758621,83.1747368 2.18482759,83.76689 1.45655172,83.76689 C0.728275862,83.76689 0.0910344828,83.1291866 0.0910344828,82.4003828 C0.0910344828,81.6260287 0.728275862,81.0338756 1.45655172,81.0338756 C2.18482759,81.0338756 2.77655172,81.489378 2.82206897,82.4003828 Z" id="XMLID_206_"></path>
                        <path d="M23.8055172,82.4003828 C23.8510345,83.1747368 23.1682759,83.76689 22.44,83.76689 C21.7117241,83.76689 21.0744828,83.1291866 21.0744828,82.4003828 C21.0744828,81.6260287 21.7117241,81.0338756 22.44,81.0338756 C23.1682759,81.0338756 23.7144828,81.489378 23.8055172,82.4003828 Z" id="XMLID_205_"></path>
                        <path d="M44.7889655,82.4003828 C44.8344828,83.1747368 44.1517241,83.76689 43.4234483,83.76689 C42.6951724,83.76689 42.057931,83.1291866 42.057931,82.4003828 C42.057931,81.6260287 42.6951724,81.0338756 43.4234483,81.0338756 C44.1517241,81.0338756 44.697931,81.489378 44.7889655,82.4003828 Z" id="XMLID_204_"></path>
                        <path d="M65.7724138,82.4003828 C65.817931,83.1747368 65.1351724,83.76689 64.4068966,83.76689 C63.6331034,83.76689 63.0413793,83.1291866 63.0413793,82.4003828 C63.0413793,81.6260287 63.6786207,81.0338756 64.4068966,81.0338756 C65.1351724,81.0338756 65.6813793,81.489378 65.7724138,82.4003828 Z" id="XMLID_203_"></path>
                    </g>
                </g>
                <g id="Table" transform="translate(235.200000, 217.200000)" fill="#BFC5D2" fill-rule="nonzero">
                    <path d="M16.338255,1.68413793 L16.338255,169.051034 C16.338255,171.873103 20.7651007,171.873103 20.7651007,169.051034 L20.7651007,1.68413793 L16.338255,1.68413793 Z" id="XMLID_255_"></path>
                    <path d="M184.010738,3.55034483 L184.010738,169.005517 C184.010738,171.827586 188.437584,171.827586 188.437584,169.005517 L188.437584,3.45931034 C186.977181,3.55034483 185.471141,3.59586207 184.010738,3.55034483 Z" id="XMLID_2467_"></path>
                    <path d="M201.809396,0.227586207 L2.32751678,0.227586207 C-0.502013423,0.227586207 -0.502013423,4.64275862 2.32751678,4.64275862 L201.809396,4.64275862 C204.638926,4.64275862 204.638926,0.227586207 201.809396,0.227586207 Z" id="XMLID_2322_"></path>
                </g>
                <g id="Chair" transform="translate(94.800000, 180.000000)" fill-rule="nonzero">
                    <path d="M21.4177215,128.691765 C20.3240506,118.32 19.2303797,107.993725 18.1367089,97.6219608 C17.9088608,95.6203922 14.764557,95.6203922 14.9924051,97.6219608 C16.0860759,107.993725 17.1797468,118.32 18.2734177,128.691765 C18.4556962,130.693333 21.6455696,130.693333 21.4177215,128.691765 Z" id="XMLID_2490_" fill="#042C5C"></path>
                    <path d="M61.0177215,129.647059 C60.6531646,129.82902 60.1974684,129.96549 59.6506329,129.96549 C59.5594937,129.96549 59.4227848,129.96549 59.3316456,129.96549 L59.3316456,201.430588 C59.3316456,203.477647 62.4759494,203.477647 62.4759494,201.430588 L62.4759494,129.556078 C62.0202532,129.601569 61.5189873,129.601569 61.0177215,129.647059 Z" id="XMLID_2489_" fill="#042C5C"></path>
                    <path d="M92.4151899,198.382745 C85.3063291,188.647843 74.0050633,182.370196 61.8835443,181.915294 C49.3063291,181.460392 37.0025316,187.556078 29.3924051,197.472941 C28.1620253,199.065098 30.4405063,201.248627 31.6708861,199.656471 C38.5974684,190.603922 49.4886076,184.917647 60.9721519,185.054118 C72.2734177,185.190588 83.0734177,190.967843 89.6810127,200.020392 C90.9113924,201.658039 93.6,200.020392 92.4151899,198.382745 Z" id="XMLID_2488_" fill="#042C5C"></path>
                    <path d="M35.2708861,201.203137 C35.635443,205.206275 32.035443,208.436078 28.0253165,208.436078 C24.0151899,208.436078 20.7797468,205.206275 20.7797468,201.203137 C20.7797468,197.2 24.0151899,193.970196 28.0253165,193.970196 C32.035443,193.970196 34.8607595,196.381176 35.2708861,201.203137 Z" id="XMLID_350_" fill="#042C5C"></path>
                    <path d="M30.6227848,201.203137 C30.7594937,202.613333 29.4379747,203.796078 28.0253165,203.796078 C26.5670886,203.796078 25.4278481,202.613333 25.4278481,201.203137 C25.4278481,199.747451 26.6126582,198.610196 28.0253165,198.610196 C29.4835443,198.610196 30.4860759,199.47451 30.6227848,201.203137 Z" id="XMLID_349_" fill="#042C5C"></path>
                    <path d="M67.9898734,201.203137 C68.3544304,205.206275 64.7544304,208.436078 60.7443038,208.436078 C56.7341772,208.436078 53.4987342,205.206275 53.4987342,201.203137 C53.4987342,197.2 56.7341772,193.970196 60.7443038,193.970196 C64.7088608,193.970196 67.5797468,196.381176 67.9898734,201.203137 Z" id="XMLID_348_" fill="#042C5C"></path>
                    <path d="M97.6556962,201.203137 C98.0202532,205.206275 94.4202532,208.436078 90.4101266,208.436078 C86.4,208.436078 83.164557,205.206275 83.164557,201.203137 C83.164557,197.2 86.4,193.970196 90.4101266,193.970196 C94.3746835,193.970196 97.2,196.381176 97.6556962,201.203137 Z" id="XMLID_347_" fill="#042C5C"></path>
                    <path d="M19.7316456,99.7145098 C15.9949367,67.9623529 12.2582278,36.2101961 8.52151899,4.41254902 C8.24810127,2.18352941 6.83544304,0.363921569 4.42025316,0.318431373 C2.41518987,0.318431373 0.0455696203,2.22901961 0.318987342,4.41254902 C4.0556962,36.1647059 7.79240506,67.9168627 11.5291139,99.7145098 C11.8025316,101.943529 13.2151899,103.763137 15.6303797,103.808627 C17.6810127,103.808627 20.0050633,101.898039 19.7316456,99.7145098 Z" id="XMLID_224_" fill="#1E63F8"></path>
                    <path d="M103.853165,127.50902 L21.3721519,127.50902 C16.0860759,127.50902 16.0860759,135.697255 21.3721519,135.697255 L103.807595,135.697255 C109.139241,135.697255 109.139241,127.50902 103.853165,127.50902 Z" id="XMLID_223_" fill="#1E63F8"></path>
                    <path d="M63.2962025,201.203137 C63.4329114,202.613333 62.1113924,203.796078 60.6987342,203.796078 C59.2860759,203.796078 58.1012658,202.613333 58.1012658,201.203137 C58.1012658,199.747451 59.2860759,198.610196 60.6987342,198.610196 C62.1113924,198.610196 63.1139241,199.47451 63.2962025,201.203137 Z" id="XMLID_219_" fill="#042C5C"></path>
                    <path d="M92.7797468,201.203137 C92.9164557,202.613333 91.5949367,203.796078 90.1822785,203.796078 C88.7696203,203.796078 87.5848101,202.613333 87.5848101,201.203137 C87.5848101,199.747451 88.7696203,198.610196 90.1822785,198.610196 C91.5949367,198.610196 92.643038,199.47451 92.7797468,201.203137 Z" id="XMLID_218_" fill="#042C5C"></path>
                </g>
                <path d="M436.179201,387.6 L103.814983,387.6 C102.995006,387.6 102.995006,388.8 103.814983,388.8 L436.224755,388.8 C436.999178,388.8 436.999178,387.6 436.179201,387.6 Z" id="Shadow" fill="#1B1B2A" fill-rule="nonzero" opacity="0.443010603"></path>
                <g id="Group-15" filter="url(#filter-3)" transform="translate(302.000000, 53.000000)">
                    <rect id="Rectangle" fill="#FFB944" x="0" y="0" width="27.6" height="27.6" rx="9.6"></rect>
                    <polygon id="Path-3" stroke="#FFFFFF" stroke-width="1.85384348" fill="#FFFFFF" stroke-linejoin="round" points="15.7276648 7.2 10.8 13.744988 13.3843685 13.744988 12.8636059 19.2 18 12.4219543 15.2538925 12.4219543"></polygon>
                </g>
                <path d="M21.7772855,247.2 L7.02271449,247.2 C3.14574423,247.2 0,244.089628 0,240.253259 L0,226.544312 C0,222.707944 3.14574423,219.6 7.02271449,219.6 L21.7772855,219.6 C25.6567096,219.6 28.8,222.707944 28.8,226.544312 L28.8,240.253259 C28.8,244.089628 25.6567096,247.2 21.7772855,247.2" id="Fill-17" fill="#1E63F8"></path>
                <g id="Group-12" filter="url(#filter-4)" transform="translate(338.400000, 84.000000)">
                    <rect id="Rectangle" fill="url(#linearGradient-5)" x="0" y="0" width="26.4" height="26.4" rx="9.6"></rect>
                    <path d="M18.0242351,15.3831815 L16.3274867,15.1894572 C15.9199999,15.1426961 15.5191932,15.2829793 15.2319484,15.5702256 L14.0028078,16.7993729 C12.1123361,15.8374315 10.5625502,14.2943173 9.60061409,12.3971553 L10.8364348,11.1613278 C11.1236796,10.8740815 11.2639619,10.4732726 11.2172012,10.0657836 L11.0234779,8.38238622 C10.9433166,7.70769126 10.3755071,7.2 9.69413565,7.2 L8.5384763,7.2 C7.78362366,7.2 7.15569314,7.82793393 7.20245392,8.58279067 C7.55649985,14.2876372 12.1190163,18.8434982 17.8171517,19.1975461 C18.5720043,19.2443071 19.2,18.6163732 19.2,17.8615164 L19.2,16.7058508 C19.206615,16.0311558 18.6989264,15.4633433 18.0242351,15.3831815 Z" id="🔹Icon-Color" fill="#FFFFFF"></path>
                </g>
                <g id="luz" filter="url(#filter-6)" transform="translate(288.000000, 93.600000)">
                    <rect id="Rectangle" fill="#FF7E87" x="0" y="0" width="27.6" height="27.6" rx="9.6"></rect>
                    <path d="M10.8,18 C10.14,18 9.6,18.54 9.6,19.2 C9.6,19.86 10.14,20.4 10.8,20.4 C11.46,20.4 12,19.86 12,19.2 C12,18.54 11.46,18 10.8,18 Z M7.2,8.4 L7.2,9.6 L8.4,9.6 L10.56,14.16 L9.72,15.6 C9.66,15.78 9.6,16.02 9.6,16.2 C9.6,16.86 10.14,17.4 10.8,17.4 L18,17.4 L18,16.2 L11.04,16.2 C10.98,16.2 10.92,16.14 10.92,16.08 L10.92,16.0199765 L11.46,14.9999765 L15.9,14.9999765 C16.38,14.9999765 16.74,14.7599765 16.92,14.3999765 L19.08,10.5 C19.2,10.38 19.2,10.32 19.2,10.2 C19.2,9.84 18.96,9.6 18.6,9.6 L9.72,9.6 L9.18,8.4 L7.2,8.4 Z M16.8,18 C16.14,18 15.6,18.54 15.6,19.2 C15.6,19.86 16.14,20.4 16.8,20.4 C17.46,20.4 18,19.86 18,19.2 C18,18.54 17.46,18 16.8,18 Z" id="Shape" fill="#FFFFFF" fill-rule="nonzero"></path>
                </g>
                <path d="M201.413734,133.856836 C199.031857,133.876735 197.446631,132.825612 196.658057,130.703467" id="Path-20" stroke="#042C5C" stroke-linecap="round"></path>
            </g>
        </g>
    </g>
</svg>