<?xml version="1.0" encoding="UTF-8"?>
<svg width="63px" height="35px" viewBox="0 0 63 35" version="1.1" xmlns="http://www.w3.org/2000/svg" xmlns:xlink="http://www.w3.org/1999/xlink">
    <!-- Generator: Sketch 60 (88103) - https://sketch.com -->
    <title>logotipo-wom-bn</title>
    <desc>Created with Sketch.</desc>
    <g id="desktop-🖥" stroke="none" stroke-width="1" fill="none" fill-rule="evenodd">
        <g id="logotipo-wom-bn" fill="#042C5C">
            <path d="M62.517312,16.9783124 C62.8107688,17.5157053 62.6456994,17.9265448 62.0734585,18.1062872 L58.8491015,19.1168792 C58.3630636,19.2782804 57.9357171,19.1462248 57.7357996,18.6987032 L52.6388211,7.90132547 C52.4994291,7.64271663 52.2756682,7.71057853 52.3123503,7.99669895 L54.0529162,19.8541895 C54.1226122,20.3420615 53.8695057,20.6905415 53.3834678,20.8446063 L51.0504859,21.5745802 C50.5717844,21.7286451 50.1664472,21.5874189 49.9445204,21.1564042 L44.5687579,10.4415613 C44.4312,10.1829524 44.2147756,10.2526484 44.2404531,10.5369347 L46.2616371,22.3118905 C46.3515082,22.7924261 46.0708901,23.1482425 45.5866863,23.3004733 L42.3678316,24.3184017 C41.7992589,24.4908076 41.4214333,24.2560421 41.3535714,23.6489533 L39.2150046,5.25287747 C39.1526451,4.76683958 39.4020834,4.42019368 39.8899554,4.26429474 L43.7048943,3.06112168 C44.1946004,2.90705684 44.5669238,3.06112168 44.8200303,3.4848 L48.4057061,9.67490526 C48.5469322,9.92434358 48.7615225,9.86381811 48.7340109,9.57036126 L48.1214198,2.44853053 C48.0847377,1.95515621 48.3066644,1.61217853 48.7890341,1.45994779 L52.6131436,0.254940632 C53.0973474,0.102709895 53.4953482,0.247604211 53.7264455,0.678618947 L62.517312,16.9783124" id="Fill-2"></path>
            <path d="M0.146728421,17.7743141 C-0.144894316,17.2369213 0.0220092632,16.8260817 0.594250105,16.6445053 L3.81677305,15.6339133 C4.30464505,15.4798484 4.72832337,15.6155722 4.93007495,16.0539234 L10.0270535,26.8604716 C10.1664455,27.1099099 10.3828699,27.0402139 10.3535242,26.7540935 L8.61479242,14.8966029 C8.55243284,14.4087309 8.79453474,14.0620851 9.28240674,13.9080202 L11.6080522,13.1780463 C12.0959242,13.0239815 12.4994274,13.1633735 12.7286905,13.6017246 L18.0971166,24.3184017 C18.2365086,24.5696741 18.4510989,24.4999781 18.4235874,24.2138577 L16.4060716,12.4389019 C16.3143663,11.9583663 16.5931503,11.604384 17.0810223,11.4503192 L20.3035453,10.4433954 C20.8684497,10.2618189 21.2444413,10.4984185 21.3141373,11.1036733 L23.4508699,29.5052514 C23.5150636,29.9857869 23.2637912,30.3324328 22.7759192,30.4864977 L18.9609802,31.6915048 C18.4731082,31.8455697 18.1044531,31.6915048 17.8458442,31.2678265 L14.2601684,25.0777213 C14.1226105,24.8264488 13.9061861,24.8943107 13.9336977,25.1822653 L14.5462888,32.3095983 C14.5811368,32.8048067 14.357376,33.1422821 13.869504,33.2926787 L10.0545651,34.4958518 C9.56852716,34.6517507 9.17052632,34.5105246 8.94126316,34.0721735 L0.146728421,17.7743141" id="Fill-3"></path>
            <path d="M24.0707975,15.9475453 C23.8543731,14.0492463 23.6526215,8.84772379 30.0719899,6.82103747 C36.485856,4.80168758 37.4450931,9.76661053 37.6615175,11.6667436 L38.4776943,18.8454316 C38.6922846,20.7400623 38.8940362,25.9470872 32.4765019,27.9664371 C26.0626358,29.9857869 25.1089011,25.0245322 24.8924766,23.1280674 L24.0707975,15.9475453 Z M29.3713617,20.142144 C29.6208,22.3485726 29.9142568,23.6562897 31.9170998,23.0216893 C33.9181086,22.3962594 33.9034358,21.0041735 33.6503293,18.7885743 L33.1789642,14.6545011 C32.9276918,12.4389019 32.6360691,11.1330189 30.6368943,11.7657853 C28.6322173,12.3985516 28.6523924,13.7924716 28.9036648,16.0062366 L29.3713617,20.142144 L29.3713617,20.142144 Z" id="Fill-4"></path>
        </g>
    </g>
</svg>