<?xml version="1.0" encoding="UTF-8"?>
<svg width="80px" height="26px" viewBox="0 0 80 26" version="1.1" xmlns="http://www.w3.org/2000/svg" xmlns:xlink="http://www.w3.org/1999/xlink">
    <!-- Generator: Sketch 60 (88103) - https://sketch.com -->
    <title>logotipo-bancoBBVA</title>
    <desc>Created with Sketch.</desc>
    <g id="desktop-🖥" stroke="none" stroke-width="1" fill="none" fill-rule="evenodd">
        <g id="logotipo-bancoBBVA" fill="#292D78">
            <path d="M70.4081181,16.2387314 L63.5858303,16.2387314 L66.9737269,4.62239053 L70.4081181,16.2387314 Z M69.3371218,0.00439289941 C71.2857565,0.00439289941 71.657417,0.50124497 72.341107,2.59817278 L79.8696679,25.4627598 L73.1616236,25.4627598 L71.5263469,19.9675456 L62.4985978,19.9675456 L60.8712915,25.4651834 L57,25.4651834 L64.5951292,0 L69.3371218,0.00439289941 L69.3371218,0.00439289941 Z" id="Fill-1"></path>
            <path d="M55.7146863,0 L59.6318819,0 L52.0684871,25.4663953 L46.1132103,25.4620024 L38,0.00363550296 L42.3837638,0 C44.077048,0 44.5220664,0.448378698 45.4067897,3.33224142 L50.1042066,19.3422391 L55.7146863,0" id="Fill-2"></path>
            <path d="M30.1837638,11.2091645 L32.2531365,8.03779408 C32.7765314,7.24373964 32.8876753,6.74416095 32.8876753,6.18732308 C32.8876753,4.63132781 31.5536531,3.32406154 30.0183026,3.32406154 L26.83631,3.32406154 L26.83631,22.0543243 L28.599262,22.0543243 C31.5492251,22.0543243 33.7884871,20.4192568 33.7884871,16.5909207 C33.7884871,13.4316686 32.3431734,11.7457041 30.1837638,11.2091645 Z M31.422583,25.4747266 L21,25.4747266 L21,0 L31.8025092,0 C36.8665683,0 38.6312915,4.23596686 36.0665683,8.14473846 L34.8547601,9.98945325 C43.3502583,14.5179266 40.5878967,25.4747266 31.422583,25.4747266 L31.422583,25.4747266 Z" id="Fill-3"></path>
            <path d="M9.18361624,11.2091645 L11.2537269,8.03779408 C11.777417,7.24373964 11.8879705,6.74416095 11.8879705,6.18732308 C11.8879705,4.63132781 10.5554244,3.32406154 9.0202214,3.32406154 L5.83793358,3.32406154 L5.83793358,22.0543243 L7.6,22.0543243 C10.5512915,22.0543243 12.7895203,20.4192568 12.7895203,16.5909207 C12.7895203,13.4316686 11.3449446,11.7457041 9.18361624,11.2091645 Z M10.4231734,25.4747266 L0,25.4747266 L0,0 L10.8033948,0 C15.8664207,0 17.6323247,4.23596686 15.0671587,8.14473846 L13.8553506,9.98945325 C22.3514391,14.5179266 19.5895203,25.4747266 10.4231734,25.4747266 L10.4231734,25.4747266 Z" id="Fill-4"></path>
        </g>
    </g>
</svg>