<?xml version="1.0" encoding="UTF-8"?>
<svg width="80px" height="32px" viewBox="0 0 80 32" version="1.1" xmlns="http://www.w3.org/2000/svg" xmlns:xlink="http://www.w3.org/1999/xlink">
    <!-- Generator: Sketch 60 (88103) - https://sketch.com -->
    <title>logotipo-bancoBCI</title>
    <desc>Created with Sketch.</desc>
    <defs>
        <polygon id="path-1" points="0.0185328185 0.28312381 79.6509653 0.28312381 79.6509653 31.3218529 0.0185328185 31.3218529"></polygon>
    </defs>
    <g id="desktop-🖥" stroke="none" stroke-width="1" fill="none" fill-rule="evenodd">
        <g id="logotipo-bancoBCI">
            <path d="M35.6101931,13.0416762 C35.6101931,13.7133714 35.7050193,14.117181 35.8888031,14.2622476 C36.0759846,14.4057905 36.596139,14.4801524 37.4517375,14.4801524 L38.2427799,14.4801524 C43.6552896,14.4801524 46.3549035,12.6250667 46.3549035,8.91702857 C46.3549035,4.97158095 43.9267954,2.99459048 39.0597683,2.99459048 C37.7556757,2.99459048 36.877529,3.11801905 36.4265637,3.36091429 C35.8866409,3.66537143 35.6101931,4.2983619 35.6101931,5.2544 L35.6101931,13.0416762 Z M46.2313514,14.7949714 C51.4566795,15.6501333 54.0657915,18.3168 54.0657915,22.7986286 C54.0657915,25.3723429 53.0264093,27.4325333 50.9590734,28.9892571 C48.8898842,30.5475048 46.2057143,31.3264762 42.8957529,31.3264762 C41.6901931,31.3264762 32.552278,31.3709714 30.1476448,31.3709714 L30.1476448,1.32815238 C31.7544402,1.32815238 35.6172973,1.47748571 37.6923552,1.45340952 C48.8543629,1.32815238 52.0938996,3.84914286 52.0938996,8.63969524 C52.0938996,11.633981 50.1383784,13.6850286 46.2313514,14.7949714 L46.2313514,14.7949714 Z M36.3722008,15.973181 C35.8668726,15.973181 35.6101931,16.1682286 35.6101931,16.5616762 L35.6101931,26.136381 C35.6101931,28.4757333 37.2265637,29.6487619 40.4506564,29.6487619 C43.019305,29.6487619 44.9720463,28.9426286 46.3141313,27.5282286 C47.499305,26.2799238 48.0911197,24.6204952 48.0911197,22.533181 C48.0911197,20.500419 47.3973745,18.8985905 46.0197683,17.7252571 C44.6369112,16.5571048 42.6551351,15.973181 40.0738224,15.973181 L36.3722008,15.973181 L36.3722008,15.973181 Z" id="Fill-1" fill="#141412"></path>
            <path d="M66.7385328,12.0572952 C68.1374517,12.0572952 69.4739768,12.2361905 70.7422394,12.5878857 C72.4383012,13.0608762 73.2880309,13.7353143 73.2880309,14.6057143 C73.2880309,16.8548571 72.7771429,17.9794286 71.7664865,17.9794286 C71.2679537,17.9794286 70.7607722,17.5710476 70.2520463,16.7591619 L69.9712741,16.267581 C68.7413127,14.1775238 67.4742857,13.134019 66.1630888,13.134019 C64.1748263,13.134019 62.6254826,14.1869714 61.5030116,16.2925714 C60.6579151,17.902019 60.232278,19.5638857 60.232278,21.2793905 C60.232278,23.4148571 60.7941313,25.2309333 61.912278,26.7318857 C63.3121236,28.5921524 65.3538224,29.5277714 68.0450965,29.5277714 C68.8126641,29.5277714 69.8693436,29.2348952 71.2095753,28.6549333 C71.6416988,28.4705524 71.9885714,28.3184762 72.2616216,28.1862095 C72.2616216,28.1862095 72.3515058,28.1417143 72.4905019,28.0859429 C72.7851737,27.9545905 73.2926641,27.7699048 73.5008494,27.9125333 C73.6324324,28.0048762 73.6935907,28.1450667 73.6935907,28.3288381 C73.6935907,29.2617143 72.6576062,30.1025524 70.5745174,30.8540952 C68.7907336,31.5157333 67.1919691,31.8442667 65.7720463,31.8442667 C62.3527413,31.8442667 59.6846332,30.8141714 57.7732819,28.7451429 C56.0960618,26.9488762 55.2586873,24.7344762 55.2586873,22.100419 C55.2586873,19.3219048 56.2047876,17.0044952 58.100695,15.1552 C60.1989189,13.0928762 63.0764479,12.0572952 66.7385328,12.0572952" id="Fill-2" fill="#141412"></path>
            <path d="M75.2843243,31.3596952 L75.2880309,12.9865143 C75.2880309,12.9865143 76.6288803,13.0553905 77.6083398,13.1285333 C78.9436293,13.2345905 79.7550579,13.2525714 79.7550579,13.2525714 L79.7874903,31.3596952 L75.2843243,31.3596952" id="Fill-3" fill="#141412"></path>
            <g id="Group-9">
                <mask id="mask-2" fill="white">
                    <use xlink:href="#path-1"></use>
                </mask>
                <g id="Clip-5"></g>
                <path d="M75.2880309,8.50986667 C75.2880309,7.16830476 76.2659459,6.07786667 77.4681081,6.07786667 C78.6730502,6.07786667 79.6509653,7.16830476 79.6509653,8.50986667 C79.6509653,9.86148571 78.6730502,10.9485714 77.4681081,10.9485714 C76.2659459,10.9485714 75.2880309,9.86148571 75.2880309,8.50986667" id="Fill-4" fill="#141412" mask="url(#mask-2)"></path>
                <path d="M0.215598456,27.237181 C1.25498069,24.1834667 4.22146718,22.4725333 6.80525097,20.814019 C8.70362934,19.5864381 10.6480309,18.4256 12.5708108,17.2324571 L12.6585328,17.1742476 C13.540695,17.669181 14.4494208,18.0912762 15.3510425,18.4448 C15.4576062,18.4771048 15.5672587,18.4999619 15.6861776,18.5212952 L15.5786873,18.5819429 C13.7902703,19.6153905 12.0216216,20.5976381 10.3487259,21.7993143 C8.66316602,23.0168381 7.12092664,24.3547429 5.6769112,25.8377143 C4.60416988,26.9339429 3.93142857,28.2422857 3.22162162,29.5789714 C2.96123552,30.065981 2.71598456,30.7675429 2.24926641,31.1018667 C1.92432432,31.3392762 1.38316602,31.4041905 1.03629344,31.198781 C-0.207567568,30.4539429 -0.11953668,28.4062476 0.215598456,27.237181 M15.1002317,15.6230095 C16.5152124,14.6258286 17.6586873,13.278781 18.5118147,11.7961143 C18.9915058,10.9543619 19.3856371,10.0873143 19.7717375,9.20441905 C20.2977606,7.98140952 20.7233977,6.38811429 22.0240927,5.75969524 C22.9476448,5.30895238 24.1615444,5.5576381 24.8608494,6.29577143 C25.5499614,7.0144 25.708417,8.06735238 25.5283398,9.01180952 C25.1360618,11.0064762 23.9697297,12.8137143 22.5013127,14.2040381 C21.6376834,15.0192762 20.6588417,15.6242286 19.6401544,16.224 C19.0390734,16.5799619 18.44139,16.926781 17.8412355,17.2754286 C17.674749,16.6777905 16.7444015,16.3492571 16.2261004,16.1161143 C15.8622394,15.9420952 15.4795367,15.7906286 15.1002317,15.6230095" id="Fill-6" fill="#DD414A" mask="url(#mask-2)"></path>
                <path d="M22.4586873,28.096 C21.6123552,27.457219 21.9098069,26.2915048 21.852973,25.3814857 C21.7810039,24.2944 21.5814672,23.0908952 21.0946718,22.100419 C20.5627799,21.035581 19.3705019,20.7936 18.4262548,20.2206476 C17.5419305,19.681219 17.6111197,18.5953524 18.5235521,18.1141333 C20.3984556,17.1288381 22.5742085,18.3168 23.5777606,19.9414857 C24.2066409,20.9566476 24.59861,22.1290667 24.9766795,23.2582095 C25.3615444,24.4038095 25.8681081,25.8910476 25.2599228,27.0467048 C24.784556,27.9545905 23.4112741,28.8149333 22.4586873,28.096" id="Fill-7" fill="#009D4D" mask="url(#mask-2)"></path>
                <path d="M15.352278,18.446019 C11.0514286,16.7591619 6.57297297,13.5149714 6.09915058,8.58605714 C5.97776062,7.33135238 6.18656371,6.06293333 6.52324324,4.85059048 C6.80525097,3.83299048 7.12525097,2.74499048 7.6376834,1.81638095 C8.53250965,0.196571429 10.6875676,-0.168533333 12.2007722,0.858209524 C13.9857915,2.06262857 12.8667181,4.23344762 12.4318147,5.84624762 C12.1464093,6.92662857 11.8922008,8.03169524 11.7118147,9.13127619 C11.5314286,10.2241524 11.5036293,11.3465905 11.8702703,12.4038095 C12.1695753,13.278781 12.7153668,14.0656762 13.4319691,14.663619 C14.2412355,15.3340952 15.2827799,15.6742095 16.2261004,16.1145905 C16.8815444,16.4169143 18.2078764,16.8548571 17.7844015,17.8218667 C17.3881081,18.740419 16.1476448,18.656 15.352278,18.446019" id="Fill-8" fill="#1D67A3" mask="url(#mask-2)"></path>
            </g>
            <path d="M5.56138996,30.4045714 C5.67011583,30.8074667 6.04942085,31.2603429 7.19969112,31.335619 C9.21235521,31.450819 11.3025483,31.1737905 13.3488803,30.7492571 C16.763861,30.0510476 18.1893436,29.1410286 18.1893436,29.1410286 C18.1893436,29.1410286 20.2770656,28.0582095 20.1664865,25.0950095 C20.0494208,22.1226667 18.0274903,20.760381 18.0274903,20.760381 C18.0274903,20.760381 17.2098842,20.2206476 15.8668726,20.6817524 C14.9498069,20.9987048 12.3626255,22.4338286 10.6875676,23.4422857 C9.78131274,23.9899429 8.88617761,24.7241143 8.13837838,25.4646857 C7.38687259,26.2034286 6.50810811,27.1835429 5.91629344,28.5342476 C5.82393822,28.7451429 5.75227799,28.9414095 5.69791506,29.1160381 C5.5811583,29.4878476 5.4572973,30.0105143 5.56138996,30.4045714" id="Fill-10" fill="#FBD41F"></path>
        </g>
    </g>
</svg>