<?xml version="1.0" encoding="UTF-8"?>
<svg width="69px" height="52px" viewBox="0 0 69 52" version="1.1" xmlns="http://www.w3.org/2000/svg" xmlns:xlink="http://www.w3.org/1999/xlink">
    <!-- Generator: Sketch 60 (88103) - https://sketch.com -->
    <title>logotipo-aguasandinas-bn</title>
    <desc>Created with Sketch.</desc>
    <defs>
        <polygon id="path-1" points="0.0324 0.3624 25.5408 0.3624 25.5408 22.1688 0.0324 22.1688"></polygon>
    </defs>
    <g id="desktop-🖥" stroke="none" stroke-width="1" fill="none" fill-rule="evenodd">
        <g id="logotipo-aguasandinas-bn">
            <polygon id="Fill-1" fill="#042C5C" points="21.6312 25.7688 47.1396 25.7688 47.1396 0.2568 21.6312 0.2568"></polygon>
            <g id="Group-5" transform="translate(21.600000, 3.600000)">
                <mask id="mask-2" fill="white">
                    <use xlink:href="#path-1"></use>
                </mask>
                <g id="Clip-3"></g>
                <path d="M0.0324,14.7768 C2.5392,14.262 8.9604,6.0336 13.7748,6.0816 C19.296,6.1392 23.6328,14.532 25.5828,15.2052 L25.5828,22.3032 L0.0324,22.3248 L0.0324,14.7768" id="Fill-2" fill="#042C5C" mask="url(#mask-2)"></path>
                <path d="M25.7856,15.4644 C20.568,13.494 16.7772,10.6584 13.9764,6.6708 C9.7236,11.4084 4.782,14.0208 -0.9264,15.144 C3.6948,9.2004 6.9888,6.1836 9.5268,3.0264 C10.212,2.1756 11.0196,1.1976 11.5536,0.3624 C19.7004,2.34 24.5016,9.5964 25.7856,15.4644" id="Fill-4" fill="#FFFFFE" mask="url(#mask-2)"></path>
            </g>
            <path d="M36.3936,20.7456 C35.2008,19.4292 35.5584,17.8368 36.4008,17.0796 C36.9516,16.5852 39.324,16.6932 40.5408,17.958 C41.7,19.1616 41.3892,20.8356 40.0956,21.6684 C39.2064,22.242 37.9356,22.4472 36.3936,20.7456" id="Fill-6" fill="#FFFFFE"></path>
            <path d="M13.44,42.7236 L8.0244,29.9064 L5.7972,29.9064 L0.4272,42.7236 L2.4792,42.7236 L3.702,39.7224 L9.9684,39.7224 L11.1912,42.7236 L13.44,42.7236 Z M9.4224,38.3364 L4.2252,38.3364 L6.1248,33.78 C6.4092,33.1344 6.6276,32.4696 6.8028,31.8432 L6.846,31.8432 C7.02,32.508 7.2168,33.1152 7.5012,33.7608 L9.4224,38.3364 L9.4224,38.3364 Z" id="Fill-7" fill="#042C5C"></path>
            <path d="M27.0588,30.2868 C25.7496,29.9256 24.4176,29.736 23.0196,29.736 C18.0636,29.736 15.0492,32.6412 15.0492,36.5712 C15.0492,40.5396 17.91,42.8952 22.3656,42.8952 C23.9808,42.8952 25.7712,42.6276 27.234,42.1524 L27.234,36.192 L25.2468,36.192 L25.2468,41.0328 C24.4608,41.2416 23.6316,41.3748 22.6488,41.3748 C19.3296,41.3748 17.19,39.552 17.19,36.3624 C17.19,32.9448 19.788,31.2348 22.8228,31.2348 C24.1764,31.2348 25.53,31.4832 26.754,31.9188 L27.0588,30.2868" id="Fill-8" fill="#042C5C"></path>
            <path d="M42.9432,37.824 L42.9432,29.9064 L40.9788,29.9064 L40.9788,37.956 C40.9788,40.5396 39.7776,41.4696 37.2012,41.4696 C34.2324,41.4696 33.5544,40.0452 33.5544,38.28 L33.5544,29.9064 L31.5456,29.9064 L31.5456,38.4132 C31.5456,40.692 32.4624,42.9132 37.0704,42.9132 C40.914,42.9132 42.9432,41.1852 42.9432,37.824" id="Fill-9" fill="#042C5C"></path>
            <path d="M57.8244,42.7236 L52.4088,29.9064 L50.1828,29.9064 L44.8116,42.7236 L46.8624,42.7236 L48.0852,39.7224 L54.3528,39.7224 L55.5756,42.7236 L57.8244,42.7236 Z M53.8068,38.3364 L48.6096,38.3364 L50.5092,33.78 C50.7948,33.1344 51.012,32.4696 51.1872,31.8432 L51.2304,31.8432 C51.4044,32.508 51.6012,33.1152 51.8856,33.7608 L53.8068,38.3364 L53.8068,38.3364 Z" id="Fill-10" fill="#042C5C"></path>
            <path d="M68.3424,38.9436 C68.3424,34.938 61.6824,35.9436 61.6824,33.1716 C61.6824,31.9764 62.7312,31.1784 64.74,31.1784 C65.6124,31.1784 66.552,31.3116 67.4028,31.5192 L67.5132,29.9628 C66.6396,29.8104 65.7444,29.7348 64.8492,29.7348 C61.53,29.7348 59.6088,31.2552 59.6088,33.3624 C59.6088,37.4436 66.246,36.3048 66.246,39.1908 C66.246,40.7664 64.7832,41.394 63.0144,41.394 C61.9884,41.394 60.8316,41.1852 59.9796,40.9188 L59.8704,42.5892 C60.7224,42.78 61.7712,42.894 62.8392,42.894 C66.2676,42.894 68.3424,41.2416 68.3424,38.9436" id="Fill-11" fill="#042C5C"></path>
            <path d="M16.6536,51.1992 C16.644,50.8116 16.6344,50.3352 16.6344,49.9116 L16.6344,48.1284 C16.6344,47.238 16.266,46.6344 14.9796,46.6344 C14.3844,46.6344 13.8444,46.7784 13.4124,46.9596 L13.494,47.652 C13.8816,47.418 14.4204,47.2824 14.844,47.2824 C15.582,47.2824 15.8244,47.616 15.8244,48.2364 L15.8244,48.57 C14.1324,48.57 13.1328,49.1904 13.1328,50.172 C13.1328,50.8836 13.638,51.2796 14.3748,51.2796 C15.114,51.2796 15.6804,50.8572 15.8976,50.3076 L15.9144,50.3076 C15.87,50.5596 15.87,50.8836 15.87,51.1992 L16.6536,51.1992 Z M15.8244,49.218 C15.8244,49.92 15.3384,50.64 14.6088,50.64 C14.196,50.64 13.926,50.3976 13.926,50.0196 C13.926,49.6152 14.2668,49.1376 15.8244,49.1376 L15.8244,49.218 L15.8244,49.218 Z" id="Fill-12" fill="#042C5C"></path>
            <path d="M23.6808,51.1992 L23.6808,48.0648 C23.6808,47.274 23.3568,46.6344 22.3308,46.6344 C21.5664,46.6344 21.0168,47.0496 20.7552,47.67 L20.7372,47.6604 C20.7912,47.3988 20.8104,46.986 20.8104,46.7256 L20.0268,46.7256 L20.0268,51.1992 L20.8368,51.1992 L20.8368,49.0464 C20.8368,48.0576 21.3672,47.31 22.1064,47.31 C22.6992,47.31 22.8708,47.6796 22.8708,48.3096 L22.8708,51.1992 L23.6808,51.1992" id="Fill-13" fill="#042C5C"></path>
            <path d="M30.9336,51.1992 L30.9336,44.6268 L30.1236,44.6268 L30.1236,46.7064 C29.8536,46.6788 29.61,46.662 29.3664,46.662 C27.954,46.662 27.054,47.6064 27.054,49.1736 C27.054,50.4792 27.6036,51.2796 28.7004,51.2796 C29.4036,51.2796 29.952,50.8836 30.204,50.2812 L30.2232,50.2896 C30.168,50.55 30.15,50.9472 30.15,51.1992 L30.9336,51.1992 Z M30.1236,48.8856 C30.1236,49.668 29.7096,50.6136 28.8996,50.6136 C28.224,50.6136 27.9096,50.0652 27.9096,49.1016 C27.9096,47.814 28.476,47.3016 29.3316,47.3016 C29.5836,47.3016 29.8536,47.328 30.1236,47.3988 L30.1236,48.8856 L30.1236,48.8856 Z" id="Fill-14" fill="#042C5C"></path>
            <path d="M35.3856,45.4548 C35.3856,45.1584 35.142,44.9328 34.8444,44.9328 C34.5492,44.9328 34.3056,45.1668 34.3056,45.4548 C34.3056,45.7512 34.5492,45.9864 34.8444,45.9864 C35.142,45.9864 35.3856,45.7428 35.3856,45.4548 L35.3856,45.4548 Z M34.44,51.198 L35.25,51.198 L35.25,46.7244 L34.44,46.7244 L34.44,51.198 Z" id="Fill-15" fill="#042C5C"></path>
            <path d="M42.414,51.1992 L42.414,48.0648 C42.414,47.274 42.09,46.6344 41.0628,46.6344 C40.2984,46.6344 39.7488,47.0496 39.4884,47.67 L39.4692,47.6604 C39.5244,47.3988 39.5424,46.986 39.5424,46.7256 L38.7588,46.7256 L38.7588,51.1992 L39.5688,51.1992 L39.5688,49.0464 C39.5688,48.0576 40.1004,47.31 40.8384,47.31 C41.4324,47.31 41.6028,47.6796 41.6028,48.3096 L41.6028,51.1992 L42.414,51.1992" id="Fill-16" fill="#042C5C"></path>
            <path d="M49.3056,51.1992 C49.2972,50.8116 49.2876,50.3352 49.2876,49.9116 L49.2876,48.1284 C49.2876,47.238 48.9192,46.6344 47.6316,46.6344 C47.0376,46.6344 46.4976,46.7784 46.0644,46.9596 L46.1472,47.652 C46.5336,47.418 47.0748,47.2824 47.4972,47.2824 C48.234,47.2824 48.4776,47.616 48.4776,48.2364 L48.4776,48.57 C46.7844,48.57 45.786,49.1904 45.786,50.172 C45.786,50.8836 46.2912,51.2796 47.028,51.2796 C47.766,51.2796 48.3336,50.8572 48.5496,50.3076 L48.5676,50.3076 C48.522,50.5596 48.522,50.8836 48.522,51.1992 L49.3056,51.1992 Z M48.4776,49.218 C48.4776,49.92 47.9916,50.64 47.2632,50.64 C46.848,50.64 46.5792,50.3976 46.5792,50.0196 C46.5792,49.6152 46.9212,49.1376 48.4776,49.1376 L48.4776,49.218 L48.4776,49.218 Z" id="Fill-17" fill="#042C5C"></path>
            <path d="M55.6032,49.8576 C55.6032,48.3552 53.5152,48.8856 53.5152,47.9052 C53.5152,47.5176 53.8128,47.2656 54.4056,47.2656 C54.7032,47.2656 55.0272,47.3196 55.3056,47.4096 L55.3248,46.734 C55.0548,46.68 54.7392,46.6452 54.4692,46.6452 C53.2992,46.6452 52.6776,47.2296 52.6776,47.9856 C52.6776,49.5612 54.7572,48.9492 54.7572,49.9488 C54.7572,50.3616 54.3528,50.6316 53.7588,50.6316 C53.4168,50.6316 53.0556,50.5692 52.7772,50.4792 L52.7508,51.2004 C53.0292,51.2532 53.3628,51.2808 53.6952,51.2808 C54.8832,51.2808 55.6032,50.6676 55.6032,49.8576" id="Fill-18" fill="#042C5C"></path>
            <path d="M58.2492,50.7828 L57.9444,50.3544 C57.912,50.3124 57.876,50.262 57.8412,50.2152 C58.0332,50.1852 58.1652,50.0496 58.1652,49.86 C58.1652,49.5996 57.984,49.5024 57.702,49.5024 C57.5556,49.5024 57.4368,49.5036 57.3372,49.5108 L57.3372,50.7828 L57.582,50.7828 L57.582,50.2572 L57.5916,50.2572 L57.9468,50.7828 L58.2492,50.7828 Z M57.9084,49.8852 C57.9084,50.004 57.8172,50.0796 57.6708,50.0796 C57.6336,50.0796 57.5988,50.0784 57.582,50.076 L57.582,49.7088 C57.606,49.7052 57.642,49.7016 57.678,49.7016 C57.8328,49.7016 57.9084,49.7628 57.9084,49.8852 L57.9084,49.8852 Z" id="Fill-19" fill="#042C5C"></path>
            <path d="M57.7572,49.0608 C58.356,49.0608 58.8396,49.5444 58.8396,50.142 C58.8396,50.7396 58.356,51.2244 57.7572,51.2244 C57.1608,51.2244 56.6772,50.7396 56.6772,50.142 C56.6772,49.5444 57.1608,49.0608 57.7572,49.0608 M57.7572,49.218 C57.2484,49.218 56.8344,49.632 56.8344,50.142 C56.8344,50.652 57.2484,51.066 57.7572,51.066 C58.2684,51.066 58.6812,50.652 58.6812,50.142 C58.6812,49.632 58.2684,49.218 57.7572,49.218" id="Fill-20" fill="#042C5C"></path>
        </g>
    </g>
</svg>