<?xml version="1.0" encoding="UTF-8"?>
<svg width="103px" height="26px" viewBox="0 0 103 26" version="1.1" xmlns="http://www.w3.org/2000/svg" xmlns:xlink="http://www.w3.org/1999/xlink">
    <!-- Generator: Sketch 60 (88103) - https://sketch.com -->
    <title>logotipo-entel-bn</title>
    <desc>Created with Sketch.</desc>
    <g id="desktop-🖥" stroke="none" stroke-width="1" fill="none" fill-rule="evenodd">
        <g id="logotipo-entel-bn" fill="#042C5C">
            <path d="M28.4088,1.7076 C28.0236,1.44 27.4248,1.4832 27.0768,1.8 L24.8688,3.8172 C24.5232,4.134 24.552,4.6176 24.9288,4.8948 C24.9288,4.8948 28.3392,7.3896 28.3392,12.7548 C28.3392,17.8404 24.744,20.7708 24.744,20.7708 C24.3816,21.0672 24.3672,21.5652 24.7152,21.8844 L26.904,23.8716 C27.252,24.1872 27.8532,24.228 28.2408,23.9664 C28.2408,23.9664 33.3888,20.472 33.3888,12.774 C33.3888,5.1252 28.4088,1.7076 28.4088,1.7076" id="Fill-1"></path>
            <path d="M46.5252,14.0916 C46.5252,14.0916 46.1364,14.0556 46.1364,14.3676 C46.1364,16.14 47.46,17.3988 49.5372,17.3988 C51.0768,17.3988 51.7368,17.0328 52.6692,16.3332 C52.8888,16.1724 53.118,16.0224 53.2956,16.212 C53.418,16.344 55.056,17.8488 55.056,17.8488 C55.26,18.0408 55.2036,18.27 54.984,18.4548 C54.7656,18.6384 52.32,20.5344 49.506,20.5344 C45.828,20.5344 42.3,18.9384 42.3,12.9252 C42.3,8.0772 45.0504,5.3424 49.0884,5.3424 C53.4264,5.3424 55.8792,8.364 55.8792,12.4404 L55.8792,13.47 C55.8792,13.8912 55.536,14.0916 55.2552,14.0916 L46.5252,14.0916 Z M51.6912,9.96 C51.2724,9.078 50.406,8.4204 49.0884,8.4204 C47.772,8.4204 46.9056,9.078 46.4868,9.96 C46.2492,10.5024 46.1568,10.9008 46.1256,11.556 L52.0512,11.556 C52.02,10.9008 51.9312,10.5024 51.6912,9.96 L51.6912,9.96 Z" id="Fill-2"></path>
            <path d="M84.8676,14.0916 C84.8676,14.0916 84.4788,14.0556 84.4788,14.3676 C84.4788,16.14 85.8012,17.3988 87.8796,17.3988 C89.4216,17.3988 90.0816,17.0328 91.0116,16.3332 C91.23,16.1724 91.4616,16.0224 91.638,16.212 C91.7616,16.344 93.3972,17.8488 93.3972,17.8488 C93.6036,18.0408 93.5472,18.27 93.3276,18.4548 C93.108,18.6384 90.6624,20.5344 87.8496,20.5344 C84.1716,20.5344 80.6412,18.9384 80.6412,12.9252 C80.6412,8.0772 83.394,5.3424 87.4308,5.3424 C91.7688,5.3424 94.2204,8.364 94.2204,12.4404 L94.2204,13.47 C94.2204,13.8912 93.8772,14.0916 93.5976,14.0916 L84.8676,14.0916 Z M90.0336,9.96 C89.6136,9.078 88.7472,8.4204 87.4308,8.4204 C86.1156,8.4204 85.2492,9.078 84.8292,9.96 C84.5892,10.5024 84.498,10.9008 84.4704,11.556 L90.3936,11.556 C90.3612,10.9008 90.2724,10.5024 90.0336,9.96 L90.0336,9.96 Z" id="Fill-3"></path>
            <path d="M67.0524,20.364 C66.7704,20.364 66.54,20.1324 66.54,19.8516 L66.54,11.898 C66.54,10.5924 66.2208,8.6796 63.966,8.6796 C62.7408,8.6796 61.3656,9.3624 61.3656,11.3844 L61.3656,19.8516 C61.3656,20.1324 61.1364,20.364 60.8532,20.364 L57.9876,20.364 C57.7068,20.364 57.4752,20.1324 57.4752,19.8516 L57.4752,6.0264 C57.4752,5.7432 57.7068,5.514 57.9876,5.514 L60.7632,5.514 C61.0452,5.514 61.2756,5.7432 61.2756,6.0264 L61.2756,6.3696 C61.2756,6.6504 61.47,6.7584 61.7088,6.6096 C61.7088,6.6096 63.1128,5.3436 65.1636,5.3436 C66.7188,5.3436 67.9752,5.826 68.8428,6.6528 C70.0992,7.8504 70.428,9.2472 70.428,10.872 L70.428,19.8516 C70.428,20.1324 70.1976,20.364 69.9168,20.364 L67.0524,20.364" id="Fill-4"></path>
            <path d="M76.41,5.9556 L78.6648,5.9556 C78.9456,5.9556 79.1748,6.1692 79.1748,6.4512 L79.1748,8.724 C79.1748,9.0036 78.9456,9.234 78.6648,9.234 L76.9356,9.234 C76.6548,9.234 76.4232,9.4644 76.4232,9.7464 L76.4232,15.378 C76.4232,15.6588 76.4928,16.1076 76.5756,16.3752 C76.5756,16.3752 76.8432,17.2272 77.7708,17.2272 L78.6648,17.2272 C78.9456,17.2272 79.1748,17.4588 79.1748,17.7384 L79.1748,19.8516 C79.1748,20.1324 78.9456,20.364 78.6648,20.364 L77.0532,20.364 C73.8816,20.364 72.8628,18.2268 72.8628,16.1172 L72.8628,3.5376 C72.8628,3.2568 73.0932,3.0264 73.3752,3.0264 L75.912,3.0264 C76.194,3.0264 76.41,3.2568 76.41,3.5376 L76.41,5.9556" id="Fill-5"></path>
            <path d="M99.9924,20.364 C96.792,20.364 95.7768,18.2268 95.7768,16.1172 L95.7768,3.5376 C95.7768,3.2556 96.006,3.0252 96.288,3.0252 L98.8236,3.0252 C99.1056,3.0252 99.3348,3.2556 99.3348,3.5376 L99.3348,15.378 C99.3348,15.6588 99.3996,16.11 99.4764,16.38 C99.4764,16.38 99.7236,17.2272 100.71,17.2272 L101.694,17.2272 C101.976,17.2272 102.2088,17.4588 102.2088,17.7372 L102.2088,19.8516 C102.2088,20.1324 101.976,20.364 101.694,20.364 L99.9924,20.364" id="Fill-6"></path>
            <path d="M7.1052,14.4624 C7.1052,14.4624 6.4644,14.4036 6.4644,14.9172 C6.4644,17.8224 8.6364,19.8948 12.0492,19.8948 C14.5812,19.8948 15.6624,19.2888 17.1924,18.1428 C17.55,17.8764 17.9304,17.6304 18.222,17.9436 C18.4236,18.1584 21.1104,20.6304 21.1104,20.6304 C21.4476,20.946 21.3528,21.3216 20.994,21.6252 C20.6364,21.9264 16.6188,25.0428 12,25.0428 C5.9592,25.0428 0.1608,22.4196 0.1608,12.5448 C0.1608,4.5888 4.68,0.0936 11.3124,0.0936 C18.4356,0.0936 22.4628,5.0568 22.4628,11.7504 L22.4628,13.4412 C22.4628,14.13 21.9012,14.4624 21.438,14.4624 L7.1052,14.4624 Z M15.5844,7.6764 C14.898,6.2268 13.4772,5.1492 11.3124,5.1492 C9.1524,5.1492 7.728,6.2268 7.038,7.6764 C6.6468,8.5656 6.498,9.2208 6.4488,10.2984 L16.176,10.2984 C16.1244,9.2208 15.9792,8.5656 15.5844,7.6764 L15.5844,7.6764 Z" id="Fill-7"></path>
        </g>
    </g>
</svg>