<?xml version="1.0" encoding="UTF-8"?>
<svg width="143px" height="29px" viewBox="0 0 143 29" version="1.1" xmlns="http://www.w3.org/2000/svg" xmlns:xlink="http://www.w3.org/1999/xlink">
    <!-- Generator: Sketch 60 (88103) - https://sketch.com -->
    <title>logotipo-movistar-bn</title>
    <desc>Created with Sketch.</desc>
    <g id="desktop-🖥" stroke="none" stroke-width="1" fill="none" fill-rule="evenodd">
        <g id="logotipo-movistar-bn" fill="#042C5C">
            <path d="M37.9975814,14.3849302 C37.9691163,16.3557209 37.8351628,18.4253023 37.3730233,20.4597209 C37.2340465,21.0708837 36.9426977,21.6066977 36.5257674,22.0587907 C35.9815814,22.639814 35.3017674,22.9093953 34.5097674,22.7134884 C33.7244651,22.515907 33.3242791,21.9315349 33.1585116,21.1813953 C32.9274419,20.1616744 33.1183256,19.1352558 33.2254884,18.1172093 C33.3845581,16.5717209 33.5185116,15.027907 33.4515349,13.4740465 C33.4163721,12.6586047 33.315907,11.8297674 32.7114419,11.2202791 C31.9010233,10.4048372 30.7791628,10.5053023 29.7996279,11.4228837 C28.9088372,12.2517209 28.3093953,13.2814884 27.8104186,14.3849302 C26.8024186,16.6202791 26.1226047,18.9711628 25.3975814,21.3002791 C25.0057674,22.5594419 24.5620465,23.7951628 23.6762791,24.7981395 C20.5819535,28.2775814 14.8554419,27.9025116 12.2952558,23.9743256 C10.8636279,21.7808372 9.648,19.4584186 8.32855814,17.1962791 C8.04055814,16.7090233 7.73246512,16.231814 7.34065116,15.8132093 C6.912,15.367814 6.43813953,15.1618605 5.81525581,15.3209302 C5.1572093,15.4883721 4.92613953,15.9923721 4.81730233,16.5683721 C4.6532093,17.4407442 4.76874419,18.3047442 4.9412093,19.1670698 C5.31627907,21.0574884 6.04465116,22.8474419 6.50511628,24.7077209 C6.64911628,25.2837209 6.73953488,25.8613953 6.70102326,26.4574884 C6.65413953,27.1373023 6.37116279,27.699907 5.72818605,27.967814 C4.99311628,28.2775814 4.26474419,28.203907 3.63181395,27.6898605 C3.01897674,27.1925581 2.6824186,26.4859535 2.41283721,25.7776744 C1.03311628,22.1609302 0.0485581395,18.4571163 0.251162791,14.5389767 C0.38344186,11.9687442 0.84055814,9.4587907 2.03944186,7.1464186 C3.01395349,5.26269767 4.40539535,3.85283721 6.62567442,3.52130233 C8.13432558,3.29525581 9.47888372,3.66027907 10.6493023,4.65823256 C12.0156279,5.82362791 12.9700465,7.31051163 13.947907,8.784 C14.6863256,9.88576744 15.2824186,11.0913488 16.1497674,12.1026977 C16.9853023,13.0805581 17.9815814,13.8139535 19.3395349,13.7670698 C20.8498605,13.7151628 21.7774884,12.8076279 22.3568372,11.5032558 C23.3631628,9.22939535 24.1886512,6.88018605 25.2435349,4.61972093 C26.0556279,2.88 27.2293953,1.46511628 29.0193488,0.704930233 C31.7051163,-0.430325581 34.159814,0.485581395 35.6048372,3.1144186 C36.7836279,5.26772093 37.3596279,7.61860465 37.6945116,10.0347907 C37.8870698,11.4463256 37.9590698,12.8595349 37.9975814,14.3849302" id="Fill-1"></path>
            <path d="M130.66493,9.22269767 C129.898047,8.88948837 128.741023,8.68018605 127.244093,8.68018605 L127.059907,8.68018605 C126.147349,8.68018605 124.899907,8.79069767 123.701023,9.01339535 C123.505116,9.05023256 123.418047,9.15069767 123.418047,9.38344186 L123.418047,11.0980465 C123.418047,11.3106977 123.528558,11.3826977 123.776372,11.3458605 C124.826233,11.1851163 125.91293,11.0746047 126.751814,11.0746047 L126.875721,11.0746047 C128.059535,11.0746047 129.010605,11.1851163 129.579907,11.5702326 C130.147535,11.9503256 130.432186,12.5313488 130.432186,13.7787907 L130.432186,14.1488372 C129.566512,13.9629767 128.516651,13.8407442 127.567256,13.8407442 L127.306047,13.8407442 C125.713674,13.8407442 124.218419,14.224186 123.257302,15.1116279 C122.52893,15.7914419 122.046698,16.8262326 122.046698,18.1473488 L122.046698,18.2612093 C122.046698,20.9134884 123.873488,22.5460465 127.590698,22.5460465 L128.258791,22.5460465 C129.715535,22.5460465 131.110326,22.1106977 131.937488,21.4208372 C132.900279,20.6288372 133.270326,19.4450233 133.270326,17.568 L133.270326,13.7419535 C133.270326,11.1231628 132.247256,9.91590698 130.66493,9.22269767 Z M130.432186,17.5060465 C130.432186,18.5073488 130.392,19.0984186 130.035349,19.5203721 C129.651907,19.9657674 128.962047,20.1750698 128.036093,20.1750698 L127.578977,20.1750698 C125.862698,20.1750698 124.874791,19.4852093 124.874791,18.1724651 C124.874791,17.568 125.110884,17.0388837 125.48093,16.7173953 C125.91293,16.3456744 126.554233,16.1631628 127.64093,16.1631628 L127.88707,16.1631628 C128.712558,16.1631628 129.651907,16.2468837 130.432186,16.4461395 L130.432186,17.5060465 Z M142.318884,8.68018605 L140.788465,8.68018605 C138.591628,8.68018605 136.863628,9.44539535 136.135256,11.0377674 C135.812093,11.7293023 135.714977,12.6552558 135.714977,13.6431628 L135.714977,22.0386977 C135.714977,22.2228837 135.803721,22.2982326 135.999628,22.2982326 L138.283535,22.2982326 C138.467721,22.2982326 138.553116,22.2228837 138.553116,22.0386977 L138.553116,15.0128372 C138.553116,14.0249302 138.579907,13.2982326 138.628465,12.8528372 C138.764093,11.6924651 139.469023,11.1382326 141.109953,11.1382326 L142.332279,11.1382326 C142.528186,11.1382326 142.61693,11.0377674 142.61693,10.8418605 L142.61693,8.95144186 C142.61693,8.7655814 142.516465,8.68018605 142.318884,8.68018605 Z M87.4314419,22.2982326 L89.9112558,22.2982326 C90.1205581,22.2982326 90.2210233,22.2228837 90.3064186,22.0654884 C91.912186,19.039814 94.3685581,13.8792558 94.5410233,9.19925581 C94.5527442,9.01339535 94.4673488,8.92632558 94.2312558,8.92632558 L91.9255814,8.92632558 C91.6526512,8.92632558 91.5756279,9.01339535 91.5672558,9.24948837 C91.4533953,10.9490233 91.0950698,12.939907 90.5776744,14.7064186 C90.0351628,16.5332093 89.3436279,18.2746047 88.6772093,19.5706047 C88.0107907,18.2746047 87.3175814,16.5332093 86.7733953,14.7064186 C86.2442791,12.9265116 85.8859535,10.9272558 85.7754419,9.21097674 C85.7637209,8.96316279 85.628093,8.91460465 85.392,8.91460465 L83.0595349,8.91460465 C82.8117209,8.91460465 82.7380465,9.02511628 82.7631628,9.27293023 C83.0846512,13.8658605 84.5162791,17.4206512 86.9977674,22.052093 C87.0831628,22.2346047 87.2070698,22.2982326 87.4314419,22.2982326 Z M105.838326,16.3105116 C106.454512,16.5432558 106.973581,16.7274419 107.578047,16.940093 C108.885767,17.4072558 109.441674,17.7806512 109.441674,18.5693023 C109.441674,19.6057674 108.565953,20.1482791 106.59014,20.1482791 L106.514791,20.1482791 C105.406326,20.1482791 104.122047,19.9255814 102.998512,19.5706047 C102.764093,19.4952558 102.640186,19.5823256 102.640186,19.8150698 L102.640186,21.5196279 C102.640186,21.7322791 102.675349,21.8662326 102.911442,21.9499535 C103.986419,22.3233488 105.456558,22.5326512 106.663814,22.5326512 L106.750884,22.5326512 C110.257116,22.5326512 112.159256,20.9754419 112.159256,18.4437209 L112.159256,18.4085581 C112.159256,17.4340465 111.837767,16.5549767 111.246698,15.963907 C110.664,15.3845581 109.776558,14.9391628 108.393488,14.4334884 C107.665116,14.1622326 107.097488,13.9495814 106.59014,13.7670698 C105.456558,13.3467907 105.133395,12.9650233 105.133395,12.3706047 C105.133395,11.3944186 106.084465,11.0243721 107.616558,11.0243721 L107.72707,11.0243721 C108.602791,11.0243721 109.676093,11.1516279 110.973767,11.3826977 C111.208186,11.4346047 111.343814,11.3726512 111.343814,11.1231628 L111.343814,9.37172093 C111.343814,9.13730233 111.28186,9.07534884 111.047442,9.02511628 C110.206884,8.85432558 108.676465,8.65506977 107.812465,8.65506977 L107.603163,8.65506977 C105.811535,8.65506977 104.478698,8.98827907 103.602977,9.75348837 C102.884651,10.3847442 102.404093,11.3341395 102.404093,12.4576744 L102.404093,12.5447442 C102.404093,13.5946047 102.775814,14.4435349 103.392,15.0128372 C104.00986,15.5821395 104.786791,15.9153488 105.838326,16.3105116 Z M119.925209,22.2982326 C120.121116,22.2982326 120.233302,22.1860465 120.233302,22.011907 L120.233302,20.1131163 C120.233302,19.9389767 120.121116,19.8284651 119.925209,19.8284651 L119.615442,19.8284651 C118.702884,19.8284651 118.146977,19.6057674 117.800372,19.2457674 C117.343256,18.7652093 117.25786,18 117.25786,17.0874419 L117.25786,11.2989767 L119.774512,11.2989767 C119.962047,11.2989767 120.059163,11.2236279 120.059163,11.0377674 L120.059163,9.18586047 C120.059163,9.00167442 119.962047,8.92632558 119.774512,8.92632558 L117.25786,8.92632558 L117.25786,6.53190698 C117.25786,6.34772093 117.15907,6.27237209 116.973209,6.27237209 L114.689302,6.27237209 C114.505116,6.27237209 114.404651,6.34772093 114.404651,6.53190698 L114.404651,17.248186 C114.404651,19.111814 114.776372,20.2989767 115.59014,21.1093953 C116.355349,21.8779535 117.565953,22.2982326 119.307349,22.2982326 L119.925209,22.2982326 Z M61.344,8.68018605 L60.6524651,8.68018605 C58.6632558,8.68018605 57.3421395,9.21097674 56.6991628,9.98790698 L56.6874419,9.98790698 C56.0461395,9.21097674 54.6513488,8.68018605 52.663814,8.68018605 L51.9471628,8.68018605 C49.700093,8.68018605 47.8733023,9.45711628 47.1315349,11.0628837 C46.8117209,11.7544186 46.7146047,12.6686512 46.7146047,13.6682791 L46.7146047,21.9985116 C46.7146047,22.1860465 46.8234419,22.3099535 47.0093023,22.3099535 L49.268093,22.3099535 C49.4522791,22.3099535 49.5644651,22.1860465 49.5644651,21.9985116 L49.5644651,15.0630698 C49.5644651,14.0751628 49.5895814,13.3467907 49.639814,12.9030698 C49.7754419,11.7410233 50.6377674,11.1733953 52.2820465,11.1733953 L52.4662326,11.1733953 C54.1071628,11.1733953 55.0197209,11.7410233 55.1453023,12.9030698 C55.1938605,13.3467907 55.2189767,14.0751628 55.2189767,15.0630698 L55.2189767,21.9985116 C55.2189767,22.1860465 55.3311628,22.3099535 55.5153488,22.3099535 L57.7741395,22.3099535 C57.96,22.3099535 58.072186,22.1609302 58.072186,21.9767442 L58.072186,15.0630698 C58.072186,14.0751628 58.0956279,13.3467907 58.1458605,12.9030698 C58.2697674,11.7410233 59.1823256,11.1733953 60.8232558,11.1733953 L61.0091163,11.1733953 C62.6517209,11.1733953 63.5157209,11.7410233 63.6513488,12.9030698 C63.699907,13.3467907 63.7266977,14.0751628 63.7266977,15.0630698 L63.7266977,21.9985116 C63.7266977,22.1860465 63.8355349,22.3099535 64.0213953,22.3099535 L66.280186,22.3099535 C66.4660465,22.3099535 66.5782326,22.1609302 66.5782326,21.9767442 L66.5782326,13.6682791 C66.5782326,12.6686512 66.4660465,11.7544186 66.1579535,11.0628837 C65.427907,9.45711628 63.5910698,8.68018605 61.344,8.68018605 Z M80.7990698,19.2976744 C81.0703256,18.3817674 81.2327442,17.3453023 81.2327442,15.6055814 C81.2327442,13.8792558 81.0837209,12.8277209 80.7990698,11.9151628 C80.1092093,9.5944186 78.2690233,8.6667907 75.2935814,8.6667907 L74.9352558,8.6667907 C71.9614884,8.6667907 70.1346977,9.5944186 69.4297674,11.9151628 C69.1585116,12.8277209 68.996093,13.8792558 68.996093,15.6055814 C68.996093,17.3369302 69.1451163,18.3817674 69.4297674,19.2976744 C70.1346977,21.620093 71.9614884,22.5460465 74.9352558,22.5460465 L75.2935814,22.5460465 C78.2690233,22.5460465 80.1092093,21.620093 80.7990698,19.2976744 Z M78.232186,17.5546047 C78.0094884,19.7296744 76.9244651,20.0645581 75.1579535,20.0645581 L75.0842791,20.0645581 C73.3311628,20.0645581 72.2327442,19.7296744 72.0083721,17.5546047 C71.9363721,16.9049302 71.8861395,16.3590698 71.8861395,15.6055814 C71.8861395,14.852093 71.9363721,14.3112558 72.0083721,13.6548837 C72.2327442,11.4831628 73.3177674,11.1516279 75.0842791,11.1516279 L75.1579535,11.1516279 C76.9110698,11.1516279 78.0094884,11.4831628 78.232186,13.6548837 C78.3058605,14.3112558 78.356093,14.852093 78.356093,15.6055814 C78.356093,16.3724651 78.2941395,16.9049302 78.232186,17.5546047 Z M99.4537674,8.93804651 L97.1715349,8.93804651 C96.9856744,8.93804651 96.8868837,9.01339535 96.8868837,9.19925581 L96.8868837,22.0386977 C96.8868837,22.2228837 96.9722791,22.2982326 97.1715349,22.2982326 L99.4537674,22.2982326 C99.6513488,22.2982326 99.7384186,22.2228837 99.7384186,22.0386977 L99.7384186,9.19925581 C99.7384186,9.01339535 99.6396279,8.93804651 99.4537674,8.93804651 L99.4537674,8.93804651 Z" id="Fill-2"></path>
        </g>
    </g>
</svg>