<?xml version="1.0" encoding="UTF-8"?>
<svg width="83px" height="31px" viewBox="0 0 83 31" version="1.1" xmlns="http://www.w3.org/2000/svg" xmlns:xlink="http://www.w3.org/1999/xlink">
    <!-- Generator: Sketch 60 (88103) - https://sketch.com -->
    <title>logotipo-enel-bn</title>
    <desc>Created with Sketch.</desc>
    <g id="desktop-🖥" stroke="none" stroke-width="1" fill="none" fill-rule="evenodd">
        <g id="logotipo-enel-bn" fill="#042C5C">
            <path d="M73.04505,16.92405 C72.10515,11.52255 67.371525,7.41585 61.7019,7.41585 C55.3566,7.41585 50.211525,12.55995 50.211525,18.90525 C50.211525,25.251525 55.3566,30.395625 61.7019,30.395625 C65.415675,30.395625 68.717025,28.6338 70.81815,25.900875 L68.096925,23.8134 C66.6237,25.73025 64.3071,26.96655 61.7019,26.96655 C57.25005,26.96655 53.641575,23.358075 53.641575,18.90525 C53.641575,14.454375 57.25005,10.844925 61.7019,10.844925 C65.470275,10.844925 68.65755,13.430625 69.5409,16.92405 L61.0428,16.92405 L61.0428,20.353125 L73.04505,20.353125 L73.04505,16.92405" id="Fill-1"></path>
            <path d="M22.9632,16.92405 C22.024275,11.52255 17.29065,7.41585 11.621025,7.41585 C5.275725,7.41585 0.13065,12.55995 0.13065,18.90525 C0.13065,25.251525 5.275725,30.395625 11.621025,30.395625 C15.333825,30.395625 18.63615,28.6338 20.7363,25.900875 L18.01605,23.8134 C16.54185,25.73025 14.226225,26.96655 11.621025,26.96655 C7.169175,26.96655 3.559725,23.358075 3.559725,18.90525 C3.559725,14.454375 7.169175,10.844925 11.621025,10.844925 C15.3894,10.844925 18.576675,13.430625 19.45905,16.92405 L10.96095,16.92405 L10.96095,20.353125 L22.9632,20.353125 L22.9632,16.92405" id="Fill-2"></path>
            <path d="M79.902225,22.659 L79.902225,0.344175 L76.47315,0.344175 L76.47315,22.659 C76.47315,26.2782 78.160875,28.457325 81.085875,30.37905 L83.04465,27.56715 C81.042975,26.20215 79.902225,25.134525 79.902225,22.659" id="Fill-3"></path>
            <path d="M46.98525,16.917225 C46.98525,11.6142 42.702075,7.41975 37.45755,7.41975 C34.471125,7.41975 31.784025,8.614125 29.82135,10.550475 L29.82135,8.35185 L26.392275,8.35185 L26.392275,20.353125 L29.82135,20.353125 L29.82135,17.51295 C30.339075,14.760525 32.77755,10.848825 37.45365,10.848825 C40.804725,10.848825 43.556175,13.494975 43.556175,16.917225 L43.556175,30.046575 L46.98525,30.046575 L46.98525,16.917225" id="Fill-4"></path>
        </g>
    </g>
</svg>