<?xml version="1.0" encoding="UTF-8"?>
<svg width="182px" height="29px" viewBox="0 0 182 29" version="1.1" xmlns="http://www.w3.org/2000/svg" xmlns:xlink="http://www.w3.org/1999/xlink">
    <!-- Generator: Sketch 60 (88103) - https://sketch.com -->
    <title>logotipo-bancodechile</title>
    <desc>Created with Sketch.</desc>
    <g id="desktop-🖥" stroke="none" stroke-width="1" fill="none" fill-rule="evenodd">
        <path d="M134.960551,1.62639979 L135.243328,1.62639979 C135.017506,2.19430173 131.205855,4.01462731 129.733687,5.69091261 C127.469478,8.26645857 125.949348,9.70487919 126.202148,13.7221494 C126.349032,16.0581789 128.207228,19.5161367 130.369184,20.7560064 C131.032992,21.1342773 133.138326,22.2836263 135.101773,22.36787 C137.962843,22.4937401 136.822745,21.9268293 137.239082,22.1508185 L137.239082,5.19337898 C137.239082,4.9829348 136.720159,3.86860482 136.232545,3.86860482 C136.090657,3.86860482 135.879158,4.12761304 135.879158,4.2891628 L135.879158,15.9914446 C135.879158,16.4281906 135.469482,17.0565498 133.477058,18.3737255 C131.435341,19.7193128 130.806838,20.174229 130.581016,20.1253346 C130.630311,19.9994646 130.941398,19.5369499 131.075625,19.4249553 L131.075625,7.23207756 C131.075625,6.02689648 132.848889,5.31957941 134.395665,4.14908693 C136.94598,2.21511489 138.323224,1.76647566 138.351535,1.76647566 L138.987698,1.76647566 C140.684023,1.76647566 141.742519,3.79856689 141.954018,4.00868069 C141.968007,4.02255613 142.441632,4.1841059 142.590514,4.35920074 L143.579399,4.35920074 C143.862508,4.35920074 144.568283,3.93897313 144.992281,4.00868069 C143.84752,4.99681024 140.202737,7.30244586 140.117804,7.30244586 L139.552252,7.30244586 C139.290792,7.30244586 138.888444,6.90303141 138.422146,6.67177407 L138.422146,21.9476424 C138.620322,21.9753933 138.592345,21.9476424 138.705255,21.9476424 C139.397374,21.9476424 141.968007,20.1045215 142.095573,19.9152208 L142.307738,19.9152208 L142.307738,20.4058167 C142.293416,20.4269603 141.254905,22.3539946 141.24791,22.36787 C139.043654,24.869744 136.569945,26.1053189 133.045067,26.1310876 C126.87728,26.1760176 122.502075,21.7438056 122.033113,14.8698465 C121.566149,8.02925462 126.422973,2.40871031 132.13512,2.0466274 C132.968128,1.99409895 133.985989,2.05356512 134.113222,2.0466274 C134.113222,2.0466274 134.896935,1.6752942 134.960551,1.62639979 Z M174.553891,12.773664 L177.771013,16.0568574 L174.574209,18.1028241 L174.553891,12.773664 Z M159.224687,10.0104692 L159.295631,10.0104692 L161.485565,12.1826363 L161.485565,22.1329787 L162.82717,23.3946526 L160.284848,25.8469714 L157.883082,23.4640298 L157.883082,13.5143482 L156.751976,12.4631184 L159.224687,10.0104692 Z M176.532326,10.3917135 C176.66622,10.3917135 181.123693,15.2339117 181.194637,15.4370878 L174.483947,20.131942 L174.483947,22.023627 L178.286272,23.7296454 C178.286272,23.7296454 180.283691,23.4673335 180.982805,22.8647429 L182,23.1158223 C181.915067,23.2423531 177.330361,26.0177715 176.532326,26.0177715 C176.355799,26.0177715 172.936504,24.7141409 171.516961,23.7755665 L171.516961,13.0541461 C171.516961,12.5797382 176.518004,10.3917135 176.532326,10.3917135 Z M159.154076,3.42326927 L159.224687,3.42326927 L161.626453,5.80621091 L161.626453,5.87624885 L159.154076,8.32889805 L156.681366,5.87624885 L159.154076,3.42326927 Z M148.628071,3.42326927 L148.628071,13.5840558 L152.302164,10.0104692 L155.056984,12.7432702 L155.056984,25.6368576 L151.59539,29 L151.525112,29 L151.525112,14.4952097 L150.182508,13.2338661 L148.628071,14.5649172 L148.628071,22.2026862 L149.970675,23.4640298 L149.970675,23.5343981 L147.497965,25.9867169 L145.096532,23.604436 L145.096532,6.92714824 L148.628071,3.49396794 L148.628071,3.42326927 Z M168.196255,22.3744774 L169.467915,23.5654527 L166.924928,25.9477336 L164.522828,23.5654527 L164.522828,7.44846835 L168.196255,3.87521218 L168.196255,22.3744774 Z M104.47767,12.619052 L107.845672,16.1216095 L104.47767,18.5769016 L104.47767,12.619052 Z M91.9036184,12.4082774 L95.2946021,13.9501031 L95.2946021,23.5499254 L95.2236582,23.5499254 L91.9036184,22.078468 L91.9036184,12.4082774 Z M106.526715,10.2361103 L111.118082,15.2814846 L104.407392,20.186783 L104.407392,21.5175038 C104.407392,21.8002985 108.361264,23.5895695 108.361264,23.5895695 C108.361264,23.5895695 110.321379,22.2595095 111.189026,22.7795081 C111.139399,22.8422779 106.455438,25.8624987 106.455438,25.8624987 L101.440406,23.6903316 L101.440406,12.6183912 L106.526715,10.2361103 Z M93.457389,3.78931659 C93.6698876,3.78931659 94.6018169,4.14710473 96.1422647,4.91091466 C96.9756054,5.32420455 98.4734203,5.63640195 98.4734203,6.38237204 L98.4734203,23.7603696 L93.8107761,25.932867 L88.6538563,23.4802178 L88.6538563,12.4786457 L93.5989437,10.3064786 C93.7758038,10.3272918 95.3652129,10.93682 95.3652129,10.93682 L95.3652129,7.4336018 L91.2411425,5.68661783 C90.57034,5.72824415 89.7776338,6.36486256 88.972271,6.50493843 L89.148465,5.82173819 C89.148465,5.82173819 92.8641917,3.78931659 93.457389,3.78931659 Z M29.0979774,17.3370319 L33.7602886,19.6548911 L33.7602886,23.9936091 L29.0979774,21.8445677 L29.0979774,17.3370319 Z M69.6825332,12.4023308 L72.9666015,13.9441565 L72.9666015,23.5439788 L69.6468948,22.0725214 L69.6825332,12.4023308 Z M31.8531309,10.1191602 C35.2860813,11.8225356 36.7982183,12.0300065 36.7982183,12.7825839 L36.7982183,21.7514041 L38.9874861,23.9242319 L36.9391068,25.8856245 C35.4416249,24.6735057 34.8903944,24.1343457 34.8903944,24.1343457 L31.1257064,26.0052175 L25.98977,23.6695185 L25.98977,17.7575899 L31.0058013,15.3046103 L33.7602886,16.4262084 L33.7602886,13.9735592 L29.3607695,12.4565111 L27.1521836,12.7208052 L27.0495981,12.3616956 L31.8531309,10.1191602 Z M59.6861092,10.3702396 L65.196083,12.6828129 C64.9416176,12.9979836 63.2609474,14.2177009 62.6527619,14.3643841 C62.6527619,14.3643841 58.1529888,12.6193823 58.0610616,12.6124446 L58.0610616,21.7220013 L61.8480653,23.5895695 C61.8480653,23.5895695 64.0303386,22.8435994 64.5605858,22.8435994 C64.6168746,22.8435994 64.7157963,22.8644126 64.8426959,22.8435994 L64.8426959,23.0533829 L60.5337718,25.8565521 L59.9685524,25.8565521 L54.5291894,23.4042333 L54.5291894,12.8228888 L59.6861092,10.3702396 Z M48.0303313,9.97941468 L51.0675949,12.9926977 L51.0675949,22.242 L52.480477,23.6437498 L50.1496545,25.8856245 L47.6769442,23.5733815 L47.6769442,14.954751 C47.6346444,14.9263394 46.1295019,13.4406762 45.8407304,13.342557 L44.144739,14.8843827 L44.144739,22.3120379 L45.4163995,23.5733815 L43.0146331,25.8856245 L40.8246991,23.7834953 L40.8246991,14.4641551 C40.8246991,14.4641551 39.7865206,13.602226 39.3408732,13.0624053 L42.3081921,10.0494526 L45.204234,12.7825839 L48.0303313,9.97941468 Z M71.2006654,10.2998713 L76.2163636,12.7531812 L76.2163636,23.5439788 L71.4831086,25.8565521 L66.3971327,23.6837243 L66.3971327,12.4023308 L71.2006654,10.2998713 Z M17.2366955,13.3138151 C17.4555224,13.3699776 18.7201884,14.1199121 18.7201884,14.6455269 L18.7201884,22.7035235 C18.3668014,22.8647429 18.6492446,22.7035235 18.4374122,22.7035235 C17.9920978,22.7035235 17.2366955,22.3539946 17.2366955,21.9327759 L17.2366955,13.3138151 Z M17.2366955,5.04537428 C17.2366955,5.04537428 19.4972403,7.49108577 19.4972403,8.96948087 C19.4972403,10.0904182 18.6282612,10.525182 17.2366955,11.3517618 L17.2366955,5.04537428 Z M18.86141,0.210113806 C19.7087396,0.210113806 20.2246647,1.11466035 21.6868412,3.01328306 C22.0472227,3.48273544 23.7355536,5.52903248 23.7355536,6.51716203 L23.7355536,7.28790968 C23.7355536,9.28366047 18.4374122,11.2889919 18.4374122,12.1225094 C18.4374122,12.6904114 21.2208765,12.4238047 22.463893,13.2434468 C23.6509538,14.0287306 24.1592183,15.6858546 24.1592183,16.6072499 L24.1592183,18.9895308 C24.1592183,20.4140759 22.1881112,20.9515841 19.7800165,22.7738918 C18.7201884,23.5723904 15.1033834,25.9969583 14.8349291,25.9969583 C14.8349291,25.9969583 10.6868778,23.7547533 8.68879202,23.7547533 L6.00424939,23.7547533 C4.87880651,23.7547533 2.1189901,24.7356148 1.90715771,24.7356148 C1.90715771,24.7356148 6.07919009,20.6711019 10.3135065,20.6711019 L13.1396038,20.6711019 C13.7204776,20.6711019 15.7248917,21.484467 16.2474782,21.6529545 L16.2474782,3.85373828 C16.2474782,3.67897381 16.0216569,3.36314237 15.6822587,3.36314237 C14.8982124,3.36314237 14.3403205,4.77909798 14.3403205,4.83526048 L14.3403205,15.4162746 C14.3403205,15.8863877 12.5034405,17.3010219 11.5142232,17.8685934 C10.0377247,18.7166471 9.08447895,19.5293515 8.19451643,19.9707226 L8.19451643,19.7606088 C8.19451643,19.7606088 8.97156828,18.9204839 8.97156828,18.4288969 L8.97156828,6.93738964 C8.97156828,6.79665303 10.2145848,5.25548809 13.6338794,3.2934348 C15.6186424,2.15829166 17.6393769,0.210113806 18.86141,0.210113806 Z M7.55868617,0 L8.90062441,0 C9.85620169,0 13.1396038,0.910823527 13.1396038,0.910823527 L13.7041572,0.910823527 C13.9236502,0.910823527 14.2763711,0.742996776 14.4112643,0.630341418 C14.5095199,0.658753033 14.5804638,0.679896561 14.6933745,0.771078024 L9.11278988,4.69485424 C9.10546234,4.69485424 7.4171315,5.52638954 7.4171315,6.30671785 L7.4171315,16.1870222 L1.90715771,19.9707226 C1.98476297,19.4451077 2.68454263,18.9654139 2.68454263,18.2187831 L2.68454263,8.47888495 C2.68454263,7.72531641 7.98235096,4.98227407 7.98235096,4.20458869 C7.98235096,3.43351067 4.87414353,2.80316925 4.87414353,2.80316925 C3.88525928,2.76748955 3.47558342,2.76748955 2.47237717,2.80316925 C1.49048738,2.83785785 0.381031858,3.45432383 0,3.43351067 C1.20104972,2.64161948 4.42982841,0 7.55868617,0 L7.55868617,0 Z" id="logotipo-bancodechile" fill="#08305D"></path>
    </g>
</svg>