<?xml version="1.0" encoding="UTF-8"?>
<svg width="50px" height="11px" viewBox="0 0 50 11" version="1.1" xmlns="http://www.w3.org/2000/svg" xmlns:xlink="http://www.w3.org/1999/xlink">
    <!-- Generator: Sketch 60 (88103) - https://sketch.com -->
    <title>logotipo-copec</title>
    <desc>Created with Sketch.</desc>
    <g id="desktop-🖥" stroke="none" stroke-width="1" fill="none" fill-rule="evenodd">
        <g id="logotipo-copec" transform="translate(-2.000000, -13.000000)" fill="#ED1C24">
            <g id="Copec_Logo" transform="translate(2.000000, 13.000000)">
                <path d="M2.18331605,0 C0.973854458,0 0,0.967049538 0,2.1680583 L0,8.8319417 C0,10.0329508 0.973854458,11 2.18331605,11 L7.61617367,11 C7.86806769,11 8.15089702,10.7196224 8.15089702,10.4694803 L8.15089702,9.10038916 C8.15089702,8.85022927 7.86809387,8.56986058 7.61617367,8.56986058 L3.29123794,8.56986058 C2.81778508,8.56986058 2.43669762,8.1909846 2.43669762,7.72083811 L2.43669762,3.27916189 C2.43669762,2.80901597 2.81778508,2.4301398 3.29123794,2.4301398 L7.61617367,2.4301398 C7.86809387,2.4301398 8.15089702,2.14977086 8.15089702,1.89961097 L8.15089702,0.530528831 C8.15089702,0.28036894 7.86806769,0 7.61617367,0 L2.18331605,0 Z M11.2583946,0 C10.0489343,0 9.07508025,0.967049538 9.07508025,2.1680583 L9.07508025,8.8319417 C9.07508025,10.0329508 10.0489343,11 11.2583946,11 L16.7159972,11 C17.9254569,11 18.8993116,10.0329508 18.8993116,8.8319417 L18.8993116,2.1680583 C18.8993116,0.967049538 17.9254569,0 16.7159972,0 L11.2583946,0 Z M22.3651294,0 C21.1556608,0 20.1818151,0.967040726 20.1818151,2.1680583 L20.1818151,10.4326237 C20.1818151,10.6827658 20.4641656,10.9636017 20.7160685,10.9636017 L22.0947929,10.9636017 C22.3467131,10.9636017 22.6290464,10.6827924 22.6290464,10.4326237 L22.618495,7.658052 L27.8364578,7.658052 C29.0459181,7.658052 30.0193111,6.69101108 30.0193111,5.48999369 L30.0193111,2.1680583 C30.0193111,0.967040726 29.0459181,0 27.8364578,0 L22.3651294,0 Z M33.1973965,0 C31.9879279,0 31.0140822,0.967040726 31.0140822,2.1680583 L31.0140822,8.8319417 C31.0140822,10.0329508 31.9879279,11 33.1973965,11 L39.9232982,11 C40.1751922,11 40.4580126,10.7196136 40.4580126,10.4694803 L40.4580126,9.10038916 C40.4580126,8.85022927 40.1752183,8.56986058 39.9232982,8.56986058 L34.3053241,8.56986058 C33.8318693,8.56986058 33.4507793,8.1909846 33.4507793,7.72083811 L33.4507793,6.6866354 L38.6687427,6.6866354 C39.8782113,6.6866354 40.8516044,5.71959449 40.8516044,4.5185771 L40.8516044,2.1680583 C40.8516044,0.967040726 39.8782113,0 38.6687427,0 L33.1973965,0 Z M44.0324209,0 C42.8229606,0 41.8491066,0.967049538 41.8491066,2.1680583 L41.8491066,8.8319417 C41.8491066,10.0329508 42.8229606,11 44.0324209,11 L49.4652767,11 C49.7171707,11 50,10.7196224 50,10.4694803 L50,9.10038916 C50,8.85022927 49.7171969,8.56986058 49.4652767,8.56986058 L45.1403396,8.56986058 C44.6668938,8.56986058 44.2858038,8.1909846 44.2858038,7.72083811 L44.2858038,3.27916189 C44.2858038,2.80901597 44.6668938,2.4301398 45.1403396,2.4301398 L49.4652767,2.4301398 C49.7171969,2.4301398 50,2.14977086 50,1.89961097 L50,0.530528831 C50,0.280386564 49.7171707,0 49.4652767,0 L44.0324209,0 Z M12.3663216,2.4301398 L15.6080785,2.4301398 C16.0815237,2.4301398 16.4626144,2.80901597 16.4626144,3.27916189 L16.4626144,7.72083811 C16.4626144,8.1909846 16.0815237,8.56986058 15.6080785,8.56986058 L12.3663216,8.56986058 C11.8928674,8.56986058 11.5117774,8.1909846 11.5117774,7.72083811 L11.5117774,3.27916189 C11.5117774,2.80901597 11.8928674,2.4301398 12.3663216,2.4301398 Z M23.4730481,2.4301398 L26.728096,2.4301398 C27.2015501,2.4301398 27.5826312,2.80855812 27.5826312,3.27870416 L27.5821843,4.37934783 C27.5821575,4.84948481 27.2015463,5.22791195 26.7281011,5.22791195 L22.618518,5.22791195 L22.618518,3.27870416 C22.618518,2.80855812 22.9995991,2.4301398 23.4730532,2.4301398 L23.4730481,2.4301398 Z M34.3053241,2.4301398 L37.5603631,2.4301398 C38.0338172,2.4301398 38.4149072,2.80855812 38.4149072,3.27870416 L38.4144603,3.40792236 C38.4144424,3.87806822 38.0338223,4.25649535 37.5603771,4.25649535 L33.4507934,4.25649535 L33.4507934,3.27870416 C33.4507934,2.80855812 33.8318834,2.4301398 34.3053382,2.4301398 L34.3053241,2.4301398 Z" id="path4561"></path>
            </g>
        </g>
    </g>
</svg>