<?xml version="1.0" encoding="UTF-8"?>
<svg width="186px" height="27px" viewBox="0 0 186 27" version="1.1" xmlns="http://www.w3.org/2000/svg" xmlns:xlink="http://www.w3.org/1999/xlink">
    <!-- Generator: Sketch 60 (88103) - https://sketch.com -->
    <title>logotipo-bancosecurity</title>
    <desc>Created with Sketch.</desc>
    <g id="desktop-🖥" stroke="none" stroke-width="1" fill="none" fill-rule="evenodd">
        <g id="logotipo-bancosecurity">
            <polygon id="Fill-1" fill="#25224D" points="94.4341526 26.9467 185.556033 26.9467 185.556033 5.68434189e-14 94.4341526 5.68434189e-14"></polygon>
            <polygon id="Fill-2" fill="#6E337F" points="3.12638804e-13 26.9467 94.3593085 26.9467 94.3593085 5.68434189e-14 3.12638804e-13 5.68434189e-14"></polygon>
            <polyline id="Fill-3" fill="#FFFFFE" points="62.9814973 17.20162 61.5584521 17.20162 59.5114821 11.48146 57.4880058 17.20162 56.1008723 17.20162 58.9748195 9.65192 60.008541 9.65192 62.9814973 17.20162"></polyline>
            <path d="M50.5352217,17.20162 L52.9111031,17.20162 C53.4856911,17.19618 53.9656333,17.09044 54.3509295,16.88508 C54.7365613,16.67836 55.0265403,16.40738 55.2195241,16.07248 C55.4138503,15.7369 55.5108456,15.37174 55.5108456,14.97802 C55.507825,14.53194 55.3826373,14.14672 55.1393099,13.82236 C54.8936333,13.49936 54.5533107,13.2804 54.1163284,13.16548 L54.1163284,13.14168 C54.4083212,12.98834 54.6335248,12.77516 54.7865693,12.5001 C54.9386069,12.22402 55.0158004,11.92176 55.016136,11.59128 C55.0198278,11.08264 54.8325497,10.64132 54.456651,10.27106 C54.0814235,9.89876 53.4991161,9.70462 52.707715,9.68592 L50.5352217,9.68592 L50.5352217,17.20162 Z M51.8844297,16.07418 L51.8844297,13.95088 L52.8993562,13.95088 C53.2812962,13.95428 53.5803371,14.04608 53.8021844,14.22424 C54.0220181,14.40478 54.1351233,14.65502 54.1388152,14.97802 C54.1384796,15.3578 54.0196687,15.6366 53.7850676,15.8134 C53.5497953,15.98986 53.2041027,16.07622 52.7530242,16.07418 L51.8844297,16.07418 Z M51.8844297,12.82378 L51.8844297,10.81302 L52.516745,10.81302 C52.9194937,10.81982 53.2141714,10.9191 53.4007783,11.10576 C53.5863783,11.2948 53.6793461,11.53144 53.677668,11.81874 C53.6756542,12.11522 53.5793302,12.35458 53.3856752,12.53988 C53.1923559,12.72246 52.9053975,12.818 52.5291631,12.82378 L51.8844297,12.82378 L51.8844297,12.82378 Z" id="Fill-4" fill="#FFFFFE"></path>
            <path d="M63.9742727,17.20162 L65.3234807,17.20162 L65.3234807,12.93734 C65.3248231,12.72246 65.3234807,12.51404 65.3214669,12.31276 C65.3174394,12.11012 65.3117338,11.93026 65.3013295,11.7725 L65.3234807,11.7725 C65.4466546,11.94964 65.5758698,12.13324 65.7114618,12.32364 C65.8470539,12.51404 65.9953996,12.71396 66.1578416,12.92544 L69.4348731,17.20162 L70.6723183,17.20162 L70.6723183,9.68592 L69.3110278,9.68592 L69.3110278,13.68942 C69.3110278,13.89648 69.3110278,14.10932 69.3140485,14.32726 C69.3160622,14.5435 69.3227747,14.75328 69.3345215,14.95524 L69.3110278,14.95524 C69.1992651,14.78558 69.0754199,14.60402 68.9364716,14.4126 C68.7992014,14.21982 68.6454857,14.0131 68.47566,13.79244 L65.3134119,9.68592 L63.9742727,9.68592 L63.9742727,17.20162" id="Fill-5" fill="#FFFFFE"></path>
            <path d="M77.8674228,15.6417 C77.6053005,15.79742 77.3263971,15.92356 77.0300412,16.01808 C76.7350278,16.1143 76.4064521,16.16224 76.0423002,16.16632 C75.2737215,16.15238 74.673626,15.90452 74.2396644,15.42002 C73.8050315,14.93484 73.5828485,14.28986 73.5774785,13.48338 C73.5774785,12.98324 73.6714532,12.52934 73.8604094,12.12032 C74.0470163,11.71232 74.3289403,11.38694 74.7004759,11.14248 C75.0730184,10.9004 75.536515,10.7746 76.0882807,10.76848 C76.4467269,10.7695 76.7840289,10.81268 77.0991797,10.89734 C77.4153374,10.98336 77.7153852,11.10338 78.0016723,11.25842 L78.0016723,9.98138 C77.7697562,9.87768 77.4864897,9.79064 77.1575783,9.72332 C76.8290025,9.656 76.4601519,9.61996 76.0530401,9.61826 C75.2539197,9.6254 74.5615277,9.80254 73.9768709,10.15002 C73.3942278,10.49682 72.9411356,10.9633 72.6212861,11.5515 C72.3021078,12.13902 72.1406727,12.79896 72.1356383,13.52928 C72.1383233,14.27014 72.2809635,14.92294 72.5682575,15.49006 C72.8532022,16.05752 73.2740745,16.5019 73.8318814,16.82388 C74.3886814,17.14586 75.0716759,17.31042 75.8852282,17.31654 C76.2560926,17.32062 76.6383682,17.27812 77.0317193,17.1921 C77.4254061,17.10268 77.826141,16.94832 78.2376159,16.72426 L77.8674228,15.6417" id="Fill-6" fill="#FFFFFE"></path>
            <path d="M82.9343363,17.31654 C83.6626401,17.31212 84.3053599,17.14994 84.8648448,16.83306 C85.4239942,16.5138 85.865004,16.06806 86.1831754,15.49414 C86.5023537,14.91988 86.6668094,14.24464 86.6721794,13.47284 C86.6533844,12.31888 86.3063494,11.39204 85.626711,10.69368 C84.9487508,9.99498 84.0516282,9.63628 82.9343363,9.61826 C81.8187226,9.63628 80.9209288,9.99328 80.2422973,10.68926 C79.5640014,11.38626 79.2162951,12.31344 79.1975002,13.47284 C79.2015277,14.24464 79.3639696,14.91988 79.6811342,15.49414 C79.9982987,16.06806 80.4362879,16.5138 80.9961085,16.83306 C81.5539154,17.14994 82.2009982,17.31212 82.9343363,17.31654 Z M82.9343363,16.16632 C82.2362387,16.15952 81.6831306,15.92356 81.2699776,15.45606 C80.8585027,14.98992 80.6467241,14.32896 80.636991,13.47284 C80.6467241,12.61128 80.8585027,11.9476 81.2699776,11.47908 C81.6831306,11.01124 82.2362387,10.77358 82.9343363,10.76848 C83.645859,10.77698 84.2050083,11.01974 84.6111132,11.49608 C85.0165468,11.97174 85.2236268,12.63066 85.2320174,13.47284 C85.2222843,14.32896 85.0081562,14.98992 84.5956745,15.45606 C84.181179,15.92356 83.6267284,16.15952 82.9343363,16.16632 L82.9343363,16.16632 Z" id="Fill-7" fill="#FFFFFE"></path>
            <path d="M106.492783,11.90578 L106.492783,9.65668 L106.148097,9.65668 C106.097418,9.77976 106.035663,9.86952 105.965853,9.92494 C105.893694,9.97968 105.811466,10.00688 105.720176,10.0062 C105.492288,9.99328 105.282187,9.93446 105.086183,9.83144 C104.890179,9.73012 104.614967,9.67164 104.251822,9.65668 C103.635617,9.6747 103.119092,9.88312 102.700569,10.28364 C102.284731,10.68416 102.070603,11.17648 102.054828,11.76162 C102.072952,12.3658 102.272984,12.8248 102.651232,13.1376 C103.031158,13.45244 103.471497,13.70812 103.968556,13.90566 C104.468299,14.10422 104.905953,14.3327 105.285208,14.59212 C105.664463,14.8529 105.862817,15.22928 105.883961,15.72602 C105.876913,16.09492 105.756424,16.39548 105.519809,16.62702 C105.283865,16.8589 104.984153,16.97722 104.620673,16.98504 C104.148786,16.99252 103.686967,16.82898 103.237567,16.49544 C102.783803,16.16122 102.471002,15.6162 102.294464,14.8597 L101.952463,14.8597 L101.952463,17.35462 L102.294464,17.35462 C102.307553,17.21828 102.356218,17.10268 102.439453,17.00952 C102.520339,16.91364 102.630423,16.86502 102.764337,16.8606 C102.943896,16.88508 103.192258,16.97314 103.514121,17.12886 C103.83632,17.28458 104.197787,17.37502 104.599864,17.39644 C105.240234,17.37876 105.775554,17.15606 106.207502,16.728 C106.637437,16.30266 106.862976,15.7743 106.881099,15.1487 C106.859284,14.48162 106.66328,13.97196 106.288052,13.6204 C105.912489,13.2685 105.478527,12.98834 104.985496,12.7772 C104.493136,12.56844 104.055818,12.34166 103.681597,12.09822 C103.309055,11.85614 103.109694,11.50866 103.089892,11.05986 C103.094927,10.75556 103.208032,10.51654 103.423838,10.33906 C103.641993,10.16192 103.931301,10.07182 104.293775,10.06808 C104.735792,10.06808 105.122095,10.22176 105.457719,10.5298 C105.793678,10.8375 106.004786,11.29582 106.089027,11.90578 L106.492783,11.90578" id="Fill-8" fill="#FFFFFE"></path>
            <path d="M115.026355,12.70988 C115.046828,11.84254 114.748459,11.12276 114.134603,10.54986 C113.519068,9.9773 112.779689,9.67844 111.912773,9.65668 C110.86764,9.68422 110.00945,10.06468 109.333839,10.79908 C108.658563,11.53586 108.307837,12.46848 108.286021,13.59898 C108.305823,14.72336 108.672324,15.63252 109.381162,16.32714 C110.091677,17.01972 111.024041,17.3757 112.17523,17.39644 C112.799155,17.40154 113.342195,17.2822 113.809719,17.03842 C114.273215,16.7943 114.721273,16.39106 115.149193,15.82904 L115.149193,15.2932 C114.651463,15.87154 114.221865,16.27274 113.863418,16.49748 C113.501952,16.72256 113.082422,16.83068 112.604829,16.82048 C112.260143,16.83068 111.8631,16.71848 111.415042,16.48558 C110.966649,16.25166 110.574305,15.83414 110.239352,15.2371 C109.904735,14.63666 109.734238,13.79482 109.73021,12.70988 L115.026355,12.70988 Z M109.73021,12.36274 C109.773842,11.67118 109.965147,11.12106 110.309162,10.71476 C110.64982,10.30744 111.122378,10.09834 111.729522,10.08916 C112.21517,10.0827 112.657858,10.25984 113.063627,10.62092 C113.466711,10.98234 113.668421,11.56204 113.665065,12.36274 L109.73021,12.36274 L109.73021,12.36274 Z" id="Fill-9" fill="#FFFFFE"></path>
            <path d="M123.155165,9.65668 L122.811822,9.65668 C122.74906,9.79234 122.673881,9.89366 122.590646,9.96268 C122.504726,10.03238 122.416122,10.0674 122.323825,10.06808 C122.144266,10.05108 121.894898,9.98308 121.569678,9.86306 C121.247144,9.7427 120.819894,9.6747 120.282561,9.65668 C119.228366,9.68592 118.348696,10.0776 117.647578,10.83648 C116.946124,11.59468 116.582307,12.54872 116.555793,13.70302 C116.57291,14.8138 116.910548,15.7029 117.566021,16.36998 C118.223173,17.03774 119.095795,17.37944 120.182545,17.39644 C120.835333,17.39644 121.432744,17.26248 121.970413,16.99422 C122.507411,16.72664 122.971243,16.32476 123.359896,15.78722 L123.359896,15.25206 C122.973257,15.77464 122.542652,16.16224 122.061703,16.41146 C121.584781,16.65932 121.118935,16.7807 120.670877,16.77968 C119.916059,16.75146 119.282066,16.38936 118.767219,15.6927 C118.249687,14.99604 117.982195,14.13312 117.960715,13.10394 C117.973468,12.19104 118.198672,11.46072 118.638004,10.9123 C119.075993,10.36388 119.660314,10.0827 120.385933,10.06808 C120.994083,10.07522 121.510944,10.27174 121.936179,10.65628 C122.359737,11.04116 122.650723,11.56646 122.811822,12.23694 L123.155165,12.23694 L123.155165,9.65668" id="Fill-10" fill="#FFFFFE"></path>
            <path d="M131.536365,9.65668 L131.189329,9.65668 L128.745652,9.88516 L128.745652,10.23332 C129.348097,10.22686 129.737085,10.29588 129.91463,10.43868 C130.092175,10.58284 130.171382,10.9004 130.153259,11.39 L130.153259,15.33434 C129.857238,15.73554 129.549807,16.0361 129.232307,16.23466 C128.914471,16.43356 128.582539,16.53182 128.235504,16.53182 C127.739116,16.52808 127.345765,16.3812 127.052765,16.0922 C126.761444,15.80286 126.610749,15.39962 126.605379,14.87874 L126.605379,9.65668 L126.258008,9.65668 L123.938511,9.88516 L123.938511,10.23332 C124.445639,10.22992 124.789654,10.30336 124.968541,10.455 C125.149107,10.60664 125.232677,10.8562 125.222273,11.20436 L125.222273,14.9413 C125.232341,15.64068 125.446134,16.21902 125.867677,16.68006 C126.291235,17.1394 126.860117,17.37944 127.583722,17.39644 C128.072055,17.39644 128.52649,17.27812 128.946691,17.04046 C129.366556,16.80416 129.754873,16.4475 130.112984,15.97388 L130.153259,15.97388 L130.153259,17.31348 L132.778508,17.17 L132.778508,16.82048 C132.298231,16.82762 131.967977,16.75656 131.789761,16.60594 C131.61188,16.45668 131.527303,16.18332 131.536365,15.78722 L131.536365,9.65668" id="Fill-11" fill="#FFFFFE"></path>
            <path d="M136.055876,11.78202 C136.376396,11.46446 136.65295,11.237 136.888558,11.09658 C137.123495,10.95922 137.357425,10.8902 137.584307,10.8936 C137.832668,10.9004 138.103852,10.96534 138.403565,11.08978 C138.6969,11.2149 138.996948,11.3628 139.294982,11.53348 L139.84574,10.23332 C139.655777,10.0657 139.439635,9.92766 139.198993,9.82294 C138.958015,9.71482 138.732476,9.66042 138.520362,9.65668 C138.288446,9.6509 137.983363,9.76752 137.610821,10.0113 C137.234587,10.25236 136.71739,10.66478 136.055876,11.2455 L136.055876,9.65668 L135.710854,9.65668 L133.18562,9.88516 L133.18562,10.23332 C133.782695,10.21632 134.18343,10.28126 134.387154,10.4295 C134.591884,10.5774 134.688544,10.91094 134.67277,11.43114 L134.67277,15.41594 C134.690558,15.96368 134.624104,16.33598 134.474416,16.53692 C134.32607,16.73616 133.984069,16.83068 133.452106,16.82048 L133.452106,17.17 L137.258416,17.17 L137.258416,16.82048 C136.789549,16.82762 136.4697,16.75656 136.299203,16.60594 C136.126692,16.45668 136.045807,16.18332 136.055876,15.78722 L136.055876,11.78202" id="Fill-12" fill="#FFFFFE"></path>
            <path d="M143.454704,9.65668 L143.108676,9.65668 L140.70628,9.88516 L140.70628,10.23332 C141.226497,10.21632 141.587293,10.27174 141.787324,10.40094 C141.985678,10.5298 142.083009,10.84022 142.07294,11.3271 L142.07294,15.80932 C142.085694,16.23092 141.993397,16.50734 141.802427,16.63892 C141.611458,16.7722 141.244956,16.83306 140.70628,16.82048 L140.70628,17.17 L144.65758,17.17 L144.65758,16.82048 C144.161192,16.82388 143.833959,16.74636 143.673531,16.58622 C143.51478,16.4254 143.44195,16.16734 143.454704,15.80932 L143.454704,9.65668 Z M142.784127,5.87962 C142.533752,5.88608 142.322644,5.97176 142.153826,6.1387 C141.984,6.30326 141.894388,6.51304 141.888683,6.76668 C141.894388,7.02134 141.984,7.2335 142.153826,7.40486 C142.322644,7.57758 142.533752,7.66666 142.784127,7.67346 C143.034838,7.66666 143.239569,7.57758 143.40436,7.40486 C143.568816,7.2335 143.654064,7.02134 143.658092,6.76668 C143.654064,6.51304 143.568816,6.30326 143.40436,6.1387 C143.239569,5.97176 143.034838,5.88608 142.784127,5.87962 L142.784127,5.87962 Z" id="Fill-13" fill="#FFFFFE"></path>
            <path d="M148.169212,7.3882 L148.169212,9.84266 L154.839401,9.84266 L154.839401,10.23332 C154.560162,10.27684 154.372884,10.3955 154.277902,10.58964 C154.18225,10.78344 154.198024,11.03504 154.326903,11.3475 L156.063086,15.47714 L157.325031,11.61678 C157.476062,11.18226 157.515666,10.84838 157.446527,10.61514 C157.375039,10.3819 157.144466,10.25406 156.756485,10.23332 L156.756485,9.88516 L159.300178,9.88516 L159.300178,10.23332 C158.91958,10.22822 158.598053,10.36116 158.337944,10.63282 C158.078507,10.9038 157.849947,11.3424 157.651593,11.9476 L154.776639,20.55674 C154.481626,21.40674 154.12318,22.06192 153.700629,22.52092 C153.275394,22.97924 152.84009,23.21248 152.395388,23.2176123 C152.247378,23.2186 152.103731,23.19548 151.969817,23.1472 C151.834561,23.09858 151.677153,23.01936 151.49793,22.90818 L151.966461,21.64984 C152.104738,21.7124 152.225227,21.75422 152.327592,21.78006 C152.4313,21.80624 152.540713,21.81644 152.658517,21.81644 C153.092143,21.82154 153.449247,21.6818 153.734863,21.39892 C154.019808,21.11366 154.273875,20.65432 154.49203,20.02056 L155.430435,17.3757 L152.84311,11.3271 C152.67362,10.91264 152.525946,10.66682 152.3239,10.50872 C152.186966,10.404 151.988276,10.38156 151.749648,10.37816 L148.169212,10.37816 L148.169212,15.08546 C148.175254,15.59308 148.293729,15.97388 148.523631,16.22854 C148.755883,16.48762 149.073047,16.61376 149.476132,16.61512 C149.735569,16.61614 149.972184,16.56072 150.184969,16.44818 C150.397755,16.33734 150.610205,16.1585 150.818292,15.91166 L151.041817,16.1806 C150.40883,16.98742 149.681198,17.3927 148.862947,17.39644 C148.242043,17.38692 147.743641,17.19006 147.368749,16.80552 C146.990501,16.42268 146.798524,15.91064 146.787113,15.2711 L146.787113,10.37816 L145.423138,10.37816 L145.423138,10.02762 C145.911471,9.78112 146.359193,9.4367 146.76127,8.99334 C147.16469,8.55236 147.519444,8.0172 147.825533,7.3882 L148.169212,7.3882" id="Fill-14" fill="#FFFFFE"></path>
        </g>
    </g>
</svg>