<?xml version="1.0" encoding="UTF-8"?>
<svg width="247px" height="195px" viewBox="0 0 247 195" version="1.1" xmlns="http://www.w3.org/2000/svg" xmlns:xlink="http://www.w3.org/1999/xlink">
    <!-- Generator: Sketch 60 (88103) - https://sketch.com -->
    <title>welcome-01</title>
    <desc>Created with Sketch.</desc>
    <g id="desktop-🖥" stroke="none" stroke-width="1" fill="none" fill-rule="evenodd">
        <g id="welcome-01" transform="translate(0.000000, -8.000000)">
            <path d="M92.6988026,8 L50.3011974,8.0676432 C45.7166616,8.0676432 42,11.7545776 42,16.3024447 L42,48.7651985 C42,53.3130656 45.7166616,57 50.3011974,57 L92.6988026,56.9323568 C97.2835773,56.9323568 101,53.2454224 101,48.6975553 L101,16.2348015 C101,11.6869344 97.2835773,8 92.6988026,8 Z" id="Path" fill="#EBF4FF" fill-rule="nonzero"></path>
            <g id="Group-6" transform="translate(57.000000, 37.000000)">
                <rect id="Rectangle" fill="#FFB842" x="1.81188398e-13" y="-7.28306304e-13" width="27.6" height="27.6" rx="9.6"></rect>
                <path d="M10.8,18 C10.14,18 9.6,18.54 9.6,19.2 C9.6,19.86 10.14,20.4 10.8,20.4 C11.46,20.4 12,19.86 12,19.2 C12,18.54 11.46,18 10.8,18 Z M7.2,8.4 L7.2,9.6 L8.4,9.6 L10.56,14.16 L9.72,15.6 C9.66,15.78 9.6,16.02 9.6,16.2 C9.6,16.86 10.14,17.4 10.8,17.4 L18,17.4 L18,16.2 L11.04,16.2 C10.98,16.2 10.92,16.14 10.92,16.08 L10.92,16.0199765 L11.46,14.9999765 L15.9,14.9999765 C16.38,14.9999765 16.74,14.7599765 16.92,14.3999765 L19.08,10.5 C19.2,10.38 19.2,10.32 19.2,10.2 C19.2,9.84 18.96,9.6 18.6,9.6 L9.72,9.6 L9.18,8.4 L7.2,8.4 Z M16.8,18 C16.14,18 15.6,18.54 15.6,19.2 C15.6,19.86 16.14,20.4 16.8,20.4 C17.46,20.4 18,19.86 18,19.2 C18,18.54 17.46,18 16.8,18 Z" id="Shape" fill="#FFFFFF" fill-rule="nonzero"></path>
            </g>
            <g id="Chair_3" transform="translate(175.000000, 141.000000)" fill="#042C5C" fill-rule="nonzero">
                <path d="M11.564,57.932 C8.568,38.892 5.572,19.852 2.576,0.812 C1.96,1.148 1.316,1.4 0.616,1.624 C3.584,20.412 6.524,39.228 9.492,58.016 C9.716,59.332 11.788,59.248 11.564,57.932 Z" id="XMLID_154_"></path>
            </g>
            <line x1="60.4903279" y1="111.153691" x2="40.0786133" y2="199.28" id="Path" stroke="#D6DAE1" stroke-width="2.0736" stroke-linecap="round"></line>
            <path d="M123.436127,202.252437 C191.607755,202.252437 246.872462,201.523442 246.872462,200.626218 C246.872462,199.728994 191.607755,199 123.436127,199 C55.2642924,199 1.84741111e-13,199.728994 1.84741111e-13,200.626218 C1.84741111e-13,201.523442 55.2642924,202.252437 123.436127,202.252437 Z" id="Path" fill="#EBF4FF" fill-rule="nonzero"></path>
            <line x1="79.4368349" y1="111.153691" x2="57.9785156" y2="199.28" id="Path" stroke="#D6DAE1" stroke-width="2.0736" stroke-linecap="round"></line>
            <line x1="150.034875" y1="111.074769" x2="167.543869" y2="199.074769" id="Path" stroke="#D6DAE1" stroke-width="2.0736" stroke-linecap="round"></line>
            <line x1="44.5889174" y1="111.103845" x2="180.987757" y2="111.103845" id="Path" stroke="#D6DAE1" stroke-width="2.0736"></line>
            <path d="M141.848145,61.4305013 C142.212145,61.5705013 150.996,72.668 150.996,72.668 L159.06,63.456 L148.532,55.616 L141.848145,61.4305013 Z" id="XMLID_604_" fill="#FFB394" fill-rule="nonzero"></path>
            <path d="M144.82,64.9790883 C143.349922,63.209044 142.189997,61.7645066 142.049997,61.7085066 L144.976,59.116 C145.844,60.824 145.576,63.3830883 144.82,64.9790883 Z" id="XMLID_603_" fill="#000000" fill-rule="nonzero" opacity="0.274786086"></path>
            <g id="Group-8" transform="translate(127.500000, 36.500000)">
                <path d="M19.4436151,2.51867935 C16.4946233,-0.383341521 9.01155657,0.93909837 5.06728002,3.95132257 C3.33474733,5.27376246 1.74966423,4.39213586 2.04456341,6.15538905 C2.74494897,10.5267876 4.99426247,22.3646839 7.25894664,25.346 C9.92335678,28.8535305 20.1514135,25.0604966 22.0682582,19.9911437 C23.9482405,14.8850563 23.6459285,6.66967123 19.4436151,2.51867935 Z" id="XMLID_602_" fill="#FFB394" fill-rule="nonzero"></path>
                <path d="M1.06441329,8.64506786 C3.37118477,11.5059077 9.39034546,10.4651498 12.3807455,8.95314976 C13.1871455,12.3803498 15.4388564,19.5532373 22.1924564,20.0236373 C24.9140564,13.9420373 25.1337598,3.90522174 21.2025598,4.20762174 C20.2149256,-1.58216107 9.48681235,-0.54362438 5.89161235,2.24517562 C2.36808891,1.27241762 -2.06715999,5.09064976 1.06441329,8.64506786 Z" id="XMLID_601_" fill="#042C5C" fill-rule="nonzero"></path>
                <path d="M18.9439638,12.5438268 C18.015161,11.034893 15.0751821,10.8358555 13.4708862,12.6740112 C13.7804872,14.5670373 14.1873672,16.2475734 14.4406771,18.1680346 C15.5383533,18.4423862 17.6492689,18.0857291 18.690654,16.9334524 C19.8446212,15.6165647 19.9290578,14.1625012 18.9439638,12.5438268 Z" id="XMLID_599_" fill="#FFB394" fill-rule="nonzero"></path>
                <path d="M2.91645639,18.7036373 C2.64629437,17.4987245 3.66932597,16.901189 4.5294579,16.6875931 C5.16765639,16.4384272 4.96605639,17.4604373 4.93245639,17.6956373 C4.93245639,17.7292373 4.89885639,17.7292373 4.89885639,17.7628373 C4.99965639,17.7628373 5.06685639,17.7964373 5.16765639,17.7964373 C5.80605639,17.9980373 5.73124181,19.0060373 5.09284181,18.8044373 C5.09284181,18.8044373 5.74256473,19.6272147 5.27216473,19.8288147 C4.36496473,20.1984147 3.20325076,19.9827297 2.91645639,18.7036373 Z" id="XMLID_595_" fill="#FFB394" fill-rule="nonzero"></path>
                <path d="M6.52746067,14.4532934 C6.42666067,14.9572934 6.29226067,15.4276934 6.19146067,15.9316934 C6.12426067,16.2004934 6.56106067,16.3348934 6.62826067,16.0660934 C6.72906067,15.5620934 6.86346067,15.0916934 6.96426067,14.5876934 C6.99786067,14.2852934 6.56106067,14.1508934 6.52746067,14.4532934 Z" id="XMLID_545_" stroke="#042C5C" stroke-width="0.5" fill="#042C5C" fill-rule="nonzero" transform="translate(6.575279, 15.247725) rotate(-19.000000) translate(-6.575279, -15.247725) "></path>
                <path d="M15.9884564,13.9084373 C15.6860564,14.2780373 15.3836564,14.6476373 15.0812564,15.0508373 C15.0812564,15.0508373 15.0812564,15.0508373 15.0812564,15.0508373 L14.8460564,15.3532373 C14.6780564,15.5884373 14.9804564,15.8908373 15.1820564,15.6892373 C15.5516564,15.2188373 15.9548564,14.7484373 16.3244564,14.2444373 C16.4924564,14.0092373 16.1564564,13.6732373 15.9884564,13.9084373 Z" id="XMLID_543_" fill="#042C5C" fill-rule="nonzero"></path>
                <path d="M7.31535492,12.1243373 C6.94575492,12.0571373 6.57615492,11.9899373 6.17295492,11.8891373 C5.93775492,11.8555373 5.66895492,11.9563373 5.60175492,12.1915373 C5.53455492,12.4267373 5.66895492,12.6955373 5.90415492,12.7627373 C6.27375492,12.8299373 6.64335492,12.8971373 7.04655492,12.9979373 C7.28175492,13.0315373 7.55055492,12.9307373 7.61775492,12.6955373 C7.68495492,12.4603373 7.55055492,12.1579373 7.31535492,12.1243373 Z" id="XMLID_539_" fill="#042C5C" fill-rule="nonzero"></path>
                <path d="M6.78445639,21.0551587 C8.19597012,20.8186011 9.53377063,20.1611607 10.7978579,19.0828373 C9.96308611,21.8252976 8.94676666,23.3837053 7.7488996,23.7580605 C7.31497103,22.6451636 6.99348996,21.7441964 6.78445639,21.0551587 Z" id="Path-29" fill="#FFFFFF"></path>
            </g>
            <path d="M148.252,76.812 C140.776,86.892 138.816,92.184 138.816,92.184 C138.816,92.184 130.64,75.496 127.336,72.08 C127.336,72.08 117.676,68.608 116.472,70.372 C115.268,72.136 115.772,75.608 116.5,77.68 C117.228,79.752 120.056,80.9 122.772,80.62 C122.772,80.62 129.016,109.516 134.532,110.72 C140.02,111.924 145.536,111.252 146.208,111.168 C149.904,110.72 164.296,83.448 164.324,82.524 C164.324,81.6 148.252,76.812 148.252,76.812 Z" id="XMLID_548_" fill="#ECA182" fill-rule="nonzero"></path>
            <path d="M139.656,93.892 C139.46,93.416 139.264,92.912 139.068,92.436 C138.984,92.24 138.648,92.324 138.732,92.52 C138.928,92.996 139.124,93.5 139.32,93.976 C139.404,94.172 139.74,94.088 139.656,93.892 Z" id="XMLID_164_" fill="#FFFFFF" fill-rule="nonzero"></path>
            <rect id="XMLID_170_" fill="#1E63F8" fill-rule="nonzero" transform="translate(121.711237, 73.953544) rotate(8.870752) translate(-121.711237, -73.953544) " x="117.581399" y="68.6897506" width="8.25967637" height="10.5275875"></rect>
            <path d="M120.924,70.4 C120.616,72.472 120.308,74.516 120.028,76.588 C119.972,77.008 120.616,77.204 120.7,76.784 C121.008,74.712 121.316,72.668 121.596,70.596 C121.652,70.148 120.98,69.952 120.924,70.4 Z" id="XMLID_166_" fill="#FFFFFF" fill-rule="nonzero"></path>
            <path d="M123.668,62.392 C122.156,63.12 121.4,64.884 121.904,66.48 C122.044,66.9 122.688,66.732 122.576,66.284 C122.156,64.968 122.8,63.568 124.032,62.98 C124.424,62.784 124.06,62.196 123.668,62.392 Z" id="XMLID_141_" fill="#EBF4FF" fill-rule="nonzero"></path>
            <path d="M124.62,63.568 C123.64,64.212 123.136,65.304 123.304,66.452 C123.36,66.9 124.032,66.704 123.976,66.256 C123.864,65.416 124.256,64.604 124.984,64.156 C125.32,63.932 124.984,63.344 124.62,63.568 Z" id="XMLID_140_" fill="#EBF4FF" fill-rule="nonzero"></path>
            <path d="M117.844,70.204 C117.508,70.092 117.34,70.484 117.48,70.708 C117.256,70.708 117.06,70.764 116.864,70.932 C116.304,71.38 116.388,72.304 116.976,72.696 C117.032,72.752 117.116,72.752 117.172,72.752 C117.2,73.06 117.256,73.368 117.368,73.592 C117.368,73.62 117.34,73.676 117.34,73.704 C117.144,73.732 116.948,73.844 116.752,74.04 C116.612,74.18 116.5,74.432 116.444,74.712 C115.884,75.468 115.24,76.448 115.716,77.428 C115.996,77.988 116.612,78.352 117.256,78.184 C118.18,77.932 118.46,76.896 118.18,76.056 C118.208,76 118.208,75.944 118.236,75.888 C118.264,75.804 118.292,75.748 118.32,75.664 C118.376,75.524 118.404,75.356 118.432,75.16 C118.768,74.796 118.936,74.348 118.936,73.872 C119.216,73.564 119.44,73.172 119.524,72.836 C119.776,71.66 118.964,70.596 117.844,70.204 Z M117.34,71.464 C117.34,71.52 117.34,71.548 117.34,71.604 C117.34,71.688 117.368,71.744 117.396,71.8 C117.34,71.856 117.312,71.94 117.284,72.024 C117.116,71.856 117.172,71.576 117.34,71.464 Z" id="XMLID_167_" fill="#ECA182" fill-rule="nonzero"></path>
            <path d="M118.544,73.144 C117.648,72.92 117.004,72.192 116.836,71.296 C116.808,71.128 116.528,71.184 116.556,71.38 C116.724,72.36 117.48,73.172 118.46,73.424 C118.656,73.452 118.712,73.172 118.544,73.144 Z" id="XMLID_209_" fill="#042C5C" fill-rule="nonzero"></path>
            <path d="M117.704,74.936 C117.116,74.796 116.668,74.376 116.5,73.816 C116.444,73.648 116.192,73.704 116.22,73.9 C116.416,74.572 116.948,75.076 117.62,75.216 C117.816,75.244 117.872,74.964 117.704,74.936 Z" id="XMLID_210_" fill="#042C5C" fill-rule="nonzero"></path>
            <path d="M117.592,77.008 C117.032,76.896 116.584,76.448 116.5,75.86 C116.472,75.692 116.192,75.748 116.22,75.944 C116.332,76.616 116.864,77.148 117.508,77.288 C117.704,77.316 117.788,77.036 117.592,77.008 Z" id="XMLID_211_" fill="#042C5C" fill-rule="nonzero"></path>
            <path d="M130.528,77.064 C130.444,75.412 129.66,73.256 128.26,72.08 C124.368,69.588 123.864,69.308 123.388,69.728 C122.436,70.568 123.248,71.604 124.116,72.22 C124.284,72.5 124.928,73.172 125.068,73.284 C125.124,73.508 126.748,77.064 127.224,77.652 C127.392,77.876 127.7,77.792 127.812,77.624 C128.092,77.68 128.4,77.624 128.624,77.456 C129.1,77.4 129.464,77.12 129.716,76.756 C129.772,76.924 129.8,77.064 129.856,77.232 C129.968,77.54 130.556,77.428 130.528,77.064 Z" id="XMLID_169_" fill="#ECA182" fill-rule="nonzero"></path>
            <path d="M127.14,76.98 C126.832,76.392 126.496,75.804 126.188,75.216 C126.104,75.048 125.852,75.188 125.936,75.356 L126.888,77.12 C127,77.288 127.224,77.148 127.14,76.98 Z" id="XMLID_212_" fill="#042C5C" fill-rule="nonzero"></path>
            <path d="M141.336,198.808 C140.048,193.068 131.06,153.252 123.836,139.252 L115.828,137.88 L131.228,198.808 L141.336,198.808 L141.336,198.808 Z" id="XMLID_197_" fill="#FFB394" fill-rule="nonzero"></path>
            <path d="M141.336,198.808 C141.056,197.492 140.356,194.412 139.376,190.268 C136.268,191.584 132.852,192.172 129.492,191.948 L131.228,198.836 L141.336,198.836 L141.336,198.808 Z" id="XMLID_195_" fill="#2252B2" fill-rule="nonzero"></path>
            <path d="M136.044,176.8 C132.544,163.22 127.924,147.148 123.836,139.224 L115.828,137.852 L125.88,177.668 C129.296,177.444 132.684,177.164 136.044,176.8 Z" id="XMLID_196_" fill="#CF5C46" fill-rule="nonzero"></path>
            <path d="M181.628,112.064 C170.764,111.868 159.872,111.308 149.008,111.672 C149.176,113.8 149.26,115.06 149.26,115.06 C149.26,115.06 143.772,115.76 121.764,117.468 C99.756,119.176 93.568,124.692 103.9,156.64 C114.232,188.588 119.496,190.324 113.056,191.92 C104.796,193.992 103.956,197.324 104.012,198.78 L132.936,198.78 C130.164,161.428 123.472,142.528 123.472,142.528 C123.472,142.528 123.472,142.528 143.072,142.864 C188.908,143.704 183.952,129.228 181.628,112.064 Z" id="XMLID_193_" fill="#FFB394" fill-rule="nonzero"></path>
            <path d="M181.628,112.064 C170.764,111.868 159.872,111.308 149.008,111.672 C149.176,113.8 149.26,115.06 149.26,115.06 C149.26,115.06 143.772,115.76 121.764,117.468 C99.756,119.176 93.568,124.692 103.9,156.64 C108.016,169.408 111.32,177.332 113.42,182.372 C119.3,181.448 125.208,180.804 131.116,180.16 C127.98,155.156 123.5,142.528 123.5,142.528 C123.5,142.528 123.52636,141.947306 143.1,142.864 C190.073103,145.063895 184.568,139.924 181.628,112.064 Z" id="XMLID_192_" fill="#EA6F57" fill-rule="nonzero"></path>
            <path d="M132.964,198.808 C132.768,196.344 132.572,193.964 132.376,191.668 C130.668,192.144 128.932,192.396 127.084,192.312 C123.304,192.172 119.524,190.744 115.716,190.464 C115.38,191.192 114.54,191.584 113.056,191.948 C104.796,194.02 103.956,197.352 104.012,198.808 L132.964,198.808 L132.964,198.808 Z" id="XMLID_191_" fill="#2252B2" fill-rule="nonzero"></path>
            <path d="M122.576,141.744 C125.04,149.976 126.86,158.432 127.952,166.972 C127.98,167.196 128.316,167.196 128.288,166.972 C127.196,158.432 125.404,150.004 122.94,141.744 C122.8,141.716 122.688,141.744 122.576,141.744 Z" id="XMLID_130_" fill="#FFFFFF" fill-rule="nonzero"></path>
            <path d="M155.7,115.564 L150.66,115.732 C150.436,115.732 150.436,116.096 150.66,116.068 L155.7,115.9 C155.924,115.9 155.924,115.564 155.7,115.564 Z" id="XMLID_129_" fill="#FFFFFF" fill-rule="nonzero"></path>
            <path d="M133.72,192.844 C133.692,192.62 133.356,192.62 133.384,192.844 C133.608,194.664 133.86,196.512 134.084,198.332 C134.112,198.556 134.448,198.556 134.42,198.332 C134.196,196.512 133.944,194.692 133.72,192.844 Z" id="XMLID_128_" fill="#FFFFFF" fill-rule="nonzero"></path>
            <path d="M181.628,111.98 L149.008,111.98 C148.98,111.56 148.924,111.112 148.896,110.608 C148.728,108.788 148.532,106.52 148.336,103.972 C148.308,103.524 148.252,103.076 148.224,102.6 C148.168,102.012 148.14,101.396 148.084,100.752 C148.056,100.304 148.028,99.856 147.972,99.38 C147.804,97.252 147.664,95.012 147.524,92.744 C147.496,92.296 147.468,91.82 147.44,91.372 C147.412,90.756 147.356,90.14 147.328,89.552 C147.3,89.104 147.272,88.628 147.244,88.18 C147.132,86.164 147.048,84.176 146.964,82.216 C146.936,81.768 146.936,81.292 146.908,80.844 C146.88,80.228 146.88,79.612 146.852,79.024 C146.852,78.548 146.824,78.1 146.824,77.652 C146.768,74.964 146.768,72.444 146.852,70.316 C146.88,69.84 146.88,69.392 146.908,68.944 C146.936,68.664 146.936,68.412 146.964,68.132 C146.992,67.768 147.048,67.432 147.104,67.096 C147.188,66.62 147.3,66.144 147.44,65.724 C148.868,61.356 153.012,59.228 155.336,60.46 C156.82,61.272 159.34,63.092 159.34,63.092 C160.46,63.904 161.496,64.8 162.504,65.724 C162.98,66.172 163.456,66.62 163.904,67.096 C164.492,67.684 165.052,68.3 165.584,68.944 C165.976,69.392 166.368,69.84 166.732,70.316 C168.552,72.584 170.148,75.048 171.576,77.652 C171.828,78.1 172.08,78.576 172.304,79.024 C172.612,79.64 172.92,80.228 173.2,80.844 C173.424,81.292 173.62,81.768 173.844,82.216 C174.712,84.148 175.496,86.164 176.196,88.18 C176.364,88.628 176.504,89.104 176.672,89.552 C176.868,90.168 177.064,90.756 177.26,91.372 C177.4,91.82 177.54,92.296 177.68,92.744 C178.324,94.956 178.884,97.168 179.388,99.38 C179.5,99.828 179.584,100.304 179.696,100.752 C179.836,101.368 179.948,101.984 180.06,102.6 C180.144,103.048 180.228,103.524 180.312,103.972 C180.732,106.212 181.068,108.452 181.376,110.608 C181.432,111 181.488,111.364 181.544,111.756 C181.6,111.812 181.628,111.896 181.628,111.98 Z" id="XMLID_2045_" fill="#1E63F8" fill-rule="nonzero"></path>
            <path d="M155,88.572 C154.496,84.232 154.02,79.892 153.516,75.552 C153.488,75.328 153.152,75.328 153.18,75.552 C153.684,79.892 154.16,84.232 154.664,88.572 C154.776,88.572 154.888,88.572 155,88.572 Z" id="XMLID_150_" fill="#FFFFFF" fill-rule="nonzero"></path>
            <path d="M181.628,111.98 L149.008,111.98 C148.98,111.56 148.924,111.112 148.896,110.608 L181.46,110.608 C181.516,111 181.572,111.364 181.628,111.756 C181.6,111.812 181.628,111.896 181.628,111.98 Z" id="XMLID_190_" fill="#FFFFFF" fill-rule="nonzero"></path>
            <path d="M172.5,92.212 C172.332,91.792 159.508,91.316 155.364,92.156 L155.644,95.124 C141.588,95.348 131.377211,96.3878336 126.334525,97.3276558 C122.918525,98.1396558 118.102894,99.0092069 116.562894,100.745207 C114.742894,102.817207 113.392,105.133949 114.792,106.449949 C114.624,106.757949 115.24,108.017949 115.912,107.681949 C115.772,107.905949 116.192,108.577949 117.284,108.633949 C118.096,109.333949 119.595532,109.704027 120.575532,108.220027 C120.718616,108.178487 122.391632,106.560813 122.678337,106.433386 C123.524954,106.057103 123.663402,105.784033 124.661918,105.736122 C127.15019,105.616729 128.151427,106.184597 132.796,106.128 C132.796,106.128 143.604,112.008 164.772,110.076 C177.988,108.872 176.616,102.684 172.5,92.212 Z" id="XMLID_171_" fill="#FFB394" fill-rule="nonzero"></path>
            <path d="M157.408,95.208 C157.016,95.152 156.596,95.096 156.204,95.04 C155.98,95.012 155.896,95.348 156.12,95.376 C156.512,95.432 156.932,95.488 157.324,95.544 C157.548,95.572 157.632,95.236 157.408,95.208 Z" id="XMLID_165_" fill="#FFFFFF" fill-rule="nonzero"></path>
            <path d="M120.268129,104.555403 C119.176129,105.591403 118.252129,106.795403 117.524129,108.111403 C117.412129,108.307403 117.720129,108.475403 117.832129,108.279403 C118.560129,106.991403 119.456129,105.815403 120.520129,104.807403 C120.688129,104.639403 120.436129,104.387403 120.268129,104.555403 Z" id="XMLID_163_" fill="#042C5C" fill-rule="nonzero"></path>
            <path d="M118.701369,103.055761 C117.497369,104.259761 116.601369,105.659761 116.013369,107.255761 C115.929369,107.451761 116.265369,107.563761 116.349369,107.339761 C116.909369,105.799761 117.777369,104.427761 118.953369,103.279761 C119.121369,103.139761 118.869369,102.887761 118.701369,103.055761 Z" id="XMLID_162_" fill="#042C5C" fill-rule="nonzero"></path>
            <path d="M118.198271,102.001656 C116.238271,102.365656 115.538271,104.297656 115.006271,105.977656 C114.950271,106.201656 115.286271,106.285656 115.342271,106.061656 C115.818271,104.493656 116.462271,102.673656 118.282271,102.337656 C118.506271,102.309656 118.394271,101.973656 118.198271,102.001656 Z" id="XMLID_161_" fill="#042C5C" fill-rule="nonzero"></path>
            <path d="M173.736,92.716 L154.78868,92.716 C154.77112,92.268 154.75356,91.792 154.736,91.344 L173.490159,91.344 C173.560399,91.82 173.6482,92.268 173.736,92.716 Z" id="Stripe" fill="#FFFFFF" fill-rule="nonzero"></path>
            <path d="M172.256,144.304 L129.64,144.304 C129.08,144.304 128.604,143.856 128.604,143.268 C128.604,142.708 129.052,142.232 129.64,142.232 L172.256,142.232 C177.184,142.232 181.44,138.9 182.644,134.112 L198.072,71.98 C198.212,71.42 198.772,71.084 199.332,71.224 C199.892,71.364 200.228,71.924 200.088,72.484 L184.66,134.616 C183.204,140.328 178.108,144.304 172.256,144.304 Z" id="XMLID_2021_" fill="#042C5C" fill-rule="nonzero"></path>
            <path d="M134.848,143.548 C131.992,161.944 129.108,180.312 126.252,198.708 C126.056,199.996 128.044,200.556 128.24,199.268 C131.124,180.704 134.036,162.14 136.92,143.604 C136.22,143.604 135.548,143.576 134.848,143.548 Z" id="XMLID_442_" fill="#042C5C" fill-rule="nonzero"></path>
            <path d="M114.386737,109.98 C110.578737,100.936 108.506737,96.288 104.698737,87.244 C104.530737,86.852 103.858737,87.02 104.026737,87.44 C107.834737,96.484 109.906737,101.132 113.714737,110.176 C113.910737,110.568 114.582737,110.4 114.386737,109.98 Z" id="XMLID_194_" stroke="#042C5C" fill="#042C5C" fill-rule="nonzero"></path>
            <path d="M138.92,110.5 L114.336,110.5 C113.888,110.5 113.888,111.2 114.336,111.2 L138.92,111.2 C139.368,111.172 139.368,110.5 138.92,110.5 Z" id="XMLID_513_" stroke="#042C5C" fill="#042C5C" fill-rule="nonzero"></path>
            <g id="Group-5" transform="translate(174.000000, 0.000000)"></g>
            <g id="Man_2" transform="translate(98.000000, 42.000000)">
                <g id="Head_2_" transform="translate(33.320000, 0.000000)"></g>
                <g id="Hand_2_" transform="translate(16.520000, 21.280000)">
                    <g id="Cup_1_" transform="translate(1.120000, 0.000000)"></g>
                    <g id="XMLID_29_" transform="translate(0.000000, 7.280000)"></g>
                </g>
                <g id="Legs_2_" transform="translate(0.000000, 70.280000)"></g>
                <g id="Body" transform="translate(49.600000, 68.040000)">
                    <g id="XMLID_208_" transform="translate(0.000000, 0.600000)"></g>
                </g>
                <g id="Hand" transform="translate(15.120000, 50.120000)">
                    <g id="XMLID_67_" transform="translate(0.000000, 0.560000)"></g>
                </g>
            </g>
            <g id="Notebook_1_" transform="translate(104.000000, 81.000000)"></g>
        </g>
    </g>
</svg>