<?xml version="1.0" encoding="UTF-8"?>
<svg width="233px" height="185px" viewBox="0 0 233 185" version="1.1" xmlns="http://www.w3.org/2000/svg" xmlns:xlink="http://www.w3.org/1999/xlink">
    <!-- Generator: Sketch 60 (88103) - https://sketch.com -->
    <title>welcome-03</title>
    <desc>Created with Sketch.</desc>
    <g id="desktop-🖥" stroke="none" stroke-width="1" fill="none" fill-rule="evenodd">
        <g id="welcome-03" transform="translate(0.000000, -1.000000)">
            <g id="Group-3-Copy-2" transform="translate(0.000000, 22.992155)">
                <g id="3">
                    <g id="Group" transform="translate(131.860171, 7.003468) scale(-1, 1) translate(-131.860171, -7.003468) translate(124.856702, 0.000000)"></g>
                    <path d="M115.209545,162.946197 C177.871162,162.946197 228.670554,162.304475 228.670554,161.512735 C228.670554,160.720995 177.871162,160.079273 115.209545,160.079273 C52.5470084,160.079273 1.74876567,160.720995 1.74876567,161.512735 C1.74876567,162.304475 52.5470084,162.946197 115.209545,162.946197 Z" id="Path" fill="#E4EFF7" fill-rule="nonzero"></path>
                    <line x1="11.2279487" y1="118.550302" x2="11.2279487" y2="160.989587" id="Path" stroke="#042C5C" stroke-width="0.895851801"></line>
                    <line x1="52.8046605" y1="118.550302" x2="52.8046605" y2="160.989587" id="Path" stroke="#042C5C" stroke-width="0.895851801"></line>
                    <path d="M61.7754304,79.0783359 L4.00498502,79.0783359 C1.79475149,79.0783359 0.0030031879,80.8700842 0.0030031879,83.0803177 L0.0030031879,140.95418 L0.0030031879,140.95418 L61.7754304,140.95418 L61.7754304,79.0783359 Z" id="Path" fill="#EBF4FF" fill-rule="nonzero"></path>
                    <path d="M228.212929,57.6040219 L65.7774123,57.6040219 C63.5671787,57.6040219 61.7754304,59.3957702 61.7754304,61.6060037 L61.7754304,140.956481 L61.7754304,140.956481 L232.214911,140.956481 L232.214911,61.6060037 C232.214911,59.3957702 230.423162,57.6040219 228.212929,57.6040219 Z" id="Path" fill="#EBF4FF" fill-rule="nonzero"></path>
                    <line x1="21.170603" y1="79.0783359" x2="21.170603" y2="123.398301" id="Path" stroke="#042C5C" stroke-width="0.53751108" stroke-linecap="square"></line>
                    <path d="M10.0252878,92.6237432 C12.0551961,92.6237432 13.7005772,90.9756074 13.7005772,88.9423007 C13.7005772,86.908994 12.0551961,85.2608583 10.0252878,85.2608583 C7.99560919,85.2608583 6.34999834,86.908994 6.34999834,88.9423007 C6.34999834,90.9756074 7.99560919,92.6237432 10.0252878,92.6237432 Z" id="Path" stroke="#042C5C" stroke-width="0.53751108" stroke-linecap="square"></path>
                    <path d="M26.8946366,100.19601 C26.8946366,100.19601 25.4084414,85.8728981 40.3944341,85.8728981 C55.3804268,85.8728981 66.0502515,100.19601 66.0502515,100.19601" id="Path" fill="#042C5C" fill-rule="nonzero"></path>
                    <path d="M69.9531791,92.1796692 L63.6087107,90.5437282 L66.8406684,86.717329 C66.8944195,86.6531338 66.9637906,86.6041246 67.0421202,86.574443 C67.1204498,86.5449914 67.2049815,86.5360179 67.2876755,86.5484428 C67.3703695,86.5608676 67.4484694,86.5942307 67.5146246,86.6457709 C67.5807798,86.697081 67.6326933,86.7644974 67.6653115,86.8415776 L69.9531791,92.1796692 Z" id="Path" fill="#042C5C" fill-rule="nonzero"></path>
                    <path d="M60.3078414,86.740338 L63.5237197,90.5437282 L57.1792513,92.1796692 L59.4556337,86.8691885 C59.4896301,86.7898074 59.5433812,86.7205502 59.6118335,86.6678596 C59.680056,86.6151689 59.7606827,86.5806554 59.8459035,86.5677704 C59.9311242,86.5548853 60.0184124,86.5638588 60.0992687,86.5940006 C60.1798954,86.6243725 60.2517933,86.6745322 60.3078414,86.740338 Z" id="Path" fill="#042C5C" fill-rule="nonzero"></path>
                    <path d="M63.6727986,102.347353 C68.005046,102.347353 71.5172445,99.4732969 71.5172445,95.9278378 C71.5172445,92.3823786 68.005046,89.5083225 63.6727986,89.5083225 C59.3403215,89.5083225 55.8283527,92.3823786 55.8283527,95.9278378 C55.8283527,99.4732969 59.3403215,102.347353 63.6727986,102.347353 Z" id="Path" fill="#042C5C" fill-rule="nonzero"></path>
                    <polygon id="Path" fill="#EBF4FF" fill-rule="nonzero" points="73.7571037 100.069461 56.6164726 100.069461 56.6164726 105.768794 73.7571037 105.768794"></polygon>
                    <line x1="117.952459" y1="100.19601" x2="21.170603" y2="100.19601" id="Path" stroke="#042C5C" stroke-width="0.53751108" stroke-linecap="square"></line>
                    <path d="M60.6432116,93.0770208 C60.6432116,92.5202026 61.2404461,92.0692259 61.9778011,92.0692259 C62.715156,92.0692259 63.3100935,92.5294062 63.3100935,93.0770208" id="Path" fill="#FFFFFF" fill-rule="nonzero"></path>
                    <path d="M67.2332352,93.0770208 C67.2332352,92.5202026 67.8304698,92.0692259 68.5678247,92.0692259 C69.3051797,92.0692259 69.9024142,92.5294062 69.9024142,93.0770208" id="Path" fill="#FFFFFF" fill-rule="nonzero"></path>
                    <path d="M63.9302986,96.6112055 C63.9302986,96.6112055 65.6852493,96.5053641 65.6852493,94.8418123 C65.6852493,94.8418123 66.2204633,96.4800541 67.318456,96.4800541" id="Path" stroke="#FFFFFF" stroke-width="0.53751108" stroke-linejoin="round"></path>
                    <path d="M64.8674974,94.2987995 L66.3835543,94.2987995 C66.4260498,94.3034013 66.466478,94.3197377 66.500015,94.3461981 C66.5337817,94.3724283 66.5595087,94.4076321 66.5742099,94.4478979 C66.5891408,94.4879336 66.5923566,94.5316507 66.5838575,94.5735271 C66.5753584,94.6154035 66.555374,94.6542888 66.5259717,94.6853509 L65.7679433,95.3342052 C65.7272854,95.3661877 65.6772096,95.3836746 65.6255258,95.3836746 C65.5738421,95.3836746 65.5235365,95.3661877 65.4831084,95.3342052 L64.7250799,94.6853509 C64.6956776,94.6542888 64.6756932,94.6154035 64.6671941,94.5735271 C64.658695,94.5316507 64.6619109,94.4879336 64.6768417,94.4478979 C64.6915429,94.4076321 64.7172699,94.3724283 64.7510366,94.3461981 C64.7845737,94.3197377 64.8250018,94.3034013 64.8674974,94.2987995 Z" id="Path" fill="#EA6F57" fill-rule="nonzero"></path>
                    <path d="M42.8476898,108.628814 C40.6448132,106.06561 35.33402,111.29786 32.0101801,109.176429 C26.786675,105.842422 36.0139485,91.1603698 32.7429409,89.0113278 C30.7192347,87.6860085 25.5646412,98.0699771 26.4673842,105.685961 C27.0255688,110.391305 31.061496,113.796639 36.0943455,113.453805 C39.0828152,113.249024 44.2442998,110.253251 42.8476898,108.628814 Z" id="Path" fill="#042C5C" fill-rule="nonzero"></path>
                    <line x1="179.142735" y1="118.550302" x2="179.142735" y2="160.989587" id="Path" stroke="#042C5C" stroke-width="0.895851801"></line>
                    <line x1="220.719447" y1="118.550302" x2="220.719447" y2="160.989587" id="Path" stroke="#042C5C" stroke-width="0.895851801"></line>
                    <path d="M110.190478,77.5022183 C110.190478,77.5022183 112.84128,76.4530072 115.652877,76.4530072 L127.93064,76.4530072" id="Path" stroke="#FFFFFF" stroke-width="0.53751108"></path>
                </g>
            </g>
            <g id="Man_1" transform="translate(103.185714, 0.000000)">
                <g id="Body_1_" transform="translate(8.254088, 0.186631)">
                    <path d="M25.8761215,26.5617622 C7.98707799,27.9632964 7.66373509,27.9632964 4.56019818,41.5 C1.45666127,55.0367036 0.231114451,70.4169483 0.231114451,70.4169483 L23.0784287,82.9961777 L63.1257497,82.6315587 C64.9639879,82.6148135 66.4406068,81.1110592 66.4238702,79.2728209 C66.4234532,79.2270266 66.4220912,79.1812458 66.4197851,79.1355078 C65.5560248,62.0046411 64.7990082,47.7196268 64.1487351,36.280465 C63.8272999,30.6259961 59.2243534,24.5218017 53.4340691,24.5218017 C41.5806853,24.5218017 29.1892667,26.9906063 25.8761215,26.5617622 Z" id="XMLID_618_" fill="#EA6F57" fill-rule="nonzero"></path>
                    <g id="XMLID_91_" transform="translate(8.388770, 0.229441)">
                        <path d="M24.8816659,25.6959097 C20.5093739,26.1039902 16.6326084,26.424625 13.2513693,26.6869625 C13.4845582,28.2901362 14.3007194,29.7475668 15.5249611,30.8552141 C15.6707042,30.9718086 15.7872986,31.088403 15.9330417,31.2049975 C17.7402557,32.6332795 20.0721447,33.0996573 22.3457365,32.6915767 C25.2314492,32.1669017 27.4758924,30.4762822 29.0790661,28.231839 C29.7203356,27.328232 30.2741593,26.3371791 30.7113884,25.2878291 C28.6126883,25.4044235 26.6597313,25.5501666 24.8816659,25.6959097 Z" id="XMLID_472_" fill="#ED9F94" fill-rule="nonzero"></path>
                        <g id="XMLID_86_">
                            <path d="M29.5745925,26.9493 L16.6326084,31.3215919 L14.9419889,27.9112042 L12.7558429,23.5389123 L8.99567185,15.9602729 L18.323228,11.8211699 C18.7896058,12.7539255 29.5745925,26.9493 29.5745925,26.9493 Z" id="XMLID_471_" fill="#ED9F94" fill-rule="nonzero"></path>
                            <path d="M14.9419889,27.9112042 L15.0294347,28.0860959 C16.6326084,26.3663277 17.5070668,24.1218846 17.7694043,21.6734011 C18.0900391,18.4087564 17.040689,15.727084 15.9038931,12.8996686 L9.02482046,15.9602729 L12.7849915,23.5389123 L14.9419889,27.9112042 Z" id="XMLID_470_" fill="#000000" fill-rule="nonzero" opacity="0.222958519"></path>
                            <path d="M17.565364,3.89274721 C13.7468957,0.598953954 1.59192417,4.85899576 2.64127424,9.72681411 C2.85389426,10.7111661 3.44477423,12.6343948 3.66147569,13.9052957 C4.24689422,17.338632 5.50902229,20.7049925 8.05033625,23.0105204 C10.4355633,25.1744433 18.1483363,24.3842221 19.5474697,19.9827815 C20.9757517,15.5521924 21.3838323,7.15739185 17.565364,3.89274721 Z" id="XMLID_469_" fill="#ED9F94" fill-rule="nonzero"></path>
                            <path d="M11.0299669,20.4051068 C12.0101213,20.7235794 15.4103039,20.6449059 15.6304514,17.4052113 L9.38432002,19.5175378 C9.82798162,19.8969354 10.3765306,20.1927918 11.0299669,20.4051068 Z" id="Path-4" fill="#F6F8FA"></path>
                            <path d="M20.0572293,5.33236178 C18.9789604,-0.928444165 9.22344725,1.0315975 8.84451528,1.32308363 C8.55302915,1.17734056 0.743359015,2.88556708 0.474462248,6.12509286 C0.20556548,9.36461864 1.85046121,10.9818222 5.06932779,9.99852137 C8.02370458,9.44097549 10.5988456,8.09014747 11.5898984,7.12824324 C11.9105331,7.74036411 13.5662811,8.29492803 14.4407395,8.29492803 C14.8779687,8.29492803 15.0740081,8.17898452 15.3946429,8.00409284 C16.1816554,9.14088875 16.6034598,10.2471448 18.2649307,9.86821285 C18.8284531,9.74298567 19.5078847,13.7144906 21.0134943,15.8107143 C21.6755514,16.7324804 22.1774078,16.9084047 22.5367477,17.6707589 C22.4493019,15.0473837 21.2231738,7.28531885 20.0572293,5.33236178 Z" id="XMLID_468_" fill="#042C5C" fill-rule="nonzero"></path>
                            <path d="M10.0450219,16.484948 C9.69523856,16.6598397 9.31630659,16.8638799 8.90822601,16.8930286 C8.4418482,16.9221772 7.85887594,16.6015424 8.00461901,16.0477188 C8.06291623,15.8145299 7.74228149,15.6979354 7.68398427,15.9311243 C7.5382412,16.4557994 7.80057872,16.9804744 8.32525375,17.1553661 C8.96652323,17.4177036 9.63694133,17.0970688 10.190765,16.8055827 C10.3948053,16.6889883 10.2490622,16.3683535 10.0450219,16.484948 Z" id="XMLID_467_" fill="#042C5C" fill-rule="nonzero"></path>
                            <path d="M11.6481956,12.0835074 C11.7356415,12.4041422 11.8522359,12.7247769 11.9396817,13.016263 C12.0562762,13.3368978 12.522654,13.1328575 12.4352082,12.8122228 C12.3477623,12.491588 12.2311679,12.1709533 12.143722,11.8794671 C12.0271276,11.5296838 11.5316012,11.7628727 11.6481956,12.0835074 Z" id="XMLID_463_" stroke="#042C5C" stroke-width="0.2" fill="#042C5C" fill-rule="nonzero"></path>
                            <path d="M5.95296657,13.5409381 C6.04041241,13.8615728 6.15700686,14.1822076 6.2444527,14.4736937 C6.36104715,14.7943284 6.82742496,14.5902881 6.73997912,14.2696534 C6.65253328,13.9490187 6.53593883,13.6283839 6.44849299,13.3368978 C6.33189854,13.016263 5.83637212,13.2203033 5.95296657,13.5409381 Z" id="XMLID_462_" stroke="#042C5C" stroke-width="0.2" fill="#042C5C" fill-rule="nonzero"></path>
                            <path d="M5.91710317,11.5549473 C5.5381712,11.6423932 5.15923923,11.729839 4.78030726,11.7881362 C4.60541559,11.8172848 4.48882114,12.0796224 4.54711836,12.2253654 C4.60541559,12.4294057 4.80945588,12.4877029 4.98434755,12.4585543 C5.36327952,12.3711085 5.74221149,12.2836627 6.12114346,12.2253654 C6.29603513,12.1962168 6.41262959,11.9338793 6.35433236,11.7881362 C6.29603513,11.5840959 6.09199484,11.5257987 5.91710317,11.5549473 Z" id="XMLID_461_" fill="#042C5C" fill-rule="nonzero"></path>
                            <path d="M11.5777138,9.48415583 C11.257079,9.60075029 10.9072957,9.74649335 10.5866609,9.8630878 C10.1494317,10.0379795 10.4409179,10.679249 10.8781471,10.5043573 C11.1987818,10.3877628 11.5485652,10.2420198 11.8691999,10.1254253 C12.2772805,9.97968225 11.9857943,9.33841277 11.5777138,9.48415583 Z" id="XMLID_460_" fill="#042C5C" fill-rule="nonzero"></path>
                            <path d="M23.2493435,9.2852406 C22.1416963,7.88610718 19.372578,7.85695856 18.1191877,9.92651008 C18.7021599,11.7628727 19.226835,13.6283839 19.75151,15.4938951 C20.8591573,15.6396382 22.841263,14.9983687 23.6574241,13.6866811 C24.5901797,12.2583991 24.4444367,10.8009685 23.2493435,9.2852406 Z" id="XMLID_456_" fill="#ED9F94" fill-rule="nonzero"></path>
                            <path d="M20.8883059,11.0050088 C20.6259684,11.6462782 20.3344823,12.2875477 20.0721447,12.9579658 C19.9846989,13.1620061 20.3053336,13.2786006 20.4219281,13.0745603 C20.4510767,13.0454117 20.4510767,12.9871144 20.4802253,12.9579658 C20.4802253,12.9288172 20.4802253,12.9288172 20.4802253,12.8996686 C20.7425628,12.3166963 20.9757517,11.7337241 21.2380893,11.1216032 C21.2963865,10.9175629 20.9757517,10.8009685 20.8883059,11.0050088 Z" id="XMLID_455_" fill="#042C5C" fill-rule="nonzero"></path>
                        </g>
                    </g>
                </g>
                <g id="Hand_4_" transform="translate(26.413080, 39.469161)" fill-rule="nonzero">
                    <path d="M26.875309,27.436587 C12.1830332,29.9788459 3.40068406,34.2379551 0.165081751,35.5916254 L0.297147151,43.5485658 L40.0158164,43.6806312 C37.8367372,37.1764102 32.6531703,30.7052056 26.875309,27.436587 Z" id="XMLID_2199_" fill="#FFA79B"></path>
                    <path d="M27.9318322,0.330163501 C27.9318322,0.0660327002 27.535636,0.0660327002 27.535636,0.330163501 C27.3375379,8.94743088 27.1394398,17.5646983 26.9413417,26.1819656 C26.9413417,26.3800637 27.2054725,26.4460964 27.3045216,26.2810147 C27.436587,26.0499002 27.9318322,0.330163501 27.9318322,0.330163501 Z" id="XMLID_538_" fill="#FFFFFF"></path>
                </g>
                <g id="Hand_3_" transform="translate(20.910355, 34.846872)" fill="#FFFFFF" fill-rule="nonzero">
                    <path d="M1.30964855,0.660327002 C1.0785341,5.64579587 0.880436003,10.6642811 0.649321552,15.64975 C0.649321552,15.9138808 1.04551775,15.9138808 1.04551775,15.64975 C1.2766322,10.6642811 1.47473031,5.64579587 1.70584476,0.660327002 C1.70584476,0.396196201 1.30964855,0.396196201 1.30964855,0.660327002 Z" id="XMLID_537_"></path>
                </g>
                <g id="Legs_1_" transform="translate(0.660327, 82.720580)" fill-rule="nonzero">
                    <path d="M59.4624466,101.888456 C59.7265774,93.2381727 59.8586428,82.4748426 59.8586428,74.6169513 C53.18934,75.7064908 46.6190864,75.2112456 39.8507346,75.44236 C43.2184023,90.8279792 43.3504677,92.1816495 39.322473,93.2711891 C34.7662167,94.4927941 34.9973311,99.8414428 35.2614619,101.888456 L59.4624466,101.888456 Z" id="XMLID_2044_" fill="#FFA79B"></path>
                    <path d="M30.5731402,101.888456 C31.1344182,93.6673853 31.4645817,82.4418263 31.2004509,74.4848859 C28.5921592,74.5509186 12.7112948,74.1547224 11.7538206,74.2207551 C14.4941777,85.3802814 15.8148317,92.5448294 10.0039541,93.7994507 C5.41468142,94.7899412 5.90992667,99.8744591 6.30612287,101.888456 L30.5731402,101.888456 Z" id="XMLID_2042_" fill="#FFA79B"></path>
                    <path d="M59.4624466,101.888456 C59.6275283,96.3086933 59.7265774,89.8374887 59.7926101,83.828513 C52.2648822,84.5218563 46.1898738,84.5218563 41.6006012,83.828513 C43.0533206,91.4222735 42.4260099,92.4457803 39.2894566,93.2711891 C34.7332003,94.4927941 34.9643148,99.8414428 35.2284456,101.888456 L59.4624466,101.888456 Z" id="XMLID_188_" fill="#FFFFFF"></path>
                    <path d="M30.5731402,101.888456 C30.9363201,96.5398078 31.2004509,89.9695541 31.2664836,83.828513 C25.4556059,84.587889 19.611712,84.4558236 13.767818,83.828513 C14.5602104,89.4412925 13.8998834,92.9740419 9.97093774,93.7994507 C5.38166507,94.7899412 5.87691032,99.8744591 6.27310652,101.888456 L30.5731402,101.888456 Z" id="XMLID_187_" fill="#FFFFFF"></path>
                    <path d="M59.4624466,101.888456 C59.5614956,98.8179359 59.6275283,95.4832846 59.693561,92.1156168 C57.5474983,93.3042055 55.3023865,93.8654834 52.6940948,92.8419765 C50.9112119,92.1486332 48.9302309,90.3987666 46.9822662,90.2336849 C45.265416,90.0686031 43.5155495,90.5968647 42.0298137,91.5213225 C41.5675848,92.4787967 40.6761434,92.8749929 39.322473,93.2711891 C34.7662167,94.4927941 34.9973311,99.8414428 35.2614619,101.888456 L59.4624466,101.888456 Z" id="XMLID_186_" fill="#042C5C"></path>
                    <path d="M30.5731402,101.888456 C30.738222,99.3131812 30.9033037,96.4407587 31.0023528,93.5023036 C29.0213718,94.1296142 26.875309,93.9645325 24.5311481,92.9740419 C21.3285622,91.5873552 16.6072241,88.2196875 13.4706709,91.5213225 C13.3386055,91.6864043 13.1735237,91.7854533 13.0084419,91.8845024 C12.3481149,92.8749929 11.3576244,93.5023036 9.93792139,93.8324671 C5.34864872,94.8229576 5.84389397,99.9074755 6.24009017,101.921473 L30.5731402,101.921473 L30.5731402,101.888456 Z" id="XMLID_185_" fill="#042C5C"></path>
                    <path d="M6.80136813,0.0660327002 C1.08953955,3.79688026 -1.91494831,11.9189024 2.01399736,35.3274946 C5.67881222,57.2503511 8.41916928,69.6975151 10.2680849,77.4893737 C11.786837,77.4893737 27.535636,77.7535045 32.157925,77.7535045 C32.4220558,56.953204 30.1439277,39.3885057 30.1439277,39.3885057 C48.9632472,38.6951623 46.1898738,17.9939108 42.5580753,0.0990490504 L6.80136813,0.0990490504 L6.80136813,0.0660327002 Z" id="XMLID_184_" fill="#1E63F8"></path>
                    <path d="M28.757241,31.398549 C29.4836007,35.5255927 30.1109113,39.3554893 30.1109113,39.3554893 C40.1148654,38.9923095 44.0107947,32.9503174 44.9352525,24.6962299 C39.6196201,27.1724562 34.3370041,29.7477315 28.757241,31.398549 Z" id="XMLID_183_" fill="#000000" opacity="0.282412574"></path>
                    <path d="M32.4550722,0.0660327002 C29.9458296,4.88641982 29.5826497,14.3621123 32.0918923,32.4550722 C34.9643148,53.1233073 36.5160832,68.7070246 37.4075247,77.3573083 C44.1098438,77.324292 53.8166507,77.6214391 60.5189698,77.2252429 C61.8396238,55.9296971 60.3869044,40.2139145 60.3869044,40.2139145 C66.8911254,39.9828 70.6880056,37.2424429 72.702003,33.0493665 C76.4988832,25.1254424 73.9566243,11.885886 71.480398,0.0990490504 L32.4550722,0.0990490504 L32.4550722,0.0660327002 Z" id="XMLID_182_" fill="#1E63F8"></path>
                    <path d="M47.7746586,0.0660327002 C53.750618,6.57025367 63.8206048,8.45218563 72.8340684,6.83438448 C72.4048558,4.55625632 71.9426269,2.27812816 71.4473817,0.0660327002 L47.7746586,0.0660327002 Z" id="XMLID_179_" fill="#000000" opacity="0.282412574"></path>
                    <path d="M33.6106444,0.0660327002 L32.8842847,0.0660327002 C29.9458296,2.27812816 29.7477315,6.93343353 29.7477315,10.4331666 C29.7147151,16.1119789 30.176944,21.7907911 31.0353691,27.4035706 C31.0683855,27.6677014 31.4645817,27.5686524 31.4315653,27.3045216 C30.6391729,22.25302 30.2099604,17.1354857 30.1439277,12.0179514 C30.1109113,8.15503848 29.8467805,2.27812816 33.6106444,0.0660327002 Z" id="XMLID_172_" fill="#000000"></path>
                    <path d="M66.2638147,33.9408079 C64.31585,33.5776281 62.23582,32.9503174 60.3869044,31.9598269 C60.3869044,35.4925764 60.3869044,40.1808981 60.3869044,40.1808981 C66.1317493,39.9497836 69.7635478,37.8037209 71.9096106,34.4030368 C69.9946623,34.4360532 68.0466976,34.2709714 66.2638147,33.9408079 Z" id="XMLID_160_" fill="#000000" opacity="0.282412574"></path>
                    <path d="M28.5261265,30.2099604 C28.2619957,29.5826497 27.9978649,28.9553391 27.7007178,28.3280284 C27.6016687,28.096914 27.2384889,28.2950121 27.3375379,28.5261265 C27.6016687,29.1534372 27.8657995,29.7807478 28.1629467,30.4080585 C28.2950121,30.6391729 28.6251756,30.4410748 28.5261265,30.2099604 Z" id="XMLID_126_" fill="#FFFFFF"></path>
                    <path d="M59.8916591,28.3940611 C59.8586428,28.1299303 59.4624466,28.1299303 59.4954629,28.3940611 C59.594512,29.1204208 59.6605447,29.8467805 59.7595937,30.5401239 C59.7926101,30.8042547 60.1888063,30.8042547 60.1557899,30.5401239 C60.0897572,29.8467805 59.9907082,29.1204208 59.8916591,28.3940611 Z" id="XMLID_125_" fill="#FFFFFF"></path>
                    <path d="M29.0213718,74.682984 L11.1925427,74.682984 C10.9284119,74.682984 10.9284119,75.0791802 11.1925427,75.0791802 L29.0213718,75.0791802 C29.2855026,75.0791802 29.2855026,74.682984 29.0213718,74.682984 Z" id="XMLID_124_" fill="#FFFFFF"></path>
                    <path d="M56.9862203,74.682984 L39.1573912,74.682984 C38.8932604,74.682984 38.8932604,75.0791802 39.1573912,75.0791802 L56.9862203,75.0791802 C57.2503511,75.0791802 57.2503511,74.682984 56.9862203,74.682984 Z" id="XMLID_123_" fill="#FFFFFF"></path>
                </g>
            </g>
            <g id="Notebook" transform="translate(82.382143, 39.110714)">
                <g id="XMLID_25_" transform="translate(18.792479, 0.000000)"></g>
                <g id="XMLID_28_" transform="translate(0.000000, 5.392671)">
                    <g id="Group-6" transform="translate(7.390299, 6.550273) scale(-1, 1) translate(-7.390299, -6.550273) translate(0.390299, 0.550273)" fill="#FCB235" fill-rule="nonzero">
                        <path d="M8.96992029,0.184861213 C7.61624994,2.06679317 6.26257958,3.98174148 4.90890923,5.86367343 C4.61176208,6.29288599 5.30510543,6.68908219 5.60225258,6.25986964 C6.95592294,4.37793768 8.30959329,2.46298937 9.66326365,0.581057415 C9.99342715,0.151844863 9.26706745,-0.244351338 8.96992029,0.184861213 Z" id="XMLID_145_"></path>
                        <path d="M13.1629968,7.05226204 C11.1820158,8.20783429 9.20103475,9.3964229 7.22005374,10.5519952 C6.75782484,10.816126 7.18703739,11.5094693 7.61624994,11.2453385 C9.59723095,10.0897663 11.578212,8.90117765 13.559193,7.74560539 C14.0214219,7.48147459 13.6252257,6.78813124 13.1629968,7.05226204 Z" id="XMLID_144_"></path>
                        <path d="M0.847898164,1.34043347 C0.583767363,2.23187492 0.319636562,3.15633272 0.022489411,4.04777418 C-0.14259234,4.54301943 0.649800063,4.77413388 0.814881814,4.27888863 C1.07901261,3.38744718 1.34314342,2.46298937 1.64029057,1.57154792 C1.77235597,1.07630267 0.979963565,0.845188216 0.847898164,1.34043347 Z" id="XMLID_423_"></path>
                    </g>
                    <g id="XMLID_27_" transform="translate(12.189209, 9.024469)">
                        <polygon id="XMLID_573_" fill="#042C5C" fill-rule="nonzero" points="48.0387894 30.0118623 7.29661338 30.0118623 0.198098101 0.231114451 40.9402742 0.231114451"></polygon>
                        <line x1="45.1242406" y1="28.9443336" x2="58.6700542" y2="28.9443336" id="Path-30" stroke="#042C5C" stroke-width="2.20109001" stroke-linecap="round"></line>
                        <path d="M23.1114451,18.7092651 C24.9349823,18.7092651 26.4130801,17.2311673 26.4130801,15.4076301 C26.4130801,13.5840928 24.9349823,12.105995 23.1114451,12.105995 C21.2881115,12.105995 19.8098101,13.5840928 19.8098101,15.4076301 C19.8098101,17.2311673 21.2881115,18.7092651 23.1114451,18.7092651 Z" id="Path" fill="#FFFFFF" fill-rule="nonzero"></path>
                        <path d="M25.3125351,8.86559546 C25.3125351,8.86559546 25.1202671,10.0621297 24.2085444,10.6347975 C23.2968218,11.2074652 22.0109001,10.9457826 22.0109001,10.9457826 C22.0109001,10.9457826 22.2031681,9.74924834 23.1148908,9.17468435 C24.0266134,8.60012035 25.3125351,8.86559546 25.3125351,8.86559546 Z" id="Path" fill="#FFFFFF" fill-rule="nonzero"></path>
                    </g>
                </g>
            </g>
            <path d="M232.214911,102.070491 L174.444465,102.070491 C172.234232,102.070491 170.442484,103.862239 170.442484,106.072473 L170.442484,163.946335 L170.442484,163.946335 L232.214911,163.946335 L232.214911,102.070491 Z" id="Path" fill="#EBF4FF" fill-rule="nonzero"></path>
            <line x1="191.081531" y1="102.760762" x2="191.081531" y2="147.080727" id="Path" stroke="#042C5C" stroke-width="0.53751108" stroke-linecap="square"></line>
            <path d="M180.864226,115.615898 C182.894824,115.615898 184.539516,113.967763 184.539516,111.934456 C184.539516,109.901149 182.894824,108.253014 180.864226,108.253014 C178.833629,108.253014 177.188937,109.901149 177.188937,111.934456 C177.188937,113.967763 178.833629,115.615898 180.864226,115.615898 Z" id="Path" stroke="#042C5C" stroke-width="0.53751108" stroke-linecap="square"></path>
            <line x1="176.830357" y1="101.9375" x2="232.217208" y2="102.107306" id="Path" stroke="#042C5C" stroke-width="0.53751108" stroke-linecap="square"></line>
        </g>
    </g>
</svg>