<?xml version="1.0" encoding="UTF-8"?>
<svg width="279px" height="184px" viewBox="0 0 279 184" version="1.1" xmlns="http://www.w3.org/2000/svg" xmlns:xlink="http://www.w3.org/1999/xlink">
    <!-- Generator: Sketch 60 (88103) - https://sketch.com -->
    <title>welcome-02</title>
    <desc>Created with Sketch.</desc>
    <g id="desktop-🖥" stroke="none" stroke-width="1" fill="none" fill-rule="evenodd">
        <g id="welcome-02">
            <path d="M39.165488,70.971994 C39.2233294,75.1597622 36.2155777,77.4234207 32.5715708,77.4234207 C28.9275639,77.4234207 25.9776536,74.5372561 25.9776536,70.971994 C25.9776536,67.4067318 28.2334674,64.3507929 32.5137294,64.2376099 C36.1577363,64.124427 39.1076466,67.4067318 39.165488,70.971994 Z" id="XMLID_309_" fill="#FFC970" fill-rule="nonzero"></path>
            <path d="M34.3542093,73.1962973 C34.0395202,73.5056609 33.5836621,73.7034675 32.9866351,73.7897613 L32.9866351,74.6394032 L32.0350729,74.6394032 L32.0350729,73.8207863 C31.6528827,73.7975619 31.2750091,73.7319219 30.9094214,73.6253288 C30.5966297,73.5392123 30.2998239,73.40873 30.0294872,73.2384027 L30.54464,72.1206162 C30.8112293,72.2869102 31.1023902,72.4159299 31.4089204,72.5035534 C31.72138,72.5982683 32.0476434,72.6473321 32.3761364,72.6489277 C32.9769582,72.6489277 33.2774166,72.5034204 33.2774166,72.2123615 C33.2774166,72.0593196 33.1915578,71.9456795 33.0198402,71.8715297 C32.8481226,71.79738 32.5720462,71.7195072 32.1916111,71.6379558 C31.8359849,71.5681052 31.4861458,71.4747643 31.1447029,71.3587307 C30.8647368,71.2590075 30.6165527,71.0942647 30.4236787,70.8800593 C30.2225509,70.6608011 30.121987,70.3653545 30.121987,69.9936306 C30.1185717,69.7841232 30.16041,69.5760784 30.2448932,69.3819948 C30.3294238,69.1879113 30.4548915,69.0116893 30.6138963,68.8638773 C30.9412033,68.5500815 31.4141383,68.3580368 32.0327011,68.2876987 L32.0327011,67.4455914 L32.9842633,67.4455914 L32.9842633,68.2726294 C33.278223,68.2970505 33.5690045,68.3482861 33.8523385,68.4255383 C34.112097,68.495123 34.3612772,68.595511 34.5937601,68.7242648 L34.1099149,69.8500292 C33.5814801,69.5743499 33.0688414,69.4365102 32.5720462,69.4365102 C32.2599186,69.4365102 32.0325114,69.4808316 31.8899194,69.5694745 C31.7472799,69.6581174 31.6759839,69.7742395 31.6759839,69.917841 C31.6759839,70.060556 31.760562,70.1676809 31.9297655,70.2391713 C32.0989215,70.3106618 32.3710607,70.3845456 32.7461356,70.4607785 C33.1037541,70.5294767 33.4555855,70.6225074 33.7987361,70.7391171 C34.0773265,70.8395495 34.3251311,71.002608 34.5202346,71.2137997 C34.7235444,71.4309747 34.8252468,71.7264657 34.8252468,72.1002283 C34.8278083,72.3029102 34.7875353,72.5040409 34.7067047,72.692141 C34.6258741,72.8802412 34.5060513,73.0515879 34.3542093,73.1962973 L34.3542093,73.1962973 Z" id="Path" fill="#FFFFFF" fill-rule="nonzero"></path>
            <path d="M254.979841,99.9470692 C255.037683,104.134837 252.029931,106.398496 248.385924,106.398496 C244.741917,106.398496 241.792007,103.512331 241.792007,99.9470692 C241.792007,96.381807 244.047821,93.3258681 248.328083,93.2126851 C251.97209,93.0995022 254.922,96.381807 254.979841,99.9470692 Z" id="XMLID_309_" fill="#FFC970" fill-rule="nonzero"></path>
            <path d="M250.168563,102.171373 C249.853873,102.480736 249.398015,102.678543 248.800988,102.764837 L248.800988,103.614478 L247.849426,103.614478 L247.849426,102.795862 C247.467236,102.772637 247.089362,102.706997 246.723775,102.600404 C246.410983,102.514287 246.114177,102.383805 245.84384,102.213478 L246.358993,101.095691 C246.625582,101.261985 246.916743,101.391005 247.223274,101.478629 C247.535733,101.573343 247.861997,101.622407 248.19049,101.624003 C248.791311,101.624003 249.09177,101.478496 249.09177,101.187437 C249.09177,101.034395 249.005911,100.920755 248.834193,100.846605 C248.662476,100.772455 248.386399,100.694582 248.005964,100.613031 C247.650338,100.54318 247.300499,100.449839 246.959056,100.333806 C246.67909,100.234083 246.430906,100.06934 246.238032,99.8551345 C246.036904,99.6358763 245.93634,99.3404297 245.93634,98.9687058 C245.932925,98.7591984 245.974763,98.5511536 246.059246,98.35707 C246.143777,98.1629865 246.269245,97.9867645 246.42825,97.8389525 C246.755557,97.5251567 247.228492,97.333112 247.847054,97.2627739 L247.847054,96.4206666 L248.798617,96.4206666 L248.798617,97.2477046 C249.092576,97.2721257 249.383358,97.3233613 249.666692,97.4006135 C249.92645,97.4701982 250.17563,97.5705862 250.408113,97.69934 L249.924268,98.8251044 C249.395833,98.5494251 248.883195,98.4115854 248.386399,98.4115854 C248.074272,98.4115854 247.846865,98.4559068 247.704273,98.5445497 C247.561633,98.6331926 247.490337,98.7493147 247.490337,98.8929162 C247.490337,99.0356312 247.574915,99.1427561 247.744119,99.2142465 C247.913275,99.285737 248.185414,99.3596208 248.560489,99.4358537 C248.918107,99.5045519 249.269939,99.5975826 249.613089,99.7141923 C249.89168,99.8146247 250.139484,99.9776832 250.334588,100.188875 C250.537898,100.40605 250.6396,100.701541 250.6396,101.075304 C250.642162,101.277985 250.601889,101.479116 250.521058,101.667216 C250.440227,101.855316 250.320405,102.026663 250.168563,102.171373 L250.168563,102.171373 Z" id="Path" fill="#FFFFFF" fill-rule="nonzero"></path>
            <path d="M154.329964,103.823803 C154.36993,106.781259 152.291718,108.379884 149.773884,108.379884 C147.256049,108.379884 145.217803,106.341637 145.217803,103.823803 C145.217803,101.305969 146.776462,99.1478256 149.733918,99.0678943 C152.251752,98.9879631 154.289999,101.305969 154.329964,103.823803 Z" id="XMLID_309_" fill="#FFC970" fill-rule="nonzero" transform="translate(149.774167, 103.722885) rotate(-345.000000) translate(-149.774167, -103.722885) "></path>
            <path d="M151.122173,105.320063 C150.859932,105.577866 150.480051,105.742704 149.982528,105.814616 L149.982528,106.522651 L149.18956,106.522651 L149.18956,105.84047 C148.871068,105.821116 148.556173,105.766416 148.251517,105.677589 C147.990857,105.605825 147.743519,105.49709 147.518238,105.35515 L147.947532,104.423662 C148.16969,104.56224 148.412324,104.669756 148.667766,104.742776 C148.928149,104.821705 149.200035,104.862592 149.473779,104.863921 C149.974464,104.863921 150.224846,104.742665 150.224846,104.500116 C150.224846,104.372581 150.153297,104.277881 150.010199,104.21609 C149.867101,104.154298 149.637037,104.089404 149.320008,104.021445 C149.023653,103.963236 148.73212,103.885452 148.447585,103.788757 C148.21428,103.705654 148.007459,103.568369 147.846731,103.389864 C147.679125,103.207149 147.595321,102.960944 147.595321,102.651174 C147.592475,102.476584 147.627341,102.303214 147.697743,102.141477 C147.768185,101.979741 147.872742,101.832889 148.005246,101.709713 C148.278002,101.448216 148.672114,101.288179 149.187583,101.229564 L149.187583,100.527808 L149.980552,100.527808 L149.980552,101.217006 C150.225518,101.237357 150.467836,101.280053 150.703948,101.34443 C150.920413,101.402417 151.128063,101.486074 151.321799,101.593369 L150.918595,102.531506 C150.478232,102.301773 150.051033,102.186907 149.637037,102.186907 C149.376931,102.186907 149.187425,102.223841 149.068598,102.29771 C148.949732,102.371579 148.890319,102.468348 148.890319,102.588016 C148.890319,102.706945 148.9608,102.796216 149.101803,102.855791 C149.242767,102.915366 149.469549,102.976936 149.782112,103.040464 C150.080127,103.097712 150.37332,103.175238 150.659279,103.272412 C150.891438,103.356106 151.097941,103.491988 151.260528,103.667981 C151.429953,103.84896 151.514705,104.095203 151.514705,104.406672 C151.516839,104.575573 151.483278,104.743182 151.415919,104.899932 C151.348561,105.056683 151.248708,105.199471 151.122173,105.320063 L151.122173,105.320063 Z" id="Path" fill="#FFFFFF" fill-rule="nonzero" transform="translate(149.516519, 103.525229) rotate(-345.000000) translate(-149.516519, -103.525229) "></path>
            <path d="M232.300172,43.8696327 C232.380103,50.7437195 227.544263,54.5004879 221.669317,54.5004879 C215.79437,54.5004879 211.038462,49.744579 211.038462,43.8696327 C211.038462,37.9946864 214.675333,32.9989838 221.54942,32.7591901 C227.424366,32.5593619 232.220241,37.9946864 232.300172,43.8696327 Z" id="XMLID_312_" fill="#FFC970" fill-rule="nonzero" transform="translate(221.669805, 43.627167) rotate(14.000000) translate(-221.669805, -43.627167) "></path>
            <path d="M224.231824,47.1757615 C223.707343,47.6913675 222.947579,48.0210451 221.952534,48.1648681 L221.952534,49.5809379 L220.366597,49.5809379 L220.366597,48.2165764 C219.729613,48.1778691 219.099824,48.068469 218.490511,47.8908139 C217.969192,47.7472863 217.474515,47.5298158 217.023954,47.2459371 L217.882542,45.3829595 C218.326858,45.6601162 218.812126,45.875149 219.32301,46.0211881 C219.843776,46.1790463 220.387548,46.2608193 220.935036,46.2634786 C221.936406,46.2634786 222.43717,46.0209665 222.43717,45.5358684 C222.43717,45.2807986 222.294072,45.0913983 222.007876,44.9678154 C221.72168,44.8442325 221.261553,44.7144445 220.627494,44.5785255 C220.034784,44.4621079 219.451719,44.3065396 218.882647,44.1131504 C218.416037,43.9469451 218.002397,43.6723738 217.68094,43.3153647 C217.345727,42.9499344 217.178121,42.4575233 217.178121,41.8379836 C217.172428,41.4888045 217.242159,41.1420632 217.382964,40.8185906 C217.523849,40.495118 217.732961,40.2014146 217.997969,39.9550613 C218.543481,39.4320684 219.331706,39.1119938 220.362644,38.9947636 L220.362644,37.5912516 L221.948581,37.5912516 L221.948581,38.9696482 C222.438514,39.01035 222.92315,39.0957426 223.395373,39.2244964 C223.828304,39.3404708 224.243604,39.5077842 224.631076,39.7223738 L223.824667,41.5986478 C222.943942,41.1391823 222.089545,40.9094495 221.261553,40.9094495 C220.74134,40.9094495 220.362328,40.9833186 220.124675,41.1310567 C219.886942,41.2787948 219.768115,41.4723317 219.768115,41.7116675 C219.768115,41.9495258 219.909079,42.1280673 220.191085,42.2472181 C220.473011,42.3663689 220.926577,42.4895086 221.551702,42.6165634 C222.147732,42.7310604 222.734118,42.8861116 223.306036,43.0804611 C223.770353,43.2478483 224.183361,43.5196126 224.508533,43.8715986 C224.847383,44.233557 225.016887,44.726042 225.016887,45.3489797 C225.021156,45.6867829 224.954034,46.0220007 224.819317,46.335501 C224.684599,46.6490012 224.484894,46.934579 224.231824,47.1757615 L224.231824,47.1757615 Z" id="Path" fill="#FFFFFF" fill-rule="nonzero" transform="translate(221.020516, 43.586095) rotate(14.000000) translate(-221.020516, -43.586095) "></path>
            <path d="M0,183.560691 C0,138.777513 42.7316626,77.2235926 70.9981363,77.2235926 C99.2646101,77.2235926 96.3957075,120.25135 127.091235,120.25135 C157.786762,120.25135 184.343261,94.0624574 211.601542,94.0624574 C238.859822,94.0624574 278.760206,183.560691 278.760206,183.560691 L0,183.560691 Z" id="Path-Copy-2" fill="#EBF4FF" fill-rule="nonzero" transform="translate(139.380103, 130.392142) scale(-1, 1) translate(-139.380103, -130.392142) "></path>
            <g id="Legs_1_" transform="translate(67.941556, 62.676107)" fill-rule="nonzero">
                <g id="XMLID_159_" transform="translate(0.000000, 1.398797)">
                    <path d="M12.4772669,112.155522 C10.9665664,111.372196 15.3028363,100.993124 19.275419,90.8378599 C14.3796304,90.5301246 9.45586592,90.4182209 4.58805329,89.94263 C2.29402664,102.112162 0,117.498926 0,119.317361 C0,119.317361 16.3659218,114.141813 12.4772669,112.155522 Z" id="XMLID_164_" fill="#FFA79B"></path>
                    <path d="M3.35711216,93.2717662 C6.37851311,93.2158144 18.9956596,93.6914052 20.6742157,93.7473571 C21.9331328,88.5438333 23.8354963,79.0879673 24.6188225,74.6957456 C26.0455952,66.5267727 33.2074345,7.80528578 34.242544,0.251783412 L9.51181779,0.251783412 C9.28801031,1.56665234 9.00825097,2.79759347 8.89634723,4.00055866 C8.67253975,6.2945853 8.50468414,8.50468414 8.33682853,10.6588311 C6.77017619,30.7175763 6.854104,46.3561238 7.63743017,76.4302535 C6.63029652,79.2837989 4.67198109,85.9980232 3.35711216,93.2717662 Z" id="XMLID_369_" fill="#D24A43"></path>
                    <path d="M12.4772669,112.155522 C12.4492909,112.127546 12.3933391,112.09957 12.3653631,112.071594 C11.0225183,112.687065 9.56776966,112.910872 7.97314138,112.743017 C5.59518694,112.491233 3.30116029,111.791835 0.923205844,111.959691 C0.363687151,115.82037 0,118.617963 0,119.317361 L18.0165019,119.317361 C18.4920928,114.365621 16.3659218,114.141813 12.4772669,112.155522 Z" id="XMLID_134_" fill="#1E63F8"></path>
                </g>
                <g id="XMLID_158_" transform="translate(17.345080, 0.000000)">
                    <path d="M35.5853889,112.938848 C34.1026644,111.568028 34.9978943,102.280017 35.8091964,92.3485604 C30.9973356,92.516416 26.2134508,92.6003438 21.429566,92.4324882 C22.0730125,104.741899 23.6676407,120.744134 23.6676407,120.744134 L46.5239794,120.744134 C46.9156425,113.414439 39.6698754,116.715599 35.5853889,112.938848 Z" id="XMLID_165_" fill="#FFA79B"></path>
                    <path d="M19.8908896,95.5937688 C25.5700043,95.7616244 31.5009024,95.6776966 36.424667,95.7616244 C36.9002578,85.6902879 36.844306,80.2349807 36.5925226,74.3320584 C35.7812205,56.091749 31.3330468,28.255694 28.5914052,11.6379888 C28.0878384,8.58861195 27.6402235,5.90292222 27.2765363,3.74877525 L1.79045982,0.111903739 C1.4547486,7.55350236 21.3176622,80.3189085 21.3176622,80.3189085 C20.981951,83.2563816 20.1986248,89.2991835 19.8908896,95.5937688 Z" id="XMLID_131_" fill="#D24A43"></path>
                    <path d="M35.8371723,113.162656 C34.1586162,113.638247 32.4520842,113.945982 30.6896003,114.02991 C28.0598625,114.169789 25.5140524,113.498367 22.9402664,113.27456 C23.3319295,117.694757 23.6396648,120.716158 23.6396648,120.716158 L46.4960034,120.716158 C46.9156425,113.554319 39.9776107,116.57572 35.8371723,113.162656 Z" id="XMLID_365_" fill="#1E63F8"></path>
                    <path d="M10.686807,41.2085518 C10.0153846,38.0472712 9.34396218,34.8580146 8.67253975,31.696734 C8.64456382,31.5848303 8.61658788,31.4729265 8.58861195,31.3610228 C8.70051569,31.3610228 8.81241942,31.3889987 8.92432316,31.4169746 C8.9522991,31.5288784 8.98027503,31.6407821 8.98027503,31.7526859 C9.65169746,34.8859905 10.295144,38.0192952 10.9665664,41.1525999 C11.0504942,41.3204555 10.7427589,41.4043833 10.686807,41.2085518 Z" id="XMLID_336_" fill="#000000"></path>
                    <path d="M9.0362269,31.7247099 C8.92432316,31.696734 8.81241942,31.696734 8.70051569,31.6687581 C5.87494628,31.3050709 3.02140095,30.9693597 0.195831543,30.6056725 C7.95197241e-15,30.5776966 7.95197241e-15,30.2419854 0.195831543,30.2699613 C2.99342501,30.6056725 5.81899441,30.9693597 8.61658788,31.3050709 C8.72849162,31.3050709 8.84039536,31.3330468 8.9522991,31.3610228 C8.98027503,31.5009024 9.00825097,31.6128062 9.0362269,31.7247099 Z" id="XMLID_335_" fill="#000000"></path>
                </g>
            </g>
            <g id="Head_2_" transform="translate(80.881263, 0.000000)">
                <path d="M24.4438098,22.2930908 C24.123009,23.6343994 21.9410453,32.1823378 20.9391491,32.1823378 L12.9660077,28.4615385 L17.6100129,20.2645896 C22.3797447,20.722718 24.657677,21.3988851 24.4438098,22.2930908 Z" id="XMLID_2997_" fill="#FFA79B" fill-rule="nonzero"></path>
                <path d="M23.6083143,25.4119216 C24.0617579,23.7979642 24.3448859,22.8499437 24.4254405,22.3627847 L21.9562516,21.5070989 C21.8723238,22.8499437 22.6571325,24.5726435 23.6083143,25.4119216 Z" id="XMLID_407_" fill="#000000" fill-rule="nonzero" opacity="0.291573661"></path>
                <g id="Group-5" transform="translate(0.618737, 0.500000)">
                    <path d="M12.4538407,6.04911701 C13.62883,3.11164387 19.2296121,1.74082307 22.9504114,2.64164817 C24.55623,3.03331125 25.3787225,1.93665461 25.7312193,3.2683091 C26.5928781,6.51911271 29.3345197,17.1331823 28.1203641,19.5614935 C26.0053835,23.8306211 20.2871024,22.8122971 17.4279619,19.8356576 C14.4904887,16.8198519 10.8088557,10.239912 12.4538407,6.04911701 Z" id="XMLID_2996_" fill="#FFA79B" fill-rule="nonzero"></path>
                    <path d="M24.2517801,14.6729308 C24.7726808,15.7006318 25.8117436,16.1704851 27.3689683,16.0824908" id="Path-11" stroke="#042C5C" stroke-width="0.4" stroke-linecap="round"></path>
                    <path d="M25.0676678,0.565833812 C23.0680781,0.0566718007 13.0211444,-1.82752998 9.45182461,6.04911701 C6.05449863,13.5462142 -1.94505743,15.9378668 0.435406476,21.2253185 C1.9112941,24.5152884 13.2129576,26.7680942 17.0216998,24.3789494 C21.5445812,21.5589752 19.7354287,12.3157264 20.2591307,11.6107328 C22.0682833,9.6915837 21.4017534,7.18493996 20.30674,5.38328976 C21.6397998,5.85328547 25.3533235,4.75662883 26.0674627,3.42497434 C26.9720389,1.50582522 25.6865884,0.722499046 25.0676678,0.565833812 Z" id="XMLID_2995_" fill="#1E63F8" fill-rule="nonzero"></path>
                    <path d="M16.5271368,13.8040461 C16.7621346,12.0023959 19.1512795,10.5140762 21.383759,11.6107328 C21.8537547,13.4907156 22.4020831,15.3706984 22.9895777,17.2506813 C22.0887526,17.9556748 20.0129382,18.4648368 18.6029511,17.7990096 C16.9579662,17.0548497 16.2921389,15.7231952 16.5271368,13.8040461 Z" id="XMLID_2994_" fill="#FFA79B" fill-rule="nonzero"></path>
                    <path d="M29.1659987,12.1126617 C28.9310008,11.4076681 28.1085083,11.0943377 27.4426811,11.4076681 C27.2076832,11.5251671 27.1685169,11.8384975 27.2860159,11.9951628 C27.2860159,12.0343291 27.3251822,12.0343291 27.3251822,12.0343291 C27.2468496,12.0734954 27.2076832,12.1126617 27.1293506,12.151828 C26.6985212,12.5043248 27.3251822,13.1309857 27.7560116,12.7784889 C27.7560116,12.7784889 27.7951779,12.7784889 27.7560116,12.8176553 C27.4035148,13.0526531 27.5210137,13.6401477 27.9910094,13.6401477 C28.7351693,13.6401477 29.4009965,12.8568216 29.1659987,12.1126617 Z" id="XMLID_398_" fill="#FFA79B" fill-rule="nonzero"></path>
                    <path d="M24.7376194,7.08617838 C24.3851226,7.32117624 24.0326258,7.55617409 23.7192953,7.75200563 C23.2101333,8.0653361 23.680129,8.84866227 24.189291,8.5353318 C24.5417878,8.30033395 24.8942846,8.0653361 25.2076151,7.86950456 C25.7167771,7.55617409 25.2467814,6.73368161 24.7376194,7.08617838 Z" id="XMLID_2981_" fill="#042C5C" fill-rule="nonzero"></path>
                    <path d="M25.0061611,10.1224131 C24.9669948,10.5532425 24.9278285,10.9449056 24.8886622,11.375735 C24.8494959,11.6498991 25.3194916,11.6498991 25.3586579,11.375735 C25.3978242,10.9449056 25.4369905,10.5532425 25.4761568,10.1224131 C25.4761568,9.80908263 25.0453274,9.80908263 25.0061611,10.1224131 Z" id="XMLID_124_" stroke="#042C5C" stroke-width="0.3" fill="#042C5C" fill-rule="nonzero"></path>
                    <line x1="19.4675474" y1="14.180428" x2="21.031439" y2="15.2928059" id="Path-12" stroke="#042C5C" stroke-width="0.4" stroke-linecap="round"></line>
                </g>
            </g>
            <g id="Body" transform="translate(76.054577, 28.265707)" fill-rule="nonzero">
                <path d="M37.8234637,46.0763644 C38.4109583,38.7746455 38.9425011,27.8080791 39.3621401,19.2194671 C40.2014181,1.14701332 33.6830254,0.0279759347 21.9331328,0.111903739 C5.34340352,0.223807477 4.50412548,-0.307735281 2.60176193,13.9599914 C1.25891706,24.1712076 0.447614955,39.390116 0.195831543,46.4400516 C2.65771379,46.6079072 31.5009024,45.9644607 37.8234637,46.0763644 Z" id="XMLID_130_" fill="#BCD7FD"></path>
                <path d="M28.9271165,23.7235926 C27.6961753,26.6051139 27.8640309,30.0741298 28.9550924,33.1235067 C29.9342501,35.8931242 31.7526859,37.9353674 34.1026644,38.7466695 C32.8717232,35.1937258 31.3889987,31.7247099 30.2979373,28.1717662 C29.8223464,26.7170176 29.3747314,25.2342931 28.9271165,23.7235926 Z" id="XMLID_333_" fill="#000000" opacity="0.291573661"></path>
            </g>
            <g id="Hand_3_" transform="translate(111.024495, 24.628835)" fill-rule="nonzero">
                <path d="M0.139879673,12.9528578 L9.0362269,11.0784701 C9.0362269,11.0784701 16.1421143,25.2342931 15.7504512,25.3741728 C15.3308122,25.5420284 7.24576708,27.836055 6.99398367,27.6681994 C6.77017619,27.5003438 0.139879673,12.9528578 0.139879673,12.9528578 Z" id="XMLID_367_" fill="#BCD7FD"></path>
                <path d="M9.06420284,11.0504942 C12.2534594,10.1552643 17.6528148,8.92432316 17.6528148,8.92432316 C17.6528148,8.92432316 19.2194671,5.03566824 21.1777826,2.29402664 C21.5134938,1.81843575 24.3110872,0.47559089 24.7866781,0.279759347 C29.5985389,-1.4547486 26.4092823,12.2534594 26.4092823,12.2534594 C26.4092823,12.2534594 14.1558229,22.9682424 13.9879673,22.716459 C13.7921358,22.4926515 9.06420284,11.0504942 9.06420284,11.0504942 Z" id="XMLID_320_" fill="#FFA79B"></path>
                <path d="M20.6462398,7.30171895 C20.6182639,6.15470563 20.4224323,5.11959605 20.0027933,4.05651053 C20.2825526,3.4690159 20.5063601,2.85354534 20.6462398,2.18212291 C20.7301676,1.79045982 20.2825526,1.3708208 19.9188655,1.65058015 C19.2194671,2.18212291 18.6879244,2.79759347 18.3522131,3.52496777 C18.3242372,3.5529437 18.2962613,3.58091964 18.2962613,3.63687151 C17.4569832,5.37137946 17.0932961,7.16183928 17.2051998,9.12015471 C17.2331758,9.39991405 17.4010314,9.53979373 17.6248388,9.56776966 C17.8206704,9.70764933 18.0724538,9.70764933 18.2403094,9.56776966 C18.408165,9.87550494 18.8837559,10.0153846 19.0795875,9.62372153 C19.1914912,9.42788999 19.275419,9.26003438 19.3593468,9.06420284 C19.4712505,9.00825097 19.5551783,8.92432316 19.6111302,8.75646755 C19.7230339,8.47670821 19.8349377,8.14099699 19.9188655,7.77730984 C20.2266008,7.86123765 20.6462398,7.6654061 20.6462398,7.30171895 Z" id="XMLID_112_" fill="#FFA79B"></path>
                <path d="M19.9748174,4.67198109 C19.8908896,4.47614955 19.6111302,4.64400516 19.695058,4.8398367 C20.0867211,5.70709067 20.2825526,6.63029652 20.3105286,7.5814783 C20.3105286,7.77730984 20.6462398,7.80528578 20.6462398,7.5814783 C20.5902879,6.57434465 20.3664804,5.59518694 19.9748174,4.67198109 Z" id="XMLID_295_" fill="#042C5C"></path>
            </g>
            <g id="Point_2" transform="translate(129.688440, 8.043103)" fill-rule="nonzero">
                <path d="M25.1767584,13.5125515 C25.2872758,21.7201391 19.5956302,26.2174474 12.6882933,26.2174474 C5.78095634,26.2174474 0.199828105,20.5395957 0.199828105,13.5125515 C0.199828105,6.48550727 4.45474765,0.5265738 12.5225172,0.245492033 C19.4298541,0.0206266185 25.066241,6.48550727 25.1767584,13.5125515 Z" id="XMLID_115_" fill="#FFC970"></path>
                <path d="M16.3018062,17.416565 C15.7117641,18.0181054 14.8570302,18.4027292 13.7376046,18.5705228 L13.7376046,20.2226042 L11.9534255,20.2226042 L11.9534255,18.6308492 C11.2368188,18.5856906 10.5283058,18.4580572 9.84282878,18.2507929 C9.25634439,18.0833441 8.69983349,17.8296285 8.1929523,17.4984366 L9.15886381,15.3249628 C9.65871858,15.6483122 10.2046454,15.8991839 10.7793894,16.0695628 C11.3652512,16.2537307 11.9769952,16.3491326 12.5929194,16.3522351 C13.7194604,16.3522351 14.2828198,16.0693043 14.2828198,15.5033565 C14.2828198,15.205775 14.1218346,14.9848081 13.7998641,14.840628 C13.4778936,14.6964479 12.9602504,14.5450287 12.2469345,14.3864564 C11.5801354,14.2506358 10.9241872,14.0691396 10.2839817,13.8435189 C9.7590453,13.6496126 9.29370008,13.3292794 8.93206139,12.9127688 C8.55494676,12.4864335 8.36638945,11.9119539 8.36638945,11.1891575 C8.35998562,10.781782 8.43843257,10.3772504 8.5968385,9.99986571 C8.75533338,9.62248102 8.99058531,9.2798271 9.28871932,8.99241492 C9.90242001,8.38225653 10.789173,8.00883614 11.9489784,7.87206759 L11.9489784,6.23463687 L13.7331575,6.23463687 L13.7331575,7.8427662 C14.2843319,7.89025169 14.8295471,7.98987642 15.3607984,8.14008914 C15.8478455,8.27539263 16.3150585,8.4705916 16.7509639,8.72094614 L15.8437542,10.9099325 C14.8529389,10.3738894 13.8917413,10.1058678 12.9602504,10.1058678 C12.3750112,10.1058678 11.9486226,10.1920484 11.6812626,10.3644095 C11.4138136,10.5367706 11.2801336,10.7625637 11.2801336,11.0417887 C11.2801336,11.3192901 11.4387174,11.5275886 11.755974,11.6665978 C12.0731416,11.8056071 12.5834026,11.9492701 13.286668,12.0975006 C13.9572027,12.2310805 14.6168865,12.4119735 15.2602938,12.6387146 C15.782651,12.8339997 16.2472846,13.151058 16.6131036,13.5617084 C16.9943096,13.9839932 17.1850015,14.558559 17.1850015,15.2853197 C17.1898044,15.6794234 17.1142925,16.0705108 16.9627351,16.4362611 C16.8111777,16.8020114 16.5865099,17.1351855 16.3018062,17.416565 L16.3018062,17.416565 Z" id="Path" fill="#FFFFFF"></path>
            </g>
            <g id="Hand_2_" transform="translate(97.875806, 26.587151)" fill-rule="nonzero">
                <path d="M19.7789858,44.5656639 C22.4366996,41.7121186 25.0664375,38.8305973 27.4443919,35.7532445 C27.3604641,34.7740868 27.1926085,34.1026644 27.1926085,34.1026644 C27.1926085,34.1026644 24.0872798,24.2551354 19.7510099,11.5260851 C15.6665234,-0.447614955 13.3445208,1.53867641 0.111903739,1.76248388 C0.111903739,1.76248388 0.0559518694,2.57378599 -2.84217094e-14,3.97258272 C8.3927804,16.5337774 15.1349807,30.1860335 19.7789858,44.5656639 Z" id="XMLID_171_" fill="#BCD7FD"></path>
                <path d="M45.6847013,2.34997851 C45.7126773,1.59462828 45.0972067,1.06308552 44.7335196,1.34284486 C44.8174474,0.755350236 43.69841,-0.0559518694 43.3626988,0.531542759 C43.250795,0.0559518694 42.5793726,-0.335711216 41.8519983,0.615470563 C41.4323593,1.14701332 41.0686721,2.65771379 40.8728406,3.52496777 C40.704985,3.77675118 38.9984529,5.20352385 38.4948861,5.65113881 C37.8794156,5.76304254 37.9073915,2.34997851 37.9353674,1.67855608 C37.9913193,0.587494628 37.0681135,-0.111903739 36.7883541,0.531542759 C36.2847873,1.65058015 35.6972927,3.41306403 35.6133648,4.64400516 C35.557413,5.20352385 35.2776536,7.63743017 33.7669532,9.48384186 C31.8925655,10.9945423 29.7384186,12.9248818 27.6122475,14.9111732 C27.8920069,20.9539751 28.7312849,26.9128492 30.0741298,32.7877954 C34.9699183,25.9336914 39.6139235,17.988526 41.7121186,13.5123765 C41.9079502,13.3165449 44.4537602,9.70764933 44.537688,9.62372153 C45.6287495,8.11302106 46.5519553,5.79101848 46.663859,3.74877525 C46.5799312,2.93747314 46.1882682,2.07021917 45.6847013,2.34997851 Z" id="XMLID_173_" fill="#FFA79B"></path>
                <path d="M41.7400945,5.59518694 C41.6002149,5.73506661 41.3484315,5.53923507 41.4883111,5.39935539 C42.6633004,4.1963902 43.250795,2.62973786 43.1388913,0.979157714 C43.1109153,0.783326171 43.4466266,0.727374302 43.4746025,0.951181779 C43.5585303,2.65771379 42.9710357,4.33626988 41.7400945,5.59518694 Z" id="XMLID_114_" fill="#042C5C"></path>
                <path d="M43.1388913,6.2106575 C44.0620971,4.86781263 44.5097121,3.35711216 44.4257843,1.76248388 C44.4257843,1.53867641 44.7335196,1.56665234 44.7614955,1.79045982 C44.8174474,3.4690159 44.3418565,5.03566824 43.4186506,6.40648904 C43.3067469,6.57434465 43.0269875,6.37851311 43.1388913,6.2106575 Z" id="XMLID_300_" fill="#042C5C"></path>
                <path d="M44.2299527,6.96600774 C45.0132789,5.65113881 45.4888698,4.25234207 45.6287495,2.71366566 C45.6567254,2.48985819 45.9644607,2.54581006 45.9644607,2.76961753 C45.824581,4.36424581 45.3489901,5.81899441 44.5097121,7.16183928 C44.3698324,7.35767082 44.118049,7.16183928 44.2299527,6.96600774 Z" id="XMLID_299_" fill="#042C5C"></path>
                <path d="M29.5146111,13.1207134 C25.8777396,16.4218737 22.1009884,20.142673 19.8349377,22.2968199 C15.2189085,26.7170176 15.6105716,45.1251826 15.6105716,45.1251826 C19.6111302,47.6989686 24.7587022,44.7894714 38.0752471,24.84263 C35.2496777,21.849205 31.8086377,16.5337774 29.5146111,13.1207134 Z" id="XMLID_298_" fill="#BCD7FD"></path>
                <path d="M35.5014611,6.49041685 C35.4734852,6.2945853 35.1657499,6.26660937 35.1657499,6.49041685 C35.2776536,7.69338204 33.9907606,8.70051569 33.2633863,9.51181779 C32.4800602,10.3790718 31.7247099,11.2463257 30.9413838,12.1135797 C30.8015041,12.2814353 31.0253116,12.5052428 31.1651912,12.3373872 C32.1443489,11.2183498 33.1235067,10.1272884 34.1026644,9.00825097 C34.7740868,8.3088526 35.5853889,7.55350236 35.5014611,6.49041685 Z" id="XMLID_297_" fill="#042C5C"></path>
                <path d="M23.0241942,20.8420713 C22.8843146,20.5063601 22.7444349,20.142673 22.6045552,19.8069618 C22.5486034,19.695058 22.5206274,19.5831543 22.4646755,19.4712505 C21.3456382,16.6736571 20.2266008,13.8760636 19.1075634,11.0784701 C19.0236356,10.8826386 19.3593468,10.7987108 19.4152987,10.9945423 C20.5063601,13.7361839 21.5974216,16.5058015 22.716459,19.2474431 C22.7724108,19.3593468 22.8003868,19.4712505 22.8563386,19.5831543 C23.0241942,19.9748174 23.1640739,20.3664804 23.3319295,20.7861195 C23.4158573,20.9539751 23.108122,21.0379029 23.0241942,20.8420713 Z" id="XMLID_294_" fill="#FFFFFF"></path>
                <path d="M24.9545337,17.6248388 C24.2551354,18.2682853 23.555737,18.9117318 22.8563386,19.5551783 L22.6045552,19.7789858 C22.5486034,19.6670821 22.5206274,19.5551783 22.4646755,19.4432746 C22.5486034,19.3593468 22.6325312,19.3033949 22.716459,19.2194671 C23.3878814,18.6039966 24.0593038,17.988526 24.7027503,17.3730554 C24.8985819,17.2611517 25.1223893,17.4849592 24.9545337,17.6248388 Z" id="XMLID_111_" fill="#FFFFFF"></path>
            </g>
        </g>
    </g>
</svg>